<?xml version="1.0" encoding="utf-8"?>
<!-- Generator: Adobe Illustrator 25.4.1, SVG Export Plug-In . SVG Version: 6.00 Build 0)  -->
<svg version="1.1" id="Layer_1" xmlns="http://www.w3.org/2000/svg" xmlns:xlink="http://www.w3.org/1999/xlink" x="0px" y="0px"
	 viewBox="0 0 777.6 777.6" style="enable-background:new 0 0 777.6 777.6;" xml:space="preserve">
<style type="text/css">
	.st0{fill:#0E8944;stroke:#FFFFFF;stroke-width:7.3969;stroke-miterlimit:10;}
	.st1{fill:#EBB940;}
	.st2{fill:#3F7A5E;}
	.st3{fill:#E82A79;}
	.st4{fill:#D0662A;}
	.st5{fill:#FA5A47;}
	.st6{fill:#9A549B;}
	.st7{fill:#7038C0;}
	.st8{fill:#28A7AD;}
	.st9{enable-background:new    ;}
	.st10{fill:#FFFFFF;}
	.st11{fill:#0E8944;}
</style>
<line class="st0" x1="388.8" y1="345.4" x2="388.8" y2="145.5"/>
<circle class="st1" cx="388.8" cy="89.1" r="85.4"/>
<line class="st0" x1="358.2" y1="358.2" x2="216.7" y2="216.7"/>
<circle class="st2" cx="176.9" cy="176.9" r="85.4"/>
<line class="st0" x1="345.4" y1="388.8" x2="145.5" y2="388.8"/>
<circle class="st3" cx="89.1" cy="388.8" r="85.4"/>
<line class="st0" x1="358.2" y1="419.4" x2="216.7" y2="560.8"/>
<circle class="st4" cx="176.9" cy="600.7" r="85.4"/>
<line class="st0" x1="388.8" y1="432.1" x2="388.8" y2="632.1"/>
<circle class="st5" cx="388.8" cy="688.4" r="85.4"/>
<line class="st0" x1="419.4" y1="419.4" x2="560.8" y2="560.8"/>
<circle class="st6" cx="600.7" cy="600.7" r="85.4"/>
<line class="st0" x1="432.1" y1="388.8" x2="632.1" y2="388.8"/>
<ellipse transform="matrix(0.7071 -0.7071 0.7071 0.7071 -73.3002 600.6315)" class="st7" cx="688.4" cy="388.8" rx="85.4" ry="85.4"/>
<line class="st0" x1="419.4" y1="358.2" x2="560.8" y2="216.7"/>
<circle class="st8" cx="600.7" cy="176.9" r="85.4"/>
<g class="st9">
	<path class="st10" d="M330.1,95.5l5.2-15.1h3.9l5.2,15.1h-3.2l-4-12.7l0,0l-4,12.7H330.1z M333.1,92.1v-2.5h8.3v2.5H333.1z"/>
	<path class="st10" d="M350.3,95.7c-1.4,0-2.4-0.3-3-0.8c-0.6-0.6-0.9-1.5-0.9-2.7V87h-2.3v-2.2h2.3v-3.5h2.9v3.5h3.5V87h-3.5v4.8
		c0,0.6,0.1,1,0.4,1.3c0.2,0.2,0.7,0.4,1.2,0.4c0.3,0,0.5,0,0.8-0.1c0.3,0,0.5-0.1,0.8-0.2l0.3,2.3c-0.4,0.1-0.8,0.2-1.2,0.3
		C351.1,95.7,350.7,95.7,350.3,95.7z"/>
	<path class="st10" d="M360.2,95.7c-1.4,0-2.4-0.3-3-0.8c-0.6-0.6-0.9-1.5-0.9-2.7V87H354v-2.2h2.3v-3.5h2.9v3.5h3.5V87h-3.5v4.8
		c0,0.6,0.1,1,0.4,1.3c0.2,0.2,0.7,0.4,1.2,0.4c0.3,0,0.5,0,0.8-0.1c0.3,0,0.5-0.1,0.8-0.2l0.3,2.3c-0.4,0.1-0.8,0.2-1.2,0.3
		C361,95.7,360.6,95.7,360.2,95.7z"/>
	<path class="st10" d="M369.9,95.7c-1.9,0-3.3-0.5-4.3-1.5s-1.5-2.3-1.5-4.1c0-1.7,0.5-3.1,1.4-4.1c1-1,2.3-1.5,3.9-1.5
		s2.9,0.5,3.7,1.4c0.9,0.9,1.3,2.3,1.3,4c0,0.2,0,0.4,0,0.7c0,0.2,0,0.4,0,0.6h-8.8v-2h6.6l-0.4,0.6c0-1.1-0.2-1.9-0.6-2.4
		s-1-0.8-1.8-0.8c-0.9,0-1.5,0.3-1.9,0.8s-0.6,1.4-0.6,2.4v0.8c0,0.9,0.3,1.6,0.8,2.1s1.3,0.7,2.3,0.7c0.6,0,1.3-0.1,1.9-0.2
		c0.6-0.2,1.2-0.4,1.7-0.7l0.4,2.2c-0.5,0.3-1.1,0.5-1.8,0.7C371.4,95.7,370.7,95.7,369.9,95.7z"/>
	<path class="st10" d="M376.7,95.5V84.8h2.7v1.4l0,0c0.5-0.6,1-1,1.6-1.3s1.3-0.4,2-0.4c1.3,0,2.3,0.4,2.8,1.1
		c0.6,0.8,0.9,2,0.9,3.6v6.2H384v-5.7c0-1-0.1-1.8-0.4-2.3s-0.8-0.7-1.4-0.7c-0.5,0-0.9,0.1-1.3,0.4c-0.4,0.2-0.7,0.6-0.9,1
		s-0.3,0.8-0.3,1.3v6L376.7,95.5L376.7,95.5z"/>
	<path class="st10" d="M393.2,95.7c-1.4,0-2.5-0.5-3.3-1.5s-1.2-2.4-1.2-4.1s0.4-3.1,1.2-4.1c0.8-1,1.9-1.5,3.3-1.5
		c0.7,0,1.3,0.1,1.9,0.4c0.6,0.2,1.1,0.6,1.5,1.1l0,0v-5.6h2.8v15.1h-2.7v-1.3l0,0c-0.4,0.5-0.9,0.8-1.5,1.1
		C394.6,95.6,393.9,95.7,393.2,95.7z M394,93.5c0.5,0,0.9-0.1,1.3-0.3s0.7-0.5,0.9-0.8c0.2-0.4,0.3-0.8,0.3-1.2v-1.9
		c0-0.5-0.1-0.9-0.3-1.2c-0.2-0.4-0.5-0.6-0.9-0.8S394.5,87,394,87c-0.8,0-1.4,0.3-1.9,0.9c-0.4,0.6-0.7,1.4-0.7,2.5
		s0.2,1.9,0.7,2.5C392.6,93.2,393.2,93.5,394,93.5z"/>
	<path class="st10" d="M404.9,95.7c-1.1,0-1.9-0.3-2.5-0.9s-0.9-1.4-0.9-2.4c0-1.2,0.5-2.2,1.5-2.9c1-0.7,2.4-1,4.2-1h1.4
		c0-0.7-0.2-1.1-0.5-1.4s-0.9-0.4-1.8-0.4c-0.7,0-1.3,0.1-2,0.2c-0.6,0.2-1.3,0.4-2,0.8l-0.3-2.2c0.7-0.3,1.4-0.6,2.2-0.8
		c0.8-0.2,1.6-0.2,2.5-0.2c1.1,0,2.1,0.1,2.8,0.4c0.7,0.3,1.2,0.7,1.5,1.3c0.3,0.6,0.5,1.4,0.5,2.4v6.8h-2.7v-1.2l0,0
		c-0.4,0.4-0.9,0.8-1.6,1.1C406.3,95.6,405.6,95.7,404.9,95.7z M406,93.6c0.5,0,0.9-0.1,1.3-0.2s0.7-0.4,0.9-0.7
		c0.2-0.3,0.3-0.6,0.3-1v-1.2h-1c-1.1,0-2,0.1-2.5,0.4c-0.6,0.3-0.8,0.7-0.8,1.3c0,0.4,0.2,0.8,0.5,1C405,93.5,405.4,93.6,406,93.6z
		"/>
	<path class="st10" d="M414,95.5V84.8h2.7v1.4l0,0c0.5-0.6,1-1,1.6-1.3s1.3-0.4,2-0.4c1.3,0,2.3,0.4,2.8,1.1c0.6,0.8,0.9,2,0.9,3.6
		v6.2h-2.8v-5.7c0-1-0.1-1.8-0.4-2.3s-0.8-0.7-1.4-0.7c-0.5,0-0.9,0.1-1.3,0.4c-0.4,0.2-0.7,0.6-0.9,1s-0.3,0.8-0.3,1.3v6L414,95.5
		L414,95.5z"/>
	<path class="st10" d="M432,95.7c-1.3,0-2.3-0.2-3.2-0.7c-0.9-0.4-1.6-1.1-2.1-1.9s-0.7-1.8-0.7-3s0.2-2.2,0.7-3s1.2-1.5,2.1-1.9
		s2-0.7,3.2-0.7c0.6,0,1.2,0.1,1.8,0.2c0.6,0.1,1.1,0.3,1.6,0.6l-0.5,2.2c-0.5-0.3-0.9-0.5-1.4-0.6c-0.4-0.1-0.9-0.2-1.3-0.2
		c-1,0-1.9,0.3-2.4,0.9c-0.6,0.6-0.9,1.4-0.9,2.5s0.3,1.9,0.9,2.5s1.4,0.9,2.4,0.9c0.4,0,0.9-0.1,1.3-0.2s0.9-0.3,1.4-0.6l0.5,2.2
		c-0.5,0.3-1.1,0.5-1.6,0.6C433.2,95.7,432.6,95.7,432,95.7z"/>
	<path class="st10" d="M442.9,95.7c-1.9,0-3.3-0.5-4.3-1.5s-1.5-2.3-1.5-4.1c0-1.7,0.5-3.1,1.4-4.1c1-1,2.3-1.5,3.9-1.5
		s2.9,0.5,3.7,1.4c0.9,0.9,1.3,2.3,1.3,4c0,0.2,0,0.4,0,0.7c0,0.2,0,0.4,0,0.6h-8.8v-2h6.6l-0.4,0.6c0-1.1-0.2-1.9-0.6-2.4
		s-1-0.8-1.8-0.8c-0.9,0-1.5,0.3-1.9,0.8s-0.6,1.4-0.6,2.4v0.8c0,0.9,0.3,1.6,0.8,2.1s1.3,0.7,2.3,0.7c0.6,0,1.3-0.1,1.9-0.2
		c0.6-0.2,1.2-0.4,1.7-0.7l0.4,2.2c-0.5,0.3-1.1,0.5-1.8,0.7C444.4,95.7,443.6,95.7,442.9,95.7z"/>
</g>
<g class="st9">
	<path class="st10" d="M572.5,169.8v-15.1h3v12.6h7.9v2.5H572.5z"/>
	<path class="st10" d="M589.8,170c-1.9,0-3.3-0.5-4.3-1.5s-1.5-2.3-1.5-4.1c0-1.7,0.5-3.1,1.4-4.1c1-1,2.3-1.5,3.9-1.5
		c1.6,0,2.9,0.5,3.7,1.4c0.9,0.9,1.3,2.3,1.3,4c0,0.2,0,0.4,0,0.7c0,0.2,0,0.4,0,0.6h-8.8v-2h6.6l-0.4,0.6c0-1.1-0.2-1.9-0.6-2.4
		c-0.4-0.5-1-0.8-1.8-0.8c-0.9,0-1.5,0.3-1.9,0.8s-0.6,1.4-0.6,2.4v0.8c0,0.9,0.3,1.6,0.8,2.1s1.3,0.7,2.3,0.7
		c0.6,0,1.3-0.1,1.9-0.2c0.6-0.2,1.2-0.4,1.7-0.7l0.4,2.2c-0.5,0.3-1.1,0.5-1.8,0.7C591.3,169.9,590.6,170,589.8,170z"/>
	<path class="st10" d="M599.2,170c-1.1,0-1.9-0.3-2.5-0.9c-0.6-0.6-0.9-1.4-0.9-2.4c0-1.2,0.5-2.2,1.5-2.9s2.4-1,4.2-1h1.4
		c0-0.7-0.2-1.1-0.5-1.4s-0.9-0.4-1.8-0.4c-0.7,0-1.3,0.1-2,0.2c-0.6,0.2-1.3,0.4-2,0.8l-0.3-2.2c0.7-0.3,1.4-0.6,2.2-0.8
		s1.6-0.2,2.5-0.2c1.1,0,2.1,0.1,2.8,0.4c0.7,0.3,1.2,0.7,1.5,1.3s0.5,1.4,0.5,2.4v6.8H603v-1.2l0,0c-0.4,0.4-0.9,0.8-1.6,1.1
		C600.6,169.8,599.9,170,599.2,170z M600.3,167.8c0.5,0,0.9-0.1,1.3-0.2s0.7-0.4,0.9-0.7s0.3-0.6,0.3-1v-1.2h-1
		c-1.1,0-2,0.1-2.5,0.4c-0.6,0.3-0.8,0.7-0.8,1.3c0,0.4,0.2,0.8,0.5,1C599.3,167.7,599.7,167.8,600.3,167.8z"/>
	<path class="st10" d="M610.3,169.8l-3.6-10.8h3l2.5,8.9l0,0l2.5-8.9h3l-3.6,10.8H610.3z"/>
	<path class="st10" d="M624.3,170c-1.9,0-3.3-0.5-4.3-1.5s-1.5-2.3-1.5-4.1c0-1.7,0.5-3.1,1.4-4.1c1-1,2.3-1.5,3.9-1.5
		c1.6,0,2.9,0.5,3.7,1.4c0.9,0.9,1.3,2.3,1.3,4c0,0.2,0,0.4,0,0.7c0,0.2,0,0.4,0,0.6H620v-2h6.6l-0.4,0.6c0-1.1-0.2-1.9-0.6-2.4
		c-0.4-0.5-1-0.8-1.8-0.8c-0.9,0-1.5,0.3-1.9,0.8s-0.6,1.4-0.6,2.4v0.8c0,0.9,0.3,1.6,0.8,2.1s1.3,0.7,2.3,0.7
		c0.6,0,1.3-0.1,1.9-0.2c0.6-0.2,1.2-0.4,1.7-0.7l0.4,2.2c-0.5,0.3-1.1,0.5-1.8,0.7C625.8,169.9,625.1,170,624.3,170z"/>
</g>
<g class="st9">
	<path class="st10" d="M535.3,194.6l1.8-15.1h3.5l2.9,10.2l0,0l2.9-10.2h3.5l1.8,15.1h-2.9l-1-10.9l0,0l-2.9,9.3h-3l-2.9-9.3l0,0
		l-1,10.9H535.3z"/>
	<path class="st10" d="M557,194.8c-1.1,0-1.9-0.3-2.5-0.9s-0.9-1.4-0.9-2.4c0-1.2,0.5-2.2,1.5-2.9s2.4-1,4.2-1h1.4
		c0-0.7-0.2-1.1-0.5-1.4c-0.3-0.3-0.9-0.4-1.8-0.4c-0.7,0-1.3,0.1-2,0.2c-0.6,0.2-1.3,0.4-2,0.8l-0.3-2.2c0.7-0.3,1.4-0.6,2.2-0.8
		s1.6-0.2,2.5-0.2c1.1,0,2.1,0.1,2.8,0.4s1.2,0.7,1.5,1.3s0.5,1.4,0.5,2.4v6.8h-2.7v-1.2l0,0c-0.4,0.4-0.9,0.8-1.6,1.1
		C558.4,194.7,557.7,194.8,557,194.8z M558,192.7c0.5,0,0.9-0.1,1.3-0.2s0.7-0.4,0.9-0.7s0.3-0.6,0.3-1v-1.2h-1
		c-1.1,0-2,0.1-2.5,0.4c-0.6,0.3-0.8,0.7-0.8,1.3c0,0.4,0.2,0.8,0.5,1S557.5,192.7,558,192.7z"/>
	<path class="st10" d="M566,194.6v-10.8h2.7v1.4l0,0c0.5-0.6,1-1,1.6-1.3s1.3-0.4,2-0.4c1.3,0,2.3,0.4,2.8,1.1
		c0.6,0.8,0.9,2,0.9,3.6v6.2h-2.8V189c0-1-0.1-1.8-0.4-2.3c-0.3-0.5-0.8-0.7-1.4-0.7c-0.5,0-0.9,0.1-1.3,0.4c-0.4,0.2-0.7,0.6-0.9,1
		s-0.3,0.8-0.3,1.3v6L566,194.6L566,194.6z"/>
	<path class="st10" d="M581.3,194.8c-1.1,0-1.9-0.3-2.5-0.9c-0.6-0.6-0.9-1.4-0.9-2.4c0-1.2,0.5-2.2,1.5-2.9s2.4-1,4.2-1h1.4
		c0-0.7-0.2-1.1-0.5-1.4c-0.3-0.3-0.9-0.4-1.8-0.4c-0.7,0-1.3,0.1-2,0.2c-0.6,0.2-1.3,0.4-2,0.8l-0.3-2.2c0.7-0.3,1.4-0.6,2.2-0.8
		s1.6-0.2,2.5-0.2c1.1,0,2.1,0.1,2.8,0.4c0.7,0.3,1.2,0.7,1.5,1.3s0.5,1.4,0.5,2.4v6.8h-2.7v-1.2l0,0c-0.4,0.4-0.9,0.8-1.6,1.1
		C582.7,194.7,582,194.8,581.3,194.8z M582.4,192.7c0.5,0,0.9-0.1,1.3-0.2s0.7-0.4,0.9-0.7s0.3-0.6,0.3-1v-1.2h-1
		c-1.1,0-2,0.1-2.5,0.4c-0.6,0.3-0.8,0.7-0.8,1.3c0,0.4,0.2,0.8,0.5,1S581.8,192.7,582.4,192.7z"/>
	<path class="st10" d="M594.6,199.2c-0.9,0-1.7-0.1-2.4-0.3s-1.3-0.5-1.9-0.9l0.5-2.2c0.5,0.4,1.1,0.7,1.7,0.8
		c0.6,0.2,1.2,0.3,1.8,0.3c1.1,0,2-0.3,2.5-0.9c0.5-0.6,0.8-1.5,0.8-2.7v-0.6l0,0c-0.4,0.5-0.9,0.8-1.5,1s-1.2,0.3-1.9,0.3
		c-1.4,0-2.5-0.5-3.3-1.4s-1.2-2.2-1.2-3.9s0.4-3,1.2-3.9s1.9-1.4,3.3-1.4c0.7,0,1.3,0.1,1.9,0.4c0.6,0.2,1.1,0.6,1.5,1l0,0v-1.2
		h2.7v9.5c0,1.9-0.5,3.4-1.5,4.3C598,198.7,596.5,199.2,594.6,199.2z M595,191.9c0.5,0,1-0.1,1.3-0.3c0.4-0.2,0.7-0.4,0.9-0.7
		s0.3-0.7,0.3-1.1V188c0-0.4-0.1-0.8-0.3-1.1s-0.5-0.6-0.9-0.7c-0.4-0.2-0.8-0.3-1.3-0.3c-0.8,0-1.4,0.3-1.9,0.8
		c-0.4,0.5-0.7,1.3-0.7,2.2c0,1,0.2,1.7,0.7,2.2C593.6,191.7,594.2,191.9,595,191.9z"/>
	<path class="st10" d="M608.4,194.8c-1.9,0-3.3-0.5-4.3-1.5s-1.5-2.3-1.5-4.1c0-1.7,0.5-3.1,1.4-4.1c1-1,2.3-1.5,3.9-1.5
		c1.6,0,2.9,0.5,3.7,1.4c0.9,0.9,1.3,2.3,1.3,4c0,0.2,0,0.4,0,0.7c0,0.2,0,0.4,0,0.6h-8.8v-2h6.6l-0.4,0.6c0-1.1-0.2-1.9-0.6-2.4
		c-0.4-0.5-1-0.8-1.8-0.8c-0.9,0-1.5,0.3-1.9,0.8s-0.6,1.4-0.6,2.4v0.8c0,0.9,0.3,1.6,0.8,2.1s1.3,0.7,2.3,0.7
		c0.6,0,1.3-0.1,1.9-0.2c0.6-0.2,1.2-0.4,1.7-0.7l0.4,2.2c-0.5,0.3-1.1,0.5-1.8,0.7C609.9,194.7,609.2,194.8,608.4,194.8z"/>
	<path class="st10" d="M615.2,194.6v-10.8h2.7v1.4l0,0c0.4-0.6,0.8-1,1.4-1.2s1.1-0.4,1.8-0.4s1.3,0.1,1.8,0.4
		c0.5,0.3,0.9,0.7,1.1,1.2l0,0c0.4-0.6,0.9-1,1.4-1.3c0.6-0.3,1.2-0.4,2-0.4c1.2,0,2,0.3,2.5,1s0.8,1.8,0.8,3.3v6.7h-2.8v-6.3
		c0-0.8-0.1-1.4-0.4-1.8c-0.2-0.4-0.6-0.6-1.1-0.6c-0.6,0-1.2,0.2-1.5,0.7s-0.5,1.2-0.5,2v5.9h-2.8V188c0-0.6-0.1-1.1-0.4-1.5
		c-0.3-0.3-0.6-0.5-1.1-0.5c-0.6,0-1.1,0.3-1.5,0.8s-0.6,1.2-0.6,2v5.9L615.2,194.6L615.2,194.6z"/>
	<path class="st10" d="M638.3,194.8c-1.9,0-3.3-0.5-4.3-1.5s-1.5-2.3-1.5-4.1c0-1.7,0.5-3.1,1.4-4.1c1-1,2.3-1.5,3.9-1.5
		c1.6,0,2.9,0.5,3.7,1.4c0.9,0.9,1.3,2.3,1.3,4c0,0.2,0,0.4,0,0.7c0,0.2,0,0.4,0,0.6H634v-2h6.6l-0.4,0.6c0-1.1-0.2-1.9-0.6-2.4
		c-0.4-0.5-1-0.8-1.8-0.8c-0.9,0-1.5,0.3-1.9,0.8s-0.6,1.4-0.6,2.4v0.8c0,0.9,0.3,1.6,0.8,2.1s1.3,0.7,2.3,0.7
		c0.6,0,1.3-0.1,1.9-0.2c0.6-0.2,1.2-0.4,1.7-0.7l0.4,2.2c-0.5,0.3-1.1,0.5-1.8,0.7C639.8,194.7,639,194.8,638.3,194.8z"/>
	<path class="st10" d="M645,194.6v-10.8h2.7v1.4l0,0c0.5-0.6,1-1,1.6-1.3s1.3-0.4,2-0.4c1.3,0,2.3,0.4,2.8,1.1
		c0.6,0.8,0.9,2,0.9,3.6v6.2h-2.8V189c0-1-0.1-1.8-0.4-2.3c-0.3-0.5-0.8-0.7-1.4-0.7c-0.5,0-0.9,0.1-1.3,0.4c-0.4,0.2-0.7,0.6-0.9,1
		s-0.3,0.8-0.3,1.3v6L645,194.6L645,194.6z"/>
	<path class="st10" d="M662.5,194.8c-1.4,0-2.4-0.3-3-0.8c-0.6-0.6-0.9-1.5-0.9-2.7v-5.2h-2.3v-2.2h2.3v-3.5h2.9v3.5h3.5v2.2h-3.5
		v4.8c0,0.6,0.1,1,0.4,1.3c0.2,0.2,0.7,0.4,1.2,0.4c0.3,0,0.5,0,0.8-0.1c0.3,0,0.5-0.1,0.8-0.2l0.3,2.3c-0.4,0.1-0.8,0.2-1.2,0.3
		C663.4,194.8,663,194.8,662.5,194.8z"/>
</g>
<g class="st9">
	<path class="st10" d="M655.5,379c0.5-0.1,1.1-0.1,1.6-0.2s1.1-0.1,1.6-0.1s1,0,1.3,0c2.3,0,4,0.4,5.1,1.3s1.7,2.2,1.7,4
		s-0.5,3.1-1.6,4s-2.6,1.4-4.7,1.4c-0.5,0-1,0-1.6-0.1c-0.6,0-1.2-0.1-2-0.2v-2.5c0.7,0.1,1.3,0.1,1.8,0.2c0.5,0,1,0.1,1.3,0.1
		c1.3,0,2.3-0.2,2.9-0.7c0.6-0.5,0.9-1.2,0.9-2.2s-0.3-1.8-0.9-2.2c-0.6-0.5-1.5-0.7-2.9-0.7c-0.4,0-0.9,0-1.4,0.1
		c-0.5,0-1.1,0.1-1.7,0.2l1.4-1.5V394h-2.9v-15H655.5z"/>
	<path class="st10" d="M670.7,394.3c-1.1,0-1.9-0.3-2.5-0.9s-0.9-1.4-0.9-2.4c0-1.2,0.5-2.2,1.5-2.9c1-0.7,2.4-1,4.2-1h1.4
		c0-0.7-0.2-1.1-0.5-1.4s-0.9-0.4-1.8-0.4c-0.7,0-1.3,0.1-2,0.2s-1.3,0.4-2,0.8l-0.3-2.2c0.7-0.3,1.4-0.6,2.2-0.8
		c0.8-0.2,1.6-0.2,2.5-0.2c1.1,0,2.1,0.1,2.8,0.4s1.2,0.7,1.5,1.3c0.3,0.6,0.5,1.4,0.5,2.4v6.8h-2.7v-1.2l0,0
		c-0.4,0.4-0.9,0.8-1.6,1.1C672.1,394.2,671.4,394.3,670.7,394.3z M671.7,392.1c0.5,0,0.9-0.1,1.3-0.2c0.4-0.2,0.7-0.4,0.9-0.7
		c0.2-0.3,0.3-0.6,0.3-1V389h-1c-1.1,0-2,0.1-2.5,0.4c-0.6,0.3-0.8,0.7-0.8,1.3c0,0.4,0.2,0.8,0.5,1
		C670.7,392,671.2,392.1,671.7,392.1z"/>
	<path class="st10" d="M679.1,396.6c0.9-0.1,1.5-0.3,2.1-0.6c0.5-0.3,0.9-0.6,1.2-1.1s0.5-1.1,0.6-1.9l0.1,2l-4.9-11.7h3l2.8,8l0,0
		l2.4-8h3.1l-4.1,10.7c-0.4,1-0.8,1.8-1.3,2.5c-0.5,0.6-1.1,1.2-1.8,1.5c-0.7,0.4-1.6,0.6-2.6,0.8L679.1,396.6z"/>
	<path class="st10" d="M691.2,394.1v-10.8h2.7v2h0.1c0.4-0.5,0.8-0.9,1.3-1.2c0.5-0.3,1-0.6,1.6-0.7c0.6-0.2,1.2-0.3,1.8-0.3v2.4
		c-0.9,0-1.6,0.2-2.3,0.5s-1.3,0.7-1.7,1.3c-0.4,0.5-0.6,1.1-0.6,1.8v5L691.2,394.1L691.2,394.1z"/>
	<path class="st10" d="M704.7,394.3c-1.1,0-2.1-0.2-2.9-0.7c-0.8-0.5-1.5-1.1-1.9-1.9s-0.7-1.8-0.7-3c0-1.1,0.2-2.1,0.7-3
		c0.4-0.8,1.1-1.5,1.9-1.9c0.8-0.5,1.8-0.7,2.9-0.7c1.1,0,2.1,0.2,3,0.7c0.8,0.5,1.5,1.1,1.9,1.9s0.7,1.8,0.7,3c0,1.1-0.2,2.1-0.7,3
		c-0.4,0.8-1.1,1.5-1.9,1.9C706.8,394.1,705.8,394.3,704.7,394.3z M704.7,392.1c0.9,0,1.5-0.3,2-0.9s0.7-1.4,0.7-2.5
		s-0.2-1.9-0.7-2.5s-1.1-0.9-2-0.9s-1.5,0.3-2,0.9s-0.7,1.4-0.7,2.5s0.2,1.9,0.7,2.5C703.2,391.8,703.9,392.1,704.7,392.1z"/>
	<path class="st10" d="M712.5,394.1V379h2.9v15.1H712.5z"/>
	<path class="st10" d="M718.5,394.1V379h2.9v15.1H718.5z"/>
</g>
<g class="st9">
	<path class="st10" d="M365.1,681.3v-15.1h10.6v2.5H368v4h7.3v2.5H368v6.1H365.1z"/>
	<path class="st10" d="M380.8,681.5c-1.3,0-2.2-0.4-2.8-1.1c-0.6-0.8-0.9-2-0.9-3.6v-6.2h2.8v5.7c0,1,0.1,1.8,0.4,2.3
		s0.7,0.7,1.3,0.7c0.5,0,0.9-0.1,1.3-0.4c0.4-0.2,0.7-0.6,0.9-1s0.3-0.8,0.3-1.3v-6h2.9v10.8h-2.7v-1.5l0,0c-0.5,0.6-1,1-1.6,1.3
		C382.2,681.4,381.5,681.5,380.8,681.5z"/>
	<path class="st10" d="M390,681.3v-10.8h2.7v1.4l0,0c0.5-0.6,1-1,1.6-1.3s1.3-0.4,2-0.4c1.3,0,2.3,0.4,2.8,1.1
		c0.6,0.8,0.9,2,0.9,3.6v6.2h-2.8v-5.7c0-1-0.1-1.8-0.4-2.3s-0.8-0.7-1.4-0.7c-0.5,0-0.9,0.1-1.3,0.4c-0.4,0.2-0.7,0.6-0.9,1
		c-0.2,0.4-0.3,0.8-0.3,1.3v6H390V681.3z"/>
	<path class="st10" d="M406.5,681.5c-1.4,0-2.5-0.5-3.3-1.5s-1.2-2.4-1.2-4.1s0.4-3.1,1.2-4.1c0.8-1,1.9-1.5,3.3-1.5
		c0.7,0,1.3,0.1,1.9,0.4c0.6,0.2,1.1,0.6,1.5,1.1l0,0v-5.6h2.8v15.1H410V680l0,0c-0.4,0.5-0.9,0.8-1.5,1.1
		C407.9,681.4,407.2,681.5,406.5,681.5z M407.3,679.2c0.5,0,0.9-0.1,1.3-0.3s0.7-0.5,0.9-0.8c0.2-0.4,0.3-0.8,0.3-1.2V675
		c0-0.5-0.1-0.9-0.3-1.2c-0.2-0.4-0.5-0.6-0.9-0.8s-0.8-0.3-1.3-0.3c-0.8,0-1.4,0.3-1.9,0.9c-0.4,0.6-0.7,1.4-0.7,2.5
		s0.2,1.9,0.7,2.5C405.9,678.9,406.5,679.2,407.3,679.2z"/>
</g>
<g class="st9">
	<path class="st10" d="M323.9,706.2l1.8-15.1h3.5l2.9,10.2l0,0l2.9-10.2h3.5l1.8,15.1h-2.9l-1-10.9l0,0l-2.9,9.3h-3l-2.9-9.3l0,0
		l-1,10.9H323.9z"/>
	<path class="st10" d="M345.6,706.4c-1.1,0-1.9-0.3-2.5-0.9s-0.9-1.4-0.9-2.4c0-1.2,0.5-2.2,1.5-2.9s2.4-1,4.2-1h1.4
		c0-0.7-0.2-1.1-0.5-1.4c-0.3-0.3-0.9-0.4-1.8-0.4c-0.7,0-1.3,0.1-2,0.2s-1.3,0.4-2,0.8l-0.3-2.2c0.7-0.3,1.4-0.6,2.2-0.8
		c0.8-0.2,1.6-0.2,2.5-0.2c1.1,0,2.1,0.1,2.8,0.4c0.7,0.3,1.2,0.7,1.5,1.3s0.5,1.4,0.5,2.4v6.8h-2.7v-1.2l0,0
		c-0.4,0.4-0.9,0.8-1.6,1.1C347,706.2,346.3,706.4,345.6,706.4z M346.7,704.2c0.5,0,0.9-0.1,1.3-0.2c0.4-0.2,0.7-0.4,0.9-0.7
		c0.2-0.3,0.3-0.6,0.3-1v-1.2h-1c-1.1,0-2,0.1-2.5,0.4c-0.6,0.3-0.8,0.7-0.8,1.3c0,0.4,0.2,0.8,0.5,1
		C345.6,704.1,346.1,704.2,346.7,704.2z"/>
	<path class="st10" d="M354.6,706.2v-10.8h2.7v1.4l0,0c0.5-0.6,1-1,1.6-1.3s1.3-0.4,2-0.4c1.3,0,2.3,0.4,2.8,1.1
		c0.6,0.8,0.9,2,0.9,3.6v6.2H362v-5.7c0-1-0.1-1.8-0.4-2.3s-0.8-0.7-1.4-0.7c-0.5,0-0.9,0.1-1.3,0.4s-0.7,0.6-0.9,1
		c-0.2,0.4-0.3,0.8-0.3,1.3v6h-3.1L354.6,706.2L354.6,706.2z"/>
	<path class="st10" d="M370,706.4c-1.1,0-1.9-0.3-2.5-0.9c-0.6-0.6-0.9-1.4-0.9-2.4c0-1.2,0.5-2.2,1.5-2.9s2.4-1,4.2-1h1.4
		c0-0.7-0.2-1.1-0.5-1.4c-0.3-0.3-0.9-0.4-1.8-0.4c-0.7,0-1.3,0.1-2,0.2c-0.6,0.2-1.3,0.4-2,0.8l-0.3-2.2c0.7-0.3,1.4-0.6,2.2-0.8
		c0.8-0.2,1.6-0.2,2.5-0.2c1.1,0,2.1,0.1,2.8,0.4c0.7,0.3,1.2,0.7,1.5,1.3s0.5,1.4,0.5,2.4v6.8h-2.7v-1.2l0,0
		c-0.4,0.4-0.9,0.8-1.6,1.1S370.7,706.4,370,706.4z M371,704.2c0.5,0,0.9-0.1,1.3-0.2s0.7-0.4,0.9-0.7c0.2-0.3,0.3-0.6,0.3-1v-1.2
		h-1c-1.1,0-2,0.1-2.5,0.4c-0.6,0.3-0.8,0.7-0.8,1.3c0,0.4,0.2,0.8,0.5,1C370,704.1,370.4,704.2,371,704.2z"/>
	<path class="st10" d="M383.2,710.7c-0.9,0-1.7-0.1-2.4-0.3c-0.7-0.2-1.3-0.5-1.9-0.9l0.5-2.2c0.5,0.4,1.1,0.7,1.7,0.8
		c0.6,0.2,1.2,0.3,1.8,0.3c1.1,0,2-0.3,2.5-0.9c0.5-0.6,0.8-1.5,0.8-2.7v-0.6l0,0c-0.4,0.5-0.9,0.8-1.5,1s-1.2,0.3-1.9,0.3
		c-1.4,0-2.5-0.5-3.3-1.4s-1.2-2.2-1.2-3.9s0.4-3,1.2-3.9c0.8-0.9,1.9-1.4,3.3-1.4c0.7,0,1.3,0.1,1.9,0.4c0.6,0.2,1.1,0.6,1.5,1l0,0
		v-1.2h2.7v9.5c0,1.9-0.5,3.4-1.5,4.3C386.6,710.2,385.1,710.7,383.2,710.7z M383.6,703.5c0.5,0,1-0.1,1.3-0.3s0.7-0.4,0.9-0.7
		s0.3-0.7,0.3-1.1v-1.9c0-0.4-0.1-0.8-0.3-1.1s-0.5-0.6-0.9-0.7c-0.4-0.2-0.8-0.3-1.3-0.3c-0.8,0-1.4,0.3-1.9,0.8
		c-0.4,0.5-0.7,1.3-0.7,2.2c0,1,0.2,1.7,0.7,2.2C382.2,703.2,382.8,703.5,383.6,703.5z"/>
	<path class="st10" d="M397.1,706.4c-1.9,0-3.3-0.5-4.3-1.4c-1-1-1.5-2.3-1.5-4.1c0-1.7,0.5-3.1,1.4-4.1c1-1,2.3-1.5,3.9-1.5
		s2.9,0.5,3.7,1.4s1.3,2.3,1.3,4c0,0.2,0,0.4,0,0.7s0,0.4,0,0.6h-8.8v-2h6.6l-0.4,0.6c0-1.1-0.2-1.9-0.6-2.4s-1-0.8-1.8-0.8
		c-0.9,0-1.5,0.3-1.9,0.8s-0.6,1.4-0.6,2.4v0.8c0,0.9,0.3,1.6,0.8,2.1s1.3,0.7,2.3,0.7c0.6,0,1.3-0.1,1.9-0.2
		c0.6-0.2,1.2-0.4,1.7-0.7l0.4,2.2c-0.5,0.3-1.1,0.5-1.8,0.7S397.8,706.4,397.1,706.4z"/>
	<path class="st10" d="M403.8,706.2v-10.8h2.7v1.4l0,0c0.4-0.6,0.8-1,1.4-1.2c0.5-0.3,1.1-0.4,1.8-0.4c0.7,0,1.3,0.1,1.8,0.4
		c0.5,0.3,0.9,0.7,1.1,1.2l0,0c0.4-0.6,0.9-1,1.4-1.3c0.6-0.3,1.2-0.4,2-0.4c1.2,0,2,0.3,2.5,1s0.8,1.8,0.8,3.3v6.7h-2.8v-6.3
		c0-0.8-0.1-1.4-0.4-1.8c-0.2-0.4-0.6-0.6-1.1-0.6c-0.6,0-1.2,0.2-1.5,0.7s-0.5,1.2-0.5,2v5.9h-2.8v-6.6c0-0.6-0.1-1.1-0.4-1.5
		c-0.3-0.3-0.6-0.5-1.1-0.5c-0.6,0-1.1,0.3-1.5,0.8s-0.6,1.2-0.6,2v5.9L403.8,706.2L403.8,706.2z"/>
	<path class="st10" d="M426.9,706.4c-1.9,0-3.3-0.5-4.3-1.4c-1-1-1.5-2.3-1.5-4.1c0-1.7,0.5-3.1,1.4-4.1c1-1,2.3-1.5,3.9-1.5
		s2.9,0.5,3.7,1.4s1.3,2.3,1.3,4c0,0.2,0,0.4,0,0.7s0,0.4,0,0.6h-8.8v-2h6.6l-0.4,0.6c0-1.1-0.2-1.9-0.6-2.4s-1-0.8-1.8-0.8
		c-0.9,0-1.5,0.3-1.9,0.8s-0.6,1.4-0.6,2.4v0.8c0,0.9,0.3,1.6,0.8,2.1s1.3,0.7,2.3,0.7c0.6,0,1.3-0.1,1.9-0.2
		c0.6-0.2,1.2-0.4,1.7-0.7l0.4,2.2c-0.5,0.3-1.1,0.5-1.8,0.7S427.7,706.4,426.9,706.4z"/>
	<path class="st10" d="M433.6,706.2v-10.8h2.7v1.4l0,0c0.5-0.6,1-1,1.6-1.3s1.3-0.4,2-0.4c1.3,0,2.3,0.4,2.8,1.1
		c0.6,0.8,0.9,2,0.9,3.6v6.2h-2.8v-5.7c0-1-0.1-1.8-0.4-2.3s-0.8-0.7-1.4-0.7c-0.5,0-0.9,0.1-1.3,0.4s-0.7,0.6-0.9,1
		c-0.2,0.4-0.3,0.8-0.3,1.3v6h-2.9L433.6,706.2L433.6,706.2z"/>
	<path class="st10" d="M451.2,706.4c-1.4,0-2.4-0.3-3-0.8c-0.6-0.6-0.9-1.5-0.9-2.7v-5.2H445v-2.2h2.3V692h2.9v3.5h3.5v2.2h-3.5v4.8
		c0,0.6,0.1,1,0.4,1.3c0.2,0.2,0.7,0.4,1.2,0.4c0.3,0,0.5,0,0.8-0.1c0.3,0,0.5-0.1,0.8-0.2l0.3,2.3c-0.4,0.1-0.8,0.2-1.2,0.3
		C452,706.3,451.6,706.4,451.2,706.4z"/>
</g>
<g class="st9">
	<path class="st10" d="M114.5,580.8c0.5-0.1,1.1-0.1,1.6-0.1c0.6,0,1.1-0.1,1.7-0.1s1,0,1.4,0c2.3,0,3.9,0.4,5,1.2
		c1,0.8,1.6,2,1.6,3.6s-0.5,2.9-1.6,3.6s-2.7,1.2-5,1.2c-0.5,0-1.1,0-1.7-0.1c-0.6,0-1.2-0.1-1.8-0.1l0.3-2.4
		c0.7,0.1,1.3,0.2,1.9,0.2s1.1,0.1,1.5,0.1c1.2,0,2.1-0.2,2.6-0.6s0.8-1,0.8-1.8s-0.3-1.5-0.8-1.8s-1.4-0.6-2.6-0.6
		c-0.4,0-0.9,0-1.5,0.1c-0.6,0-1.2,0.1-1.9,0.2l1.4-1.5V596h-2.9V580.8z M123.1,595.8l-6.9-7h3.4l7.1,7H123.1z"/>
	<path class="st10" d="M132.8,596c-1.9,0-3.3-0.5-4.3-1.5s-1.5-2.3-1.5-4.1c0-1.7,0.5-3.1,1.4-4.1c1-1,2.3-1.5,3.9-1.5
		c1.6,0,2.9,0.5,3.7,1.4c0.9,0.9,1.3,2.3,1.3,4c0,0.2,0,0.4,0,0.7c0,0.2,0,0.4,0,0.6h-8.8v-2h6.6l-0.4,0.6c0-1.1-0.2-1.9-0.6-2.4
		c-0.4-0.5-1-0.8-1.8-0.8c-0.9,0-1.5,0.3-1.9,0.8s-0.6,1.4-0.6,2.4v0.8c0,0.9,0.3,1.6,0.8,2.1s1.3,0.7,2.3,0.7
		c0.6,0,1.3-0.1,1.9-0.2c0.6-0.2,1.2-0.4,1.7-0.7l0.4,2.2c-0.5,0.3-1.1,0.5-1.8,0.7C134.3,596,133.6,596,132.8,596z"/>
	<path class="st10" d="M144.9,596c-1.3,0-2.3-0.2-3.2-0.7c-0.9-0.4-1.6-1.1-2.1-1.9c-0.5-0.8-0.7-1.8-0.7-3s0.2-2.2,0.7-3
		s1.2-1.5,2.1-1.9c0.9-0.4,2-0.7,3.2-0.7c0.6,0,1.2,0.1,1.8,0.2c0.6,0.1,1.1,0.3,1.6,0.6l-0.5,2.2c-0.5-0.3-0.9-0.5-1.4-0.6
		c-0.4-0.1-0.9-0.2-1.3-0.2c-1,0-1.9,0.3-2.4,0.9c-0.6,0.6-0.9,1.4-0.9,2.5s0.3,1.9,0.9,2.5c0.6,0.6,1.4,0.9,2.4,0.9
		c0.4,0,0.9-0.1,1.3-0.2c0.4-0.1,0.9-0.3,1.4-0.6l0.5,2.2c-0.5,0.3-1.1,0.5-1.6,0.6C146.2,596,145.6,596,144.9,596z"/>
	<path class="st10" d="M150.9,595.8V585h2.7v2h0.1c0.4-0.5,0.8-0.9,1.3-1.2s1-0.6,1.6-0.7s1.2-0.3,1.8-0.3v2.4
		c-0.9,0-1.6,0.2-2.3,0.5s-1.3,0.7-1.7,1.3c-0.4,0.5-0.6,1.1-0.6,1.8v5H150.9z"/>
	<path class="st10" d="M163.6,596c-1.3,0-2.2-0.4-2.8-1.1c-0.6-0.8-0.9-2-0.9-3.6v-6.2h2.8v5.7c0,1,0.1,1.8,0.4,2.3s0.7,0.7,1.3,0.7
		c0.5,0,0.9-0.1,1.3-0.4c0.4-0.2,0.7-0.6,0.9-1s0.3-0.8,0.3-1.3v-6h2.9v10.8h-2.7v-1.5l0,0c-0.5,0.6-1,1-1.6,1.3
		C165,595.9,164.4,596,163.6,596z"/>
	<path class="st10" d="M174.7,583.8c-0.5,0-1-0.1-1.3-0.4c-0.3-0.3-0.5-0.7-0.5-1.2s0.2-0.9,0.5-1.2s0.7-0.4,1.3-0.4
		c0.5,0,1,0.1,1.3,0.4c0.3,0.3,0.5,0.7,0.5,1.2s-0.2,0.9-0.5,1.2C175.7,583.7,175.2,583.8,174.7,583.8z M173.3,595.8v-10.6h2.9v10.6
		H173.3z"/>
	<path class="st10" d="M184.6,596c-1.4,0-2.4-0.3-3-0.8c-0.6-0.6-0.9-1.5-0.9-2.7v-5.2h-2.3v-2.2h2.3v-3.5h2.9v3.5h3.5v2.2h-3.5v4.8
		c0,0.6,0.1,1,0.4,1.3c0.2,0.2,0.7,0.4,1.2,0.4c0.3,0,0.5,0,0.8-0.1c0.3,0,0.5-0.1,0.8-0.2l0.3,2.3c-0.4,0.1-0.8,0.2-1.2,0.3
		C185.4,596,185,596,184.6,596z"/>
	<path class="st10" d="M189.5,595.8V585h2.7v1.4l0,0c0.4-0.6,0.8-1,1.4-1.2s1.1-0.4,1.8-0.4s1.3,0.1,1.8,0.4
		c0.5,0.3,0.9,0.7,1.1,1.2l0,0c0.4-0.6,0.9-1,1.4-1.3c0.6-0.3,1.2-0.4,2-0.4c1.2,0,2,0.3,2.5,1s0.8,1.8,0.8,3.3v6.7h-2.8v-6.3
		c0-0.8-0.1-1.4-0.4-1.8c-0.2-0.4-0.6-0.6-1.1-0.6c-0.6,0-1.2,0.2-1.5,0.7s-0.5,1.2-0.5,2v5.9h-2.8V589c0-0.6-0.1-1.1-0.4-1.5
		c-0.3-0.3-0.6-0.5-1.1-0.5c-0.6,0-1.1,0.3-1.5,0.8s-0.6,1.2-0.6,2v5.9L189.5,595.8L189.5,595.8z"/>
	<path class="st10" d="M212.6,596c-1.9,0-3.3-0.5-4.3-1.5s-1.5-2.3-1.5-4.1c0-1.7,0.5-3.1,1.4-4.1c1-1,2.3-1.5,3.9-1.5
		c1.6,0,2.9,0.5,3.7,1.4c0.9,0.9,1.3,2.3,1.3,4c0,0.2,0,0.4,0,0.7c0,0.2,0,0.4,0,0.6h-8.8v-2h6.6l-0.4,0.6c0-1.1-0.2-1.9-0.6-2.4
		c-0.4-0.5-1-0.8-1.8-0.8c-0.9,0-1.5,0.3-1.9,0.8s-0.6,1.4-0.6,2.4v0.8c0,0.9,0.3,1.6,0.8,2.1s1.3,0.7,2.3,0.7
		c0.6,0,1.3-0.1,1.9-0.2c0.6-0.2,1.2-0.4,1.7-0.7l0.4,2.2c-0.5,0.3-1.1,0.5-1.8,0.7C214.1,596,213.4,596,212.6,596z"/>
	<path class="st10" d="M219.3,595.8V585h2.7v1.4l0,0c0.5-0.6,1-1,1.6-1.3s1.3-0.4,2-0.4c1.3,0,2.3,0.4,2.8,1.1
		c0.6,0.8,0.9,2,0.9,3.6v6.2h-2.8v-5.7c0-1-0.1-1.8-0.4-2.3c-0.3-0.5-0.8-0.7-1.4-0.7c-0.5,0-0.9,0.1-1.3,0.4
		c-0.4,0.2-0.7,0.6-0.9,1s-0.3,0.8-0.3,1.3v6h-2.9L219.3,595.8L219.3,595.8z"/>
	<path class="st10" d="M236.9,596c-1.4,0-2.4-0.3-3-0.8c-0.6-0.6-0.9-1.5-0.9-2.7v-5.2h-2.3v-2.2h2.3v-3.5h2.9v3.5h3.5v2.2h-3.5v4.8
		c0,0.6,0.1,1,0.4,1.3c0.2,0.2,0.7,0.4,1.2,0.4c0.3,0,0.5,0,0.8-0.1c0.3,0,0.5-0.1,0.8-0.2l0.3,2.3c-0.4,0.1-0.8,0.2-1.2,0.3
		C237.7,596,237.3,596,236.9,596z"/>
</g>
<g class="st9">
	<path class="st10" d="M139.1,605.7c0.5-0.1,1.1-0.1,1.6-0.2s1.1-0.1,1.6-0.1s1,0,1.3,0c2.3,0,4,0.4,5.1,1.3s1.7,2.2,1.7,4
		s-0.5,3.1-1.6,4s-2.6,1.4-4.7,1.4c-0.5,0-1,0-1.6-0.1c-0.6,0-1.2-0.1-2-0.2v-2.5c0.7,0.1,1.3,0.1,1.8,0.2c0.5,0,1,0.1,1.3,0.1
		c1.3,0,2.3-0.2,2.9-0.7c0.6-0.5,0.9-1.2,0.9-2.2s-0.3-1.8-0.9-2.2c-0.6-0.5-1.5-0.7-2.9-0.7c-0.4,0-0.9,0-1.4,0.1
		c-0.5,0-1.1,0.1-1.7,0.2l1.4-1.5v14.1H139L139.1,605.7L139.1,605.7z"/>
	<path class="st10" d="M152,620.7v-10.8h2.7v2h0.1c0.4-0.5,0.8-0.9,1.3-1.2s1-0.6,1.6-0.7c0.6-0.2,1.2-0.3,1.8-0.3v2.4
		c-0.9,0-1.6,0.2-2.3,0.5s-1.3,0.7-1.7,1.3c-0.4,0.5-0.6,1.1-0.6,1.8v5H152z"/>
	<path class="st10" d="M165.6,620.9c-1.1,0-2.1-0.2-2.9-0.7c-0.8-0.5-1.5-1.1-1.9-1.9c-0.4-0.8-0.7-1.8-0.7-3c0-1.1,0.2-2.1,0.7-3
		c0.4-0.8,1.1-1.5,1.9-1.9c0.8-0.5,1.8-0.7,2.9-0.7c1.1,0,2.1,0.2,3,0.7c0.8,0.5,1.5,1.1,1.9,1.9c0.4,0.8,0.7,1.8,0.7,3
		c0,1.1-0.2,2.1-0.7,3c-0.4,0.8-1.1,1.5-1.9,1.9C167.7,620.7,166.7,620.9,165.6,620.9z M165.6,618.7c0.9,0,1.5-0.3,2-0.9
		c0.5-0.6,0.7-1.4,0.7-2.5s-0.2-1.9-0.7-2.5s-1.1-0.9-2-0.9s-1.5,0.3-2,0.9c-0.5,0.6-0.7,1.4-0.7,2.5s0.2,1.9,0.7,2.5
		C164.1,618.4,164.7,618.7,165.6,618.7z"/>
	<path class="st10" d="M178.6,620.9c-1.3,0-2.3-0.2-3.2-0.7c-0.9-0.4-1.6-1.1-2.1-1.9c-0.5-0.8-0.7-1.8-0.7-3s0.2-2.2,0.7-3
		s1.2-1.5,2.1-1.9c0.9-0.4,2-0.7,3.2-0.7c0.6,0,1.2,0.1,1.8,0.2c0.6,0.1,1.1,0.3,1.6,0.6l-0.5,2.2c-0.5-0.3-0.9-0.5-1.4-0.6
		c-0.4-0.1-0.9-0.2-1.3-0.2c-1,0-1.9,0.3-2.4,0.9c-0.6,0.6-0.9,1.4-0.9,2.5s0.3,1.9,0.9,2.5c0.6,0.6,1.4,0.9,2.4,0.9
		c0.4,0,0.9-0.1,1.3-0.2c0.4-0.1,0.9-0.3,1.4-0.6l0.5,2.2c-0.5,0.3-1.1,0.5-1.6,0.6C179.9,620.8,179.3,620.9,178.6,620.9z"/>
	<path class="st10" d="M189.5,620.9c-1.9,0-3.3-0.5-4.3-1.5s-1.5-2.3-1.5-4.1c0-1.7,0.5-3.1,1.4-4.1c1-1,2.3-1.5,3.9-1.5
		c1.6,0,2.9,0.5,3.7,1.4c0.9,0.9,1.3,2.3,1.3,4c0,0.2,0,0.4,0,0.7c0,0.2,0,0.4,0,0.6h-8.8v-2h6.6l-0.4,0.6c0-1.1-0.2-1.9-0.6-2.4
		c-0.4-0.5-1-0.8-1.8-0.8c-0.9,0-1.5,0.3-1.9,0.8s-0.6,1.4-0.6,2.4v0.8c0,0.9,0.3,1.6,0.8,2.1s1.3,0.7,2.3,0.7
		c0.6,0,1.3-0.1,1.9-0.2c0.6-0.2,1.2-0.4,1.7-0.7l0.4,2.2c-0.5,0.3-1.1,0.5-1.8,0.7C191,620.8,190.3,620.9,189.5,620.9z"/>
	<path class="st10" d="M199.9,620.9c-0.8,0-1.5-0.1-2.3-0.2c-0.7-0.2-1.4-0.4-2-0.6l0.4-2.2c0.7,0.3,1.3,0.5,2,0.6
		c0.6,0.1,1.3,0.2,1.9,0.2c0.6,0,1.1-0.1,1.4-0.3c0.3-0.2,0.5-0.4,0.5-0.8c0-0.2-0.1-0.4-0.2-0.5c-0.1-0.1-0.3-0.3-0.6-0.4
		s-0.7-0.2-1.2-0.3c-1-0.2-1.8-0.5-2.4-0.8c-0.6-0.3-1.1-0.7-1.4-1.1c-0.3-0.4-0.4-1-0.4-1.5c0-1,0.4-1.8,1.2-2.3s1.9-0.8,3.4-0.8
		c0.7,0,1.4,0.1,2.1,0.2c0.7,0.1,1.3,0.3,2,0.6l-0.4,2.2c-0.6-0.3-1.2-0.5-1.8-0.6s-1.2-0.2-1.8-0.2s-1.1,0.1-1.4,0.2
		c-0.3,0.2-0.4,0.4-0.4,0.7c0,0.2,0.1,0.4,0.2,0.5c0.1,0.1,0.3,0.3,0.6,0.4s0.6,0.2,1.1,0.3c0.7,0.2,1.4,0.4,1.9,0.6s1,0.5,1.3,0.8
		s0.6,0.6,0.8,1s0.3,0.8,0.3,1.2c0,1-0.4,1.8-1.2,2.4C202.5,620.6,201.4,620.9,199.9,620.9z"/>
	<path class="st10" d="M210.2,620.9c-0.8,0-1.5-0.1-2.3-0.2c-0.7-0.2-1.4-0.4-2-0.6l0.4-2.2c0.7,0.3,1.3,0.5,2,0.6
		c0.6,0.1,1.3,0.2,1.9,0.2c0.6,0,1.1-0.1,1.4-0.3c0.3-0.2,0.5-0.4,0.5-0.8c0-0.2-0.1-0.4-0.2-0.5c-0.1-0.1-0.3-0.3-0.6-0.4
		s-0.7-0.2-1.2-0.3c-1-0.2-1.8-0.5-2.4-0.8c-0.6-0.3-1.1-0.7-1.4-1.1c-0.3-0.4-0.4-1-0.4-1.5c0-1,0.4-1.8,1.2-2.3s1.9-0.8,3.4-0.8
		c0.7,0,1.4,0.1,2.1,0.2c0.7,0.1,1.3,0.3,2,0.6l-0.4,2.2c-0.6-0.3-1.2-0.5-1.8-0.6s-1.2-0.2-1.8-0.2s-1.1,0.1-1.4,0.2
		c-0.3,0.2-0.4,0.4-0.4,0.7c0,0.2,0.1,0.4,0.2,0.5c0.1,0.1,0.3,0.3,0.6,0.4s0.6,0.2,1.1,0.3c0.7,0.2,1.4,0.4,1.9,0.6s1,0.5,1.3,0.8
		s0.6,0.6,0.8,1s0.3,0.8,0.3,1.2c0,1-0.4,1.8-1.2,2.4C212.9,620.6,211.7,620.9,210.2,620.9z"/>
</g>
<g class="st9">
	<path class="st10" d="M588.5,580.8c0.5-0.1,1.1-0.1,1.6-0.2c0.6,0,1.1-0.1,1.6-0.1s1,0,1.3,0c2.3,0,4,0.4,5.1,1.3s1.7,2.2,1.7,4
		s-0.5,3.1-1.6,4s-2.6,1.4-4.7,1.4c-0.5,0-1,0-1.6-0.1c-0.6,0-1.2-0.1-2-0.2v-2.5c0.7,0.1,1.3,0.1,1.8,0.2c0.5,0,1,0.1,1.3,0.1
		c1.3,0,2.3-0.2,2.9-0.7s0.9-1.2,0.9-2.2s-0.3-1.8-0.9-2.2c-0.6-0.5-1.5-0.7-2.9-0.7c-0.4,0-0.9,0-1.4,0.1c-0.5,0-1.1,0.1-1.7,0.2
		l1.4-1.5v14.1h-2.9v-15L588.5,580.8L588.5,580.8z"/>
	<path class="st10" d="M602,595.8v-15.1h10.6v2.5h-7.7v4h7.3v2.5h-7.3v6.1H602z"/>
</g>
<g class="st9">
	<path class="st10" d="M544.7,620.7v-15.1h3v15.1H544.7z"/>
	<path class="st10" d="M550.9,620.7v-10.8h2.7v1.4l0,0c0.5-0.6,1-1,1.6-1.3s1.3-0.4,2-0.4c1.3,0,2.3,0.4,2.8,1.1
		c0.6,0.8,0.9,2,0.9,3.6v6.2h-2.8V615c0-1-0.1-1.8-0.4-2.3c-0.3-0.5-0.8-0.7-1.4-0.7c-0.5,0-0.9,0.1-1.3,0.4c-0.4,0.2-0.7,0.6-0.9,1
		s-0.3,0.8-0.3,1.3v6H550.9z"/>
	<path class="st10" d="M565.6,620.7l-3.6-10.8h3l2.5,8.9l0,0l2.5-8.9h3l-3.6,10.8H565.6z"/>
	<path class="st10" d="M579.6,620.9c-1.9,0-3.3-0.5-4.3-1.5s-1.5-2.3-1.5-4.1c0-1.7,0.5-3.1,1.4-4.1c1-1,2.3-1.5,3.9-1.5
		c1.6,0,2.9,0.5,3.7,1.4c0.9,0.9,1.3,2.3,1.3,4c0,0.2,0,0.4,0,0.7c0,0.2,0,0.4,0,0.6h-8.8v-2h6.6l-0.4,0.6c0-1.1-0.2-1.9-0.6-2.4
		c-0.4-0.5-1-0.8-1.8-0.8c-0.9,0-1.5,0.3-1.9,0.8s-0.6,1.4-0.6,2.4v0.8c0,0.9,0.3,1.6,0.8,2.1s1.3,0.7,2.3,0.7
		c0.6,0,1.3-0.1,1.9-0.2c0.6-0.2,1.2-0.4,1.7-0.7l0.4,2.2c-0.5,0.3-1.1,0.5-1.8,0.7C581.1,620.8,580.4,620.9,579.6,620.9z"/>
	<path class="st10" d="M590,620.9c-0.8,0-1.5-0.1-2.3-0.2c-0.7-0.2-1.4-0.4-2-0.6l0.4-2.2c0.7,0.3,1.3,0.5,2,0.6
		c0.6,0.1,1.3,0.2,1.9,0.2c0.6,0,1.1-0.1,1.4-0.3c0.3-0.2,0.5-0.4,0.5-0.8c0-0.2-0.1-0.4-0.2-0.5c-0.1-0.1-0.3-0.3-0.6-0.4
		s-0.7-0.2-1.2-0.3c-1-0.2-1.8-0.5-2.4-0.8c-0.6-0.3-1.1-0.7-1.4-1.1c-0.3-0.4-0.4-1-0.4-1.5c0-1,0.4-1.8,1.2-2.3s1.9-0.8,3.4-0.8
		c0.7,0,1.4,0.1,2.1,0.2c0.7,0.1,1.3,0.3,2,0.6l-0.4,2.2c-0.6-0.3-1.2-0.5-1.8-0.6s-1.2-0.2-1.8-0.2s-1.1,0.1-1.4,0.2
		c-0.3,0.2-0.4,0.4-0.4,0.7c0,0.2,0.1,0.4,0.2,0.5c0.1,0.1,0.3,0.3,0.6,0.4s0.6,0.2,1.1,0.3c0.7,0.2,1.4,0.4,1.9,0.6s1,0.5,1.3,0.8
		s0.6,0.6,0.8,1s0.3,0.8,0.3,1.2c0,1-0.4,1.8-1.2,2.4C592.6,620.6,591.5,620.9,590,620.9z"/>
	<path class="st10" d="M601.9,620.9c-1.4,0-2.4-0.3-3-0.8c-0.6-0.6-0.9-1.5-0.9-2.7v-5.2h-2.3V610h2.3v-3.5h2.9v3.5h3.5v2.2h-3.5
		v4.8c0,0.6,0.1,1,0.4,1.3c0.2,0.2,0.7,0.4,1.2,0.4c0.3,0,0.5,0,0.8-0.1c0.3,0,0.5-0.1,0.8-0.2l0.3,2.3c-0.4,0.1-0.8,0.2-1.2,0.3
		C602.8,620.8,602.4,620.9,601.9,620.9z"/>
	<path class="st10" d="M606.8,620.7v-10.8h2.7v1.4l0,0c0.4-0.6,0.8-1,1.4-1.2s1.1-0.4,1.8-0.4s1.3,0.1,1.8,0.4
		c0.5,0.3,0.9,0.7,1.1,1.2l0,0c0.4-0.6,0.9-1,1.4-1.3c0.6-0.3,1.2-0.4,2-0.4c1.2,0,2,0.3,2.5,1s0.8,1.8,0.8,3.3v6.7h-2.8v-6.3
		c0-0.8-0.1-1.4-0.4-1.8c-0.2-0.4-0.6-0.6-1.1-0.6c-0.6,0-1.2,0.2-1.5,0.7s-0.5,1.2-0.5,2v5.9h-2.8V614c0-0.6-0.1-1.1-0.4-1.5
		c-0.3-0.3-0.6-0.5-1.1-0.5c-0.6,0-1.1,0.3-1.5,0.8s-0.6,1.2-0.6,2v5.9H606.8z"/>
	<path class="st10" d="M629.9,620.9c-1.9,0-3.3-0.5-4.3-1.5s-1.5-2.3-1.5-4.1c0-1.7,0.5-3.1,1.4-4.1c1-1,2.3-1.5,3.9-1.5
		c1.6,0,2.9,0.5,3.7,1.4c0.9,0.9,1.3,2.3,1.3,4c0,0.2,0,0.4,0,0.7c0,0.2,0,0.4,0,0.6h-8.8v-2h6.6l-0.4,0.6c0-1.1-0.2-1.9-0.6-2.4
		c-0.4-0.5-1-0.8-1.8-0.8c-0.9,0-1.5,0.3-1.9,0.8s-0.6,1.4-0.6,2.4v0.8c0,0.9,0.3,1.6,0.8,2.1s1.3,0.7,2.3,0.7
		c0.6,0,1.3-0.1,1.9-0.2c0.6-0.2,1.2-0.4,1.7-0.7l0.4,2.2c-0.5,0.3-1.1,0.5-1.8,0.7C631.4,620.8,630.7,620.9,629.9,620.9z"/>
	<path class="st10" d="M636.7,620.7v-10.8h2.7v1.4l0,0c0.5-0.6,1-1,1.6-1.3s1.3-0.4,2-0.4c1.3,0,2.3,0.4,2.8,1.1
		c0.6,0.8,0.9,2,0.9,3.6v6.2H644V615c0-1-0.1-1.8-0.4-2.3c-0.3-0.5-0.8-0.7-1.4-0.7c-0.5,0-0.9,0.1-1.3,0.4c-0.4,0.2-0.7,0.6-0.9,1
		s-0.3,0.8-0.3,1.3v6H636.7z"/>
	<path class="st10" d="M654.2,620.9c-1.4,0-2.4-0.3-3-0.8c-0.6-0.6-0.9-1.5-0.9-2.7v-5.2H648V610h2.3v-3.5h2.9v3.5h3.5v2.2h-3.5v4.8
		c0,0.6,0.1,1,0.4,1.3c0.2,0.2,0.7,0.4,1.2,0.4c0.3,0,0.5,0,0.8-0.1c0.3,0,0.5-0.1,0.8-0.2l0.3,2.3c-0.4,0.1-0.8,0.2-1.2,0.3
		C655.1,620.8,654.6,620.9,654.2,620.9z"/>
</g>
<g class="st9">
	<path class="st10" d="M112.9,155.2c0.5-0.1,1.1-0.1,1.6-0.2s1.1-0.1,1.6-0.1s1,0,1.3,0c2.3,0,4,0.4,5.1,1.3s1.7,2.2,1.7,4
		s-0.5,3.1-1.6,4s-2.6,1.4-4.7,1.4c-0.5,0-1,0-1.6-0.1c-0.6,0-1.2-0.1-2-0.2v-2.5c0.7,0.1,1.3,0.1,1.8,0.2c0.5,0,1,0.1,1.3,0.1
		c1.3,0,2.3-0.2,2.9-0.7s0.9-1.2,0.9-2.2s-0.3-1.8-0.9-2.2c-0.6-0.5-1.5-0.7-2.9-0.7c-0.4,0-0.9,0-1.4,0.1c-0.5,0-1.1,0.1-1.7,0.2
		l1.4-1.5v14.1h-2.9L112.9,155.2L112.9,155.2z"/>
	<path class="st10" d="M130.5,170.5c-1.9,0-3.3-0.5-4.3-1.5s-1.5-2.3-1.5-4.1c0-1.7,0.5-3.1,1.4-4.1c1-1,2.3-1.5,3.9-1.5
		s2.9,0.5,3.7,1.4c0.9,0.9,1.3,2.3,1.3,4c0,0.2,0,0.4,0,0.7c0,0.2,0,0.4,0,0.6h-8.8v-2h6.6l-0.4,0.6c0-1.1-0.2-1.9-0.6-2.4
		c-0.4-0.5-1-0.8-1.8-0.8c-0.9,0-1.5,0.3-1.9,0.8c-0.4,0.5-0.6,1.4-0.6,2.4v0.8c0,0.9,0.3,1.6,0.8,2.1c0.5,0.5,1.3,0.7,2.3,0.7
		c0.6,0,1.3-0.1,1.9-0.2c0.6-0.2,1.2-0.4,1.7-0.7l0.4,2.2c-0.5,0.3-1.1,0.5-1.8,0.7C132,170.4,131.3,170.5,130.5,170.5z"/>
	<path class="st10" d="M137.2,170.3v-10.8h2.7v2h0.1c0.4-0.5,0.8-0.9,1.3-1.2s1-0.6,1.6-0.7s1.2-0.3,1.8-0.3v2.4
		c-0.9,0-1.6,0.2-2.3,0.5s-1.3,0.7-1.7,1.3c-0.4,0.5-0.6,1.1-0.6,1.8v5H137.2z"/>
	<path class="st10" d="M148.5,170.3v-8.1h-2.7V160h2.7v-1.5c0-1.3,0.3-2.4,1-3c0.7-0.7,1.7-1,3-1c0.4,0,0.8,0,1.2,0.1
		s0.7,0.1,1.1,0.2l-0.3,2.2c-0.5-0.2-1-0.2-1.4-0.2c-0.6,0-1,0.1-1.3,0.4s-0.4,0.8-0.4,1.5v1.4h3.3v2.2h-3.3v8.1L148.5,170.3
		L148.5,170.3z"/>
	<path class="st10" d="M160.8,170.5c-1.1,0-2.1-0.2-2.9-0.7c-0.8-0.5-1.5-1.1-1.9-1.9c-0.4-0.8-0.7-1.8-0.7-3c0-1.1,0.2-2.1,0.7-3
		c0.4-0.8,1.1-1.5,1.9-1.9c0.8-0.5,1.8-0.7,2.9-0.7c1.1,0,2.1,0.2,3,0.7c0.8,0.5,1.5,1.1,1.9,1.9c0.4,0.8,0.7,1.8,0.7,3
		c0,1.1-0.2,2.1-0.7,3c-0.4,0.8-1.1,1.5-1.9,1.9C162.9,170.3,162,170.5,160.8,170.5z M160.8,168.3c0.9,0,1.5-0.3,2-0.9
		c0.5-0.6,0.7-1.4,0.7-2.5s-0.2-1.9-0.7-2.5s-1.1-0.9-2-0.9s-1.5,0.3-2,0.9c-0.5,0.6-0.7,1.4-0.7,2.5s0.2,1.9,0.7,2.5
		C159.3,168,160,168.3,160.8,168.3z"/>
	<path class="st10" d="M168.5,170.3v-10.8h2.7v2h0.1c0.4-0.5,0.8-0.9,1.3-1.2s1-0.6,1.6-0.7s1.2-0.3,1.8-0.3v2.4
		c-0.9,0-1.6,0.2-2.3,0.5s-1.3,0.7-1.7,1.3c-0.4,0.5-0.6,1.1-0.6,1.8v5H168.5z"/>
	<path class="st10" d="M177.8,170.3v-10.8h2.7v1.4l0,0c0.4-0.6,0.8-1,1.4-1.2s1.1-0.4,1.8-0.4s1.3,0.1,1.8,0.4
		c0.5,0.3,0.9,0.7,1.1,1.2l0,0c0.4-0.6,0.9-1,1.4-1.3c0.6-0.3,1.2-0.4,2-0.4c1.2,0,2,0.3,2.5,1s0.8,1.8,0.8,3.3v6.7h-2.8V164
		c0-0.8-0.1-1.4-0.4-1.8c-0.2-0.4-0.6-0.6-1.1-0.6c-0.6,0-1.2,0.2-1.5,0.7s-0.5,1.2-0.5,2v5.9h-2.8v-6.6c0-0.6-0.1-1.1-0.4-1.5
		c-0.3-0.3-0.6-0.5-1.1-0.5c-0.6,0-1.1,0.3-1.5,0.8s-0.6,1.2-0.6,2v5.9L177.8,170.3L177.8,170.3z"/>
	<path class="st10" d="M198.4,170.5c-1.1,0-1.9-0.3-2.5-0.9c-0.6-0.6-0.9-1.4-0.9-2.4c0-1.2,0.5-2.2,1.5-2.9s2.4-1,4.2-1h1.4
		c0-0.7-0.2-1.1-0.5-1.4c-0.3-0.3-0.9-0.4-1.8-0.4c-0.7,0-1.3,0.1-2,0.2c-0.6,0.2-1.3,0.4-2,0.8l-0.3-2.2c0.7-0.3,1.4-0.6,2.2-0.8
		s1.6-0.2,2.5-0.2c1.1,0,2.1,0.1,2.8,0.4c0.7,0.3,1.2,0.7,1.5,1.3s0.5,1.4,0.5,2.4v6.8h-2.7V169l0,0c-0.4,0.4-0.9,0.8-1.6,1.1
		C199.8,170.4,199.1,170.5,198.4,170.5z M199.4,168.3c0.5,0,0.9-0.1,1.3-0.2s0.7-0.4,0.9-0.7s0.3-0.6,0.3-1v-1.2h-1
		c-1.1,0-2,0.1-2.5,0.4c-0.6,0.3-0.8,0.7-0.8,1.3c0,0.4,0.2,0.8,0.5,1C198.4,168.2,198.9,168.3,199.4,168.3z"/>
	<path class="st10" d="M207.4,170.3v-10.8h2.7v1.4l0,0c0.5-0.6,1-1,1.6-1.3s1.3-0.4,2-0.4c1.3,0,2.3,0.4,2.8,1.1
		c0.6,0.8,0.9,2,0.9,3.6v6.2h-2.8v-5.7c0-1-0.1-1.8-0.4-2.3c-0.3-0.5-0.8-0.7-1.4-0.7c-0.5,0-0.9,0.1-1.3,0.4
		c-0.4,0.2-0.7,0.6-0.9,1s-0.3,0.8-0.3,1.3v6h-2.9L207.4,170.3L207.4,170.3z"/>
	<path class="st10" d="M225.4,170.5c-1.3,0-2.3-0.2-3.2-0.7c-0.9-0.4-1.6-1.1-2.1-1.9c-0.5-0.8-0.7-1.8-0.7-3s0.2-2.2,0.7-3
		s1.2-1.5,2.1-1.9c0.9-0.4,2-0.7,3.2-0.7c0.6,0,1.2,0.1,1.8,0.2c0.6,0.1,1.1,0.3,1.6,0.6l-0.5,2.2c-0.5-0.3-0.9-0.5-1.4-0.6
		c-0.4-0.1-0.9-0.2-1.3-0.2c-1,0-1.9,0.3-2.4,0.9c-0.6,0.6-0.9,1.4-0.9,2.5s0.3,1.9,0.9,2.5c0.6,0.6,1.4,0.9,2.4,0.9
		c0.4,0,0.9-0.1,1.3-0.2c0.4-0.1,0.9-0.3,1.4-0.6l0.5,2.2c-0.5,0.3-1.1,0.5-1.6,0.6C226.7,170.4,226.1,170.5,225.4,170.5z"/>
	<path class="st10" d="M236.3,170.5c-1.9,0-3.3-0.5-4.3-1.5s-1.5-2.3-1.5-4.1c0-1.7,0.5-3.1,1.4-4.1c1-1,2.3-1.5,3.9-1.5
		c1.6,0,2.9,0.5,3.7,1.4c0.9,0.9,1.3,2.3,1.3,4c0,0.2,0,0.4,0,0.7c0,0.2,0,0.4,0,0.6H232v-2h6.6l-0.4,0.6c0-1.1-0.2-1.9-0.6-2.4
		c-0.4-0.5-1-0.8-1.8-0.8c-0.9,0-1.5,0.3-1.9,0.8s-0.6,1.4-0.6,2.4v0.8c0,0.9,0.3,1.6,0.8,2.1s1.3,0.7,2.3,0.7
		c0.6,0,1.3-0.1,1.9-0.2c0.6-0.2,1.2-0.4,1.7-0.7l0.4,2.2c-0.5,0.3-1.1,0.5-1.8,0.7S237.1,170.5,236.3,170.5z"/>
</g>
<g class="st9">
	<path class="st10" d="M128.3,195.1l5.2-15.1h3.9l5.2,15.1h-3.2l-4-12.7l0,0l-4,12.7H128.3z M131.4,191.7v-2.5h8.3v2.5H131.4z"/>
	<path class="st10" d="M150.9,184.2c1.4,0,2.5,0.5,3.3,1.5s1.2,2.4,1.2,4.1s-0.4,3.1-1.2,4.1s-1.9,1.5-3.3,1.5
		c-0.7,0-1.3-0.1-1.9-0.4c-0.6-0.2-1.1-0.6-1.5-1.1l0,0v5.6h-2.9v-15.1h2.7v1.3l0,0c0.4-0.5,1-0.9,1.6-1.1
		C149.5,184.3,150.2,184.2,150.9,184.2z M150,186.4c-0.5,0-0.9,0.1-1.3,0.3c-0.4,0.2-0.7,0.5-0.9,0.8c-0.2,0.4-0.3,0.8-0.3,1.2v1.9
		c0,0.5,0.1,0.9,0.3,1.2c0.2,0.4,0.5,0.6,0.9,0.8s0.8,0.3,1.3,0.3c0.8,0,1.5-0.3,1.9-0.9s0.7-1.4,0.7-2.5s-0.2-1.9-0.7-2.5
		S150.8,186.4,150,186.4z"/>
	<path class="st10" d="M163.8,184.2c1.4,0,2.5,0.5,3.3,1.5s1.2,2.4,1.2,4.1s-0.4,3.1-1.2,4.1s-1.9,1.5-3.3,1.5
		c-0.7,0-1.3-0.1-1.9-0.4c-0.6-0.2-1.1-0.6-1.5-1.1l0,0v5.6h-2.9v-15.1h2.7v1.3l0,0c0.4-0.5,1-0.9,1.6-1.1S163.1,184.2,163.8,184.2z
		 M163,186.4c-0.5,0-0.9,0.1-1.3,0.3s-0.7,0.5-0.9,0.8c-0.2,0.4-0.3,0.8-0.3,1.2v1.9c0,0.5,0.1,0.9,0.3,1.2c0.2,0.4,0.5,0.6,0.9,0.8
		s0.8,0.3,1.3,0.3c0.8,0,1.5-0.3,1.9-0.9c0.4-0.6,0.7-1.4,0.7-2.5s-0.2-1.9-0.7-2.5C164.4,186.7,163.8,186.4,163,186.4z"/>
	<path class="st10" d="M170.5,195.1v-10.8h2.7v2h0.1c0.4-0.5,0.8-0.9,1.3-1.2s1-0.6,1.6-0.7s1.2-0.3,1.8-0.3v2.4
		c-0.9,0-1.6,0.2-2.3,0.5s-1.3,0.7-1.7,1.3c-0.4,0.5-0.6,1.1-0.6,1.8v5H170.5z"/>
	<path class="st10" d="M182.2,195.3c-1.1,0-1.9-0.3-2.5-0.9c-0.6-0.6-0.9-1.4-0.9-2.4c0-1.2,0.5-2.2,1.5-2.9s2.4-1,4.2-1h1.4
		c0-0.7-0.2-1.1-0.5-1.4c-0.3-0.3-0.9-0.4-1.8-0.4c-0.7,0-1.3,0.1-2,0.2c-0.6,0.2-1.3,0.4-2,0.8l-0.3-2.2c0.7-0.3,1.4-0.6,2.2-0.8
		s1.6-0.2,2.5-0.2c1.1,0,2.1,0.1,2.8,0.4c0.7,0.3,1.2,0.7,1.5,1.3s0.5,1.4,0.5,2.4v6.8H186v-1.2l0,0c-0.4,0.4-0.9,0.8-1.6,1.1
		C183.6,195.2,182.9,195.3,182.2,195.3z M183.3,193.2c0.5,0,0.9-0.1,1.3-0.2s0.7-0.4,0.9-0.7s0.3-0.6,0.3-1V190h-1
		c-1.1,0-2,0.1-2.5,0.4c-0.6,0.3-0.8,0.7-0.8,1.3c0,0.4,0.2,0.8,0.5,1C182.3,193.1,182.7,193.2,183.3,193.2z"/>
	<path class="st10" d="M193.2,183.1c-0.5,0-1-0.1-1.3-0.4c-0.3-0.3-0.5-0.7-0.5-1.2s0.2-0.9,0.5-1.2s0.7-0.4,1.3-0.4
		c0.5,0,1,0.1,1.3,0.4c0.3,0.3,0.5,0.7,0.5,1.2s-0.2,0.9-0.5,1.2C194.1,183,193.7,183.1,193.2,183.1z M191.7,195.1v-10.6h2.9v10.6
		H191.7z"/>
	<path class="st10" d="M201.5,195.3c-0.8,0-1.5-0.1-2.3-0.2c-0.7-0.2-1.4-0.4-2-0.6l0.4-2.2c0.7,0.3,1.3,0.5,2,0.6
		c0.6,0.1,1.3,0.2,1.9,0.2c0.6,0,1.1-0.1,1.4-0.3c0.3-0.2,0.5-0.4,0.5-0.8c0-0.2-0.1-0.4-0.2-0.5c-0.1-0.1-0.3-0.3-0.6-0.4
		s-0.7-0.2-1.2-0.3c-1-0.2-1.8-0.5-2.4-0.8c-0.6-0.3-1.1-0.7-1.4-1.1c-0.3-0.4-0.4-1-0.4-1.5c0-1,0.4-1.8,1.2-2.3s1.9-0.8,3.4-0.8
		c0.7,0,1.4,0.1,2.1,0.2c0.7,0.1,1.3,0.3,2,0.6l-0.4,2.2c-0.6-0.3-1.2-0.5-1.8-0.6s-1.2-0.2-1.8-0.2s-1.1,0.1-1.4,0.2
		c-0.3,0.2-0.4,0.4-0.4,0.7c0,0.2,0.1,0.4,0.2,0.5c0.1,0.1,0.3,0.3,0.6,0.4s0.6,0.2,1.1,0.3c0.7,0.2,1.4,0.4,1.9,0.6s1,0.5,1.3,0.8
		s0.6,0.6,0.8,1s0.3,0.8,0.3,1.2c0,1-0.4,1.8-1.2,2.4C204.2,195.1,203.1,195.3,201.5,195.3z"/>
	<path class="st10" d="M211.2,195.3c-1.1,0-1.9-0.3-2.5-0.9c-0.6-0.6-0.9-1.4-0.9-2.4c0-1.2,0.5-2.2,1.5-2.9s2.4-1,4.2-1h1.4
		c0-0.7-0.2-1.1-0.5-1.4c-0.3-0.3-0.9-0.4-1.8-0.4c-0.7,0-1.3,0.1-2,0.2c-0.6,0.2-1.3,0.4-2,0.8l-0.3-2.2c0.7-0.3,1.4-0.6,2.2-0.8
		s1.6-0.2,2.5-0.2c1.1,0,2.1,0.1,2.8,0.4c0.7,0.3,1.2,0.7,1.5,1.3s0.5,1.4,0.5,2.4v6.8h-2.7v-1.2l0,0c-0.4,0.4-0.9,0.8-1.6,1.1
		C212.6,195.2,211.9,195.3,211.2,195.3z M212.2,193.2c0.5,0,0.9-0.1,1.3-0.2s0.7-0.4,0.9-0.7s0.3-0.6,0.3-1V190h-1
		c-1.1,0-2,0.1-2.5,0.4c-0.6,0.3-0.8,0.7-0.8,1.3c0,0.4,0.2,0.8,0.5,1C211.2,193.1,211.6,193.2,212.2,193.2z"/>
	<path class="st10" d="M220.4,195.1V180h2.9v15.1H220.4z"/>
</g>
<g class="st9">
	<path class="st10" d="M66.2,381.6v-15.1h3v12.6H77v2.5H66.2z"/>
	<path class="st10" d="M83.2,381.9c-1.1,0-2.1-0.2-2.9-0.7s-1.5-1.1-1.9-1.9s-0.7-1.8-0.7-3c0-1.1,0.2-2.1,0.7-3
		c0.4-0.8,1.1-1.5,1.9-1.9c0.8-0.5,1.8-0.7,2.9-0.7s2.1,0.2,3,0.7c0.8,0.5,1.5,1.1,1.9,1.9s0.7,1.8,0.7,3c0,1.1-0.2,2.1-0.7,3
		c-0.4,0.8-1.1,1.5-1.9,1.9C85.3,381.6,84.3,381.9,83.2,381.9z M83.2,379.6c0.9,0,1.5-0.3,2-0.9s0.7-1.4,0.7-2.5s-0.2-1.9-0.7-2.5
		s-1.1-0.9-2-0.9s-1.5,0.3-2,0.9s-0.7,1.4-0.7,2.5s0.2,1.9,0.7,2.5C81.7,379.3,82.3,379.6,83.2,379.6z"/>
	<path class="st10" d="M93.6,381.9c-1.1,0-1.9-0.3-2.5-0.9s-0.9-1.4-0.9-2.4c0-1.2,0.5-2.2,1.5-2.9c1-0.7,2.4-1,4.2-1h1.4
		c0-0.7-0.2-1.1-0.5-1.4s-0.9-0.4-1.8-0.4c-0.7,0-1.3,0.1-2,0.2c-0.6,0.2-1.3,0.4-2,0.8l-0.3-2.2c0.7-0.3,1.4-0.6,2.2-0.8
		c0.8-0.2,1.6-0.2,2.5-0.2c1.1,0,2.1,0.1,2.8,0.4c0.7,0.3,1.2,0.7,1.5,1.3c0.3,0.6,0.5,1.4,0.5,2.4v6.8h-2.7v-1.2l0,0
		c-0.4,0.4-0.9,0.8-1.6,1.1C94.9,381.7,94.3,381.9,93.6,381.9z M94.6,379.7c0.5,0,0.9-0.1,1.3-0.2s0.7-0.4,0.9-0.7
		c0.2-0.3,0.3-0.6,0.3-1v-1.2h-1c-1.1,0-2,0.1-2.5,0.4c-0.6,0.3-0.8,0.7-0.8,1.3c0,0.4,0.2,0.8,0.5,1
		C93.6,379.6,94,379.7,94.6,379.7z"/>
	<path class="st10" d="M102.6,381.6v-10.8h2.7v1.4l0,0c0.5-0.6,1-1,1.6-1.3s1.3-0.4,2-0.4c1.3,0,2.3,0.4,2.8,1.1
		c0.6,0.8,0.9,2,0.9,3.6v6.2h-2.8V376c0-1-0.1-1.8-0.4-2.3s-0.8-0.7-1.4-0.7c-0.5,0-0.9,0.1-1.3,0.4c-0.4,0.2-0.7,0.6-0.9,1
		s-0.3,0.8-0.3,1.3v6L102.6,381.6L102.6,381.6z"/>
</g>
<g class="st9">
	<path class="st10" d="M24.3,406.5l1.8-15.1h3.5l2.9,10.2l0,0l2.9-10.2h3.5l1.8,15.1h-2.9l-1-10.9l0,0l-2.9,9.3h-3l-2.9-9.3l0,0
		l-1,10.9H24.3z"/>
	<path class="st10" d="M46,406.7c-1.1,0-1.9-0.3-2.5-0.9s-0.9-1.4-0.9-2.4c0-1.2,0.5-2.2,1.5-2.9c1-0.7,2.4-1,4.2-1h1.4
		c0-0.7-0.2-1.1-0.5-1.4s-0.9-0.4-1.8-0.4c-0.7,0-1.3,0.1-2,0.2s-1.3,0.4-2,0.8l-0.3-2.2c0.7-0.3,1.4-0.6,2.2-0.8
		c0.8-0.2,1.6-0.2,2.5-0.2c1.1,0,2.1,0.1,2.8,0.4s1.2,0.7,1.5,1.3c0.3,0.6,0.5,1.4,0.5,2.4v6.8h-2.7v-1.2l0,0
		c-0.4,0.4-0.9,0.8-1.6,1.1C47.4,406.6,46.7,406.7,46,406.7z M47,404.6c0.5,0,0.9-0.1,1.3-0.2c0.4-0.2,0.7-0.4,0.9-0.7
		c0.2-0.3,0.3-0.6,0.3-1v-1.2h-1c-1.1,0-2,0.1-2.5,0.4c-0.6,0.3-0.8,0.7-0.8,1.3c0,0.4,0.2,0.8,0.5,1C46,404.4,46.4,404.6,47,404.6z
		"/>
	<path class="st10" d="M55,406.5v-10.8h2.7v1.4l0,0c0.5-0.6,1-1,1.6-1.3s1.3-0.4,2-0.4c1.3,0,2.3,0.4,2.8,1.1c0.6,0.8,0.9,2,0.9,3.6
		v6.2h-2.8v-5.7c0-1-0.1-1.8-0.4-2.3c-0.3-0.5-0.8-0.7-1.4-0.7c-0.5,0-0.9,0.1-1.3,0.4c-0.4,0.2-0.7,0.6-0.9,1s-0.3,0.8-0.3,1.3v6
		H55V406.5z"/>
	<path class="st10" d="M70.3,406.7c-1.1,0-1.9-0.3-2.5-0.9s-0.9-1.4-0.9-2.4c0-1.2,0.5-2.2,1.5-2.9c1-0.7,2.4-1,4.2-1H74
		c0-0.7-0.2-1.1-0.5-1.4s-0.9-0.4-1.8-0.4c-0.7,0-1.3,0.1-2,0.2c-0.6,0.2-1.3,0.4-2,0.8l-0.3-2.2c0.7-0.3,1.4-0.6,2.2-0.8
		c0.8-0.2,1.6-0.2,2.5-0.2c1.1,0,2.1,0.1,2.8,0.4c0.7,0.3,1.2,0.7,1.5,1.3c0.3,0.6,0.5,1.4,0.5,2.4v6.8h-2.7v-1.2l0,0
		c-0.4,0.4-0.9,0.8-1.6,1.1C71.7,406.6,71,406.7,70.3,406.7z M71.4,404.6c0.5,0,0.9-0.1,1.3-0.2s0.7-0.4,0.9-0.7
		c0.2-0.3,0.3-0.6,0.3-1v-1.2h-1c-1.1,0-2,0.1-2.5,0.4c-0.6,0.3-0.8,0.7-0.8,1.3c0,0.4,0.2,0.8,0.5,1
		C70.4,404.4,70.8,404.6,71.4,404.6z"/>
	<path class="st10" d="M83.5,411.1c-0.9,0-1.7-0.1-2.4-0.3c-0.7-0.2-1.3-0.5-1.9-0.9l0.5-2.2c0.5,0.4,1.1,0.7,1.7,0.8
		c0.6,0.2,1.2,0.3,1.8,0.3c1.1,0,2-0.3,2.5-0.9s0.8-1.5,0.8-2.7v-0.6l0,0c-0.4,0.5-0.9,0.8-1.5,1s-1.2,0.3-1.9,0.3
		c-1.4,0-2.5-0.5-3.3-1.4s-1.2-2.2-1.2-3.9s0.4-3,1.2-3.9c0.8-0.9,1.9-1.4,3.3-1.4c0.7,0,1.3,0.1,1.9,0.4c0.6,0.2,1.1,0.6,1.5,1l0,0
		v-1.2h2.7v9.5c0,1.9-0.5,3.4-1.5,4.3C87,410.6,85.5,411.1,83.5,411.1z M84,403.8c0.5,0,1-0.1,1.3-0.3c0.4-0.2,0.7-0.4,0.9-0.7
		s0.3-0.7,0.3-1.1v-1.9c0-0.4-0.1-0.8-0.3-1.1s-0.5-0.6-0.9-0.7c-0.4-0.2-0.8-0.3-1.3-0.3c-0.8,0-1.4,0.3-1.9,0.8
		c-0.4,0.5-0.7,1.3-0.7,2.2c0,1,0.2,1.7,0.7,2.2C82.6,403.6,83.2,403.8,84,403.8z"/>
	<path class="st10" d="M97.4,406.7c-1.9,0-3.3-0.5-4.3-1.5s-1.5-2.3-1.5-4.1c0-1.7,0.5-3.1,1.4-4.1c1-1,2.3-1.5,3.9-1.5
		s2.9,0.5,3.7,1.4c0.9,0.9,1.3,2.3,1.3,4c0,0.2,0,0.4,0,0.7c0,0.2,0,0.4,0,0.6h-8.8v-2h6.6l-0.4,0.6c0-1.1-0.2-1.9-0.6-2.4
		s-1-0.8-1.8-0.8c-0.9,0-1.5,0.3-1.9,0.8s-0.6,1.4-0.6,2.4v0.8c0,0.9,0.3,1.6,0.8,2.1s1.3,0.7,2.3,0.7c0.6,0,1.3-0.1,1.9-0.2
		c0.6-0.2,1.2-0.4,1.7-0.7l0.4,2.2c-0.5,0.3-1.1,0.5-1.8,0.7C98.9,406.6,98.2,406.7,97.4,406.7z"/>
	<path class="st10" d="M104.1,406.5v-10.8h2.7v1.4l0,0c0.4-0.6,0.8-1,1.4-1.2s1.1-0.4,1.8-0.4c0.7,0,1.3,0.1,1.8,0.4
		s0.9,0.7,1.1,1.2l0,0c0.4-0.6,0.9-1,1.4-1.3c0.6-0.3,1.2-0.4,2-0.4c1.2,0,2,0.3,2.5,1s0.8,1.8,0.8,3.3v6.7h-2.8v-6.3
		c0-0.8-0.1-1.4-0.4-1.8c-0.2-0.4-0.6-0.6-1.1-0.6c-0.6,0-1.2,0.2-1.5,0.7s-0.5,1.2-0.5,2v5.9h-2.8v-6.6c0-0.6-0.1-1.1-0.4-1.5
		c-0.3-0.3-0.6-0.5-1.1-0.5c-0.6,0-1.1,0.3-1.5,0.8s-0.6,1.2-0.6,2v5.9L104.1,406.5L104.1,406.5z"/>
	<path class="st10" d="M127.2,406.7c-1.9,0-3.3-0.5-4.3-1.5s-1.5-2.3-1.5-4.1c0-1.7,0.5-3.1,1.4-4.1c1-1,2.3-1.5,3.9-1.5
		c1.6,0,2.9,0.5,3.7,1.4c0.9,0.9,1.3,2.3,1.3,4c0,0.2,0,0.4,0,0.7c0,0.2,0,0.4,0,0.6H123v-2h6.6l-0.4,0.6c0-1.1-0.2-1.9-0.6-2.4
		c-0.4-0.5-1-0.8-1.8-0.8c-0.9,0-1.5,0.3-1.9,0.8s-0.6,1.4-0.6,2.4v0.8c0,0.9,0.3,1.6,0.8,2.1s1.3,0.7,2.3,0.7
		c0.6,0,1.3-0.1,1.9-0.2c0.6-0.2,1.2-0.4,1.7-0.7l0.4,2.2c-0.5,0.3-1.1,0.5-1.8,0.7C128.8,406.6,128,406.7,127.2,406.7z"/>
	<path class="st10" d="M134,406.5v-10.8h2.7v1.4l0,0c0.5-0.6,1-1,1.6-1.3s1.3-0.4,2-0.4c1.3,0,2.3,0.4,2.8,1.1
		c0.6,0.8,0.9,2,0.9,3.6v6.2h-2.8v-5.7c0-1-0.1-1.8-0.4-2.3c-0.3-0.5-0.8-0.7-1.4-0.7c-0.5,0-0.9,0.1-1.3,0.4
		c-0.4,0.2-0.7,0.6-0.9,1s-0.3,0.8-0.3,1.3v6H134V406.5z"/>
	<path class="st10" d="M151.5,406.7c-1.4,0-2.4-0.3-3-0.8c-0.6-0.6-0.9-1.5-0.9-2.7V398h-2.3v-2.2h2.3v-3.5h2.9v3.5h3.5v2.2h-3.5
		v4.8c0,0.6,0.1,1,0.4,1.3c0.2,0.2,0.7,0.4,1.2,0.4c0.3,0,0.5,0,0.8-0.1c0.3,0,0.5-0.1,0.8-0.2l0.3,2.3c-0.4,0.1-0.8,0.2-1.2,0.3
		C152.4,406.7,152,406.7,151.5,406.7z"/>
</g>
<circle class="st10" cx="388.8" cy="388.8" r="90.3"/>
<g class="st9">
	<path class="st11" d="M334.6,400.6v-28.2h5.4v28.2H334.6z M337.3,388.3v-4.7h16.8v4.7H337.3z M351.4,400.6v-28.2h5.4v28.2H351.4z"
		/>
	<path class="st11" d="M362.8,372.6c1-0.1,2-0.2,3-0.3c1.1-0.1,2.1-0.1,3.1-0.2s1.9-0.1,2.7-0.1c4.2,0,7.3,0.7,9.3,2.2
		s2.9,3.7,2.9,6.8c0,3.1-1,5.3-2.9,6.8c-2,1.4-5,2.2-9.3,2.2c-1,0-2,0-3.2-0.1s-2.3-0.1-3.4-0.2l0.6-4.5c1.3,0.2,2.5,0.3,3.5,0.4
		c1.1,0.1,2,0.1,2.8,0.1c2.3,0,3.9-0.4,4.9-1.1s1.5-1.8,1.5-3.4s-0.5-2.7-1.5-3.4c-1-0.7-2.6-1.1-4.9-1.1c-0.8,0-1.7,0-2.8,0.1
		c-1.1,0.1-2.2,0.2-3.5,0.4l2.5-2.8v26.2h-5.4L362.8,372.6L362.8,372.6z M378.9,400.6L366,387.5h6.4l13.2,13.1H378.9z"/>
	<path class="st11" d="M388.2,400.6l3.4-28.2h6.6l5.5,18.9h0.1l5.5-18.9h6.6l3.4,28.2h-5.4l-1.9-20.4l0,0l-5.4,17.3H401l-5.4-17.3
		h-0.1l-1.9,20.4H388.2z"/>
	<path class="st11" d="M432.8,400.9c-1.9,0-3.8-0.2-5.6-0.6c-1.8-0.4-3.3-0.9-4.6-1.6l1.2-4.7c0.9,0.4,1.8,0.8,2.9,1.2
		c1.1,0.3,2.1,0.6,3.2,0.8c1.1,0.2,2.1,0.3,3.1,0.3c1.7,0,3-0.3,3.9-0.9s1.4-1.5,1.4-2.6c0-0.6-0.1-1.1-0.4-1.6
		c-0.3-0.4-0.7-0.8-1.3-1.1c-0.6-0.3-1.3-0.6-2.2-0.9s-1.9-0.6-3.1-0.9c-1.4-0.4-2.6-0.8-3.7-1.3s-2-1.1-2.8-1.7
		c-0.8-0.7-1.3-1.4-1.7-2.3c-0.4-0.9-0.6-1.9-0.6-3.1c0-2.5,1-4.5,2.9-5.8s4.7-2,8.2-2c1.7,0,3.5,0.2,5.2,0.5s3.2,0.8,4.5,1.3
		l-1.3,4.7c-1.2-0.6-2.6-1-4.1-1.4c-1.5-0.3-3-0.5-4.4-0.5c-1.7,0-3.1,0.3-4,0.8s-1.3,1.3-1.3,2.3c0,0.6,0.1,1.1,0.4,1.6
		c0.3,0.4,0.6,0.8,1.2,1.1s1.2,0.6,2,0.9s1.8,0.6,2.9,0.9c1.5,0.4,2.8,0.9,3.9,1.4s2.1,1.1,2.9,1.7c0.8,0.7,1.4,1.4,1.8,2.3
		s0.6,1.9,0.6,3.1c0,2.6-1,4.6-3,6S436.4,400.9,432.8,400.9z"/>
</g>
</svg>
