<?xml version="1.0" encoding="utf-8"?>
<!-- Generator: Adobe Illustrator 26.0.1, SVG Export Plug-In . SVG Version: 6.00 Build 0)  -->
<svg version="1.1" id="Layer_1" xmlns="http://www.w3.org/2000/svg" xmlns:xlink="http://www.w3.org/1999/xlink" x="0px" y="0px"
	 viewBox="0 0 343.72 56.92" style="enable-background:new 0 0 343.72 56.92;" xml:space="preserve">
<style type="text/css">
	.st0{fill:#6D6E70;}
	.st1{fill:#00A551;}
	.st2{fill:none;stroke:#6D6E70;stroke-miterlimit:10;}
</style>
<g>
	<path class="st0" d="M4.58,53.28h1.38c-0.49,0-0.91-0.09-1.25-0.24L4.58,53.28z"/>
	<path class="st0" d="M28.21,53.33c0.23,0,0.45-0.02,0.65-0.04h-1.45C27.67,53.31,27.93,53.33,28.21,53.33"/>
	<path class="st0" d="M36.9,23.95l16.92,29.33h4.16c2.06,0,2.91-1.46,1.88-3.25L40.84,17.09L36.9,23.95z"/>
	<polygon class="st1" points="37.19,10.75 33.27,17.65 35.94,22.28 39.86,15.38 	"/>
	<polygon class="st0" points="37.65,52.19 37.65,47.18 35.59,47.18 35.59,53.28 40.83,53.28 40.83,52.19 	"/>
	<rect x="18.33" y="49.52" class="st0" width="2.25" height="3.77"/>
	<rect x="18.33" y="47.18" class="st0" width="2.25" height="1.32"/>
	<path class="st0" d="M8.56,47.18h-0.8l3.05,4.83H7.2l1.13-2.28H6.41l-1.7,3.32c0.34,0.15,0.76,0.24,1.25,0.24h8.13l-3.94-6.1H8.56z
		"/>
	<path class="st0" d="M30.89,51.5c0-0.46-0.18-0.84-0.54-1.12c-0.32-0.26-0.77-0.49-1.34-0.7c-0.04-0.01-0.12-0.04-0.23-0.08
		c-0.11-0.04-0.18-0.07-0.23-0.08l-0.21-0.08c-0.11-0.04-0.15-0.06-0.15-0.07c-0.05-0.03-0.11-0.07-0.19-0.11
		c-0.07-0.03-0.08-0.05-0.09-0.06c-0.03-0.03-0.05-0.06-0.08-0.1c-0.02-0.03-0.03-0.05-0.04-0.08c-0.01-0.03-0.01-0.06-0.01-0.1
		c0-0.12,0.05-0.22,0.17-0.29c0.14-0.09,0.33-0.13,0.59-0.13c0.64,0,1.17,0.1,1.57,0.29l0.4,0.2v-1.51l-0.15-0.06
		c-0.46-0.18-1.06-0.27-1.85-0.27c-0.73,0-1.36,0.16-1.85,0.46c-0.52,0.32-0.78,0.77-0.78,1.34c0,0.8,0.6,1.4,1.77,1.8
		c0.37,0.13,0.64,0.23,0.79,0.29c0.13,0.05,0.26,0.13,0.39,0.24c0.11,0.09,0.15,0.18,0.15,0.28c0,0.12-0.06,0.21-0.18,0.29
		C28.66,51.96,28.44,52,28.15,52c-0.62,0-1.24-0.15-1.82-0.44l-0.41-0.21v1.56l0.15,0.06c0.39,0.16,0.84,0.26,1.35,0.31h1.45
		c0.5-0.07,0.93-0.21,1.27-0.43C30.64,52.53,30.89,52.07,30.89,51.5"/>
	<path class="st2" d="M5.96,56.42c-2.14,0-3.89-0.92-4.82-2.52c-0.93-1.6-0.84-3.58,0.22-5.43L27.38,3.41
		c1.07-1.85,2.74-2.91,4.59-2.91c1.85,0,3.52,1.06,4.59,2.91l26.01,45.05c1.07,1.85,1.15,3.83,0.22,5.43
		c-0.93,1.6-2.68,2.52-4.82,2.52H5.96z"/>
	<path class="st1" d="M35.83,25.81l-8.58,14.83h-9.61L35.97,8.64l-2.12-3.67c-0.98-1.69-2.54-1.75-3.58-0.24l-9.16,15.82L7.5,44.1
		c-0.39,1.22,0.17,2.18,1.41,2.46h22.94l4.23-7.17l8.02,13.89h7.59L35.83,25.81z"/>
</g>
<g>
	<path class="st1" d="M74.38,35.29L91.69,0.56h15.36l17.25,34.73h-12.7l-2.89-6.32H90.03l-3.25,6.32H74.38z M93.28,20.82h12.11
		L99.66,8.24h-0.59L93.28,20.82z"/>
	<path class="st1" d="M139.12,35.29c-4.21,0-7.27-0.92-9.16-2.78c-1.89-1.85-2.83-4.84-2.83-8.98V12.73c0-4.25,1.04-7.35,3.13-9.3
		c2.09-1.95,5.04-2.92,8.86-2.92h19.73c2.72,0,4.79,0.15,6.23,0.44c1.44,0.3,2.16,0.6,2.16,0.92l-1.83,7.38
		c-0.99-0.12-2.9-0.25-5.76-0.38s-6.45-0.21-10.78-0.21h-5.49c-1.85,0-3.1,0.34-3.75,1.03c-0.65,0.69-0.97,1.74-0.97,3.16v10.1
		c0,1.34,0.29,2.37,0.86,3.1c0.57,0.73,1.86,1.09,3.87,1.09h4.78c1.81,0,3.45-0.01,4.9-0.03c1.46-0.02,2.74-0.05,3.84-0.09v-4.49
		l-2.36,0.06l-7.74,0.59v-8.15h21.38v17.78l0.59,1.24c0,0.32-0.83,0.6-2.48,0.86c-1.65,0.26-4.45,0.38-8.39,0.38H139.12z"/>
	<path class="st1" d="M215.38,35.88c-1.58,0-3.33-0.25-5.26-0.74c-1.93-0.49-3.84-1.7-5.73-3.63l-2.48-2.48
		c-1.18-1.18-2.31-2.15-3.4-2.89s-2.31-1.31-3.69-1.68c-1.38-0.37-3.11-0.56-5.2-0.56h-0.47v11.4h-11.52V5.28l-0.59-4.78h27.35
		c2.52,0,4.56,0.31,6.11,0.92c1.56,0.61,2.76,1.42,3.6,2.42c0.85,1,1.43,2.14,1.74,3.4c0.31,1.26,0.47,2.54,0.47,3.84v1.12
		c0,2.36-0.6,4.48-1.8,6.35c-1.2,1.87-3.1,3.2-5.7,3.99c0.98,0.59,1.92,1.19,2.81,1.8c0.89,0.61,1.9,1.25,3.04,1.92
		c1.3,0.75,2.51,1.29,3.63,1.62c1.12,0.33,2.06,0.54,2.81,0.62c0.75,0.08,1.18,0.12,1.3,0.12l-1.77,6.67
		c-0.47,0.12-1.19,0.25-2.16,0.38C217.51,35.81,216.48,35.88,215.38,35.88z M196,16.04c0.98,0,1.94-0.02,2.86-0.06
		c0.92-0.04,1.76-0.1,2.51-0.18c1.34-0.16,2.25-0.58,2.75-1.27c0.49-0.69,0.74-1.53,0.74-2.51v-0.65c0-0.87-0.25-1.54-0.74-2.01
		c-0.49-0.47-1.39-0.71-2.69-0.71h-12.29v7.15c0.98,0.04,2.07,0.09,3.25,0.15C193.58,16.01,194.78,16.04,196,16.04z"/>
	<path class="st1" d="M223.47,35.29l17.31-34.73h15.36l17.25,34.73h-12.7l-2.89-6.32h-18.67l-3.25,6.32H223.47z M242.37,20.82h12.11
		l-5.73-12.58h-0.59L242.37,20.82z"/>
	<path class="st1" d="M279.17,35.29V5.28l-0.59-4.73h10.87l16.66,16.89l2.3,2.6h0.65V0.56h11.34v34.73h-9.86L293.4,18.22l-2.3-2.78
		h-0.59v19.85H279.17z"/>
	<path class="st1" d="M329.85,35.29V0.56h11.34v34.73H329.85z"/>
</g>
<g>
	<path class="st0" d="M78.8,41.89v14.32h-2.94V41.89H78.8z"/>
	<path class="st0" d="M93.21,41.89v14.32h-2.95l-5.75-9.6v9.6h-2.95V41.89h2.95l5.76,9.61v-9.61H93.21z"/>
	<path class="st0" d="M103.22,52.47c0-0.26-0.04-0.49-0.11-0.69c-0.08-0.21-0.21-0.4-0.42-0.57s-0.49-0.35-0.86-0.52
		c-0.37-0.17-0.84-0.35-1.43-0.53c-0.65-0.21-1.26-0.45-1.84-0.71c-0.58-0.26-1.09-0.57-1.53-0.92c-0.44-0.35-0.79-0.76-1.04-1.22
		c-0.25-0.47-0.38-1.01-0.38-1.62c0-0.6,0.13-1.14,0.39-1.63c0.26-0.49,0.63-0.91,1.1-1.26c0.47-0.35,1.03-0.62,1.68-0.81
		c0.65-0.19,1.36-0.29,2.13-0.29c1.06,0,1.98,0.19,2.76,0.57c0.79,0.38,1.4,0.9,1.83,1.56c0.44,0.66,0.65,1.42,0.65,2.27h-2.93
		c0-0.42-0.09-0.79-0.26-1.11c-0.17-0.32-0.44-0.57-0.79-0.76c-0.35-0.19-0.79-0.28-1.32-0.28c-0.51,0-0.94,0.08-1.28,0.24
		s-0.6,0.37-0.77,0.62c-0.17,0.26-0.26,0.55-0.26,0.87c0,0.24,0.06,0.46,0.18,0.66c0.12,0.2,0.3,0.38,0.55,0.55
		c0.24,0.17,0.54,0.33,0.89,0.48c0.35,0.15,0.76,0.3,1.23,0.44c0.78,0.24,1.47,0.5,2.06,0.8c0.59,0.3,1.09,0.63,1.49,0.99
		s0.7,0.78,0.91,1.25s0.3,0.99,0.3,1.58c0,0.62-0.12,1.18-0.36,1.67c-0.24,0.49-0.59,0.91-1.05,1.25c-0.46,0.34-1.01,0.6-1.64,0.78
		c-0.64,0.18-1.35,0.27-2.13,0.27c-0.71,0-1.41-0.09-2.09-0.28c-0.69-0.19-1.31-0.47-1.87-0.85c-0.56-0.38-1.01-0.87-1.34-1.46
		c-0.33-0.59-0.5-1.29-0.5-2.09h2.96c0,0.45,0.07,0.82,0.21,1.13s0.33,0.56,0.58,0.75c0.25,0.19,0.55,0.33,0.91,0.42
		c0.35,0.09,0.74,0.13,1.16,0.13c0.51,0,0.93-0.07,1.26-0.22s0.58-0.35,0.74-0.61C103.14,53.08,103.22,52.79,103.22,52.47z"/>
	<path class="st0" d="M116.08,41.89h2.94v9.46c0,1.1-0.23,2.03-0.7,2.78c-0.47,0.75-1.12,1.32-1.94,1.7
		c-0.82,0.38-1.77,0.57-2.84,0.57c-1.07,0-2.02-0.19-2.85-0.57c-0.83-0.38-1.48-0.95-1.95-1.7c-0.47-0.75-0.7-1.68-0.7-2.78v-9.46
		h2.95v9.46c0,0.64,0.1,1.17,0.3,1.57c0.2,0.41,0.5,0.71,0.88,0.9c0.38,0.19,0.84,0.29,1.36,0.29c0.54,0,1-0.09,1.37-0.29
		s0.67-0.49,0.87-0.9c0.2-0.41,0.3-0.93,0.3-1.57V41.89z"/>
	<path class="st0" d="M121.45,41.89h5.34c1.1,0,2.04,0.16,2.83,0.49c0.79,0.33,1.4,0.81,1.83,1.46s0.64,1.43,0.64,2.37
		c0,0.77-0.13,1.42-0.39,1.97s-0.62,1-1.09,1.37c-0.47,0.36-1.02,0.65-1.65,0.87l-0.93,0.49h-4.64l-0.02-2.3h3.45
		c0.52,0,0.95-0.09,1.29-0.28s0.6-0.44,0.77-0.77c0.17-0.33,0.26-0.71,0.26-1.14c0-0.46-0.09-0.86-0.26-1.19
		c-0.17-0.33-0.43-0.59-0.78-0.77c-0.35-0.18-0.78-0.27-1.31-0.27h-2.39v12.01h-2.95V41.89z M129.46,56.22l-3.27-6.38l3.12-0.02
		l3.31,6.27v0.14H129.46z"/>
	<path class="st0" d="M140.18,44.34l-3.9,11.87h-3.14l5.32-14.32h2L140.18,44.34z M143.24,50.88v2.31h-7.57v-2.31H143.24z
		 M143.42,56.22l-3.91-11.87l-0.31-2.45h2.02l5.35,14.32H143.42z"/>
	<path class="st0" d="M159.55,41.89v14.32h-2.95l-5.75-9.6v9.6h-2.95V41.89h2.95l5.76,9.61v-9.61H159.55z"/>
	<path class="st0" d="M170.41,51.46h2.94c-0.06,0.96-0.32,1.82-0.79,2.57c-0.47,0.75-1.12,1.33-1.96,1.75s-1.84,0.63-3.02,0.63
		c-0.92,0-1.74-0.16-2.47-0.48s-1.35-0.78-1.86-1.37s-0.91-1.32-1.18-2.16c-0.27-0.85-0.4-1.79-0.4-2.84v-0.99
		c0-1.05,0.14-2,0.42-2.85c0.28-0.85,0.68-1.57,1.2-2.17c0.52-0.6,1.15-1.06,1.87-1.38c0.73-0.32,1.54-0.48,2.44-0.48
		c1.19,0,2.2,0.22,3.02,0.65c0.82,0.43,1.46,1.03,1.92,1.79c0.46,0.76,0.73,1.63,0.82,2.6h-2.94c-0.04-0.58-0.16-1.07-0.35-1.47
		s-0.49-0.71-0.89-0.92c-0.4-0.21-0.92-0.31-1.58-0.31c-0.49,0-0.92,0.09-1.29,0.28s-0.68,0.46-0.92,0.84
		c-0.25,0.37-0.43,0.84-0.56,1.41s-0.18,1.23-0.18,1.99v1.01c0,0.74,0.06,1.39,0.17,1.95s0.28,1.03,0.52,1.42
		c0.23,0.38,0.53,0.67,0.9,0.87c0.37,0.19,0.82,0.29,1.34,0.29c0.62,0,1.12-0.1,1.53-0.29c0.4-0.2,0.71-0.49,0.92-0.88
		C170.25,52.52,170.37,52.04,170.41,51.46z"/>
	<path class="st0" d="M178.24,41.89v14.32h-2.95V41.89H178.24z M184.89,41.89v2.31h-7.61v-2.31H184.89z M183.91,47.73v2.24h-6.63
		v-2.24H183.91z M184.9,53.91v2.3h-7.62v-2.3H184.9z"/>
	<path class="st0" d="M199.09,52.47c0-0.26-0.04-0.49-0.11-0.69c-0.08-0.21-0.21-0.4-0.42-0.57s-0.49-0.35-0.86-0.52
		c-0.37-0.17-0.84-0.35-1.43-0.53c-0.65-0.21-1.26-0.45-1.84-0.71c-0.58-0.26-1.09-0.57-1.53-0.92c-0.44-0.35-0.79-0.76-1.04-1.22
		c-0.25-0.47-0.38-1.01-0.38-1.62c0-0.6,0.13-1.14,0.39-1.63c0.26-0.49,0.63-0.91,1.1-1.26c0.47-0.35,1.03-0.62,1.68-0.81
		c0.65-0.19,1.36-0.29,2.13-0.29c1.06,0,1.98,0.19,2.76,0.57c0.79,0.38,1.4,0.9,1.83,1.56c0.44,0.66,0.65,1.42,0.65,2.27h-2.93
		c0-0.42-0.09-0.79-0.26-1.11c-0.17-0.32-0.44-0.57-0.79-0.76c-0.35-0.19-0.79-0.28-1.32-0.28c-0.51,0-0.94,0.08-1.28,0.24
		s-0.6,0.37-0.77,0.62c-0.17,0.26-0.26,0.55-0.26,0.87c0,0.24,0.06,0.46,0.18,0.66c0.12,0.2,0.3,0.38,0.55,0.55
		c0.24,0.17,0.54,0.33,0.89,0.48c0.35,0.15,0.76,0.3,1.23,0.44c0.78,0.24,1.47,0.5,2.06,0.8c0.59,0.3,1.09,0.63,1.49,0.99
		s0.7,0.78,0.91,1.25s0.3,0.99,0.3,1.58c0,0.62-0.12,1.18-0.36,1.67c-0.24,0.49-0.59,0.91-1.05,1.25c-0.46,0.34-1.01,0.6-1.64,0.78
		c-0.64,0.18-1.35,0.27-2.13,0.27c-0.71,0-1.41-0.09-2.09-0.28c-0.69-0.19-1.31-0.47-1.87-0.85c-0.56-0.38-1.01-0.87-1.34-1.46
		c-0.33-0.59-0.5-1.29-0.5-2.09h2.96c0,0.45,0.07,0.82,0.21,1.13s0.33,0.56,0.58,0.75c0.25,0.19,0.55,0.33,0.91,0.42
		c0.35,0.09,0.74,0.13,1.16,0.13c0.51,0,0.93-0.07,1.26-0.22s0.58-0.35,0.74-0.61C199.01,53.08,199.09,52.79,199.09,52.47z"/>
	<path class="st0" d="M206.99,41.89v14.32h-2.95V41.89H206.99z M213.64,41.89v2.31h-7.61v-2.31H213.64z M212.65,47.73v2.24h-6.63
		v-2.24H212.65z M213.65,53.91v2.3h-7.62v-2.3H213.65z"/>
	<path class="st0" d="M223.67,51.46h2.94c-0.06,0.96-0.32,1.82-0.79,2.57c-0.47,0.75-1.12,1.33-1.96,1.75s-1.84,0.63-3.02,0.63
		c-0.92,0-1.74-0.16-2.47-0.48s-1.35-0.78-1.86-1.37s-0.91-1.32-1.18-2.16c-0.27-0.85-0.4-1.79-0.4-2.84v-0.99
		c0-1.05,0.14-2,0.42-2.85c0.28-0.85,0.68-1.57,1.2-2.17c0.52-0.6,1.15-1.06,1.87-1.38c0.73-0.32,1.54-0.48,2.44-0.48
		c1.19,0,2.2,0.22,3.02,0.65c0.82,0.43,1.46,1.03,1.92,1.79c0.46,0.76,0.73,1.63,0.82,2.6h-2.94c-0.04-0.58-0.16-1.07-0.35-1.47
		s-0.49-0.71-0.89-0.92c-0.4-0.21-0.92-0.31-1.58-0.31c-0.49,0-0.92,0.09-1.29,0.28s-0.68,0.46-0.92,0.84
		c-0.25,0.37-0.43,0.84-0.56,1.41s-0.18,1.23-0.18,1.99v1.01c0,0.74,0.06,1.39,0.17,1.95s0.28,1.03,0.52,1.42
		c0.23,0.38,0.53,0.67,0.9,0.87c0.37,0.19,0.82,0.29,1.34,0.29c0.62,0,1.12-0.1,1.53-0.29c0.4-0.2,0.71-0.49,0.92-0.88
		C223.51,52.52,223.63,52.04,223.67,51.46z"/>
	<path class="st0" d="M236.46,41.89h2.94v9.46c0,1.1-0.23,2.03-0.7,2.78c-0.47,0.75-1.12,1.32-1.94,1.7
		c-0.82,0.38-1.77,0.57-2.84,0.57c-1.07,0-2.02-0.19-2.85-0.57c-0.83-0.38-1.48-0.95-1.95-1.7c-0.47-0.75-0.7-1.68-0.7-2.78v-9.46
		h2.95v9.46c0,0.64,0.1,1.17,0.3,1.57c0.2,0.41,0.5,0.71,0.88,0.9c0.38,0.19,0.84,0.29,1.36,0.29c0.54,0,1-0.09,1.37-0.29
		s0.67-0.49,0.87-0.9c0.2-0.41,0.3-0.93,0.3-1.57V41.89z"/>
	<path class="st0" d="M241.83,41.89h5.34c1.1,0,2.04,0.16,2.83,0.49c0.79,0.33,1.4,0.81,1.83,1.46s0.64,1.43,0.64,2.37
		c0,0.77-0.13,1.42-0.39,1.97s-0.62,1-1.09,1.37c-0.47,0.36-1.02,0.65-1.65,0.87l-0.93,0.49h-4.64l-0.02-2.3h3.45
		c0.52,0,0.95-0.09,1.29-0.28s0.6-0.44,0.77-0.77c0.17-0.33,0.26-0.71,0.26-1.14c0-0.46-0.09-0.86-0.26-1.19
		c-0.17-0.33-0.43-0.59-0.78-0.77c-0.35-0.18-0.78-0.27-1.31-0.27h-2.39v12.01h-2.95V41.89z M249.84,56.22l-3.27-6.38l3.12-0.02
		l3.31,6.27v0.14H249.84z"/>
	<path class="st0" d="M257.87,41.89v14.32h-2.94V41.89H257.87z"/>
	<path class="st0" d="M271.15,41.89v2.31h-11.69v-2.31H271.15z M266.75,41.89v14.32h-2.94V41.89H266.75z"/>
	<path class="st0" d="M275.96,41.89v14.32h-2.94V41.89H275.96z"/>
	<path class="st0" d="M281.67,41.89v14.32h-2.95V41.89H281.67z M288.32,41.89v2.31h-7.61v-2.31H288.32z M287.34,47.73v2.24h-6.63
		v-2.24H287.34z M288.33,53.91v2.3h-7.62v-2.3H288.33z"/>
	<path class="st0" d="M297.51,52.47c0-0.26-0.04-0.49-0.11-0.69c-0.08-0.21-0.21-0.4-0.42-0.57s-0.49-0.35-0.86-0.52
		c-0.37-0.17-0.84-0.35-1.43-0.53c-0.65-0.21-1.26-0.45-1.84-0.71c-0.58-0.26-1.09-0.57-1.53-0.92c-0.44-0.35-0.79-0.76-1.04-1.22
		c-0.25-0.47-0.38-1.01-0.38-1.62c0-0.6,0.13-1.14,0.39-1.63c0.26-0.49,0.63-0.91,1.1-1.26c0.47-0.35,1.03-0.62,1.68-0.81
		c0.65-0.19,1.36-0.29,2.13-0.29c1.06,0,1.98,0.19,2.76,0.57c0.79,0.38,1.4,0.9,1.83,1.56c0.44,0.66,0.65,1.42,0.65,2.27h-2.93
		c0-0.42-0.09-0.79-0.26-1.11c-0.17-0.32-0.44-0.57-0.79-0.76c-0.35-0.19-0.79-0.28-1.32-0.28c-0.51,0-0.94,0.08-1.28,0.24
		s-0.6,0.37-0.77,0.62c-0.17,0.26-0.26,0.55-0.26,0.87c0,0.24,0.06,0.46,0.18,0.66c0.12,0.2,0.3,0.38,0.55,0.55
		c0.24,0.17,0.54,0.33,0.89,0.48c0.35,0.15,0.76,0.3,1.23,0.44c0.78,0.24,1.47,0.5,2.06,0.8c0.59,0.3,1.09,0.63,1.49,0.99
		s0.7,0.78,0.91,1.25s0.3,0.99,0.3,1.58c0,0.62-0.12,1.18-0.36,1.67c-0.24,0.49-0.59,0.91-1.05,1.25c-0.46,0.34-1.01,0.6-1.64,0.78
		c-0.64,0.18-1.35,0.27-2.13,0.27c-0.71,0-1.41-0.09-2.09-0.28c-0.69-0.19-1.31-0.47-1.87-0.85c-0.56-0.38-1.01-0.87-1.34-1.46
		c-0.33-0.59-0.5-1.29-0.5-2.09h2.96c0,0.45,0.07,0.82,0.21,1.13s0.33,0.56,0.58,0.75c0.25,0.19,0.55,0.33,0.91,0.42
		c0.35,0.09,0.74,0.13,1.16,0.13c0.51,0,0.93-0.07,1.26-0.22s0.58-0.35,0.74-0.61C297.43,53.08,297.51,52.79,297.51,52.47z"/>
	<path class="st0" d="M310.42,41.89v14.32h-2.95V41.89H310.42z M316.67,53.91v2.3h-7.21v-2.3H316.67z"/>
	<path class="st0" d="M326.93,41.89v2.31h-11.69v-2.31H326.93z M322.52,41.89v14.32h-2.94V41.89H322.52z"/>
	<path class="st0" d="M331.56,41.89v14.32h-2.95V41.89H331.56z M333,56.22h-3.12l0.02-2.3h3.1c0.77,0,1.43-0.18,1.96-0.53
		s0.93-0.86,1.21-1.54c0.27-0.67,0.41-1.49,0.41-2.45v-0.7c0-0.73-0.08-1.38-0.23-1.94c-0.15-0.56-0.38-1.03-0.68-1.41
		c-0.3-0.38-0.67-0.67-1.11-0.86s-0.94-0.29-1.51-0.29h-3.21v-2.31h3.21c0.96,0,1.83,0.16,2.63,0.49c0.8,0.32,1.49,0.79,2.07,1.39
		c0.58,0.6,1.03,1.32,1.35,2.16c0.32,0.84,0.48,1.77,0.48,2.79v0.68c0,1.02-0.16,1.94-0.48,2.78c-0.32,0.84-0.77,1.56-1.35,2.16
		c-0.58,0.6-1.27,1.06-2.08,1.39C334.86,56.05,333.97,56.22,333,56.22z"/>
	<path class="st0" d="M340.52,54.85c0-0.42,0.15-0.77,0.44-1.05c0.29-0.28,0.68-0.42,1.17-0.42s0.87,0.14,1.17,0.42
		s0.44,0.63,0.44,1.05s-0.15,0.77-0.44,1.05c-0.29,0.28-0.68,0.42-1.17,0.42s-0.87-0.14-1.17-0.42
		C340.66,55.62,340.52,55.27,340.52,54.85z"/>
</g>
</svg>
