<?xml version="1.0" encoding="utf-8"?>
<!-- Generator: Adobe Illustrator 26.0.1, SVG Export Plug-In . SVG Version: 6.00 Build 0)  -->
<svg version="1.1" id="Layer_1" xmlns="http://www.w3.org/2000/svg" xmlns:xlink="http://www.w3.org/1999/xlink" x="0px" y="0px"
	 viewBox="0 0 362.9 76.4" style="enable-background:new 0 0 362.9 76.4;" xml:space="preserve">
<style type="text/css">
	.st0{fill:#8BC472;}
	.st1{fill:#167439;}
	.st2{fill:#BD2726;}
	.st3{fill:#545454;}
</style>
<g>
	<g>
		<path class="st0" d="M25.7,59.8v11.7H0C0,71.5,10.6,68.1,25.7,59.8z"/>
		<path class="st1" d="M58.3,37.5v34H32.6V55.8C40.5,51,49.3,45,58.3,37.5z"/>
		<path class="st2" d="M89.7,4.4v67.1H64V32.6C72.8,24.7,81.6,15.3,89.7,4.4z"/>
		<path class="st3" d="M82.7,3C82.1,3.8,50.1,48.6,0,63.9V33.6C44.3,37,82,3.6,82.7,3z"/>
	</g>
	<path class="st3" d="M105.3,42.7V3.3h17c4.4,0,7.8,0.9,10.2,2.6c2.4,1.8,3.6,4.3,3.6,7.5c0,2.1-0.5,3.9-1.5,5.4s-2.3,2.6-4,3.3
		c-1.7,0.7-3.6,1.1-5.6,1.1l1-1.3c2.5,0,4.7,0.4,6.5,1.2c1.8,0.8,3.2,1.9,4.2,3.4c1,1.5,1.5,3.4,1.5,5.6c0,3.3-1.2,5.9-3.7,7.8
		c-2.5,1.8-6.1,2.8-11.1,2.8H105.3z M109.5,39.2h13.9c3.4,0,6.1-0.6,7.9-1.8c1.8-1.2,2.8-3.1,2.8-5.6c0-2.5-0.9-4.4-2.8-5.6
		c-1.8-1.2-4.5-1.8-7.9-1.8h-14.3V21h13c3.1,0,5.6-0.6,7.3-1.8c1.7-1.2,2.6-3,2.6-5.3c0-2.4-0.9-4.2-2.6-5.4
		c-1.7-1.2-4.2-1.8-7.3-1.8h-12.5V39.2z"/>
	<path class="st3" d="M156.3,42.7V3.3h4.2v39.3H156.3z"/>
	<path class="st3" d="M185.8,42.7V3.3h14.7c3.3,0,6.2,0.5,8.6,1.6c2.4,1.1,4.2,2.6,5.5,4.6c1.3,2,1.9,4.4,1.9,7.3
		c0,2.8-0.6,5.2-1.9,7.2c-1.3,2-3.1,3.5-5.5,4.6c-2.4,1.1-5.3,1.6-8.6,1.6h-12.4l1.9-2v14.4H185.8z M189.9,28.6l-1.9-2h12.3
		c3.9,0,6.9-0.9,9-2.6c2-1.7,3.1-4.1,3.1-7.2c0-3.1-1-5.6-3.1-7.3c-2-1.7-5-2.6-9-2.6h-12.3l1.9-2V28.6z"/>
	<path class="st3" d="M231.7,42.7V3.3h4.2v35.7h22v3.6H231.7z"/>
	<path class="st3" d="M287.4,43c-3,0-5.7-0.5-8.2-1.5c-2.5-1-4.7-2.4-6.6-4.2c-1.9-1.8-3.3-3.9-4.3-6.3c-1-2.4-1.5-5.1-1.5-7.9
		c0-2.9,0.5-5.5,1.5-7.9c1-2.4,2.5-4.5,4.3-6.3c1.9-1.8,4-3.2,6.5-4.2c2.5-1,5.3-1.5,8.3-1.5c3,0,5.7,0.5,8.2,1.5
		c2.5,1,4.7,2.4,6.5,4.2c1.9,1.8,3.3,3.9,4.3,6.3c1,2.4,1.5,5.1,1.5,8c0,2.9-0.5,5.5-1.5,8c-1,2.4-2.5,4.5-4.3,6.3
		c-1.9,1.8-4,3.2-6.5,4.2C293.1,42.5,290.3,43,287.4,43z M287.4,39.3c2.4,0,4.5-0.4,6.5-1.2c2-0.8,3.7-1.9,5.2-3.4
		c1.5-1.5,2.6-3.2,3.5-5.2c0.8-2,1.2-4.1,1.2-6.5s-0.4-4.5-1.2-6.5c-0.8-2-2-3.7-3.5-5.2c-1.5-1.5-3.2-2.6-5.2-3.4
		c-2-0.8-4.2-1.2-6.5-1.2c-2.4,0-4.5,0.4-6.6,1.2c-2,0.8-3.8,1.9-5.3,3.4c-1.5,1.5-2.7,3.2-3.5,5.2c-0.8,2-1.2,4.1-1.2,6.5
		c0,2.3,0.4,4.5,1.2,6.5c0.8,2,2,3.7,3.5,5.2c1.5,1.5,3.3,2.6,5.3,3.4C282.8,38.9,285,39.3,287.4,39.3z"/>
	<path class="st3" d="M328.9,42.7V3.3h17c4.4,0,7.8,0.9,10.2,2.6c2.4,1.8,3.6,4.3,3.6,7.5c0,2.1-0.5,3.9-1.5,5.4
		c-1,1.5-2.3,2.6-4,3.3c-1.7,0.7-3.6,1.1-5.6,1.1l1-1.3c2.5,0,4.7,0.4,6.5,1.2c1.8,0.8,3.2,1.9,4.2,3.4c1,1.5,1.5,3.4,1.5,5.6
		c0,3.3-1.2,5.9-3.7,7.8c-2.5,1.8-6.1,2.8-11.1,2.8H328.9z M333.1,39.2H347c3.4,0,6.1-0.6,7.9-1.8c1.8-1.2,2.8-3.1,2.8-5.6
		c0-2.5-0.9-4.4-2.8-5.6c-1.8-1.2-4.5-1.8-7.9-1.8h-14.3V21h13c3.1,0,5.6-0.6,7.3-1.8c1.7-1.2,2.6-3,2.6-5.3c0-2.4-0.9-4.2-2.6-5.4
		c-1.7-1.2-4.2-1.8-7.3-1.8h-12.5V39.2z"/>
	<g>
		<g>
			<path class="st3" d="M111.5,71.1h-5.2V48.8h5.2V71.1z M122,62h-10.9v-4.4H122V62z M121.6,48.8h5.2v22.3h-5.2V48.8z"/>
			<path class="st3" d="M142.9,71.5c-1.8,0-3.4-0.3-4.9-0.9c-1.5-0.6-2.8-1.4-3.9-2.4c-1.1-1-2-2.3-2.6-3.7
				c-0.6-1.4-0.9-2.9-0.9-4.6c0-1.7,0.3-3.2,0.9-4.6c0.6-1.4,1.5-2.6,2.6-3.6c1.1-1,2.4-1.8,3.9-2.4c1.5-0.6,3.1-0.9,4.9-0.9
				c1.8,0,3.4,0.3,4.9,0.8c1.5,0.6,2.8,1.4,3.9,2.4c1.1,1,2,2.3,2.6,3.7c0.6,1.4,0.9,2.9,0.9,4.6c0,1.7-0.3,3.2-0.9,4.6
				c-0.6,1.4-1.5,2.6-2.6,3.7c-1.1,1-2.4,1.8-3.9,2.4C146.3,71.2,144.7,71.5,142.9,71.5z M142.9,67.1c1,0,1.9-0.2,2.8-0.5
				s1.6-0.8,2.2-1.5c0.6-0.6,1.1-1.4,1.5-2.3c0.4-0.9,0.5-1.8,0.5-2.9c0-1.1-0.2-2-0.5-2.9c-0.4-0.9-0.8-1.6-1.5-2.3
				c-0.6-0.6-1.4-1.1-2.2-1.5s-1.8-0.5-2.8-0.5c-1,0-1.9,0.2-2.8,0.5c-0.8,0.4-1.6,0.8-2.2,1.5c-0.6,0.6-1.1,1.4-1.5,2.3
				c-0.4,0.9-0.5,1.8-0.5,2.9c0,1.1,0.2,2,0.5,2.9c0.4,0.9,0.8,1.6,1.5,2.3c0.6,0.6,1.4,1.1,2.2,1.5C141,67,141.9,67.1,142.9,67.1z"
				/>
			<path class="st3" d="M159,71.1V48.8h5.2v18.1h11.1v4.2H159z"/>
			<path class="st3" d="M178.2,71.1V48.8h10.1c2.4,0,4.6,0.5,6.4,1.4s3.3,2.2,4.3,3.9c1,1.7,1.6,3.6,1.6,5.9c0,2.3-0.5,4.2-1.6,5.9
				c-1,1.7-2.5,3-4.3,3.9s-4,1.4-6.4,1.4H178.2z M183.4,66.9h4.7c1.5,0,2.8-0.3,3.9-0.8c1.1-0.6,1.9-1.4,2.5-2.4
				c0.6-1.1,0.9-2.3,0.9-3.7c0-1.4-0.3-2.7-0.9-3.7c-0.6-1-1.5-1.8-2.5-2.4c-1.1-0.6-2.4-0.8-3.9-0.8h-4.7V66.9z"/>
			<path class="st3" d="M204.5,71.1V48.8h5.2v22.3H204.5z"/>
			<path class="st3" d="M215,71.1V48.8h4.3l13.2,16.1h-2.1V48.8h5.1v22.3h-4.3L218,55.1h2.1v16.1H215z"/>
			<path class="st3" d="M251.5,71.5c-1.8,0-3.4-0.3-4.9-0.8c-1.5-0.6-2.8-1.4-3.9-2.4c-1.1-1-1.9-2.3-2.5-3.7
				c-0.6-1.4-0.9-2.9-0.9-4.6s0.3-3.2,0.9-4.6c0.6-1.4,1.5-2.6,2.6-3.7c1.1-1,2.4-1.8,3.9-2.4c1.5-0.6,3.1-0.8,4.9-0.8
				c2,0,3.8,0.3,5.3,1s2.9,1.6,4,2.9l-3.3,3.1c-0.8-0.9-1.7-1.5-2.7-1.9s-2-0.6-3.2-0.6c-1.1,0-2,0.2-2.9,0.5
				c-0.9,0.4-1.7,0.8-2.3,1.5c-0.6,0.6-1.1,1.4-1.5,2.3c-0.4,0.9-0.5,1.8-0.5,2.9c0,1,0.2,2,0.5,2.9c0.4,0.9,0.8,1.6,1.5,2.3
				c0.6,0.6,1.4,1.1,2.3,1.5c0.9,0.4,1.9,0.5,2.9,0.5c1,0,2-0.2,3-0.5c1-0.3,1.9-0.9,2.8-1.7l2.9,3.7c-1.2,0.9-2.6,1.6-4.2,2.1
				C254.7,71.3,253.1,71.5,251.5,71.5z M255.8,68v-8.4h4.7v9L255.8,68z"/>
			<path class="st3" d="M272.6,71.5c-1.8,0-3.5-0.2-5.1-0.7c-1.6-0.5-3-1.1-4-1.9l1.8-3.9c0.9,0.7,2.1,1.2,3.4,1.7
				c1.3,0.4,2.6,0.7,4,0.7c1,0,1.8-0.1,2.5-0.3c0.6-0.2,1.1-0.5,1.4-0.8c0.3-0.4,0.4-0.8,0.4-1.2c0-0.6-0.2-1.1-0.7-1.4
				c-0.5-0.4-1.1-0.6-1.9-0.9c-0.8-0.2-1.6-0.4-2.5-0.6s-1.8-0.4-2.8-0.7c-0.9-0.3-1.8-0.7-2.5-1.1s-1.4-1.1-1.8-1.9
				c-0.5-0.8-0.7-1.7-0.7-2.9c0-1.3,0.3-2.4,1-3.5c0.7-1.1,1.7-1.9,3.1-2.5c1.4-0.6,3.1-0.9,5.2-0.9c1.4,0,2.8,0.2,4.2,0.5
				s2.6,0.8,3.6,1.5l-1.6,3.9c-1-0.6-2-1-3.1-1.3c-1.1-0.3-2.1-0.4-3.1-0.4c-1,0-1.8,0.1-2.5,0.3s-1.1,0.5-1.4,0.9
				c-0.3,0.4-0.4,0.8-0.4,1.3c0,0.6,0.2,1.1,0.7,1.4c0.5,0.4,1.1,0.6,1.8,0.8c0.8,0.2,1.6,0.4,2.5,0.6c0.9,0.2,1.9,0.5,2.8,0.7
				s1.8,0.7,2.5,1.1s1.4,1.1,1.9,1.8s0.7,1.7,0.7,2.9c0,1.3-0.3,2.4-1,3.4c-0.7,1-1.7,1.9-3.1,2.5C276.5,71.2,274.7,71.5,272.6,71.5
				z"/>
			<path class="st3" d="M294.6,71.1V48.8h5.2v18.1h11.1v4.2H294.6z"/>
			<path class="st3" d="M318.5,71.1V53h-7.1v-4.2h19.4V53h-7.1v18.1H318.5z"/>
			<path class="st3" d="M333.6,71.1V48.8h10.1c2.4,0,4.6,0.5,6.4,1.4s3.3,2.2,4.3,3.9c1,1.7,1.6,3.6,1.6,5.9c0,2.3-0.5,4.2-1.6,5.9
				c-1,1.7-2.5,3-4.3,3.9s-4,1.4-6.4,1.4H333.6z M338.7,66.9h4.7c1.5,0,2.8-0.3,3.9-0.8c1.1-0.6,1.9-1.4,2.5-2.4
				c0.6-1.1,0.9-2.3,0.9-3.7c0-1.4-0.3-2.7-0.9-3.7s-1.5-1.8-2.5-2.4s-2.4-0.8-3.9-0.8h-4.7V66.9z"/>
			<path class="st3" d="M361.4,71.4c-0.9,0-1.6-0.3-2.2-0.9s-0.9-1.3-0.9-2.2c0-0.9,0.3-1.7,0.9-2.3c0.6-0.6,1.3-0.9,2.2-0.9
				c0.9,0,1.6,0.3,2.2,0.9c0.6,0.6,0.9,1.3,0.9,2.3c0,0.9-0.3,1.6-0.9,2.2C363,71.1,362.3,71.4,361.4,71.4z"/>
		</g>
	</g>
</g>
</svg>
