<?xml version="1.0" encoding="utf-8"?>
<!-- Generator: Adobe Illustrator 25.4.1, SVG Export Plug-In . SVG Version: 6.00 Build 0)  -->
<svg version="1.1" id="Layer_1" xmlns="http://www.w3.org/2000/svg" xmlns:xlink="http://www.w3.org/1999/xlink" x="0px" y="0px"
	 viewBox="0 0 767.2 59.9" style="enable-background:new 0 0 767.2 59.9;" xml:space="preserve">
<style type="text/css">
	.st0{fill:#FCAF17;}
	.st1{fill:#005BAA;}
	.st2{fill:#00A651;}
</style>
<g>
	<path class="st0" d="M748,11.4c1.1,1.1,1.1,2.8,0,3.9l-10.6,10.6c-1.1,1.1-2.8,1.1-3.9,0L723,15.2c-1.1-1.1-1.1-2.8,0-3.9
		l10.6-10.6c1.1-1.1,2.8-1.1,3.9,0L748,11.4z"/>
</g>
<g>
	<path class="st1" d="M764.7,28.1c1.1,1.1,1.1,2.8,0,3.9l-10.6,10.6c-1.1,1.1-2.8,1.1-3.9,0l-10.6-10.6c-1.1-1.1-1.1-2.8,0-3.9
		l10.6-10.6c1.1-1.1,2.8-1.1,3.9,0L764.7,28.1z"/>
</g>
<g>
	<path class="st2" d="M733.6,34.2c1.1-1.1,2.8-1.1,3.9,0L748,44.8c1.1,1.1,1.1,2.8,0,3.9l-10.6,10.5c-1.1,1.1-2.8,1.1-3.9,0
		L723,48.6c-1.1-1.1-1.1-2.8,0-3.9L733.6,34.2z"/>
</g>
<g>
	<g>
		<path class="st1" d="M0,1.4h45.3l1.1,19.2h-2.5c-0.9-6.2-2.7-10.3-4.8-12.8c-2.3-2.5-5-3.7-8.7-3.7H19c-0.9,0-1.6,0.2-2.1,0.7
			s-0.7,1.1-0.7,2.3v20.3H21c2.5,0,4.8-0.9,6.4-2.7c1.6-1.8,2.5-4.8,2.7-8.7h2.7v26.5h-2.7c-0.2-4.3-0.9-7.5-2.7-9.4
			c-1.6-1.8-3.9-2.7-6.9-2.7H16V53c0,0.9,0.2,1.4,0.9,1.8c0.5,0.5,1.4,0.7,2.7,0.7h8.9c9.6,0,15.1-6.2,16.7-18.5H48l-0.9,21.3H0v-3
			h3.9c1.6,0,2.5-0.2,3.2-0.7C7.8,54.2,8,53.3,8,52.4v-45C8,6.4,7.8,5.5,7.1,5C6.6,4.6,5.7,4.3,4.6,4.3H0V1.4z"/>
	</g>
	<g>
		<path class="st1" d="M55.8,1.4h29.7c5.9,0,10.3,1.4,13.5,3.9s4.6,5.7,4.6,9.6c0,3.2-1.1,5.9-3.2,8.2c-2.1,2.3-5.5,4.1-9.8,5.5
			c5.5,1.1,9.4,3,12.1,5.3c2.7,2.5,4.1,5.5,4.1,9.1c0,2.7-0.7,5.3-2.3,7.5c-1.6,2.3-4.1,4.1-7.5,5.5c-3.7,1.6-7.5,2.3-12.1,2.3h-29
			v-3h4.8c1.4,0,2.5-0.2,3.2-0.7c0.7-0.5,0.9-0.9,0.9-1.6V7.3c0-1.1-0.2-1.8-0.9-2.5c-0.7-0.5-1.6-0.9-2.7-0.9h-5V1.4H55.8z
			 M72.9,27.7h10.7c3.4,0,5.9-0.9,8-3c2.1-2.1,3-5.3,3-9.6c0-2.7-0.5-4.8-1.4-6.4c-0.9-1.6-2.3-2.7-4.1-3.4
			c-1.8-0.7-4.8-1.1-9.4-1.1c-3.2,0-5,0.2-5.7,0.7c-0.7,0.5-1.1,1.1-1.1,2.3C72.9,7.1,72.9,27.7,72.9,27.7z M72.9,30.6v21.9
			c0,0.9,0.2,1.8,0.9,2.3c0.7,0.5,1.6,0.7,3.2,0.7h6.9c4.6,0,8-0.9,10.1-3c2.3-2.1,3.2-5.3,3.2-9.4c0-3.9-1.1-7.1-3.4-9.4
			c-2.3-2.3-5.5-3.4-9.4-3.4H72.9V30.6z"/>
	</g>
	<g>
		<path class="st1" d="M111.8,1.4h26.5v3h-6.4c-0.9,0-1.8,0.2-2.3,0.7s-0.7,1.4-0.7,2.5v45c0,1.1,0.2,1.8,0.9,2.3
			c0.7,0.5,1.8,0.7,3.7,0.7h8c4.3,0,7.8-1.4,10.5-4.3c2.7-2.7,4.6-7.8,5.9-14.9h2.7l-1.4,21.9h-47.6v-3h4.6c1.6,0,2.7-0.2,3.4-0.9
			c0.7-0.7,0.9-1.6,0.9-3V7.3c0-0.9-0.2-1.6-0.9-2.1c-0.5-0.5-1.4-0.7-2.5-0.7h-5.7V1.4H111.8z"/>
	</g>
	<g>
		<path class="st1" d="M220.6,5.7l3.4-5h2.7l0.2,20.8h-2.5c-1.6-6.4-3.9-11-7.1-13.9s-6.6-4.3-10.7-4.3c-3.4,0-6.2,0.9-8.5,3
			c-2.3,2.1-3.2,4.6-3.2,7.5c0,1.8,0.5,3.4,1.1,4.8c0.9,1.4,2.1,2.5,3.7,3.4c1.6,0.9,4.8,1.8,9.1,2.7c6.4,1.4,10.7,2.7,13.5,4.1
			c2.5,1.4,4.6,3.2,5.7,5.3c1.4,2.1,1.8,4.6,1.8,7.5c0,5.3-1.8,9.4-5.3,12.8s-8,5-13.5,5c-5.9,0-11-1.8-15.3-5.7l-3.9,5.5h-2.7V37
			h2.7c1.1,6.2,3.4,11,7.3,14.4c3.7,3.4,8,5.3,12.8,5.3c3.9,0,6.9-1.1,9.4-3.4c2.5-2.3,3.7-5,3.7-8.2c0-1.8-0.5-3.4-1.4-4.8
			c-0.9-1.4-2.3-2.5-4.3-3.4c-2.1-0.9-5.7-2.1-11.7-3.4c-6.4-1.6-10.5-3.2-12.8-5c-3.2-2.5-4.8-6.4-4.8-11.2c0-5,1.6-9.1,4.8-12.3
			S202.3,0,207.4,0c2.5,0,4.6,0.5,6.9,1.4C216,2.3,218.3,3.7,220.6,5.7z"/>
	</g>
	<g>
		<path class="st1" d="M270.5,40.7h-25.8c0.2,5.5,1.1,9.4,3.2,11.7c2.3,2.5,5,3.9,8.5,3.9c5,0,9.1-3,12.1-8.7l2.5,1.1
			c-3.7,7.3-9.1,11-16.2,11c-4.8,0-8.9-1.8-12.3-5.3s-5-8-5-13.5c0-5.9,1.6-10.5,4.8-14.2c3.2-3.7,7.3-5.5,12.1-5.5
			c3.4,0,6.6,0.9,9.1,2.7c2.5,1.8,4.6,4.3,5.7,7.8C270,34.1,270.5,37,270.5,40.7z M244.6,38h15.8c0.9,0,1.6-0.2,2.1-0.9
			c0.5-0.7,0.7-1.8,0.7-3.2c0-2.7-0.9-5.3-2.7-7.3c-1.8-2.1-3.9-3-6.2-3c-2.7,0-5,1.1-6.9,3.7C245.5,29.5,244.6,33.2,244.6,38z"/>
	</g>
	<g>
		<path class="st1" d="M303.8,47.8l2.5,0.7c-2.1,7.3-6.4,11.2-13.3,11.2c-5,0-9.1-1.6-12.3-5s-4.8-7.8-4.8-13.3
			c0-6.4,1.8-11.4,5.3-14.9c3.4-3.4,7.5-5.3,12.3-5.3c3.7,0,6.4,0.9,8.9,3c2.3,2.1,3.4,4.1,3.4,6.6c0,1.4-0.5,2.7-1.4,3.7
			c-0.9,0.9-1.8,1.4-3,1.4c-1.1,0-2.1-0.5-3-1.1c-0.9-0.7-1.1-1.8-1.1-3c0-1.1,0.5-2.3,1.4-3.2c0.5-0.5,0.7-0.9,0.7-1.1
			c0-0.7-0.5-1.4-1.6-2.3c-0.9-0.7-2.3-1.1-4.1-1.1c-3.2,0-5.5,1.1-7.1,3.4c-2.3,3.4-3.4,7.8-3.4,13s1.1,9.1,3.2,11.7
			c2.1,2.7,4.8,3.9,7.8,3.9C298.4,56.5,301.8,53.5,303.8,47.8z"/>
	</g>
	<g>
		<path class="st1" d="M323.7,21.7v24c0,3,0.7,5.3,2.3,6.9c1.4,1.6,3.4,2.5,5.7,2.5c3,0,5.3-1.1,7.3-3.4c2.1-2.3,3-5.3,3-8.7V29.5
			c0-1.1-0.5-2.3-1.4-3s-2.5-1.1-5-1.1v-2.7l12.8-0.7v29.7c0,1.4,0.5,2.5,1.1,3.2c0.7,0.7,1.8,1.1,3.2,1.1h2.3v2.5l-12.1,0.2
			l-0.7-7.1c-2.1,2.5-4.3,4.6-6.6,5.7c-2.3,1.4-4.3,1.8-6.6,1.8c-3.2,0-5.9-1.1-8.2-3.2c-2.3-2.1-3.4-5.9-3.4-11V29.3
			c0-1.4-0.5-2.5-1.6-3.2c-0.7-0.5-2.3-0.9-4.8-0.9v-2.7L323.7,21.7z"/>
	</g>
	<g>
		<path class="st1" d="M359.2,22.4l13-0.7v14.6c1.4-4.8,3-8.5,5-11c2.1-2.5,4.3-3.7,7.3-3.7c2.1,0,3.4,0.7,4.8,1.8
			c1.1,1.1,1.8,2.7,1.8,4.8c0,1.6-0.5,3-1.1,3.9s-1.8,1.4-3,1.4c-1.1,0-2.1-0.5-2.7-1.1c-0.7-0.7-1.1-1.8-1.1-3.2
			c0-0.9,0.2-1.6,0.7-2.3c0.5-0.7,0.7-1.1,0.7-1.1c0-0.5-0.2-0.7-0.7-0.7c-1.1,0-2.3,0.7-3.7,1.8c-1.8,1.8-3.2,4.1-4.3,7.1
			c-1.6,4.8-2.3,8.5-2.3,11.2V53c0,0.9,0.2,1.6,0.9,2.1c0.7,0.5,1.6,0.7,3.2,0.7h4.6v3h-22.4v-3h3.7c1.1,0,2.1-0.2,2.7-0.7
			c0.7-0.5,0.9-1.1,0.9-1.8V30.2c0-1.8-0.5-3-1.1-3.9c-0.7-0.9-1.8-1.1-3.2-1.1h-3.2v-2.7H359.2z"/>
	</g>
	<g>
		<path class="st1" d="M394.1,22.4l14.4-0.5V53c0,0.9,0.2,1.4,0.7,1.8c0.7,0.5,1.4,0.7,2.3,0.7h4.1v3h-20.6v-3h3.9
			c1.1,0,2.1-0.2,2.5-0.9c0.5-0.5,0.7-1.4,0.7-2.5V29.3c0-1.4-0.5-2.5-1.1-3.2c-0.9-0.7-2.1-1.1-3.7-1.1h-3v-2.5H394.1z M404.2,0.7
			c1.1,0,2.3,0.5,3,1.4c0.9,0.9,1.4,1.8,1.4,3.2c0,1.1-0.5,2.1-1.4,3c-0.9,0.9-1.8,1.4-3,1.4c-1.1,0-2.3-0.5-3-1.4
			c-0.9-0.9-1.4-1.8-1.4-3s0.5-2.1,1.4-3C401.9,1.1,403.1,0.7,404.2,0.7z"/>
	</g>
	<g>
		<path class="st1" d="M429.4,7.5h2.5v14.9h11.7v3.7h-11.7v23.3c0,2.1,0.5,3.4,1.4,4.6c0.9,1.1,2.3,1.6,3.7,1.6
			c1.8,0,3.2-0.9,4.6-2.5c1.1-1.6,2.1-4.3,2.1-8h2.5c-0.2,4.8-1.1,8.5-3.2,10.7c-2.1,2.3-4.6,3.4-8,3.4c-3,0-5.3-0.9-7.1-2.5
			c-1.6-1.6-2.5-3.9-2.5-6.4V25.8h-6.4v-2.5c3-0.5,5-1.6,6.6-3.7C428,16.7,429.1,12.8,429.4,7.5z"/>
	</g>
	<g>
		<path class="st1" d="M449.9,22.4l14.4-0.5V53c0,0.9,0.2,1.4,0.7,1.8c0.7,0.5,1.4,0.7,2.3,0.7h4.1v3h-20.6v-3h3.9
			c1.1,0,2.1-0.2,2.5-0.9c0.5-0.5,0.7-1.4,0.7-2.5V29.3c0-1.4-0.5-2.5-1.1-3.2c-0.9-0.7-2.1-1.1-3.7-1.1h-3v-2.5H449.9z M460,0.7
			c1.1,0,2.3,0.5,3,1.4c0.9,0.9,1.4,1.8,1.4,3.2c0,1.1-0.5,2.1-1.4,3c-0.9,0.9-1.8,1.4-3,1.4c-1.1,0-2.3-0.5-3-1.4
			c-0.9-0.9-1.4-1.8-1.4-3s0.5-2.1,1.4-3C457.7,1.1,458.8,0.7,460,0.7z"/>
	</g>
	<g>
		<path class="st1" d="M509.6,40.7h-26.1c0.2,5.5,1.1,9.4,3.2,11.7c2.3,2.5,5,3.9,8.5,3.9c5,0,9.1-3,12.1-8.7l2.5,1.1
			c-3.7,7.3-9.1,11-16.2,11c-4.8,0-8.9-1.8-12.3-5.3c-3.2-3.4-5-8-5-13.5c0-5.9,1.6-10.5,4.8-14.2c3.2-3.7,7.3-5.5,12.1-5.5
			c3.4,0,6.6,0.9,9.1,2.7c2.5,1.8,4.6,4.3,5.7,7.8C508.9,34.1,509.4,37,509.6,40.7z M483.5,38h15.8c0.9,0,1.6-0.2,2.1-0.9
			c0.5-0.7,0.7-1.8,0.7-3.2c0-2.7-0.9-5.3-2.7-7.3c-1.8-2.1-3.9-3-6.2-3c-2.7,0-5,1.1-6.9,3.7C484.7,29.5,483.5,33.2,483.5,38z"/>
	</g>
	<g>
		<path class="st1" d="M519.4,45c1.6,4.6,3.4,7.5,5.5,9.4c2.1,1.6,4.6,2.5,7.8,2.5c2.7,0,5-0.7,6.4-1.8c1.6-1.1,2.3-2.7,2.3-4.6
			c0-1.1-0.2-2.1-0.9-2.7c-0.5-0.9-1.4-1.4-2.3-1.8c-0.9-0.5-3.4-0.9-7.5-1.8c-3.9-0.7-6.6-1.6-8.2-2.5c-1.6-0.9-2.7-2.1-3.7-3.4
			c-0.9-1.6-1.4-3.2-1.4-4.8c0-2.7,0.9-5,2.7-7.3c2.3-2.7,5.5-4.1,9.6-4.1c3.2,0,6.2,0.9,8.7,3l2.5-2.7h1.6l0.9,12.8h-2.5
			c-1.1-3.7-2.7-6.4-4.6-8c-1.8-1.6-4.3-2.5-7.1-2.5c-2.5,0-4.3,0.7-5.7,1.8c-1.4,1.1-2.1,2.7-2.1,4.3c0,1.6,0.7,2.7,1.8,3.9
			c1.4,0.9,3.7,1.8,7.5,2.5c4.3,0.7,7.1,1.4,8.5,1.8c2.1,0.7,3.7,2.1,5,3.7c1.1,1.6,1.8,3.7,1.8,5.9c0,3.2-1.4,5.9-3.9,8
			c-2.5,2.3-5.7,3.4-9.6,3.4c-3.7,0-6.9-1.1-10.1-3.7l-2.7,3.2h-2.1L517.1,45H519.4z"/>
	</g>
	<g>
		<path class="st1" d="M573.6,1.4h26.5v3h-6.4c-0.9,0-1.8,0.2-2.3,0.7s-0.7,1.4-0.7,2.5v45c0,1.1,0.2,1.8,0.9,2.3
			c0.7,0.5,1.8,0.7,3.7,0.7h8c4.3,0,7.8-1.4,10.5-4.3c2.7-2.7,4.6-7.8,5.9-14.9h2.7l-1.4,21.9h-47.6v-3h4.6c1.6,0,2.7-0.2,3.4-0.9
			c0.7-0.7,0.9-1.6,0.9-3V7.3c0-0.9-0.2-1.6-0.9-2.1c-0.5-0.5-1.4-0.7-2.5-0.7h-5.7V1.4H573.6z"/>
	</g>
	<g>
		<path class="st1" d="M636.3,7.5h2.5v14.9h11.7v3.7h-11.7v23.3c0,2.1,0.5,3.4,1.4,4.6c0.9,1.1,2.1,1.6,3.7,1.6
			c1.8,0,3.2-0.9,4.6-2.5c1.1-1.6,2.1-4.3,2.1-8h2.5c-0.2,4.8-1.1,8.5-3.2,10.7c-2.1,2.3-4.6,3.4-8,3.4c-3,0-5.3-0.9-7.1-2.5
			c-1.6-1.6-2.5-3.9-2.5-6.4V25.8h-6.4v-2.5c3-0.5,5-1.6,6.6-3.7C634.9,16.7,636,12.8,636.3,7.5z"/>
	</g>
	<g>
		<path class="st1" d="M677.9,1.4L692,0.7v49.6c0,1.8,0.5,3.2,1.1,4.1c0.7,0.9,1.8,1.1,3.2,1.1h2.5v3h-12.3l-0.9-7.3
			c-1.4,2.7-3.2,4.6-5.3,5.9c-2.1,1.4-4.1,2.1-6.6,2.1c-4.1,0-7.5-1.8-10.5-5.3c-3-3.4-4.3-8-4.3-13.7c0-6.2,1.8-11,5.5-14.6
			c3-3,6.2-4.3,10.1-4.3c2.3,0,4.3,0.7,6.2,1.8c1.8,1.1,3.4,3,4.8,5.3V7.8c0-1.1-0.5-1.8-1.4-2.5c-0.9-0.7-2.1-0.9-3.9-0.9h-2.5v-3
			H677.9z M675.8,24.5c-2.7,0-5,1.1-6.6,3.4c-1.6,2.3-2.5,6.2-2.5,11.7c0,5.9,0.9,10.1,2.5,12.6c1.6,2.5,3.9,3.7,6.4,3.7
			c2.7,0,5.3-1.4,7.3-4.1s3-6.6,3-11.9c0-4.8-1.1-8.7-3.2-11.7C680.8,25.8,678.6,24.5,675.8,24.5z"/>
	</g>
	<g>
		<path class="st1" d="M711.2,50.1c1.4,0,2.3,0.5,3.2,1.4c0.9,0.9,1.4,2.1,1.4,3.4s-0.5,2.5-1.4,3.4c-0.9,0.9-2.1,1.4-3.4,1.4
			s-2.3-0.5-3.2-1.4c-0.9-0.9-1.4-2.1-1.4-3.4s0.5-2.5,1.4-3.4C709,50.5,710.1,50.1,711.2,50.1z"/>
	</g>
</g>
<g>
	<g>
		<path d="M765.4,25.4l-1,1l-0.1-0.1l1-1l-0.3-0.3l0.1-0.1l0.9,0.9l-0.1,0.1L765.4,25.4z"/>
	</g>
	<g>
		<path d="M765.9,27.9l0.9-1l-1.3,0.5l-0.1-0.1l0.5-1.3l-1,0.9l-0.1-0.1l1.2-1.1l0.2,0.2l-0.5,1.3l1.3-0.5l0.2,0.2l-1.1,1.2
			L765.9,27.9z"/>
	</g>
</g>
</svg>
