<?xml version="1.0" encoding="UTF-8"?>
<svg id="Layer_2" data-name="Layer 2" xmlns="http://www.w3.org/2000/svg" width="1050.68" height="350.4" xmlns:xlink="http://www.w3.org/1999/xlink" viewBox="0 0 1050.68 350.4">
  <defs>
    <linearGradient id="linear-gradient" x1="-290.85" y1="-318.11" x2="-290.85" y2="-398.74" gradientTransform="translate(402.35 668.51)" gradientUnits="userSpaceOnUse">
      <stop offset="0" stop-color="#ddd"/>
      <stop offset=".99" stop-color="#fff"/>
    </linearGradient>
    <linearGradient id="linear-gradient-2" x1="-290.85" y1="-323.11" x2="-290.85" y2="-393.74" gradientTransform="translate(402.35 668.51)" gradientUnits="userSpaceOnUse">
      <stop offset="0" stop-color="#fff"/>
      <stop offset="1" stop-color="#ddd"/>
    </linearGradient>
    <linearGradient id="linear-gradient-3" x1="24.46" y1="-318.11" x2="24.46" y2="-398.74" xlink:href="#linear-gradient"/>
    <linearGradient id="linear-gradient-4" x1="24.46" x2="24.46" xlink:href="#linear-gradient-2"/>
    <linearGradient id="linear-gradient-5" x1="-116.78" y1="-318.11" x2="-116.78" y2="-398.74" xlink:href="#linear-gradient"/>
    <linearGradient id="linear-gradient-6" x1="-116.78" x2="-116.78" xlink:href="#linear-gradient-2"/>
    <linearGradient id="linear-gradient-7" x1="255.07" y1="-318.11" x2="255.07" y2="-398.74" xlink:href="#linear-gradient"/>
    <linearGradient id="linear-gradient-8" x1="255.07" x2="255.07" xlink:href="#linear-gradient-2"/>
    <linearGradient id="linear-gradient-9" x1="452.31" y1="-318.11" x2="452.31" y2="-398.74" xlink:href="#linear-gradient"/>
    <linearGradient id="linear-gradient-10" x1="452.31" x2="452.31" xlink:href="#linear-gradient-2"/>
    <linearGradient id="linear-gradient-11" x1="582.91" y1="-318.11" x2="582.91" y2="-398.74" xlink:href="#linear-gradient"/>
    <linearGradient id="linear-gradient-12" x1="582.91" x2="582.91" xlink:href="#linear-gradient-2"/>
    <linearGradient id="linear-gradient-13" x1="261.76" y1="269.42" x2="261.76" y2="160.98" gradientTransform="translate(263.58 -160.98)" xlink:href="#linear-gradient"/>
    <linearGradient id="linear-gradient-14" x1="261.76" y1="264.42" x2="261.76" y2="165.98" gradientTransform="translate(263.58 -160.98)" xlink:href="#linear-gradient-2"/>
  </defs>
  <g id="Layer_1-2" data-name="Layer 1">
    <path d="m985.26,269.76c0-153.52-457.85-161.32-457.85-161.32,0,0,327.25,58.32,327.25,161.32" fill="none" stroke="#fff"/>
    <path d="m285.89,269.76c0-153.52,241.84-161.32,241.84-161.32,0,0-100.6,58.32-100.6,161.32" fill="none" stroke="#fff"/>
    <g>
      <g>
        <rect x="0" y="269.76" width="223" height="80.63" rx="15" ry="15" fill="url(#linear-gradient)"/>
        <rect x="5" y="274.77" width="213" height="70.63" rx="10" ry="10" fill="url(#linear-gradient-2)"/>
      </g>
      <text transform="translate(79.88 304.01)" fill="#0e8944" font-family="MPLUS2-Bold, &apos;M PLUS 2&apos;" font-size="20" font-weight="700"><tspan x="0" y="0">Credit</tspan><tspan x="-62.54" y="24">Realization System</tspan></text>
      <g>
        <g>
          <rect x="348.26" y="269.76" width="157.12" height="80.63" rx="15" ry="15" fill="url(#linear-gradient-3)"/>
          <rect x="353.26" y="274.77" width="147.12" height="70.63" rx="10" ry="10" fill="url(#linear-gradient-4)"/>
        </g>
        <text transform="translate(381.99 306.98)" fill="#0e8944" font-family="MPLUS2-Bold, &apos;M PLUS 2&apos;" font-size="20" font-weight="700"><tspan x="0" y="0">Purchase</tspan><tspan x="-12.97" y="24">&amp; Inventory</tspan></text>
      </g>
      <g>
        <g>
          <rect x="242.89" y="269.76" width="85.37" height="80.63" rx="15" ry="15" fill="url(#linear-gradient-5)"/>
          <rect x="247.89" y="274.77" width="75.37" height="70.63" rx="10" ry="10" fill="url(#linear-gradient-6)"/>
        </g>
        <text transform="translate(262.52 318.54)" fill="#0e8944" font-family="MPLUS2-Bold, &apos;M PLUS 2&apos;" font-size="20" font-weight="700"><tspan x="0" y="0">CRM</tspan></text>
      </g>
      <g>
        <g>
          <rect x="525.38" y="269.76" width="264.11" height="80.63" rx="15" ry="15" fill="url(#linear-gradient-7)"/>
          <rect x="530.37" y="274.77" width="254.11" height="70.63" rx="10" ry="10" fill="url(#linear-gradient-8)"/>
        </g>
        <text transform="translate(629.8 303.08)" fill="#0e8944" font-family="MPLUS2-Bold, &apos;M PLUS 2&apos;" font-size="20" font-weight="700"><tspan x="0" y="0">Asset</tspan><tspan x="-74.48" y="24">Management System</tspan></text>
      </g>
      <g>
        <g>
          <rect x="809.48" y="269.76" width="90.36" height="80.63" rx="15" ry="15" fill="url(#linear-gradient-9)"/>
          <rect x="814.48" y="274.77" width="80.36" height="70.63" rx="10" ry="10" fill="url(#linear-gradient-10)"/>
        </g>
        <text transform="translate(824.76 318.69)" fill="#0e8944" font-family="MPLUS2-Bold, &apos;M PLUS 2&apos;" font-size="20" font-weight="700"><tspan x="0" y="0">HRMS</tspan></text>
      </g>
      <g>
        <g>
          <rect x="919.85" y="269.76" width="130.84" height="80.63" rx="15" ry="15" fill="url(#linear-gradient-11)"/>
          <rect x="924.85" y="274.77" width="120.84" height="70.63" rx="10" ry="10" fill="url(#linear-gradient-12)"/>
        </g>
        <text transform="translate(939.87 318.69)" fill="#0e8944" font-family="MPLUS2-Bold, &apos;M PLUS 2&apos;" font-size="20" font-weight="700"><tspan x="0" y="0">Accounts</tspan></text>
      </g>
    </g>
    <path d="m111.82,269.76c0-153.52,415.6-161.32,415.6-161.32" fill="none" stroke="#fff"/>
    <path d="m527.41,108.44c72.6,39.99,130.41,91.61,130.01,161.32" fill="none" stroke="#fff"/>
    <g>
      <path d="m985.26,283.77c-7.72,0-14-6.28-14-14s6.28-14,14-14,14,6.28,14,14-6.28,14-14,14Z" fill="#fff"/>
      <path d="m985.26,283.77c-7.72,0-14-6.28-14-14s6.28-14,14-14,14,6.28,14,14-6.28,14-14,14Z" fill="none" stroke="#0e8944"/>
      <circle cx="985.26" cy="269.76" r="9" fill="#359946"/>
    </g>
    <g>
      <path d="m854.66,283.77c-7.72,0-14-6.28-14-14s6.28-14,14-14,14,6.28,14,14-6.28,14-14,14Z" fill="#fff"/>
      <path d="m854.66,283.77c-7.72,0-14-6.28-14-14s6.28-14,14-14,14,6.28,14,14-6.28,14-14,14Z" fill="none" stroke="#0e8944"/>
      <circle cx="854.66" cy="269.76" r="9" fill="#359946"/>
    </g>
    <g>
      <path d="m657.43,283.77c-7.72,0-14-6.28-14-14s6.28-14,14-14,14,6.28,14,14-6.28,14-14,14Z" fill="#fff"/>
      <path d="m657.43,283.77c-7.72,0-14-6.28-14-14s6.28-14,14-14,14,6.28,14,14-6.28,14-14,14Z" fill="none" stroke="#0e8944"/>
      <circle cx="657.43" cy="269.76" r="9" fill="#359946"/>
    </g>
    <g>
      <path d="m426.82,283.77c-7.72,0-14-6.28-14-14s6.28-14,14-14,14,6.28,14,14-6.28,14-14,14Z" fill="#fff"/>
      <path d="m426.82,283.77c-7.72,0-14-6.28-14-14s6.28-14,14-14,14,6.28,14,14-6.28,14-14,14Z" fill="none" stroke="#0e8944"/>
      <circle cx="426.82" cy="269.76" r="9" fill="#359946"/>
    </g>
    <g>
      <path d="m285.57,283.77c-7.72,0-14-6.28-14-14s6.28-14,14-14,14,6.28,14,14-6.28,14-14,14Z" fill="#fff"/>
      <path d="m285.57,283.77c-7.72,0-14-6.28-14-14s6.28-14,14-14,14,6.28,14,14-6.28,14-14,14Z" fill="none" stroke="#0e8944"/>
      <circle cx="285.57" cy="269.76" r="9" fill="#359946"/>
    </g>
    <g>
      <path d="m111.5,283.77c-7.72,0-14-6.28-14-14s6.28-14,14-14,14,6.28,14,14-6.28,14-14,14Z" fill="#fff"/>
      <path d="m111.5,283.77c-7.72,0-14-6.28-14-14s6.28-14,14-14,14,6.28,14,14-6.28,14-14,14Z" fill="none" stroke="#0e8944"/>
      <circle cx="111.5" cy="269.76" r="9" fill="#359946"/>
    </g>
    <g>
      <g>
        <rect x="387.55" width="275.58" height="108.44" rx="15" ry="15" fill="url(#linear-gradient-13)"/>
        <rect x="392.55" y="5" width="265.58" height="98.44" rx="10" ry="10" fill="url(#linear-gradient-14)"/>
      </g>
      <text transform="translate(450.36 89.04)" fill="#0e8944" font-family="MPLUS2-Bold, &apos;M PLUS 2&apos;" font-size="28" font-weight="700"><tspan x="0" y="0">Apartment</tspan></text>
      <text transform="translate(491.35 39.71)" fill="#0e8944" font-family="MPLUS2-Bold, &apos;M PLUS 2&apos;" font-size="28" font-weight="700"><tspan x="0" y="0">Land</tspan></text>
      <line x1="662.26" y1="54.22" x2="392.57" y2="54.22" fill="none" stroke="#0e8944" stroke-miterlimit="10" stroke-width="2"/>
    </g>
    <g>
      <path d="m527.41,122.44c-7.72,0-14-6.28-14-14s6.28-14,14-14,14,6.28,14,14-6.28,14-14,14Z" fill="#fff"/>
      <path d="m527.41,122.44c-7.72,0-14-6.28-14-14s6.28-14,14-14,14,6.28,14,14-6.28,14-14,14Z" fill="none" stroke="#0e8944"/>
      <circle cx="527.41" cy="108.44" r="9" fill="#359946"/>
    </g>
  </g>
</svg>