<?xml version="1.0" encoding="utf-8"?>
<!-- Generator: Adobe Illustrator 25.4.1, SVG Export Plug-In . SVG Version: 6.00 Build 0)  -->
<svg version="1.1" id="Layer_1" xmlns="http://www.w3.org/2000/svg" xmlns:xlink="http://www.w3.org/1999/xlink" x="0px" y="0px"
	 viewBox="0 0 1051.2 1051.2" style="enable-background:new 0 0 1051.2 1051.2;" xml:space="preserve">
<style type="text/css">
	.st0{fill:none;stroke:#0E8944;stroke-width:10;stroke-miterlimit:10;}
	.st1{fill:#0E8944;stroke:#0E8944;stroke-width:10;stroke-miterlimit:10;}
	.st2{enable-background:new    ;}
	.st3{fill:#FFFFFF;}
	.st4{fill:#0E8944;}
	.st5{fill:#F3F9F4;}
</style>
<g id="Layer_2_00000167396304891096071920000002982539423787033988_">
	<g id="Layer_1-2">
		<line class="st0" x1="525.6" y1="467" x2="525.6" y2="196.7"/>
		<circle class="st1" cx="525.6" cy="120.5" r="115.5"/>
		<line class="st0" x1="484.2" y1="484.2" x2="293" y2="293"/>
		<circle class="st1" cx="239.2" cy="239.2" r="115.5"/>
		<line class="st0" x1="467" y1="525.6" x2="196.7" y2="525.6"/>
		<circle class="st1" cx="120.5" cy="525.6" r="115.5"/>
		<line class="st0" x1="484.2" y1="567" x2="293" y2="758.2"/>
		<circle class="st1" cx="239.2" cy="812.1" r="115.5"/>
		<line class="st0" x1="525.6" y1="584.2" x2="525.6" y2="854.6"/>
		<circle class="st1" cx="525.6" cy="930.7" r="115.5"/>
		<line class="st0" x1="567" y1="567" x2="758.2" y2="758.2"/>
		<circle class="st1" cx="812.1" cy="812.1" r="115.5"/>
		<line class="st0" x1="584.2" y1="525.6" x2="854.6" y2="525.6"/>
		
			<ellipse transform="matrix(0.7071 -0.7071 0.7071 0.7071 -99.0596 812.049)" class="st1" cx="930.7" cy="525.6" rx="115.5" ry="115.5"/>
		<line class="st0" x1="567" y1="484.2" x2="758.2" y2="293"/>
		<circle class="st1" cx="812.1" cy="239.2" r="115.5"/>
		<g class="st2">
			<path class="st3" d="M446.2,129.2l7.1-20.4h5.3l7.1,20.4h-4.3l-5.4-17.1h-0.1l-5.3,17.1H446.2z M450.3,124.5v-3.4h11.2v3.4H450.3
				z"/>
			<path class="st3" d="M473.6,129.4c-1.8,0-3.2-0.4-4-1.1c-0.8-0.8-1.2-2-1.2-3.7v-7h-3.1v-3h3.1v-4.8h3.9v4.8h4.7v3h-4.7v6.4
				c0,0.8,0.2,1.4,0.5,1.7s0.9,0.5,1.7,0.5c0.4,0,0.7,0,1.1-0.1c0.4-0.1,0.7-0.2,1.1-0.3l0.4,3.1c-0.6,0.2-1.1,0.3-1.7,0.4
				S474.2,129.4,473.6,129.4z"/>
			<path class="st3" d="M486.9,129.4c-1.8,0-3.2-0.4-4-1.1c-0.8-0.8-1.2-2-1.2-3.7v-7h-3.1v-3h3.1v-4.8h3.9v4.8h4.7v3h-4.7v6.4
				c0,0.8,0.2,1.4,0.5,1.7s0.9,0.5,1.7,0.5c0.4,0,0.7,0,1.1-0.1c0.4-0.1,0.7-0.2,1.1-0.3l0.4,3.1c-0.6,0.2-1.1,0.3-1.7,0.4
				S487.5,129.4,486.9,129.4z"/>
			<path class="st3" d="M500.1,129.4c-2.5,0-4.5-0.7-5.8-2c-1.4-1.3-2-3.2-2-5.6c0-2.4,0.6-4.2,1.9-5.5s3.1-2,5.3-2
				c2.2,0,3.9,0.6,5.1,1.9c1.2,1.3,1.8,3.1,1.8,5.4c0,0.3,0,0.6,0,0.9s0,0.6,0,0.8h-11.9v-2.7h8.9l-0.5,0.8c0-1.5-0.3-2.5-0.8-3.2
				c-0.5-0.7-1.3-1.1-2.5-1.1c-1.2,0-2,0.4-2.6,1.1s-0.9,1.8-0.9,3.3v1.1c0,1.3,0.3,2.2,1,2.9c0.7,0.6,1.7,1,3.1,1
				c0.9,0,1.7-0.1,2.6-0.3c0.9-0.2,1.6-0.5,2.3-0.9l0.6,2.9c-0.7,0.4-1.5,0.7-2.5,0.9C502.2,129.3,501.2,129.4,500.1,129.4z"/>
			<path class="st3" d="M509.2,129.2v-14.6h3.7l0,2h0.1c0.7-0.8,1.4-1.4,2.2-1.7c0.8-0.4,1.7-0.5,2.8-0.5c1.8,0,3.1,0.5,3.9,1.5
				s1.2,2.7,1.2,4.9v8.4h-3.8v-7.6c0-1.4-0.2-2.4-0.6-3.1c-0.4-0.7-1-1-1.9-1c-0.7,0-1.2,0.2-1.8,0.5c-0.5,0.3-1,0.8-1.3,1.3
				c-0.3,0.5-0.5,1.1-0.5,1.8v8.1H509.2z"/>
			<path class="st3" d="M531.6,129.4c-1.9,0-3.4-0.7-4.5-2c-1.1-1.3-1.6-3.2-1.6-5.6c0-2.4,0.5-4.2,1.6-5.6c1.1-1.3,2.6-2,4.5-2
				c1,0,1.8,0.2,2.6,0.5c0.8,0.3,1.4,0.8,2,1.5h0.1v-7.6h3.8v20.4h-3.6l-0.1-1.7h-0.1c-0.6,0.7-1.3,1.1-2.1,1.5
				S532.5,129.4,531.6,129.4z M532.7,126.4c0.7,0,1.3-0.1,1.8-0.4c0.5-0.3,0.9-0.7,1.2-1.1c0.3-0.5,0.5-1,0.5-1.6v-2.6
				c0-0.6-0.2-1.2-0.5-1.6c-0.3-0.5-0.7-0.9-1.2-1.1c-0.5-0.3-1.1-0.4-1.8-0.4c-1.1,0-2,0.4-2.5,1.2c-0.6,0.8-0.9,1.9-0.9,3.3
				c0,1.4,0.3,2.5,0.9,3.3C530.7,126,531.6,126.4,532.7,126.4z"/>
			<path class="st3" d="M547.4,129.4c-1.4,0-2.6-0.4-3.4-1.2c-0.8-0.8-1.2-1.9-1.2-3.2c0-1.7,0.7-3,2-3.9c1.3-0.9,3.2-1.4,5.6-1.4
				h1.9c0-0.9-0.2-1.5-0.7-1.9c-0.5-0.4-1.3-0.6-2.4-0.6c-0.9,0-1.8,0.1-2.7,0.3c-0.9,0.2-1.8,0.6-2.6,1.1l-0.4-3
				c0.9-0.5,1.9-0.8,2.9-1s2.1-0.3,3.3-0.3c1.5,0,2.8,0.2,3.7,0.6c0.9,0.4,1.6,1,2.1,1.8c0.4,0.8,0.6,1.9,0.6,3.3v9.2h-3.7l0-1.7
				h-0.1c-0.5,0.6-1.2,1.1-2.2,1.4C549.3,129.3,548.4,129.4,547.4,129.4z M548.8,126.5c0.7,0,1.2-0.1,1.8-0.3
				c0.5-0.2,0.9-0.5,1.2-0.9c0.3-0.4,0.5-0.8,0.5-1.3v-1.7h-1.4c-1.5,0-2.6,0.2-3.4,0.6c-0.7,0.4-1.1,1-1.1,1.8
				c0,0.6,0.2,1.1,0.6,1.4S548.1,126.5,548.8,126.5z"/>
			<path class="st3" d="M559.6,129.2v-14.6h3.7l0,2h0.1c0.7-0.8,1.4-1.4,2.2-1.7s1.7-0.5,2.8-0.5c1.8,0,3.1,0.5,3.9,1.5
				c0.8,1,1.2,2.7,1.2,4.9v8.4h-3.8v-7.6c0-1.4-0.2-2.4-0.6-3.1c-0.4-0.7-1-1-1.9-1c-0.7,0-1.2,0.2-1.8,0.5c-0.5,0.3-1,0.8-1.3,1.3
				c-0.3,0.5-0.5,1.1-0.5,1.8v8.1H559.6z"/>
			<path class="st3" d="M584,129.4c-1.7,0-3.2-0.3-4.4-0.9c-1.2-0.6-2.1-1.5-2.8-2.6c-0.6-1.1-1-2.5-1-4.1c0-1.6,0.3-3,1-4.1
				s1.6-2,2.8-2.6c1.2-0.6,2.7-0.9,4.4-0.9c0.9,0,1.7,0.1,2.4,0.3c0.7,0.2,1.5,0.4,2.2,0.8l-0.6,2.9c-0.7-0.4-1.3-0.6-1.9-0.8
				c-0.6-0.2-1.2-0.2-1.8-0.2c-1.4,0-2.5,0.4-3.3,1.2s-1.2,1.9-1.2,3.4c0,1.5,0.4,2.6,1.2,3.4c0.8,0.8,1.9,1.2,3.3,1.2
				c0.6,0,1.2-0.1,1.8-0.2c0.6-0.2,1.2-0.4,1.9-0.8l0.6,2.9c-0.7,0.4-1.4,0.6-2.2,0.8C585.7,129.4,584.9,129.4,584,129.4z"/>
			<path class="st3" d="M598.7,129.4c-2.5,0-4.5-0.7-5.8-2c-1.4-1.3-2-3.2-2-5.6c0-2.4,0.6-4.2,1.9-5.5s3.1-2,5.3-2
				c2.2,0,3.9,0.6,5.1,1.9s1.8,3.1,1.8,5.4c0,0.3,0,0.6,0,0.9c0,0.3,0,0.6,0,0.8H593v-2.7h8.9l-0.5,0.8c0-1.5-0.3-2.5-0.8-3.2
				c-0.5-0.7-1.3-1.1-2.5-1.1c-1.2,0-2,0.4-2.6,1.1c-0.6,0.7-0.9,1.8-0.9,3.3v1.1c0,1.3,0.3,2.2,1,2.9s1.7,1,3.1,1
				c0.9,0,1.7-0.1,2.6-0.3c0.9-0.2,1.6-0.5,2.3-0.9l0.6,2.9c-0.7,0.4-1.5,0.7-2.5,0.9C600.8,129.3,599.8,129.4,598.7,129.4z"/>
		</g>
		<g class="st2">
			<path class="st3" d="M773.9,229.5v-20.4h4v17h10.6v3.4H773.9z"/>
			<path class="st3" d="M797.4,229.8c-2.5,0-4.5-0.7-5.8-2s-2-3.2-2-5.6c0-2.4,0.6-4.2,1.9-5.5s3.1-2,5.3-2c2.2,0,3.9,0.6,5.1,1.9
				c1.2,1.3,1.8,3.1,1.8,5.4c0,0.3,0,0.6,0,0.9c0,0.3,0,0.6,0,0.8h-11.9V221h8.9l-0.5,0.8c0-1.5-0.3-2.5-0.8-3.2
				c-0.5-0.7-1.3-1.1-2.5-1.1c-1.2,0-2,0.4-2.6,1.1c-0.6,0.7-0.9,1.8-0.9,3.3v1.1c0,1.3,0.3,2.2,1,2.9c0.7,0.6,1.7,1,3.1,1
				c0.9,0,1.7-0.1,2.6-0.3c0.9-0.2,1.6-0.5,2.3-0.9l0.6,2.9c-0.7,0.4-1.5,0.7-2.5,0.9C799.4,229.7,798.4,229.8,797.4,229.8z"/>
			<path class="st3" d="M810.1,229.8c-1.4,0-2.6-0.4-3.4-1.2c-0.8-0.8-1.2-1.9-1.2-3.2c0-1.7,0.7-3,2-3.9c1.3-0.9,3.2-1.4,5.6-1.4
				h1.9c0-0.9-0.2-1.5-0.7-1.9c-0.5-0.4-1.3-0.6-2.4-0.6c-0.9,0-1.8,0.1-2.7,0.3c-0.9,0.2-1.8,0.6-2.6,1.1l-0.4-3
				c0.9-0.5,1.9-0.8,2.9-1s2.1-0.3,3.3-0.3c1.5,0,2.8,0.2,3.7,0.6c0.9,0.4,1.6,1,2.1,1.8c0.4,0.8,0.6,1.9,0.6,3.3v9.2h-3.7l0-1.7
				h-0.1c-0.5,0.6-1.2,1.1-2.2,1.4C812,229.6,811.1,229.8,810.1,229.8z M811.5,226.9c0.7,0,1.2-0.1,1.8-0.3c0.5-0.2,0.9-0.5,1.2-0.9
				c0.3-0.4,0.5-0.8,0.5-1.3v-1.7h-1.4c-1.5,0-2.6,0.2-3.4,0.6c-0.7,0.4-1.1,1-1.1,1.8c0,0.6,0.2,1.1,0.6,1.4
				S810.7,226.9,811.5,226.9z"/>
			<path class="st3" d="M825.1,229.5l-4.8-14.6h4.1l3.4,12h0.1l3.4-12h4.1l-4.8,14.6H825.1z"/>
			<path class="st3" d="M844,229.8c-2.5,0-4.5-0.7-5.8-2c-1.4-1.3-2-3.2-2-5.6c0-2.4,0.6-4.2,1.9-5.5s3.1-2,5.3-2
				c2.2,0,3.9,0.6,5.1,1.9s1.8,3.1,1.8,5.4c0,0.3,0,0.6,0,0.9c0,0.3,0,0.6,0,0.8h-11.9V221h8.9l-0.5,0.8c0-1.5-0.3-2.5-0.8-3.2
				c-0.5-0.7-1.3-1.1-2.5-1.1c-1.2,0-2,0.4-2.6,1.1c-0.6,0.7-0.9,1.8-0.9,3.3v1.1c0,1.3,0.3,2.2,1,2.9s1.7,1,3.1,1
				c0.9,0,1.7-0.1,2.6-0.3c0.9-0.2,1.6-0.5,2.3-0.9l0.6,2.9c-0.7,0.4-1.5,0.7-2.5,0.9C846,229.7,845,229.8,844,229.8z"/>
		</g>
		<g class="st2">
			<path class="st3" d="M723.7,263.1l2.5-20.4h4.8l4,13.7h0.1l4-13.7h4.8l2.5,20.4h-3.9l-1.3-14.8h-0.1l-3.9,12.5h-4l-3.9-12.5H729
				l-1.3,14.8H723.7z"/>
			<path class="st3" d="M753,263.4c-1.4,0-2.6-0.4-3.4-1.2c-0.8-0.8-1.2-1.9-1.2-3.2c0-1.7,0.7-3,2-3.9c1.3-0.9,3.2-1.4,5.6-1.4h1.9
				c0-0.9-0.2-1.5-0.7-1.9c-0.5-0.4-1.3-0.6-2.4-0.6c-0.9,0-1.8,0.1-2.7,0.3c-0.9,0.2-1.8,0.6-2.6,1.1l-0.4-3c0.9-0.5,1.9-0.8,2.9-1
				c1-0.2,2.1-0.3,3.3-0.3c1.5,0,2.8,0.2,3.7,0.6c0.9,0.4,1.6,1,2.1,1.8c0.4,0.8,0.6,1.9,0.6,3.3v9.2H758l0-1.7H758
				c-0.5,0.6-1.2,1.1-2.2,1.4C754.9,263.2,753.9,263.4,753,263.4z M754.4,260.5c0.7,0,1.2-0.1,1.8-0.3c0.5-0.2,0.9-0.5,1.2-0.9
				c0.3-0.4,0.5-0.8,0.5-1.3v-1.7h-1.4c-1.5,0-2.6,0.2-3.4,0.6c-0.7,0.4-1.1,1-1.1,1.8c0,0.6,0.2,1.1,0.6,1.4
				C753,260.3,753.6,260.5,754.4,260.5z"/>
			<path class="st3" d="M765.2,263.1v-14.6h3.7l0,2h0.1c0.7-0.8,1.4-1.4,2.2-1.7s1.7-0.5,2.8-0.5c1.8,0,3.1,0.5,3.9,1.5
				c0.8,1,1.2,2.7,1.2,4.9v8.4h-3.8v-7.6c0-1.4-0.2-2.4-0.6-3.1c-0.4-0.7-1-1-1.9-1c-0.7,0-1.2,0.2-1.8,0.5c-0.5,0.3-1,0.8-1.3,1.3
				c-0.3,0.5-0.5,1.1-0.5,1.8v8.1H765.2z"/>
			<path class="st3" d="M785.9,263.4c-1.4,0-2.6-0.4-3.4-1.2c-0.8-0.8-1.2-1.9-1.2-3.2c0-1.7,0.7-3,2-3.9c1.3-0.9,3.2-1.4,5.6-1.4
				h1.9c0-0.9-0.2-1.5-0.7-1.9c-0.5-0.4-1.3-0.6-2.4-0.6c-0.9,0-1.8,0.1-2.7,0.3c-0.9,0.2-1.8,0.6-2.6,1.1l-0.4-3
				c0.9-0.5,1.9-0.8,2.9-1s2.1-0.3,3.3-0.3c1.5,0,2.8,0.2,3.7,0.6c0.9,0.4,1.6,1,2.1,1.8c0.4,0.8,0.6,1.9,0.6,3.3v9.2H791l0-1.7
				h-0.1c-0.5,0.6-1.2,1.1-2.2,1.4C787.8,263.2,786.9,263.4,785.9,263.4z M787.3,260.5c0.7,0,1.2-0.1,1.8-0.3
				c0.5-0.2,0.9-0.5,1.2-0.9c0.3-0.4,0.5-0.8,0.5-1.3v-1.7h-1.4c-1.5,0-2.6,0.2-3.4,0.6c-0.7,0.4-1.1,1-1.1,1.8
				c0,0.6,0.2,1.1,0.6,1.4S786.6,260.5,787.3,260.5z"/>
			<path class="st3" d="M803.8,269.3c-1.2,0-2.2-0.1-3.2-0.4c-1-0.3-1.8-0.7-2.5-1.2l0.6-2.9c0.7,0.5,1.5,0.9,2.3,1.1
				c0.8,0.3,1.6,0.4,2.5,0.4c1.5,0,2.7-0.4,3.4-1.2c0.7-0.8,1.1-2,1.1-3.7v-0.8h-0.1c-0.6,0.6-1.3,1.1-2,1.4
				c-0.8,0.3-1.6,0.5-2.5,0.5c-1.9,0-3.4-0.6-4.5-1.9c-1.1-1.3-1.6-3-1.6-5.3c0-2.3,0.5-4,1.6-5.3c1.1-1.3,2.6-1.9,4.5-1.9
				c0.9,0,1.8,0.2,2.6,0.5c0.8,0.3,1.5,0.8,2.1,1.4h0.1l0-1.6h3.7v12.9c0,2.6-0.7,4.5-2,5.9C808.4,268.6,806.4,269.3,803.8,269.3z
				 M804.4,259.5c0.7,0,1.3-0.1,1.8-0.4c0.5-0.2,0.9-0.6,1.2-1c0.3-0.4,0.5-0.9,0.5-1.4v-2.5c0-0.5-0.2-1-0.5-1.4
				c-0.3-0.4-0.7-0.8-1.2-1c-0.5-0.2-1.1-0.4-1.8-0.4c-1.1,0-1.9,0.4-2.5,1.1c-0.6,0.7-0.9,1.7-0.9,3c0,1.3,0.3,2.3,0.9,3
				C802.5,259.1,803.3,259.5,804.4,259.5z"/>
			<path class="st3" d="M822.5,263.4c-2.5,0-4.5-0.7-5.8-2s-2-3.2-2-5.6c0-2.4,0.6-4.2,1.9-5.5s3.1-2,5.3-2c2.2,0,3.9,0.6,5.1,1.9
				c1.2,1.3,1.8,3.1,1.8,5.4c0,0.3,0,0.6,0,0.9c0,0.3,0,0.6,0,0.8h-11.9v-2.7h8.9l-0.5,0.8c0-1.5-0.3-2.5-0.8-3.2
				c-0.5-0.7-1.3-1.1-2.5-1.1c-1.2,0-2,0.4-2.6,1.1c-0.6,0.7-0.9,1.8-0.9,3.3v1.1c0,1.3,0.3,2.2,1,2.9c0.7,0.6,1.7,1,3.1,1
				c0.9,0,1.7-0.1,2.6-0.3c0.9-0.2,1.6-0.5,2.3-0.9l0.6,2.9c-0.7,0.4-1.5,0.7-2.5,0.9C824.6,263.3,823.6,263.4,822.5,263.4z"/>
			<path class="st3" d="M831.6,263.1v-14.6h3.6l0,2h0.1c0.5-0.7,1.1-1.3,1.8-1.7c0.7-0.4,1.5-0.6,2.4-0.6c0.9,0,1.7,0.2,2.4,0.6
				s1.2,0.9,1.5,1.7h0.1c0.5-0.8,1.2-1.4,1.9-1.7c0.7-0.4,1.6-0.5,2.7-0.5c1.6,0,2.7,0.4,3.4,1.3c0.7,0.9,1,2.4,1,4.5v9h-3.8v-8.5
				c0-1.1-0.2-1.9-0.5-2.4s-0.8-0.8-1.5-0.8c-0.9,0-1.6,0.3-2,1c-0.5,0.7-0.7,1.6-0.7,2.8v7.9h-3.8v-9c0-0.9-0.2-1.5-0.5-2
				s-0.8-0.7-1.5-0.7c-0.8,0-1.5,0.3-2,1s-0.8,1.6-0.8,2.7v7.9H831.6z"/>
			<path class="st3" d="M862.9,263.4c-2.5,0-4.5-0.7-5.8-2s-2-3.2-2-5.6c0-2.4,0.6-4.2,1.9-5.5s3.1-2,5.3-2c2.2,0,3.9,0.6,5.1,1.9
				c1.2,1.3,1.8,3.1,1.8,5.4c0,0.3,0,0.6,0,0.9c0,0.3,0,0.6,0,0.8h-11.9v-2.7h8.9l-0.5,0.8c0-1.5-0.3-2.5-0.8-3.2
				c-0.5-0.7-1.3-1.1-2.5-1.1c-1.2,0-2,0.4-2.6,1.1c-0.6,0.7-0.9,1.8-0.9,3.3v1.1c0,1.3,0.3,2.2,1,2.9c0.7,0.6,1.7,1,3.1,1
				c0.9,0,1.7-0.1,2.6-0.3c0.9-0.2,1.6-0.5,2.3-0.9l0.6,2.9c-0.7,0.4-1.5,0.7-2.5,0.9C864.9,263.3,863.9,263.4,862.9,263.4z"/>
			<path class="st3" d="M872,263.1v-14.6h3.7l0,2h0.1c0.7-0.8,1.4-1.4,2.2-1.7s1.7-0.5,2.8-0.5c1.8,0,3.1,0.5,3.9,1.5
				c0.8,1,1.2,2.7,1.2,4.9v8.4h-3.8v-7.6c0-1.4-0.2-2.4-0.6-3.1c-0.4-0.7-1-1-1.9-1c-0.7,0-1.2,0.2-1.8,0.5c-0.5,0.3-1,0.8-1.3,1.3
				c-0.3,0.5-0.5,1.1-0.5,1.8v8.1H872z"/>
			<path class="st3" d="M895.7,263.4c-1.8,0-3.2-0.4-4-1.1c-0.8-0.8-1.2-2-1.2-3.7v-7h-3.1v-3h3.1v-4.8h3.9v4.8h4.7v3h-4.7v6.4
				c0,0.8,0.2,1.4,0.5,1.7s0.9,0.5,1.7,0.5c0.4,0,0.7,0,1.1-0.1c0.4-0.1,0.7-0.2,1.1-0.3l0.4,3.1c-0.6,0.2-1.1,0.3-1.7,0.4
				S896.3,263.4,895.7,263.4z"/>
		</g>
		<g class="st2">
			<path class="st3" d="M886.2,512.4c0.7-0.1,1.5-0.2,2.2-0.2c0.7-0.1,1.5-0.1,2.2-0.1c0.7,0,1.3,0,1.8,0c3.1,0,5.4,0.6,6.9,1.8
				s2.2,3,2.2,5.5c0,2.4-0.7,4.2-2.1,5.4c-1.4,1.2-3.6,1.8-6.4,1.8c-0.6,0-1.3,0-2.1-0.1s-1.7-0.2-2.7-0.3l0-3.3
				c1,0.1,1.8,0.2,2.5,0.3c0.7,0.1,1.3,0.1,1.8,0.1c1.8,0,3.1-0.3,3.9-0.9c0.8-0.6,1.2-1.6,1.2-3c0-1.4-0.4-2.4-1.2-3
				c-0.8-0.6-2.1-0.9-3.9-0.9c-0.6,0-1.2,0-1.9,0.1c-0.7,0.1-1.5,0.2-2.2,0.3l1.8-2v19h-3.9V512.4z"/>
			<path class="st3" d="M906.7,533c-1.4,0-2.6-0.4-3.4-1.2c-0.8-0.8-1.2-1.9-1.2-3.2c0-1.7,0.7-3,2-3.9c1.3-0.9,3.2-1.4,5.6-1.4h1.9
				c0-0.9-0.2-1.5-0.7-1.9c-0.5-0.4-1.3-0.6-2.4-0.6c-0.9,0-1.8,0.1-2.7,0.3c-0.9,0.2-1.8,0.6-2.6,1.1l-0.4-3c0.9-0.5,1.9-0.8,2.9-1
				c1-0.2,2.1-0.3,3.3-0.3c1.5,0,2.8,0.2,3.7,0.6c0.9,0.4,1.6,1,2.1,1.8c0.4,0.8,0.6,1.9,0.6,3.3v9.2h-3.7l0-1.7h-0.1
				c-0.5,0.6-1.2,1.1-2.2,1.4C908.6,532.9,907.7,533,906.7,533z M908.1,530.1c0.7,0,1.2-0.1,1.8-0.3c0.5-0.2,0.9-0.5,1.2-0.9
				c0.3-0.4,0.5-0.8,0.5-1.3v-1.7h-1.4c-1.5,0-2.6,0.2-3.4,0.6c-0.7,0.4-1.1,1-1.1,1.8c0,0.6,0.2,1.1,0.6,1.4
				S907.4,530.1,908.1,530.1z"/>
			<path class="st3" d="M918.1,536.1c1.2-0.2,2.1-0.5,2.8-0.8c0.7-0.4,1.2-0.9,1.6-1.5c0.4-0.7,0.7-1.5,0.9-2.5l0.2,2.7l-6.7-15.8
				h4.1l3.8,10.8h0.1l3.3-10.8h4.1l-5.5,14.5c-0.5,1.3-1.1,2.5-1.8,3.3c-0.7,0.9-1.5,1.6-2.5,2.1c-1,0.5-2.2,0.9-3.6,1.1
				L918.1,536.1z"/>
			<path class="st3" d="M934.4,532.8v-14.6h3.7l0,2.7h0.1c0.5-0.7,1.1-1.2,1.7-1.6c0.7-0.4,1.4-0.8,2.2-1s1.6-0.3,2.5-0.3v3.3
				c-1.2,0-2.2,0.2-3.2,0.6c-1,0.4-1.7,1-2.3,1.8s-0.8,1.6-0.8,2.5v6.7H934.4z"/>
			<path class="st3" d="M952.7,533c-1.5,0-2.8-0.3-3.9-0.9c-1.1-0.6-2-1.5-2.6-2.6c-0.6-1.1-0.9-2.5-0.9-4c0-1.5,0.3-2.9,0.9-4
				c0.6-1.1,1.5-2,2.6-2.6s2.4-0.9,3.9-0.9c1.5,0,2.9,0.3,4,0.9c1.1,0.6,2,1.5,2.6,2.6c0.6,1.1,0.9,2.5,0.9,4c0,1.5-0.3,2.9-0.9,4
				c-0.6,1.1-1.5,2-2.6,2.6C955.6,532.7,954.2,533,952.7,533z M952.7,530c1.2,0,2-0.4,2.7-1.2c0.6-0.8,0.9-1.9,0.9-3.4
				c0-1.5-0.3-2.6-0.9-3.4c-0.6-0.8-1.5-1.2-2.7-1.2c-1.2,0-2.1,0.4-2.7,1.2s-1,1.9-1,3.4c0,1.5,0.3,2.6,1,3.4
				C950.7,529.6,951.6,530,952.7,530z"/>
			<path class="st3" d="M963.3,532.8v-20.4h3.9v20.4H963.3z"/>
			<path class="st3" d="M971.4,532.8v-20.4h3.9v20.4H971.4z"/>
		</g>
		<g class="st2">
			<path class="st3" d="M493.6,921.1v-20.4H508v3.4h-10.4v5.4h9.9v3.3h-9.9v8.3H493.6z"/>
			<path class="st3" d="M514.8,921.3c-1.7,0-3-0.5-3.7-1.6c-0.8-1-1.2-2.7-1.2-4.9v-8.4h3.8v7.6c0,1.4,0.2,2.4,0.6,3.1
				c0.4,0.7,1,1,1.8,1c0.6,0,1.2-0.2,1.7-0.5c0.5-0.3,0.9-0.8,1.2-1.3c0.3-0.5,0.4-1.1,0.4-1.8v-8.1h3.9v14.6h-3.7l0-2h-0.1
				c-0.6,0.8-1.3,1.3-2.1,1.7C516.7,921.2,515.8,921.3,514.8,921.3z"/>
			<path class="st3" d="M527.2,921.1v-14.6h3.7l0,2h0.1c0.7-0.8,1.4-1.4,2.2-1.7c0.8-0.4,1.7-0.5,2.8-0.5c1.8,0,3.1,0.5,3.8,1.5
				c0.8,1,1.2,2.7,1.2,4.9v8.4h-3.8v-7.6c0-1.4-0.2-2.4-0.6-3.1c-0.4-0.7-1-1-1.9-1c-0.7,0-1.2,0.2-1.8,0.5c-0.5,0.3-1,0.8-1.3,1.3
				c-0.3,0.5-0.5,1.1-0.5,1.8v8.1H527.2z"/>
			<path class="st3" d="M549.6,921.3c-1.9,0-3.4-0.7-4.5-2c-1.1-1.3-1.6-3.2-1.6-5.6c0-2.4,0.5-4.2,1.6-5.6c1.1-1.3,2.6-2,4.5-2
				c1,0,1.8,0.2,2.6,0.5c0.8,0.3,1.4,0.8,2,1.5h0.1v-7.6h3.8v20.4h-3.6l-0.1-1.7h-0.1c-0.6,0.7-1.3,1.1-2.1,1.5
				S550.5,921.3,549.6,921.3z M550.7,918.3c0.7,0,1.3-0.1,1.8-0.4c0.5-0.3,0.9-0.7,1.2-1.1c0.3-0.5,0.5-1,0.5-1.6v-2.6
				c0-0.6-0.2-1.2-0.5-1.6s-0.7-0.9-1.2-1.1s-1.1-0.4-1.8-0.4c-1.1,0-2,0.4-2.5,1.2s-0.9,1.9-0.9,3.3c0,1.4,0.3,2.5,0.9,3.3
				S549.6,918.3,550.7,918.3z"/>
		</g>
		<g class="st2">
			<path class="st3" d="M437.9,954.7l2.5-20.4h4.8l4,13.7h0.1l4-13.7h4.8l2.5,20.4h-3.9l-1.3-14.8h-0.1l-3.9,12.5h-4l-3.9-12.5h-0.1
				l-1.3,14.8H437.9z"/>
			<path class="st3" d="M467.2,954.9c-1.4,0-2.6-0.4-3.4-1.2s-1.2-1.9-1.2-3.2c0-1.7,0.7-3,2-3.9c1.3-0.9,3.2-1.4,5.6-1.4h1.9
				c0-0.9-0.2-1.5-0.7-1.9c-0.5-0.4-1.3-0.6-2.4-0.6c-0.9,0-1.8,0.1-2.7,0.3c-0.9,0.2-1.8,0.6-2.6,1.1l-0.4-3c0.9-0.5,1.9-0.8,2.9-1
				c1-0.2,2.1-0.3,3.3-0.3c1.5,0,2.8,0.2,3.7,0.6c0.9,0.4,1.6,1,2.1,1.8c0.4,0.8,0.6,1.9,0.6,3.3v9.2h-3.7l0-1.7h-0.1
				c-0.5,0.6-1.2,1.1-2.2,1.4S468.2,954.9,467.2,954.9z M468.6,952c0.7,0,1.2-0.1,1.8-0.3c0.5-0.2,0.9-0.5,1.2-0.9
				c0.3-0.4,0.5-0.8,0.5-1.3v-1.7h-1.4c-1.5,0-2.6,0.2-3.4,0.6c-0.7,0.4-1.1,1-1.1,1.8c0,0.6,0.2,1.1,0.6,1.4
				C467.3,951.9,467.9,952,468.6,952z"/>
			<path class="st3" d="M479.5,954.7v-14.6h3.7l0,2h0.1c0.7-0.8,1.4-1.4,2.2-1.7c0.8-0.4,1.7-0.5,2.8-0.5c1.8,0,3.1,0.5,3.9,1.5
				s1.2,2.7,1.2,4.9v8.4h-3.8V947c0-1.4-0.2-2.4-0.6-3.1c-0.4-0.7-1-1-1.9-1c-0.7,0-1.2,0.2-1.8,0.5c-0.5,0.3-1,0.8-1.3,1.3
				c-0.3,0.5-0.5,1.1-0.5,1.8v8.1H479.5z"/>
			<path class="st3" d="M500.2,954.9c-1.4,0-2.6-0.4-3.4-1.2s-1.2-1.9-1.2-3.2c0-1.7,0.7-3,2-3.9c1.3-0.9,3.2-1.4,5.6-1.4h1.9
				c0-0.9-0.2-1.5-0.7-1.9c-0.5-0.4-1.3-0.6-2.4-0.6c-0.9,0-1.8,0.1-2.7,0.3c-0.9,0.2-1.8,0.6-2.6,1.1l-0.4-3c0.9-0.5,1.9-0.8,2.9-1
				c1-0.2,2.1-0.3,3.3-0.3c1.5,0,2.8,0.2,3.7,0.6c0.9,0.4,1.6,1,2.1,1.8c0.4,0.8,0.6,1.9,0.6,3.3v9.2h-3.7l0-1.7h-0.1
				c-0.5,0.6-1.2,1.1-2.2,1.4S501.1,954.9,500.2,954.9z M501.6,952c0.7,0,1.2-0.1,1.8-0.3c0.5-0.2,0.9-0.5,1.2-0.9
				c0.3-0.4,0.5-0.8,0.5-1.3v-1.7h-1.4c-1.5,0-2.6,0.2-3.4,0.6c-0.7,0.4-1.1,1-1.1,1.8c0,0.6,0.2,1.1,0.6,1.4
				C500.2,951.9,500.8,952,501.6,952z"/>
			<path class="st3" d="M518,960.8c-1.2,0-2.2-0.1-3.2-0.4c-1-0.3-1.8-0.7-2.5-1.2l0.6-2.9c0.7,0.5,1.5,0.9,2.3,1.1
				c0.8,0.3,1.6,0.4,2.5,0.4c1.5,0,2.7-0.4,3.4-1.2c0.7-0.8,1.1-2,1.1-3.7v-0.8h-0.1c-0.6,0.6-1.3,1.1-2,1.4
				c-0.8,0.3-1.6,0.5-2.5,0.5c-1.9,0-3.4-0.6-4.5-1.9c-1.1-1.3-1.6-3-1.6-5.3c0-2.3,0.5-4,1.6-5.3s2.6-1.9,4.5-1.9
				c0.9,0,1.8,0.2,2.6,0.5c0.8,0.3,1.5,0.8,2.1,1.4h0.1l0-1.6h3.7V953c0,2.6-0.7,4.5-2,5.9C522.7,960.2,520.7,960.8,518,960.8z
				 M518.7,951c0.7,0,1.3-0.1,1.8-0.4c0.5-0.2,0.9-0.6,1.2-1c0.3-0.4,0.5-0.9,0.5-1.4v-2.5c0-0.5-0.2-1-0.5-1.4
				c-0.3-0.4-0.7-0.8-1.2-1c-0.5-0.2-1.1-0.4-1.8-0.4c-1.1,0-1.9,0.4-2.5,1.1c-0.6,0.7-0.9,1.7-0.9,3c0,1.3,0.3,2.3,0.9,3
				C516.7,950.7,517.6,951,518.7,951z"/>
			<path class="st3" d="M536.8,954.9c-2.5,0-4.5-0.7-5.8-2c-1.4-1.3-2-3.2-2-5.6c0-2.4,0.6-4.2,1.9-5.5s3.1-2,5.3-2
				c2.2,0,3.9,0.6,5.1,1.9s1.8,3.1,1.8,5.4c0,0.3,0,0.6,0,0.9c0,0.3,0,0.6,0,0.8h-11.9v-2.7h8.9l-0.5,0.8c0-1.5-0.3-2.5-0.8-3.2
				c-0.5-0.7-1.3-1.1-2.5-1.1c-1.2,0-2,0.4-2.6,1.1c-0.6,0.7-0.9,1.8-0.9,3.3v1.1c0,1.3,0.3,2.2,1,2.9s1.7,1,3.1,1
				c0.9,0,1.7-0.1,2.6-0.3c0.9-0.2,1.6-0.5,2.3-0.9l0.6,2.9c-0.7,0.4-1.5,0.7-2.5,0.9C538.8,954.8,537.8,954.9,536.8,954.9z"/>
			<path class="st3" d="M545.9,954.7v-14.6h3.6l0,2h0.1c0.5-0.7,1.1-1.3,1.8-1.7c0.7-0.4,1.5-0.6,2.4-0.6c0.9,0,1.7,0.2,2.4,0.6
				c0.7,0.4,1.2,0.9,1.5,1.7h0.1c0.5-0.8,1.2-1.4,1.9-1.7c0.7-0.4,1.6-0.5,2.7-0.5c1.6,0,2.7,0.4,3.4,1.3s1,2.4,1,4.5v9h-3.8v-8.5
				c0-1.1-0.2-1.9-0.5-2.4s-0.8-0.8-1.5-0.8c-0.9,0-1.6,0.3-2,1c-0.5,0.7-0.7,1.6-0.7,2.8v7.9h-3.8v-9c0-0.9-0.2-1.5-0.5-2
				c-0.4-0.5-0.8-0.7-1.5-0.7c-0.8,0-1.5,0.3-2,1c-0.5,0.7-0.8,1.6-0.8,2.7v7.9H545.9z"/>
			<path class="st3" d="M577.1,954.9c-2.5,0-4.5-0.7-5.8-2c-1.4-1.3-2-3.2-2-5.6c0-2.4,0.6-4.2,1.9-5.5s3.1-2,5.3-2
				c2.2,0,3.9,0.6,5.1,1.9s1.8,3.1,1.8,5.4c0,0.3,0,0.6,0,0.9c0,0.3,0,0.6,0,0.8h-11.9v-2.7h8.9l-0.5,0.8c0-1.5-0.3-2.5-0.8-3.2
				c-0.5-0.7-1.3-1.1-2.5-1.1c-1.2,0-2,0.4-2.6,1.1c-0.6,0.7-0.9,1.8-0.9,3.3v1.1c0,1.3,0.3,2.2,1,2.9s1.7,1,3.1,1
				c0.9,0,1.7-0.1,2.6-0.3c0.9-0.2,1.6-0.5,2.3-0.9l0.6,2.9c-0.7,0.4-1.5,0.7-2.5,0.9C579.2,954.8,578.2,954.9,577.1,954.9z"/>
			<path class="st3" d="M586.2,954.7v-14.6h3.7l0,2h0.1c0.7-0.8,1.4-1.4,2.2-1.7c0.8-0.4,1.7-0.5,2.8-0.5c1.8,0,3.1,0.5,3.8,1.5
				c0.8,1,1.2,2.7,1.2,4.9v8.4h-3.8V947c0-1.4-0.2-2.4-0.6-3.1c-0.4-0.7-1-1-1.9-1c-0.7,0-1.2,0.2-1.8,0.5c-0.5,0.3-1,0.8-1.3,1.3
				c-0.3,0.5-0.5,1.1-0.5,1.8v8.1H586.2z"/>
			<path class="st3" d="M609.9,954.9c-1.8,0-3.2-0.4-4-1.1c-0.8-0.8-1.2-2-1.2-3.7v-7h-3.1v-3h3.1v-4.8h3.9v4.8h4.7v3h-4.7v6.4
				c0,0.8,0.2,1.4,0.5,1.7s0.9,0.5,1.7,0.5c0.4,0,0.7,0,1.1-0.1c0.4-0.1,0.7-0.2,1.1-0.3l0.4,3.1c-0.6,0.2-1.1,0.3-1.7,0.4
				S610.5,954.9,609.9,954.9z"/>
		</g>
		<g class="st2">
			<path class="st3" d="M154.8,785.2c0.7-0.1,1.4-0.1,2.2-0.2c0.8-0.1,1.5-0.1,2.3-0.1c0.7,0,1.4-0.1,2-0.1c3.1,0,5.3,0.5,6.7,1.6
				c1.4,1,2.1,2.7,2.1,4.9c0,2.2-0.7,3.9-2.1,4.9c-1.4,1-3.7,1.6-6.7,1.6c-0.7,0-1.5,0-2.3-0.1c-0.9,0-1.7-0.1-2.5-0.2l0.4-3.3
				c0.9,0.1,1.8,0.2,2.5,0.3c0.8,0.1,1.4,0.1,2,0.1c1.6,0,2.8-0.3,3.6-0.8c0.7-0.5,1.1-1.3,1.1-2.5c0-1.1-0.4-2-1.1-2.5
				s-1.9-0.8-3.6-0.8c-0.6,0-1.3,0-2,0.1c-0.8,0.1-1.6,0.2-2.5,0.3l1.8-2v19h-3.9V785.2z M166.5,805.5l-9.4-9.5h4.6l9.5,9.5H166.5z"
				/>
			<path class="st3" d="M179.6,805.8c-2.5,0-4.5-0.7-5.8-2c-1.4-1.3-2-3.2-2-5.6c0-2.4,0.6-4.2,1.9-5.5s3.1-2,5.3-2
				c2.2,0,3.9,0.6,5.1,1.9c1.2,1.3,1.8,3.1,1.8,5.4c0,0.3,0,0.6,0,0.9s0,0.6,0,0.8h-11.9V797h8.9l-0.5,0.8c0-1.5-0.3-2.5-0.8-3.2
				c-0.5-0.7-1.3-1.1-2.5-1.1c-1.2,0-2,0.4-2.6,1.1s-0.9,1.8-0.9,3.3v1.1c0,1.3,0.3,2.2,1,2.9c0.7,0.6,1.7,1,3.1,1
				c0.9,0,1.7-0.1,2.6-0.3c0.9-0.2,1.6-0.5,2.3-0.9l0.6,2.9c-0.7,0.4-1.5,0.7-2.5,0.9C181.6,805.7,180.6,805.8,179.6,805.8z"/>
			<path class="st3" d="M196,805.8c-1.7,0-3.2-0.3-4.4-0.9c-1.2-0.6-2.1-1.5-2.8-2.6c-0.6-1.1-1-2.5-1-4.1c0-1.6,0.3-3,1-4.1
				c0.6-1.1,1.6-2,2.8-2.6c1.2-0.6,2.7-0.9,4.4-0.9c0.9,0,1.7,0.1,2.4,0.3s1.5,0.4,2.2,0.8l-0.6,2.9c-0.7-0.4-1.3-0.6-1.9-0.8
				c-0.6-0.2-1.2-0.2-1.8-0.2c-1.4,0-2.5,0.4-3.3,1.2c-0.8,0.8-1.2,1.9-1.2,3.4c0,1.5,0.4,2.6,1.2,3.4c0.8,0.8,1.9,1.2,3.3,1.2
				c0.6,0,1.2-0.1,1.8-0.2c0.6-0.2,1.2-0.4,1.9-0.8l0.6,2.9c-0.7,0.4-1.4,0.6-2.2,0.8S196.8,805.8,196,805.8z"/>
			<path class="st3" d="M204,805.5V791h3.7l0,2.7h0.1c0.5-0.7,1.1-1.2,1.7-1.6c0.7-0.4,1.4-0.8,2.2-1c0.8-0.2,1.6-0.3,2.5-0.3v3.3
				c-1.2,0-2.2,0.2-3.2,0.6c-1,0.4-1.7,1-2.3,1.8s-0.8,1.6-0.8,2.5v6.7H204z"/>
			<path class="st3" d="M221.2,805.8c-1.7,0-3-0.5-3.7-1.6c-0.8-1-1.2-2.7-1.2-4.9V791h3.8v7.6c0,1.4,0.2,2.4,0.6,3.1
				c0.4,0.7,1,1,1.8,1c0.6,0,1.2-0.2,1.7-0.5c0.5-0.3,0.9-0.8,1.2-1.3c0.3-0.5,0.4-1.1,0.4-1.8V791h3.9v14.6h-3.7l0-2H226
				c-0.6,0.8-1.3,1.3-2.1,1.7C223.1,805.6,222.2,805.8,221.2,805.8z"/>
			<path class="st3" d="M236.2,789.3c-0.7,0-1.3-0.2-1.7-0.6c-0.4-0.4-0.6-1-0.6-1.7c0-0.7,0.2-1.3,0.6-1.7c0.4-0.4,1-0.6,1.7-0.6
				s1.3,0.2,1.7,0.6c0.4,0.4,0.6,1,0.6,1.7c0,0.7-0.2,1.3-0.6,1.7C237.5,789.1,236.9,789.3,236.2,789.3z M234.2,805.5v-14.3h3.9
				v14.3H234.2z"/>
			<path class="st3" d="M249.5,805.8c-1.8,0-3.2-0.4-4-1.1c-0.8-0.8-1.2-2-1.2-3.7v-7h-3.1v-3h3.1v-4.8h3.9v4.8h4.7v3h-4.7v6.4
				c0,0.8,0.2,1.4,0.5,1.7s0.9,0.5,1.7,0.5c0.4,0,0.7,0,1.1-0.1c0.4-0.1,0.7-0.2,1.1-0.3l0.4,3.1c-0.6,0.2-1.1,0.3-1.7,0.4
				S250.1,805.8,249.5,805.8z"/>
			<path class="st3" d="M256.2,805.5V791h3.6l0,2h0.1c0.5-0.7,1.1-1.3,1.8-1.7c0.7-0.4,1.5-0.6,2.4-0.6c0.9,0,1.7,0.2,2.4,0.6
				c0.7,0.4,1.2,0.9,1.5,1.7h0.1c0.5-0.8,1.2-1.4,1.9-1.7s1.6-0.5,2.7-0.5c1.6,0,2.7,0.4,3.4,1.3c0.7,0.9,1,2.4,1,4.5v9h-3.8V797
				c0-1.1-0.2-1.9-0.5-2.4s-0.8-0.8-1.5-0.8c-0.9,0-1.6,0.3-2,1c-0.5,0.7-0.7,1.6-0.7,2.8v7.9h-3.8v-9c0-0.9-0.2-1.5-0.5-2
				c-0.4-0.5-0.8-0.7-1.5-0.7c-0.8,0-1.5,0.3-2,1c-0.5,0.7-0.8,1.6-0.8,2.7v7.9H256.2z"/>
			<path class="st3" d="M287.4,805.8c-2.5,0-4.5-0.7-5.8-2c-1.4-1.3-2-3.2-2-5.6c0-2.4,0.6-4.2,1.9-5.5s3.1-2,5.3-2
				c2.2,0,3.9,0.6,5.1,1.9c1.2,1.3,1.8,3.1,1.8,5.4c0,0.3,0,0.6,0,0.9s0,0.6,0,0.8h-11.9V797h8.9l-0.5,0.8c0-1.5-0.3-2.5-0.8-3.2
				c-0.5-0.7-1.3-1.1-2.5-1.1c-1.2,0-2,0.4-2.6,1.1s-0.9,1.8-0.9,3.3v1.1c0,1.3,0.3,2.2,1,2.9c0.7,0.6,1.7,1,3.1,1
				c0.9,0,1.7-0.1,2.6-0.3c0.9-0.2,1.6-0.5,2.3-0.9l0.6,2.9c-0.7,0.4-1.5,0.7-2.5,0.9C289.4,805.7,288.4,805.8,287.4,805.8z"/>
			<path class="st3" d="M296.5,805.5V791h3.7l0,2h0.1c0.7-0.8,1.4-1.4,2.2-1.7c0.8-0.4,1.7-0.5,2.8-0.5c1.8,0,3.1,0.5,3.9,1.5
				s1.2,2.7,1.2,4.9v8.4h-3.8v-7.6c0-1.4-0.2-2.4-0.6-3.1c-0.4-0.7-1-1-1.9-1c-0.7,0-1.2,0.2-1.8,0.5c-0.5,0.3-1,0.8-1.3,1.3
				c-0.3,0.5-0.5,1.1-0.5,1.8v8.1H296.5z"/>
			<path class="st3" d="M320.2,805.8c-1.8,0-3.2-0.4-4-1.1c-0.8-0.8-1.2-2-1.2-3.7v-7h-3.1v-3h3.1v-4.8h3.9v4.8h4.7v3h-4.7v6.4
				c0,0.8,0.2,1.4,0.5,1.7s0.9,0.5,1.7,0.5c0.4,0,0.7,0,1.1-0.1c0.4-0.1,0.7-0.2,1.1-0.3l0.4,3.1c-0.6,0.2-1.1,0.3-1.7,0.4
				S320.8,805.8,320.2,805.8z"/>
		</g>
		<g class="st2">
			<path class="st3" d="M188.1,818.8c0.7-0.1,1.5-0.2,2.2-0.2c0.7-0.1,1.5-0.1,2.2-0.1c0.7,0,1.3,0,1.8,0c3.1,0,5.4,0.6,6.9,1.8
				c1.5,1.2,2.2,3,2.2,5.5c0,2.4-0.7,4.2-2.1,5.4c-1.4,1.2-3.6,1.8-6.4,1.8c-0.6,0-1.3,0-2.1-0.1c-0.8-0.1-1.7-0.2-2.7-0.3l0-3.3
				c1,0.1,1.8,0.2,2.5,0.3c0.7,0.1,1.3,0.1,1.8,0.1c1.8,0,3.1-0.3,3.9-0.9c0.8-0.6,1.2-1.6,1.2-3c0-1.4-0.4-2.4-1.2-3
				c-0.8-0.6-2.1-0.9-3.9-0.9c-0.6,0-1.2,0-1.9,0.1c-0.7,0.1-1.5,0.2-2.2,0.3l1.8-2v19h-3.9V818.8z"/>
			<path class="st3" d="M205.5,839.1v-14.6h3.7l0,2.7h0.1c0.5-0.7,1.1-1.2,1.7-1.6c0.7-0.4,1.4-0.8,2.2-1c0.8-0.2,1.6-0.3,2.5-0.3
				v3.3c-1.2,0-2.2,0.2-3.2,0.6c-1,0.4-1.7,1-2.3,1.8s-0.8,1.6-0.8,2.5v6.7H205.5z"/>
			<path class="st3" d="M223.8,839.4c-1.5,0-2.8-0.3-3.9-0.9c-1.1-0.6-2-1.5-2.6-2.6c-0.6-1.1-0.9-2.5-0.9-4c0-1.5,0.3-2.9,0.9-4
				c0.6-1.1,1.5-2,2.6-2.6s2.4-0.9,3.9-0.9c1.5,0,2.9,0.3,4,0.9c1.1,0.6,2,1.5,2.6,2.6c0.6,1.1,0.9,2.5,0.9,4c0,1.5-0.3,2.9-0.9,4
				c-0.6,1.1-1.5,2-2.6,2.6C226.7,839.1,225.4,839.4,223.8,839.4z M223.9,836.4c1.2,0,2-0.4,2.7-1.2c0.6-0.8,0.9-1.9,0.9-3.4
				c0-1.5-0.3-2.6-0.9-3.4s-1.5-1.2-2.7-1.2c-1.2,0-2.1,0.4-2.7,1.2c-0.6,0.8-1,1.9-1,3.4c0,1.5,0.3,2.6,1,3.4
				C221.8,836,222.7,836.4,223.9,836.4z"/>
			<path class="st3" d="M241.5,839.4c-1.7,0-3.2-0.3-4.4-0.9c-1.2-0.6-2.1-1.5-2.8-2.6c-0.6-1.1-1-2.5-1-4.1c0-1.6,0.3-3,1-4.1
				c0.6-1.1,1.6-2,2.8-2.6c1.2-0.6,2.7-0.9,4.4-0.9c0.9,0,1.7,0.1,2.4,0.3s1.5,0.4,2.2,0.8l-0.6,2.9c-0.7-0.4-1.3-0.6-1.9-0.8
				c-0.6-0.2-1.2-0.2-1.8-0.2c-1.4,0-2.5,0.4-3.3,1.2c-0.8,0.8-1.2,1.9-1.2,3.4c0,1.5,0.4,2.6,1.2,3.4c0.8,0.8,1.9,1.2,3.3,1.2
				c0.6,0,1.2-0.1,1.8-0.2c0.6-0.2,1.2-0.4,1.9-0.8l0.6,2.9c-0.7,0.4-1.4,0.6-2.2,0.8S242.3,839.4,241.5,839.4z"/>
			<path class="st3" d="M256.2,839.4c-2.5,0-4.5-0.7-5.8-2c-1.4-1.3-2-3.2-2-5.6c0-2.4,0.6-4.2,1.9-5.5s3.1-2,5.3-2
				c2.2,0,3.9,0.6,5.1,1.9c1.2,1.3,1.8,3.1,1.8,5.4c0,0.3,0,0.6,0,0.9s0,0.6,0,0.8h-11.9v-2.7h8.9l-0.5,0.8c0-1.5-0.3-2.5-0.8-3.2
				c-0.5-0.7-1.3-1.1-2.5-1.1c-1.2,0-2,0.4-2.6,1.1s-0.9,1.8-0.9,3.3v1.1c0,1.3,0.3,2.2,1,2.9c0.7,0.6,1.7,1,3.1,1
				c0.9,0,1.7-0.1,2.6-0.3c0.9-0.2,1.6-0.5,2.3-0.9l0.6,2.9c-0.7,0.4-1.5,0.7-2.5,0.9C258.3,839.3,257.3,839.4,256.2,839.4z"/>
			<path class="st3" d="M270.2,839.4c-1,0-2.1-0.1-3.1-0.3s-1.9-0.5-2.7-0.8l0.5-3c0.9,0.4,1.8,0.6,2.7,0.8c0.9,0.2,1.7,0.3,2.5,0.3
				c0.9,0,1.5-0.1,1.9-0.4c0.4-0.2,0.6-0.6,0.6-1.1c0-0.3-0.1-0.5-0.2-0.7s-0.4-0.4-0.8-0.5c-0.4-0.2-0.9-0.3-1.6-0.5
				c-1.3-0.3-2.4-0.7-3.2-1.1s-1.5-0.9-1.8-1.5c-0.4-0.6-0.6-1.3-0.6-2.1c0-1.4,0.5-2.4,1.6-3.1s2.6-1.1,4.6-1.1
				c1,0,1.9,0.1,2.8,0.3c0.9,0.2,1.8,0.5,2.7,0.8l-0.5,2.9c-0.8-0.4-1.6-0.6-2.5-0.8c-0.8-0.2-1.6-0.3-2.4-0.3
				c-0.8,0-1.5,0.1-1.8,0.3c-0.4,0.2-0.6,0.5-0.6,1c0,0.3,0.1,0.5,0.2,0.7c0.2,0.2,0.4,0.4,0.8,0.5c0.4,0.2,0.9,0.3,1.5,0.4
				c1,0.2,1.9,0.5,2.6,0.8c0.7,0.3,1.3,0.6,1.8,1c0.5,0.4,0.8,0.8,1.1,1.3c0.2,0.5,0.3,1,0.3,1.7c0,1.4-0.6,2.5-1.7,3.2
				C273.8,839,272.2,839.4,270.2,839.4z"/>
			<path class="st3" d="M284.2,839.4c-1,0-2.1-0.1-3.1-0.3s-1.9-0.5-2.7-0.8l0.5-3c0.9,0.4,1.8,0.6,2.7,0.8c0.9,0.2,1.7,0.3,2.5,0.3
				c0.9,0,1.5-0.1,1.9-0.4c0.4-0.2,0.6-0.6,0.6-1.1c0-0.3-0.1-0.5-0.2-0.7s-0.4-0.4-0.8-0.5c-0.4-0.2-0.9-0.3-1.6-0.5
				c-1.3-0.3-2.4-0.7-3.2-1.1s-1.5-0.9-1.8-1.5c-0.4-0.6-0.6-1.3-0.6-2.1c0-1.4,0.5-2.4,1.6-3.1s2.6-1.1,4.6-1.1
				c1,0,1.9,0.1,2.8,0.3c0.9,0.2,1.8,0.5,2.7,0.8l-0.5,2.9c-0.8-0.4-1.6-0.6-2.5-0.8c-0.8-0.2-1.6-0.3-2.4-0.3
				c-0.8,0-1.5,0.1-1.8,0.3c-0.4,0.2-0.6,0.5-0.6,1c0,0.3,0.1,0.5,0.2,0.7c0.2,0.2,0.4,0.4,0.8,0.5c0.4,0.2,0.9,0.3,1.5,0.4
				c1,0.2,1.9,0.5,2.6,0.8c0.7,0.3,1.3,0.6,1.8,1c0.5,0.4,0.8,0.8,1.1,1.3c0.2,0.5,0.3,1,0.3,1.7c0,1.4-0.6,2.5-1.7,3.2
				C287.8,839,286.2,839.4,284.2,839.4z"/>
		</g>
		<g class="st2">
			<path class="st3" d="M795.6,785.2c0.7-0.1,1.5-0.2,2.2-0.2c0.7-0.1,1.5-0.1,2.2-0.1c0.7,0,1.3,0,1.8,0c3.1,0,5.4,0.6,6.9,1.8
				c1.5,1.2,2.2,3,2.2,5.5c0,2.4-0.7,4.2-2.1,5.4s-3.6,1.8-6.4,1.8c-0.6,0-1.3,0-2.1-0.1c-0.8-0.1-1.7-0.2-2.7-0.3l0-3.3
				c1,0.1,1.8,0.2,2.5,0.3s1.3,0.1,1.8,0.1c1.8,0,3.1-0.3,3.9-0.9c0.8-0.6,1.2-1.6,1.2-3c0-1.4-0.4-2.4-1.2-3
				c-0.8-0.6-2.1-0.9-3.9-0.9c-0.6,0-1.2,0-1.9,0.1c-0.7,0.1-1.5,0.2-2.2,0.3l1.8-2v19h-3.9V785.2z"/>
			<path class="st3" d="M813.8,805.5V785h14.4v3.4h-10.4v5.4h9.9v3.3h-9.9v8.3H813.8z"/>
		</g>
		<g class="st2">
			<path class="st3" d="M736.4,839.1v-20.4h4.1v20.4H736.4z"/>
			<path class="st3" d="M744.7,839.1v-14.6h3.7l0,2h0.1c0.7-0.8,1.4-1.4,2.2-1.7c0.8-0.4,1.7-0.5,2.8-0.5c1.8,0,3.1,0.5,3.8,1.5
				s1.2,2.7,1.2,4.9v8.4h-3.8v-7.6c0-1.4-0.2-2.4-0.6-3.1c-0.4-0.7-1-1-1.9-1c-0.7,0-1.2,0.2-1.8,0.5c-0.5,0.3-1,0.8-1.3,1.3
				c-0.3,0.5-0.5,1.1-0.5,1.8v8.1H744.7z"/>
			<path class="st3" d="M764.7,839.1l-4.8-14.6h4.1l3.4,12h0.1l3.4-12h4.1l-4.8,14.6H764.7z"/>
			<path class="st3" d="M783.6,839.4c-2.5,0-4.5-0.7-5.8-2c-1.4-1.3-2-3.2-2-5.6c0-2.4,0.6-4.2,1.9-5.5s3.1-2,5.3-2
				c2.2,0,3.9,0.6,5.1,1.9c1.2,1.3,1.8,3.1,1.8,5.4c0,0.3,0,0.6,0,0.9s0,0.6,0,0.8h-11.9v-2.7h8.9l-0.5,0.8c0-1.5-0.3-2.5-0.8-3.2
				c-0.5-0.7-1.3-1.1-2.4-1.1c-1.2,0-2,0.4-2.6,1.1s-0.9,1.8-0.9,3.3v1.1c0,1.3,0.3,2.2,1,2.9c0.7,0.6,1.7,1,3.1,1
				c0.9,0,1.7-0.1,2.6-0.3c0.9-0.2,1.6-0.5,2.3-0.9l0.6,2.9c-0.7,0.4-1.5,0.7-2.5,0.9C785.7,839.3,784.7,839.4,783.6,839.4z"/>
			<path class="st3" d="M797.6,839.4c-1,0-2.1-0.1-3.1-0.3s-1.9-0.5-2.7-0.8l0.5-3c0.9,0.4,1.8,0.6,2.7,0.8c0.9,0.2,1.7,0.3,2.5,0.3
				c0.9,0,1.5-0.1,1.9-0.4c0.4-0.2,0.6-0.6,0.6-1.1c0-0.3-0.1-0.5-0.2-0.7s-0.4-0.4-0.8-0.5c-0.4-0.2-0.9-0.3-1.6-0.5
				c-1.3-0.3-2.4-0.7-3.2-1.1s-1.5-0.9-1.8-1.5c-0.4-0.6-0.6-1.3-0.6-2.1c0-1.4,0.5-2.4,1.6-3.1c1.1-0.7,2.6-1.1,4.6-1.1
				c1,0,1.9,0.1,2.8,0.3c0.9,0.2,1.8,0.5,2.7,0.8l-0.5,2.9c-0.8-0.4-1.6-0.6-2.5-0.8c-0.8-0.2-1.6-0.3-2.4-0.3
				c-0.8,0-1.5,0.1-1.8,0.3c-0.4,0.2-0.6,0.5-0.6,1c0,0.3,0.1,0.5,0.2,0.7c0.2,0.2,0.4,0.4,0.8,0.5c0.4,0.2,0.9,0.3,1.5,0.4
				c1,0.2,1.9,0.5,2.6,0.8c0.7,0.3,1.3,0.6,1.8,1c0.5,0.4,0.8,0.8,1.1,1.3c0.2,0.5,0.3,1,0.3,1.7c0,1.4-0.6,2.5-1.7,3.2
				C801.2,839,799.6,839.4,797.6,839.4z"/>
			<path class="st3" d="M813.8,839.4c-1.8,0-3.2-0.4-4-1.1c-0.8-0.8-1.2-2-1.2-3.7v-7h-3.1v-3h3.1v-4.8h3.9v4.8h4.7v3h-4.7v6.4
				c0,0.8,0.2,1.4,0.5,1.7s0.9,0.5,1.7,0.5c0.4,0,0.7,0,1.1-0.1c0.4-0.1,0.7-0.2,1.1-0.3l0.4,3.1c-0.6,0.2-1.1,0.3-1.7,0.4
				C814.9,839.3,814.3,839.4,813.8,839.4z"/>
			<path class="st3" d="M820.4,839.1v-14.6h3.6l0,2h0.1c0.5-0.7,1.1-1.3,1.8-1.7c0.7-0.4,1.5-0.6,2.4-0.6c0.9,0,1.7,0.2,2.4,0.6
				s1.2,0.9,1.5,1.7h0.1c0.5-0.8,1.2-1.4,1.9-1.7s1.6-0.5,2.7-0.5c1.6,0,2.7,0.4,3.4,1.3s1,2.4,1,4.5v9h-3.8v-8.5
				c0-1.1-0.2-1.9-0.5-2.4s-0.8-0.8-1.5-0.8c-0.9,0-1.6,0.3-2,1c-0.5,0.7-0.7,1.6-0.7,2.8v7.9h-3.8v-9c0-0.9-0.2-1.5-0.5-2
				c-0.4-0.5-0.8-0.7-1.5-0.7c-0.8,0-1.5,0.3-2,1c-0.5,0.7-0.8,1.6-0.8,2.7v7.9H820.4z"/>
			<path class="st3" d="M851.6,839.4c-2.5,0-4.5-0.7-5.8-2c-1.4-1.3-2-3.2-2-5.6c0-2.4,0.6-4.2,1.9-5.5s3.1-2,5.3-2
				c2.2,0,3.9,0.6,5.1,1.9s1.8,3.1,1.8,5.4c0,0.3,0,0.6,0,0.9s0,0.6,0,0.8h-11.9v-2.7h8.9l-0.5,0.8c0-1.5-0.3-2.5-0.8-3.2
				c-0.5-0.7-1.3-1.1-2.5-1.1c-1.2,0-2,0.4-2.6,1.1s-0.9,1.8-0.9,3.3v1.1c0,1.3,0.3,2.2,1,2.9s1.7,1,3.1,1c0.9,0,1.7-0.1,2.6-0.3
				c0.9-0.2,1.6-0.5,2.3-0.9l0.6,2.9c-0.7,0.4-1.5,0.7-2.5,0.9C853.7,839.3,852.7,839.4,851.6,839.4z"/>
			<path class="st3" d="M860.7,839.1v-14.6h3.7l0,2h0.1c0.7-0.8,1.4-1.4,2.2-1.7s1.7-0.5,2.8-0.5c1.8,0,3.1,0.5,3.8,1.5
				c0.8,1,1.2,2.7,1.2,4.9v8.4h-3.8v-7.6c0-1.4-0.2-2.4-0.6-3.1c-0.4-0.7-1-1-1.9-1c-0.7,0-1.2,0.2-1.8,0.5c-0.5,0.3-1,0.8-1.3,1.3
				c-0.3,0.5-0.5,1.1-0.5,1.8v8.1H860.7z"/>
			<path class="st3" d="M884.4,839.4c-1.8,0-3.2-0.4-4-1.1c-0.8-0.8-1.2-2-1.2-3.7v-7H876v-3h3.1v-4.8h3.9v4.8h4.7v3h-4.7v6.4
				c0,0.8,0.2,1.4,0.5,1.7s0.9,0.5,1.7,0.5c0.4,0,0.7,0,1.1-0.1c0.4-0.1,0.7-0.2,1.1-0.3l0.4,3.1c-0.6,0.2-1.1,0.3-1.7,0.4
				S885,839.4,884.4,839.4z"/>
		</g>
		<g class="st2">
			<path class="st3" d="M152.6,209.9c0.7-0.1,1.5-0.2,2.2-0.2c0.7-0.1,1.5-0.1,2.2-0.1c0.7,0,1.3,0,1.8,0c3.1,0,5.4,0.6,6.9,1.8
				c1.5,1.2,2.2,3,2.2,5.5c0,2.4-0.7,4.2-2.1,5.4c-1.4,1.2-3.6,1.8-6.4,1.8c-0.6,0-1.3,0-2.1-0.1c-0.8-0.1-1.7-0.2-2.7-0.3l0-3.3
				c1,0.1,1.8,0.2,2.5,0.3c0.7,0.1,1.3,0.1,1.8,0.1c1.8,0,3.1-0.3,3.9-0.9c0.8-0.6,1.2-1.6,1.2-3c0-1.4-0.4-2.4-1.2-3
				c-0.8-0.6-2.1-0.9-3.9-0.9c-0.6,0-1.2,0-1.9,0.1c-0.7,0.1-1.5,0.2-2.2,0.3l1.8-2v19h-3.9V209.9z"/>
			<path class="st3" d="M176.4,230.5c-2.5,0-4.5-0.7-5.8-2c-1.4-1.3-2-3.2-2-5.6c0-2.4,0.6-4.2,1.9-5.5s3.1-2,5.3-2
				c2.2,0,3.9,0.6,5.1,1.9c1.2,1.3,1.8,3.1,1.8,5.4c0,0.3,0,0.6,0,0.9s0,0.6,0,0.8h-11.9v-2.7h8.9l-0.5,0.8c0-1.5-0.3-2.5-0.8-3.2
				c-0.5-0.7-1.3-1.1-2.5-1.1c-1.2,0-2,0.4-2.6,1.1s-0.9,1.8-0.9,3.3v1.1c0,1.3,0.3,2.2,1,2.9c0.7,0.6,1.7,1,3.1,1
				c0.9,0,1.7-0.1,2.6-0.3c0.9-0.2,1.6-0.5,2.3-0.9l0.6,2.9c-0.7,0.4-1.5,0.7-2.5,0.9C178.5,230.4,177.5,230.5,176.4,230.5z"/>
			<path class="st3" d="M185.5,230.2v-14.6h3.7l0,2.7h0.1c0.5-0.7,1.1-1.2,1.7-1.6c0.7-0.4,1.4-0.8,2.2-1c0.8-0.2,1.6-0.3,2.5-0.3
				v3.3c-1.2,0-2.2,0.2-3.2,0.6c-1,0.4-1.7,1-2.3,1.8s-0.8,1.6-0.8,2.5v6.7H185.5z"/>
			<path class="st3" d="M200.8,230.2v-11h-3.6v-3h3.6v-2c0-1.8,0.5-3.2,1.4-4.1c0.9-0.9,2.3-1.4,4-1.4c0.5,0,1,0,1.6,0.1
				c0.5,0.1,1,0.2,1.5,0.3l-0.4,3c-0.7-0.2-1.3-0.3-1.9-0.3c-0.8,0-1.4,0.2-1.7,0.6c-0.3,0.4-0.5,1-0.5,2v1.9h4.5v3h-4.5v11H200.8z"
				/>
			<path class="st3" d="M217.4,230.5c-1.5,0-2.8-0.3-3.9-0.9c-1.1-0.6-2-1.5-2.6-2.6c-0.6-1.1-0.9-2.5-0.9-4c0-1.5,0.3-2.9,0.9-4
				c0.6-1.1,1.5-2,2.6-2.6s2.4-0.9,3.9-0.9c1.5,0,2.9,0.3,4,0.9c1.1,0.6,2,1.5,2.6,2.6c0.6,1.1,0.9,2.5,0.9,4c0,1.5-0.3,2.9-0.9,4
				c-0.6,1.1-1.5,2-2.6,2.6C220.3,230.2,218.9,230.5,217.4,230.5z M217.4,227.5c1.2,0,2-0.4,2.7-1.2c0.6-0.8,0.9-1.9,0.9-3.4
				c0-1.5-0.3-2.6-0.9-3.4s-1.5-1.2-2.7-1.2c-1.2,0-2.1,0.4-2.7,1.2c-0.6,0.8-1,1.9-1,3.4c0,1.5,0.3,2.6,1,3.4
				C215.4,227.1,216.3,227.5,217.4,227.5z"/>
			<path class="st3" d="M227.8,230.2v-14.6h3.7l0,2.7h0.1c0.5-0.7,1.1-1.2,1.7-1.6c0.7-0.4,1.4-0.8,2.2-1c0.8-0.2,1.6-0.3,2.5-0.3
				v3.3c-1.2,0-2.2,0.2-3.2,0.6c-1,0.4-1.7,1-2.3,1.8s-0.8,1.6-0.8,2.5v6.7H227.8z"/>
			<path class="st3" d="M240.4,230.2v-14.6h3.6l0,2h0.1c0.5-0.7,1.1-1.3,1.8-1.7c0.7-0.4,1.5-0.6,2.4-0.6c0.9,0,1.7,0.2,2.4,0.6
				c0.7,0.4,1.2,0.9,1.5,1.7h0.1c0.5-0.8,1.2-1.4,1.9-1.7s1.6-0.5,2.7-0.5c1.6,0,2.7,0.4,3.4,1.3c0.7,0.9,1,2.4,1,4.5v9h-3.8v-8.5
				c0-1.1-0.2-1.9-0.5-2.4s-0.8-0.8-1.5-0.8c-0.9,0-1.6,0.3-2,1c-0.5,0.7-0.7,1.6-0.7,2.8v7.9H249v-9c0-0.9-0.2-1.5-0.5-2
				c-0.4-0.5-0.8-0.7-1.5-0.7c-0.8,0-1.5,0.3-2,1c-0.5,0.7-0.8,1.6-0.8,2.7v7.9H240.4z"/>
			<path class="st3" d="M268.2,230.5c-1.4,0-2.6-0.4-3.4-1.2s-1.2-1.9-1.2-3.2c0-1.7,0.7-3,2-3.9c1.3-0.9,3.2-1.4,5.6-1.4h1.9
				c0-0.9-0.2-1.5-0.7-1.9c-0.5-0.4-1.3-0.6-2.4-0.6c-0.9,0-1.8,0.1-2.7,0.3c-0.9,0.2-1.8,0.6-2.6,1.1l-0.4-3c0.9-0.5,1.9-0.8,2.9-1
				c1-0.2,2.1-0.3,3.3-0.3c1.5,0,2.8,0.2,3.7,0.6c0.9,0.4,1.6,1,2.1,1.8c0.4,0.8,0.6,1.9,0.6,3.3v9.2h-3.7l0-1.7h-0.1
				c-0.5,0.6-1.2,1.1-2.2,1.4S269.2,230.5,268.2,230.5z M269.6,227.6c0.7,0,1.2-0.1,1.8-0.3c0.5-0.2,0.9-0.5,1.2-0.9
				c0.3-0.4,0.5-0.8,0.5-1.3v-1.7h-1.4c-1.5,0-2.6,0.2-3.4,0.6c-0.7,0.4-1.1,1-1.1,1.8c0,0.6,0.2,1.1,0.6,1.4
				C268.3,227.4,268.9,227.6,269.6,227.6z"/>
			<path class="st3" d="M280.4,230.2v-14.6h3.7l0,2h0.1c0.7-0.8,1.4-1.4,2.2-1.7c0.8-0.4,1.7-0.5,2.8-0.5c1.8,0,3.1,0.5,3.9,1.5
				s1.2,2.7,1.2,4.9v8.4h-3.8v-7.6c0-1.4-0.2-2.4-0.6-3.1c-0.4-0.7-1-1-1.9-1c-0.7,0-1.2,0.2-1.8,0.5c-0.5,0.3-1,0.8-1.3,1.3
				c-0.3,0.5-0.5,1.1-0.5,1.8v8.1H280.4z"/>
			<path class="st3" d="M304.8,230.5c-1.7,0-3.2-0.3-4.4-0.9c-1.2-0.6-2.1-1.5-2.8-2.6c-0.6-1.1-1-2.5-1-4.1c0-1.6,0.3-3,1-4.1
				c0.6-1.1,1.6-2,2.8-2.6c1.2-0.6,2.7-0.9,4.4-0.9c0.9,0,1.7,0.1,2.4,0.3s1.5,0.4,2.2,0.8l-0.6,2.9c-0.7-0.4-1.3-0.6-1.9-0.8
				c-0.6-0.2-1.2-0.2-1.8-0.2c-1.4,0-2.5,0.4-3.3,1.2c-0.8,0.8-1.2,1.9-1.2,3.4c0,1.5,0.4,2.6,1.2,3.4c0.8,0.8,1.9,1.2,3.3,1.2
				c0.6,0,1.2-0.1,1.8-0.2c0.6-0.2,1.2-0.4,1.9-0.8l0.6,2.9c-0.7,0.4-1.4,0.6-2.2,0.8S305.6,230.5,304.8,230.5z"/>
			<path class="st3" d="M319.5,230.5c-2.5,0-4.5-0.7-5.8-2c-1.4-1.3-2-3.2-2-5.6c0-2.4,0.6-4.2,1.9-5.5s3.1-2,5.3-2
				c2.2,0,3.9,0.6,5.1,1.9c1.2,1.3,1.8,3.1,1.8,5.4c0,0.3,0,0.6,0,0.9s0,0.6,0,0.8h-11.9v-2.7h8.9l-0.5,0.8c0-1.5-0.3-2.5-0.8-3.2
				c-0.5-0.7-1.3-1.1-2.5-1.1c-1.2,0-2,0.4-2.6,1.1s-0.9,1.8-0.9,3.3v1.1c0,1.3,0.3,2.2,1,2.9c0.7,0.6,1.7,1,3.1,1
				c0.9,0,1.7-0.1,2.6-0.3c0.9-0.2,1.6-0.5,2.3-0.9l0.6,2.9c-0.7,0.4-1.5,0.7-2.5,0.9C321.6,230.4,320.6,230.5,319.5,230.5z"/>
		</g>
		<g class="st2">
			<path class="st3" d="M173.5,263.8l7.1-20.4h5.3l7.1,20.4h-4.3l-5.4-17.1h-0.1l-5.3,17.1H173.5z M177.6,259.1v-3.4h11.2v3.4H177.6
				z"/>
			<path class="st3" d="M204,249c1.9,0,3.4,0.7,4.5,2s1.6,3.2,1.6,5.6c0,2.4-0.5,4.2-1.6,5.6s-2.6,2-4.5,2c-0.9,0-1.8-0.2-2.6-0.5
				c-0.8-0.3-1.4-0.8-2-1.5h-0.1v7.6h-3.9v-20.4h3.7l0,1.7h0.1c0.6-0.7,1.3-1.2,2.1-1.5C202.1,249.1,203,249,204,249z M202.8,252
				c-0.7,0-1.2,0.1-1.8,0.4c-0.5,0.3-0.9,0.7-1.2,1.1c-0.3,0.5-0.4,1-0.4,1.6v2.6c0,0.6,0.1,1.2,0.4,1.6c0.3,0.5,0.7,0.9,1.2,1.1
				c0.5,0.3,1.1,0.4,1.8,0.4c1.1,0,2-0.4,2.6-1.2c0.6-0.8,0.9-1.9,0.9-3.3c0-1.4-0.3-2.5-0.9-3.3C204.8,252.4,203.9,252,202.8,252z"
				/>
			<path class="st3" d="M221.5,249c1.9,0,3.4,0.7,4.5,2s1.6,3.2,1.6,5.6c0,2.4-0.5,4.2-1.6,5.6s-2.6,2-4.5,2c-0.9,0-1.8-0.2-2.6-0.5
				c-0.8-0.3-1.4-0.8-2-1.5h-0.1v7.6H213v-20.4h3.7l0,1.7h0.1c0.6-0.7,1.3-1.2,2.1-1.5C219.6,249.1,220.5,249,221.5,249z M220.3,252
				c-0.7,0-1.2,0.1-1.8,0.4c-0.5,0.3-0.9,0.7-1.2,1.1c-0.3,0.5-0.4,1-0.4,1.6v2.6c0,0.6,0.1,1.2,0.4,1.6c0.3,0.5,0.7,0.9,1.2,1.1
				c0.5,0.3,1.1,0.4,1.8,0.4c1.1,0,2-0.4,2.6-1.2c0.6-0.8,0.9-1.9,0.9-3.3c0-1.4-0.3-2.5-0.9-3.3C222.3,252.4,221.4,252,220.3,252z"
				/>
			<path class="st3" d="M230.5,263.8v-14.6h3.7l0,2.7h0.1c0.5-0.7,1.1-1.2,1.7-1.6c0.7-0.4,1.4-0.8,2.2-1c0.8-0.2,1.6-0.3,2.5-0.3
				v3.3c-1.2,0-2.2,0.2-3.2,0.6c-1,0.4-1.7,1-2.3,1.8s-0.8,1.6-0.8,2.5v6.7H230.5z"/>
			<path class="st3" d="M246.4,264.1c-1.4,0-2.6-0.4-3.4-1.2s-1.2-1.9-1.2-3.2c0-1.7,0.7-3,2-3.9c1.3-0.9,3.2-1.4,5.6-1.4h1.9
				c0-0.9-0.2-1.5-0.7-1.9c-0.5-0.4-1.3-0.6-2.4-0.6c-0.9,0-1.8,0.1-2.7,0.3c-0.9,0.2-1.8,0.6-2.6,1.1l-0.4-3c0.9-0.5,1.9-0.8,2.9-1
				c1-0.2,2.1-0.3,3.3-0.3c1.5,0,2.8,0.2,3.7,0.6c0.9,0.4,1.6,1,2.1,1.8c0.4,0.8,0.6,1.9,0.6,3.3v9.2h-3.7l0-1.7h-0.1
				c-0.5,0.6-1.2,1.1-2.2,1.4S247.3,264.1,246.4,264.1z M247.8,261.2c0.7,0,1.2-0.1,1.8-0.3c0.5-0.2,0.9-0.5,1.2-0.9
				c0.3-0.4,0.5-0.8,0.5-1.3v-1.7h-1.4c-1.5,0-2.6,0.2-3.4,0.6c-0.7,0.4-1.1,1-1.1,1.8c0,0.6,0.2,1.1,0.6,1.4
				C246.4,261,247,261.2,247.8,261.2z"/>
			<path class="st3" d="M261.2,247.5c-0.7,0-1.3-0.2-1.7-0.6c-0.4-0.4-0.6-1-0.6-1.7c0-0.7,0.2-1.3,0.6-1.7c0.4-0.4,1-0.6,1.7-0.6
				s1.3,0.2,1.7,0.6c0.4,0.4,0.6,1,0.6,1.7c0,0.7-0.2,1.3-0.6,1.7C262.5,247.3,261.9,247.5,261.2,247.5z M259.2,263.8v-14.3h3.9
				v14.3H259.2z"/>
			<path class="st3" d="M272.5,264.1c-1,0-2.1-0.1-3.1-0.3s-1.9-0.5-2.7-0.8l0.5-3c0.9,0.4,1.8,0.6,2.7,0.8c0.9,0.2,1.7,0.3,2.5,0.3
				c0.9,0,1.5-0.1,1.9-0.4c0.4-0.2,0.6-0.6,0.6-1.1c0-0.3-0.1-0.5-0.2-0.7s-0.4-0.4-0.8-0.5c-0.4-0.2-0.9-0.3-1.6-0.5
				c-1.3-0.3-2.4-0.7-3.2-1.1s-1.5-0.9-1.8-1.5c-0.4-0.6-0.6-1.3-0.6-2.1c0-1.4,0.5-2.4,1.6-3.1s2.6-1.1,4.6-1.1
				c1,0,1.9,0.1,2.8,0.3c0.9,0.2,1.8,0.5,2.7,0.8l-0.5,2.9c-0.8-0.4-1.6-0.6-2.5-0.8c-0.8-0.2-1.6-0.3-2.4-0.3
				c-0.8,0-1.5,0.1-1.8,0.3c-0.4,0.2-0.6,0.5-0.6,1c0,0.3,0.1,0.5,0.2,0.7c0.2,0.2,0.4,0.4,0.8,0.5c0.4,0.2,0.9,0.3,1.5,0.4
				c1,0.2,1.9,0.5,2.6,0.8c0.7,0.3,1.3,0.6,1.8,1c0.5,0.4,0.8,0.8,1.1,1.3c0.2,0.5,0.3,1,0.3,1.7c0,1.4-0.6,2.5-1.7,3.2
				C276.1,263.7,274.5,264.1,272.5,264.1z"/>
			<path class="st3" d="M285.5,264.1c-1.4,0-2.6-0.4-3.4-1.2s-1.2-1.9-1.2-3.2c0-1.7,0.7-3,2-3.9c1.3-0.9,3.2-1.4,5.6-1.4h1.9
				c0-0.9-0.2-1.5-0.7-1.9c-0.5-0.4-1.3-0.6-2.4-0.6c-0.9,0-1.8,0.1-2.7,0.3c-0.9,0.2-1.8,0.6-2.6,1.1l-0.4-3c0.9-0.5,1.9-0.8,2.9-1
				c1-0.2,2.1-0.3,3.3-0.3c1.5,0,2.8,0.2,3.7,0.6c0.9,0.4,1.6,1,2.1,1.8c0.4,0.8,0.6,1.9,0.6,3.3v9.2h-3.7l0-1.7h-0.1
				c-0.5,0.6-1.2,1.1-2.2,1.4S286.4,264.1,285.5,264.1z M286.9,261.2c0.7,0,1.2-0.1,1.8-0.3c0.5-0.2,0.9-0.5,1.2-0.9
				c0.3-0.4,0.5-0.8,0.5-1.3v-1.7H289c-1.5,0-2.6,0.2-3.4,0.6c-0.7,0.4-1.1,1-1.1,1.8c0,0.6,0.2,1.1,0.6,1.4
				C285.5,261,286.1,261.2,286.9,261.2z"/>
			<path class="st3" d="M297.9,263.8v-20.4h3.9v20.4H297.9z"/>
		</g>
		<g class="st2">
			<path class="st3" d="M89.4,516v-20.4h4v17h10.6v3.4H89.4z"/>
			<path class="st3" d="M112.5,516.2c-1.5,0-2.8-0.3-3.9-0.9c-1.1-0.6-2-1.5-2.6-2.6c-0.6-1.1-0.9-2.5-0.9-4c0-1.5,0.3-2.9,0.9-4
				c0.6-1.1,1.5-2,2.6-2.6s2.4-0.9,3.9-0.9c1.5,0,2.9,0.3,4,0.9c1.1,0.6,2,1.5,2.6,2.6c0.6,1.1,0.9,2.5,0.9,4c0,1.5-0.3,2.9-0.9,4
				c-0.6,1.1-1.5,2-2.6,2.6C115.3,515.9,114,516.2,112.5,516.2z M112.5,513.2c1.2,0,2-0.4,2.7-1.2c0.6-0.8,0.9-1.9,0.9-3.4
				c0-1.5-0.3-2.6-0.9-3.4s-1.5-1.2-2.7-1.2c-1.2,0-2.1,0.4-2.7,1.2c-0.6,0.8-1,1.9-1,3.4c0,1.5,0.3,2.6,1,3.4
				C110.4,512.8,111.3,513.2,112.5,513.2z"/>
			<path class="st3" d="M126.5,516.2c-1.4,0-2.6-0.4-3.4-1.2s-1.2-1.9-1.2-3.2c0-1.7,0.7-3,2-3.9c1.3-0.9,3.2-1.4,5.6-1.4h1.9
				c0-0.9-0.2-1.5-0.7-1.9c-0.5-0.4-1.3-0.6-2.4-0.6c-0.9,0-1.8,0.1-2.7,0.3c-0.9,0.2-1.8,0.6-2.6,1.1l-0.4-3c0.9-0.5,1.9-0.8,2.9-1
				c1-0.2,2.1-0.3,3.3-0.3c1.5,0,2.8,0.2,3.7,0.6c0.9,0.4,1.6,1,2.1,1.8c0.4,0.8,0.6,1.9,0.6,3.3v9.2h-3.7l0-1.7h-0.1
				c-0.5,0.6-1.2,1.1-2.2,1.4S127.4,516.2,126.5,516.2z M127.9,513.3c0.7,0,1.2-0.1,1.8-0.3c0.5-0.2,0.9-0.5,1.2-0.9
				c0.3-0.4,0.5-0.8,0.5-1.3v-1.7H130c-1.5,0-2.6,0.2-3.4,0.6c-0.7,0.4-1.1,1-1.1,1.8c0,0.6,0.2,1.1,0.6,1.4
				C126.5,513.2,127.1,513.3,127.9,513.3z"/>
			<path class="st3" d="M138.7,516v-14.6h3.7l0,2h0.1c0.7-0.8,1.4-1.4,2.2-1.7c0.8-0.4,1.7-0.5,2.8-0.5c1.8,0,3.1,0.5,3.9,1.5
				s1.2,2.7,1.2,4.9v8.4h-3.8v-7.6c0-1.4-0.2-2.4-0.6-3.1c-0.4-0.7-1-1-1.9-1c-0.7,0-1.2,0.2-1.8,0.5c-0.5,0.3-1,0.8-1.3,1.3
				c-0.3,0.5-0.5,1.1-0.5,1.8v8.1H138.7z"/>
		</g>
		<g class="st2">
			<path class="st3" d="M32.8,549.6l2.5-20.4h4.8l4,13.7h0.1l4-13.7h4.8l2.5,20.4h-3.9l-1.3-14.8H50l-3.9,12.5h-4l-3.9-12.5h-0.1
				l-1.3,14.8H32.8z"/>
			<path class="st3" d="M62.1,549.8c-1.4,0-2.6-0.4-3.4-1.2s-1.2-1.9-1.2-3.2c0-1.7,0.7-3,2-3.9c1.3-0.9,3.2-1.4,5.6-1.4H67
				c0-0.9-0.2-1.5-0.7-1.9c-0.5-0.4-1.3-0.6-2.4-0.6c-0.9,0-1.8,0.1-2.7,0.3c-0.9,0.2-1.8,0.6-2.6,1.1l-0.4-3c0.9-0.5,1.9-0.8,2.9-1
				c1-0.2,2.1-0.3,3.3-0.3c1.5,0,2.8,0.2,3.7,0.6c0.9,0.4,1.6,1,2.1,1.8c0.4,0.8,0.6,1.9,0.6,3.3v9.2h-3.7l0-1.7h-0.1
				c-0.5,0.6-1.2,1.1-2.2,1.4S63.1,549.8,62.1,549.8z M63.5,546.9c0.7,0,1.2-0.1,1.8-0.3c0.5-0.2,0.9-0.5,1.2-0.9
				c0.3-0.4,0.5-0.8,0.5-1.3v-1.7h-1.4c-1.5,0-2.6,0.2-3.4,0.6c-0.7,0.4-1.1,1-1.1,1.8c0,0.6,0.2,1.1,0.6,1.4
				C62.2,546.8,62.8,546.9,63.5,546.9z"/>
			<path class="st3" d="M74.4,549.6V535H78l0,2h0.1c0.7-0.8,1.4-1.4,2.2-1.7c0.8-0.4,1.7-0.5,2.8-0.5c1.8,0,3.1,0.5,3.9,1.5
				s1.2,2.7,1.2,4.9v8.4h-3.8v-7.6c0-1.4-0.2-2.4-0.6-3.1c-0.4-0.7-1-1-1.9-1c-0.7,0-1.2,0.2-1.8,0.5c-0.5,0.3-1,0.8-1.3,1.3
				c-0.3,0.5-0.5,1.1-0.5,1.8v8.1H74.4z"/>
			<path class="st3" d="M95.1,549.8c-1.4,0-2.6-0.4-3.4-1.2s-1.2-1.9-1.2-3.2c0-1.7,0.7-3,2-3.9c1.3-0.9,3.2-1.4,5.6-1.4h1.9
				c0-0.9-0.2-1.5-0.7-1.9c-0.5-0.4-1.3-0.6-2.4-0.6c-0.9,0-1.8,0.1-2.7,0.3c-0.9,0.2-1.8,0.6-2.6,1.1l-0.4-3c0.9-0.5,1.9-0.8,2.9-1
				c1-0.2,2.1-0.3,3.3-0.3c1.5,0,2.8,0.2,3.7,0.6c0.9,0.4,1.6,1,2.1,1.8c0.4,0.8,0.6,1.9,0.6,3.3v9.2h-3.7l0-1.7H100
				c-0.5,0.6-1.2,1.1-2.2,1.4S96,549.8,95.1,549.8z M96.5,546.9c0.7,0,1.2-0.1,1.8-0.3c0.5-0.2,0.9-0.5,1.2-0.9
				c0.3-0.4,0.5-0.8,0.5-1.3v-1.7h-1.4c-1.5,0-2.6,0.2-3.4,0.6c-0.7,0.4-1.1,1-1.1,1.8c0,0.6,0.2,1.1,0.6,1.4
				C95.1,546.8,95.7,546.9,96.5,546.9z"/>
			<path class="st3" d="M112.9,555.7c-1.2,0-2.2-0.1-3.2-0.4c-1-0.3-1.8-0.7-2.5-1.2l0.6-2.9c0.7,0.5,1.5,0.9,2.3,1.1
				c0.8,0.3,1.6,0.4,2.5,0.4c1.5,0,2.7-0.4,3.4-1.2c0.7-0.8,1.1-2,1.1-3.7v-0.8H117c-0.6,0.6-1.3,1.1-2,1.4
				c-0.8,0.3-1.6,0.5-2.5,0.5c-1.9,0-3.4-0.6-4.5-1.9c-1.1-1.3-1.6-3-1.6-5.3c0-2.3,0.5-4,1.6-5.3s2.6-1.9,4.5-1.9
				c0.9,0,1.8,0.2,2.6,0.5c0.8,0.3,1.5,0.8,2.1,1.4h0.1l0-1.6h3.7v12.9c0,2.6-0.7,4.5-2,5.9C117.6,555.1,115.6,555.7,112.9,555.7z
				 M113.6,545.9c0.7,0,1.3-0.1,1.8-0.4c0.5-0.2,0.9-0.6,1.2-1c0.3-0.4,0.5-0.9,0.5-1.4v-2.5c0-0.5-0.2-1-0.5-1.4
				c-0.3-0.4-0.7-0.8-1.2-1c-0.5-0.2-1.1-0.4-1.8-0.4c-1.1,0-1.9,0.4-2.5,1.1c-0.6,0.7-0.9,1.7-0.9,3c0,1.3,0.3,2.3,0.9,3
				C111.6,545.6,112.5,545.9,113.6,545.9z"/>
			<path class="st3" d="M131.7,549.8c-2.5,0-4.5-0.7-5.8-2c-1.4-1.3-2-3.2-2-5.6c0-2.4,0.6-4.2,1.9-5.5s3.1-2,5.3-2
				c2.2,0,3.9,0.6,5.1,1.9c1.2,1.3,1.8,3.1,1.8,5.4c0,0.3,0,0.6,0,0.9s0,0.6,0,0.8H126V541h8.9l-0.5,0.8c0-1.5-0.3-2.5-0.8-3.2
				c-0.5-0.7-1.3-1.1-2.5-1.1c-1.2,0-2,0.4-2.6,1.1s-0.9,1.8-0.9,3.3v1.1c0,1.3,0.3,2.2,1,2.9c0.7,0.6,1.7,1,3.1,1
				c0.9,0,1.7-0.1,2.6-0.3c0.9-0.2,1.6-0.5,2.3-0.9l0.6,2.9c-0.7,0.4-1.5,0.7-2.5,0.9C133.7,549.7,132.7,549.8,131.7,549.8z"/>
			<path class="st3" d="M140.8,549.6V535h3.6l0,2h0.1c0.5-0.7,1.1-1.3,1.8-1.7c0.7-0.4,1.5-0.6,2.4-0.6c0.9,0,1.7,0.2,2.4,0.6
				c0.7,0.4,1.2,0.9,1.5,1.7h0.1c0.5-0.8,1.2-1.4,1.9-1.7s1.6-0.5,2.7-0.5c1.6,0,2.7,0.4,3.4,1.3c0.7,0.9,1,2.4,1,4.5v9h-3.8v-8.5
				c0-1.1-0.2-1.9-0.5-2.4s-0.8-0.8-1.5-0.8c-0.9,0-1.6,0.3-2,1c-0.5,0.7-0.7,1.6-0.7,2.8v7.9h-3.8v-9c0-0.9-0.2-1.5-0.5-2
				c-0.4-0.5-0.8-0.7-1.5-0.7c-0.8,0-1.5,0.3-2,1c-0.5,0.7-0.8,1.6-0.8,2.7v7.9H140.8z"/>
			<path class="st3" d="M172,549.8c-2.5,0-4.5-0.7-5.8-2c-1.4-1.3-2-3.2-2-5.6c0-2.4,0.6-4.2,1.9-5.5s3.1-2,5.3-2
				c2.2,0,3.9,0.6,5.1,1.9c1.2,1.3,1.8,3.1,1.8,5.4c0,0.3,0,0.6,0,0.9s0,0.6,0,0.8h-11.9V541h8.9l-0.5,0.8c0-1.5-0.3-2.5-0.8-3.2
				c-0.5-0.7-1.3-1.1-2.5-1.1c-1.2,0-2,0.4-2.6,1.1s-0.9,1.8-0.9,3.3v1.1c0,1.3,0.3,2.2,1,2.9c0.7,0.6,1.7,1,3.1,1
				c0.9,0,1.7-0.1,2.6-0.3c0.9-0.2,1.6-0.5,2.3-0.9l0.6,2.9c-0.7,0.4-1.5,0.7-2.5,0.9C174.1,549.7,173.1,549.8,172,549.8z"/>
			<path class="st3" d="M181.1,549.6V535h3.7l0,2h0.1c0.7-0.8,1.4-1.4,2.2-1.7c0.8-0.4,1.7-0.5,2.8-0.5c1.8,0,3.1,0.5,3.9,1.5
				s1.2,2.7,1.2,4.9v8.4H191v-7.6c0-1.4-0.2-2.4-0.6-3.1c-0.4-0.7-1-1-1.9-1c-0.7,0-1.2,0.2-1.8,0.5c-0.5,0.3-1,0.8-1.3,1.3
				c-0.3,0.5-0.5,1.1-0.5,1.8v8.1H181.1z"/>
			<path class="st3" d="M204.8,549.8c-1.8,0-3.2-0.4-4-1.1c-0.8-0.8-1.2-2-1.2-3.7v-7h-3.1v-3h3.1v-4.8h3.9v4.8h4.7v3h-4.7v6.4
				c0,0.8,0.2,1.4,0.5,1.7s0.9,0.5,1.7,0.5c0.4,0,0.7,0,1.1-0.1c0.4-0.1,0.7-0.2,1.1-0.3l0.4,3.1c-0.6,0.2-1.1,0.3-1.7,0.4
				S205.4,549.8,204.8,549.8z"/>
		</g>
		<circle class="st4" cx="525.6" cy="525.6" r="90.3"/>
		<g class="st2">
			<path class="st5" d="M471.4,537.4v-28.2h5.4v28.2H471.4z M474.1,525.1v-4.7H491v4.7H474.1z M488.3,537.4v-28.2h5.4v28.2H488.3z"
				/>
			<path class="st5" d="M499.6,509.4c1-0.1,2-0.2,3-0.3c1.1-0.1,2.1-0.1,3.1-0.2c1-0.1,1.9-0.1,2.7-0.1c4.2,0,7.3,0.7,9.3,2.2
				c2,1.4,2.9,3.7,2.9,6.8c0,3.1-1,5.3-2.9,6.8c-2,1.4-5,2.2-9.3,2.2c-1,0-2,0-3.2-0.1c-1.2-0.1-2.3-0.1-3.4-0.2l0.6-4.5
				c1.3,0.2,2.5,0.3,3.5,0.4c1.1,0.1,2,0.1,2.8,0.1c2.3,0,3.9-0.4,4.9-1.1c1-0.7,1.5-1.8,1.5-3.4c0-1.6-0.5-2.7-1.5-3.4
				s-2.6-1.1-4.9-1.1c-0.8,0-1.7,0-2.8,0.1c-1.1,0.1-2.2,0.2-3.5,0.4l2.5-2.8v26.2h-5.4V509.4z M515.7,537.4l-12.9-13.1h6.4
				l13.2,13.1H515.7z"/>
			<path class="st5" d="M525.1,537.4l3.4-28.2h6.6l5.5,18.9h0.1l5.5-18.9h6.6l3.4,28.2h-5.4l-1.9-20.4h-0.1l-5.4,17.3h-5.6
				l-5.4-17.3h-0.1l-1.9,20.4H525.1z"/>
			<path class="st5" d="M569.6,537.8c-1.9,0-3.8-0.2-5.6-0.6c-1.8-0.4-3.3-0.9-4.6-1.6l1.2-4.7c0.9,0.4,1.8,0.8,2.9,1.2
				c1.1,0.3,2.1,0.6,3.2,0.8c1.1,0.2,2.1,0.3,3.1,0.3c1.7,0,3-0.3,3.9-0.9c0.9-0.6,1.4-1.5,1.4-2.6c0-0.6-0.1-1.1-0.4-1.6
				c-0.3-0.4-0.7-0.8-1.3-1.1c-0.6-0.3-1.3-0.6-2.2-0.9s-1.9-0.6-3.1-0.9c-1.4-0.4-2.6-0.8-3.7-1.3c-1.1-0.5-2-1.1-2.8-1.7
				c-0.8-0.7-1.3-1.4-1.7-2.3c-0.4-0.9-0.6-1.9-0.6-3.1c0-2.5,1-4.5,2.9-5.8c1.9-1.4,4.7-2,8.2-2c1.7,0,3.5,0.2,5.2,0.5
				s3.2,0.8,4.5,1.3l-1.3,4.7c-1.2-0.6-2.6-1-4.1-1.4c-1.5-0.3-3-0.5-4.4-0.5c-1.7,0-3.1,0.3-4,0.8c-0.9,0.5-1.3,1.3-1.3,2.3
				c0,0.6,0.1,1.1,0.4,1.6c0.3,0.4,0.6,0.8,1.2,1.1s1.2,0.6,2,0.9c0.8,0.3,1.8,0.6,2.9,0.9c1.5,0.4,2.8,0.9,3.9,1.4
				c1.1,0.5,2.1,1.1,2.9,1.7c0.8,0.7,1.4,1.4,1.8,2.3c0.4,0.9,0.6,1.9,0.6,3.1c0,2.6-1,4.6-3,6S573.2,537.8,569.6,537.8z"/>
		</g>
	</g>
</g>
</svg>
