<?xml version="1.0" encoding="utf-8"?>
<!-- Generator: Adobe Illustrator 25.4.1, SVG Export Plug-In . SVG Version: 6.00 Build 0)  -->
<svg version="1.1" id="Layer_1" xmlns="http://www.w3.org/2000/svg" xmlns:xlink="http://www.w3.org/1999/xlink" x="0px" y="0px"
	 viewBox="0 0 485 159" style="enable-background:new 0 0 485 159;" xml:space="preserve">
<style type="text/css">
	.st0{fill:#1C305D;}
</style>
<path class="st0" d="M10.7,83.7c-1.4-0.7-1.6-1.1-1.6-3.9c0-5.3,0.5-9.1,0.6-10.6c0.1-1.4,0-1.7,0.8-1.7s0.9,0.4,0.9,1.2
	c0,1.2,0.1,2.5,0.4,3.7c1.7,7.4,9.6,10.1,16.7,10.1c10.6,0,15.8-5.9,15.8-13.6s-4-10.6-13.3-17.7l-4.8-3.6
	C14.9,39.2,11.2,33,11.2,25.9c0-12,9.4-19.2,23.4-19.2c3.7,0,7.3,0.4,10.9,1.2c1.2,0.3,2.4,0.5,3.7,0.5c0.8,0,1.1,0,1.1,0.7
	c0,0.7-0.5,3.9-0.5,10.6c0,1.6,0,2.3-0.8,2.3s-0.8-0.5-0.9-1.3c-0.2-1.8-0.8-3.6-1.5-5.3c-0.7-1.2-4.2-5.3-13.7-5.3
	c-7.7,0-14,3.9-14,11S22,31.3,32.4,38.4l3,2.1C48.2,49.2,52.7,56.3,52.7,65c0.1,7.1-3.7,13.8-9.8,17.4c-5.2,2.7-11,3.9-16.8,3.6
	C20.9,86.2,15.6,85.5,10.7,83.7z"/>
<path class="st0" d="M144.3,55.5c0,9.8,0,17.8,0.6,22.1c0.4,3,0.6,4.9,3.9,5.3c1.6,0.2,3.1,0.4,4.7,0.5c0.5-0.1,0.9,0.3,0.9,0.7
	c0,0,0,0.1,0,0.1c0,0.5-0.6,0.8-1.8,0.8c-5.8,0-12.5-0.4-13-0.4S132.2,85,129,85c-1.2,0-1.7,0-1.7-0.8c0-0.4,0.3-0.8,0.7-0.8
	c0,0,0.1,0,0.1,0c1.1,0,2.1-0.2,3.1-0.5c2.2-0.5,2.5-2.5,2.8-5.3c0.5-4.2,0.5-11.9,0.5-21.7V45.6c0-0.5,0-0.6-0.6-0.6H90.1
	c-0.4,0-0.6,0-0.6,0.6v10.2c0,9.8,0,17.6,0.5,21.8c0.4,3,0.7,4.9,3.9,5.3c1.6,0.2,3.2,0.4,4.8,0.5c0.4,0,0.8,0.3,0.8,0.7
	c0,0,0,0.1,0,0.1c0,0.5-0.5,0.8-1.7,0.8c-5.9,0-12.6-0.4-13-0.4c-0.5,0-7.3,0.4-10.6,0.4c-1.1,0-1.7,0-1.7-0.8
	c0-0.4,0.3-0.8,0.7-0.8c0,0,0.1,0,0.1,0c1.1,0,2.2-0.2,3.2-0.5c2.1-0.5,2.3-2.4,2.7-5.3c0.6-7.3,0.8-14.7,0.6-22.1V37.3
	c0-15.8,0-18.7,0-21.9s-0.8-5.3-4.3-5.6c-1.2-0.1-2.4-0.1-3.6,0c-0.4-0.1-0.8-0.4-0.8-0.8c0-0.6,0.5-0.8,1.7-0.8
	c4.8,0,11.5,0,12.1,0c0.6,0,7.2,0,10.6,0c1.2,0,1.7,0,1.7,0.8c-0.1,0.4-0.4,0.8-0.8,0.8c-0.9-0.1-1.8-0.1-2.6,0
	c-2.8,0.6-3.5,2.1-3.7,5.6c-0.2,3.6,0,6.3,0,22.2v2.2c0,0.6,0,0.6,0.6,0.6h43.9c0.4,0,0.6,0,0.6-0.6v-2.2c0-15.8,0-18.9,0-22.2
	s-0.7-5.3-4.2-5.6c-1.2-0.1-2.4-0.1-3.6,0c-0.5,0-0.8-0.4-0.8-0.8c0-0.6,0.5-0.8,1.7-0.8c4.7,0,11.5,0,12,0c0.5,0,7.3,0,10.6,0
	c1.2,0,1.8,0,1.8,0.8c-0.1,0.5-0.5,0.8-0.9,0.8c-0.9-0.1-1.8-0.1-2.6,0c-2.7,0.6-3.4,2.1-3.6,5.6c-0.2,3.6-1.1,6.1-1.1,21.9
	L144.3,55.5L144.3,55.5z"/>
<path class="st0" d="M197.4,10.1c1.3-3.4,1.8-4,2.5-4s1.4,1.4,2.5,3.7c1.9,4.3,18.8,46.4,25.3,61.8c3.9,9.1,6.7,10.6,9,11.1
	c1.4,0.4,2.8,0.6,4.2,0.6c0.6,0,1.3,0,1.3,0.8c0,0.8-1.2,0.8-2.4,0.8s-9.3,0-16.7,0c-2.1,0-3.7,0-3.7-0.7c0-0.7,0-0.5,0.7-0.7
	c1-0.4,1.5-1.5,1.1-2.5c0-0.1-0.1-0.2-0.1-0.3l-9.4-23.4c0-0.5-0.4-0.6-1-0.6h-24.3c-0.5,0-0.9,0.4-1.1,0.8l-6,16.3
	c-0.9,2.2-1.4,4.5-1.5,6.8c0,2.1,1.8,2.7,3.6,2.7h0.9c0.8,0,1.1,0.4,1.1,0.8c0,0.5-0.6,0.8-1.5,0.8c-2.5,0-8.3-0.4-9.4-0.4
	s-6.3,0.4-10.6,0.4c-1.3,0-2.1,0-2.1-0.8c0.1-0.5,0.5-0.8,0.9-0.8c1,0.1,2.1,0.1,3.1,0c4.8-0.6,6.8-4.2,8.9-9.3L197.4,10.1z
	 M209.2,52.3c0.5,0,0.5,0,0.4-0.7L199,23.7c-0.6-1.5-1.2-1.5-1.8,0l-9.8,27.9c0,0.5,0,0.7,0.4,0.7H209.2z"/>
<path class="st0" d="M248.3,83.7c-1.4-0.7-1.5-1.1-1.5-3.9c0-5.3,0.5-9.1,0.6-10.6c0.1-1.4,0-1.7,0.8-1.7c0.8,0,0.9,0.4,0.9,1.2
	c0,1.2,0.1,2.5,0.4,3.7c1.7,7.4,9.6,10.1,16.7,10.1c10.6,0,15.8-5.9,15.8-13.6s-4-10.6-13.3-17.7l-4.8-3.6
	c-11.4-8.5-15.1-14.7-15.1-21.8c0-12,9.4-19.2,23.4-19.2c3.7,0,7.3,0.4,10.9,1.2c1.2,0.3,2.4,0.5,3.7,0.5c0.8,0,1.1,0,1.1,0.7
	c0,0.7-0.5,3.9-0.5,10.6c0,1.6,0,2.3-0.8,2.3c-0.8,0-0.8-0.5-1-1.3c-0.2-1.8-0.8-3.6-1.5-5.3c-0.7-1.2-4.2-5.3-13.7-5.3
	c-7.6,0-14,3.9-14,11s3.2,10.2,13.7,17.3l3,2.1c12.8,8.8,17.3,15.8,17.3,24.5c0.1,7.1-3.7,13.8-9.8,17.4c-5.2,2.7-11,3.9-16.8,3.6
	C258.5,86.2,253.2,85.5,248.3,83.7z"/>
<path class="st0" d="M381.7,55.5c0,9.8,0,17.8,0.6,22.1c0.4,3,0.6,4.9,3.9,5.3c1.6,0.2,3.1,0.4,4.7,0.5c0.5-0.1,0.9,0.3,0.9,0.7
	c0,0,0,0.1,0,0.1c0,0.5-0.6,0.8-1.8,0.8c-5.8,0-12.5-0.4-13-0.4c-0.6,0-7.3,0.4-10.6,0.4c-1.2,0-1.7,0-1.7-0.8
	c0-0.4,0.3-0.8,0.7-0.8c0,0,0.1,0,0.1,0c1.1,0,2.1-0.2,3.1-0.5c2.2-0.5,2.5-2.5,2.9-5.3c0.5-4.2,0.5-11.9,0.5-21.7V45.6
	c0-0.5,0-0.6-0.6-0.6h-43.7c-0.4,0-0.6,0-0.6,0.6v10.2c0,9.8,0,17.6,0.5,21.8c0.4,3,0.7,4.9,3.9,5.3c1.6,0.2,3.2,0.4,4.8,0.5
	c0.4,0,0.8,0.3,0.8,0.7c0,0,0,0.1,0,0.1c0,0.5-0.5,0.8-1.7,0.8c-5.9,0-12.6-0.4-13-0.4c-0.5,0-7.3,0.4-10.6,0.4
	c-1.1,0-1.7,0-1.7-0.8c0-0.4,0.3-0.8,0.7-0.8c0,0,0.1,0,0.1,0c1.1,0,2.2-0.2,3.2-0.5c2.1-0.5,2.3-2.4,2.7-5.3
	c0.6-7.3,0.8-14.7,0.6-22.1V37.3c0-15.8,0-18.7,0-21.9s-0.8-5.3-4.3-5.6c-1.2-0.1-2.4-0.1-3.6,0c-0.4-0.1-0.8-0.4-0.8-0.8
	c0-0.6,0.5-0.8,1.7-0.8c4.8,0,11.5,0,12.1,0c0.6,0,7.2,0,10.6,0c1.2,0,1.7,0,1.7,0.8c-0.1,0.4-0.4,0.8-0.8,0.8
	c-0.9-0.1-1.8-0.1-2.6,0c-2.8,0.6-3.5,2.1-3.7,5.6c-0.2,3.6,0,6.3,0,22.2v2.2c0,0.6,0,0.6,0.6,0.6h43.9c0.4,0,0.6,0,0.6-0.6v-2.2
	c0-15.8,0-18.9,0-22.2s-0.7-5.3-4.2-5.6c-1.2-0.1-2.4-0.1-3.6,0c-0.5,0-0.8-0.4-0.8-0.8c0-0.6,0.5-0.8,1.7-0.8c4.7,0,11.5,0,12,0
	c0.5,0,7.3,0,10.6,0c1.2,0,1.8,0,1.8,0.8c-0.1,0.5-0.5,0.8-0.9,0.8c-0.9-0.1-1.8-0.1-2.6,0c-2.7,0.6-3.4,2.1-3.6,5.6
	c-0.2,3.6-1.3,6.1-1.3,21.9L381.7,55.5L381.7,55.5z"/>
<path class="st0" d="M435,10.1c1.3-3.4,1.8-4,2.5-4c0.7,0,1.4,1.4,2.5,3.7c1.9,4.3,18.8,46.4,25.3,61.8c3.9,9.1,6.7,10.6,9,11.1
	c1.4,0.4,2.8,0.6,4.2,0.6c0.6,0,1.3,0,1.3,0.8c0,0.8-1.2,0.8-2.4,0.8c-1.2,0-9.3,0-16.7,0c-2.1,0-3.7,0-3.7-0.7c0-0.7,0-0.5,0.7-0.7
	c1-0.4,1.5-1.5,1.1-2.5c0-0.1-0.1-0.2-0.1-0.3l-9.4-23.4c0-0.5-0.4-0.6-0.9-0.6h-24.5c-0.5,0-0.9,0.4-1.1,0.8l-6,16.3
	c-0.9,2.2-1.4,4.5-1.5,6.8c0,2.1,1.8,2.7,3.6,2.7h1c0.8,0,1.1,0.4,1.1,0.8c0,0.5-0.6,0.8-1.5,0.8c-2.5,0-8.3-0.4-9.4-0.4
	c-1.2,0-6.3,0.4-10.6,0.4c-1.3,0-2.1,0-2.1-0.8c0.1-0.5,0.5-0.8,0.9-0.8c1,0.1,2.1,0.1,3.1,0c4.8-0.6,6.8-4.2,8.9-9.3L435,10.1z
	 M446.8,52.3c0.5,0,0.5,0,0.4-0.7l-10.6-27.9c-0.6-1.5-1.2-1.5-1.8,0L425,51.6c0,0.5,0,0.7,0.4,0.7H446.8z"/>
<path class="st0" d="M106.8,130.2c0-7.4,0-8.7,0-10.2s-0.5-2.4-2.1-2.7c-0.5,0-1.1,0-1.6,0c0,0-0.4,0-0.4-0.3s0-0.4,0.7-0.4
	c2.1,0,5.3,0,5.3,0s3.5,0,6.4,0c4.7,0,13.3-0.4,18.9,5.3c3,3.2,4.7,7.5,4.6,12c0,4.9-1.9,9.7-5.3,13.3c-3.8,3.7-9,5.6-14.3,5.3
	c-2,0-4.5,0-6.5-0.3l-3.9-0.3h-1.9h-2.7c-0.5,0-0.7,0-0.7-0.4s0-0.3,0.4-0.3c0.5,0,1,0,1.4,0c0.9,0,1.2-1.2,1.4-2.6
	c0.2-1.4,0-5.7,0-10.2L106.8,130.2z M110.8,135.5c0,5,0,9.3,0,10.2c0,1.2,0.1,2.4,0.5,3.6c0.6,0.9,2.5,1.9,8,1.9
	c4.2,0.1,8.2-1.5,11.2-4.4c2.6-3.2,4-7.2,3.8-11.3c0.1-4.4-1.5-8.7-4.5-11.9c-4.1-3.9-9.7-5.9-15.4-5.3c-1,0-2.1,0.1-3.1,0.3
	c-0.4,0.1-0.7,0.5-0.6,1c0,1.6,0,6.4,0,10L110.8,135.5L110.8,135.5z"/>
<path class="st0" d="M165.4,130.2c0-7.4,0-8.7,0-10.2s-0.5-2.4-2.1-2.7c-0.5,0-1.1,0-1.6,0c0,0-0.4,0-0.4-0.3s0-0.4,0.7-0.4h3.3h2
	h10.6c0.7,0.1,1.4,0.1,2.1,0c0,0,0.4,0,0.7,0s0,0,0,0.4s0,0.9-0.4,2.2c0,0.5,0,2.5,0,3.1s0,0.5-0.3,0.5c-0.3,0-0.4,0-0.4-0.6
	c0-0.6-0.1-1.1-0.3-1.7c-0.3-0.7-0.8-1.3-3.3-1.6c-0.8,0-6,0-6.5,0c-0.5,0-0.3,0-0.3,0.5v13c0,0.3,0,0.5,0.3,0.5s6.4,0,7.5,0
	s1.8,0,2.2-0.7c0.4-0.7,0.5-0.6,0.7-0.6s0,0,0,0.4c0,0.4,0,1.1-0.4,2.6c-0.4,1.5,0,2.7,0,3s0,0.9-0.3,0.9c-0.3,0-0.3,0-0.3-0.4
	c0.1-0.5,0.1-1,0-1.5c0-0.7-0.6-1.5-2.5-1.6s-6,0-6.8,0c-0.2,0-0.3,0.1-0.3,0.3v4.2c0,1.6,0,7.1,0,8.1c0,3.3,0.8,3.9,5.3,3.9
	c1.5,0.1,3.1-0.1,4.5-0.5c1.2-0.5,1.8-1.5,2.1-3.4c0-0.5,0-0.7,0.4-0.7s0.3,0.4,0.3,0.7s-0.4,3.6-0.6,4.6c-0.3,1-0.7,1.2-2.5,1.2
	c-3.5,0-6.1,0-8,0h-3.7h-1.7h-2.7c-0.5,0-0.7,0-0.7-0.4c0-0.4,0-0.3,0.4-0.3c0.5,0,1,0,1.4,0c0.9,0,1.2-1.2,1.4-2.6
	c0.2-1.4,0-5.7,0-10.2L165.4,130.2z"/>
<path class="st0" d="M211.1,145.8c0,3.9,0.6,5.3,1.8,5.3c0.8,0.2,1.6,0.3,2.4,0.3c0,0,0.4,0,0.4,0.3s-0.3,0.4-0.8,0.4
	c-2.7,0-4.6,0-5,0s-2.4,0-4.5,0c-0.5,0-0.7,0-0.7-0.4s0-0.3,0.4-0.3c0.7,0,1.3-0.1,2-0.3c1.2-0.3,1.4-1.7,1.4-6v-26.8
	c0-1.8,0-2.4,0.5-2.4c0.5,0,1.2,1.1,1.6,1.5l15,16.2c4.7,5,9.8,10.6,11.3,12.3l-0.5-24.2c0-3.1-0.4-4.1-1.8-4.5
	c-0.8-0.1-1.5-0.1-2.3,0c-0.3,0-0.4,0-0.4-0.3s0.4-0.3,1-0.3c2.1,0,4.4,0,4.9,0c0.5,0,2.1,0,4,0c0.5,0,0.8,0,0.8,0.3s0,0.3-0.5,0.3
	c-0.4-0.1-0.8-0.1-1.2,0c-1.5,0.3-1.7,1.4-1.7,4.2v27.6c0,3.1,0,3.3-0.4,3.3s-0.9-0.5-3.4-3c-0.5-0.5-7.3-7.4-12.3-12.8
	c-5-5.4-10.6-11.9-12.3-13.6L211.1,145.8z"/>
<path class="st0" d="M274.1,138.5c0,4.5,0,8.3,0,10.2s0.4,2.4,1.8,2.6h2.1c0.3,0,0.4,0,0.4,0.3s0,0.4-0.7,0.4c-2.6,0-5.6,0-5.8,0
	h-4.6c-0.5,0-0.7,0-0.7-0.4s0-0.3,0.4-0.3c0.5,0,1,0,1.4,0c1,0,1.2-1.2,1.4-2.6c0.2-1.4,0-5.7,0-10.2v-8.3c0-7.4,0-8.7,0-10.2
	s-0.6-2.4-1.6-2.6c-0.5-0.1-1-0.1-1.5,0c0,0-0.4,0-0.4-0.3s0-0.4,0.7-0.4h4.7h4.6c0.5,0,0.7,0,0.7,0.4s0,0.3-0.4,0.3h-1.2
	c-1.3,0-1.6,1.1-1.7,2.7s0,2.8,0,10.2L274.1,138.5z"/>
<path class="st0" d="M341.7,146.1c0,1.7,0.5,4.3,2.5,5c1,0.3,2,0.4,3.1,0.4h0.4c0,0-0.4,0.4-1,0.4s-6.1,0-7.9-0.3
	c-1.7-0.3-1.3,0-1.3-0.5s0-0.3,0.3-0.3s0.3-0.8,0-1.7l-2.3-24.4l0,0L324,149.4c-1,2.1-1.1,2.5-1.5,2.5c-0.4,0-0.6-0.5-1.5-2.2
	s-5.3-10.6-5.3-11s-5.9-11.7-6.4-13.2l0,0l-1.9,21.9c0,0.7,0,1.6,0,2.4c0,0.7,0.5,1.3,1.2,1.5c0.6,0.1,1.2,0.1,1.8,0h0.4
	c0,0-0.3,0.4-0.8,0.4c-1.7,0-4,0-4.4,0h-4c-0.5,0-0.8,0-0.8-0.4s0,0,0.5,0c0.5,0.1,1,0.1,1.4,0c1.5-0.3,1.7-2.1,1.9-3.9l3.2-30.7
	c0-0.5,0-0.8,0.5-0.8s0.5,0,0.7,0.7l14.6,29.7l13.7-29.8c0-0.4,0.4-0.7,0.7-0.7s0.5,0.4,0.6,1.3L341.7,146.1z"/>
<path class="st0" d="M368.9,151.6c-0.7-0.3-0.7-0.5-0.7-1.8c0-2.4,0-4.3,0-5c0-0.7,0-0.7,0.4-0.7c0.4,0,0.3,0,0.3,0.5
	c-0.1,0.6-0.1,1.2,0,1.7c0.8,3.1,3.8,5.2,7,4.8c3.5,0.3,6.5-2.3,6.7-5.8c0-0.2,0-0.3,0-0.5c0-3.3-1.4-5.3-5.3-8.5l-2.1-1.7
	c-5-4.1-6.1-7-6.1-10.2c0-4.8,4-8.6,8.7-8.6c0.3,0,0.7,0,1,0.1c1.5,0,2.9,0.1,4.4,0.5c0.5,0.1,1.1,0.1,1.6,0c0.4,0,0.5,0,0.5,0.3
	c0,0.3,0,1.8,0,5c0,0.7,0,1.1-0.3,1.1s-0.3,0-0.4-0.6c-0.1-0.8-0.3-1.6-0.6-2.4c-0.3-0.5-1.5-2.5-5.9-2.5c-2.9-0.3-5.5,1.8-5.8,4.7
	c0,0.2,0,0.4,0,0.6c0,2.7,1.2,4.4,5.8,7.9l1.3,1.1c5.6,4.4,6.9,7.3,6.9,11.1c0,3.1-1.5,6-4,7.9c-2.1,1.4-4.6,2.1-7.1,2
	C373,152.6,370.9,152.3,368.9,151.6z"/>
</svg>
