<?xml version="1.0" encoding="utf-8"?>
<!-- Generator: Adobe Illustrator 25.4.1, SVG Export Plug-In . SVG Version: 6.00 Build 0)  -->
<svg version="1.1" id="Layer_1" xmlns="http://www.w3.org/2000/svg" xmlns:xlink="http://www.w3.org/1999/xlink" x="0px" y="0px"
	 viewBox="0 0 448 512" style="enable-background:new 0 0 448 512;" xml:space="preserve">
<style type="text/css">
	.st0{fill:#FFFFFF;}
</style>
<path class="st0" d="M352,128c0,70.7-57.3,128-128,128S96,198.7,96,128C96,57.3,153.3,0,224,0S352,57.3,352,128z M209.1,359.2
	L176,304h96l-33.1,55.2l33.3,123.9l39.5-161.2c77.2,12,136.3,78.8,136.3,159.4c0,16.9-13.8,30.7-30.7,30.7H30.7
	C13.8,512,0,498.2,0,481.3c0-80.6,59.1-147.4,136.3-159.4l39.5,161.2L209.1,359.2z"/>
</svg>
