<svg xmlns="http://www.w3.org/2000/svg" viewBox="0 0 204.69 142.5">
  <path id="Icon_ionic-ios-cloud-outline" data-name="Icon ionic-ios-cloud-outline" d="M79.06,14.844a32.521,32.521,0,0,1,22.455,9.105,35.792,35.792,0,0,1,10.843,22.345l.329,3.209a3.7,3.7,0,0,0,2.937,3.324l3.02.578a17.011,17.011,0,0,1,10.075,6.388,19.926,19.926,0,0,1,4.173,12.17A20.535,20.535,0,0,1,127.7,85.491,16.467,16.467,0,0,1,115.6,91.156H24.953A16.194,16.194,0,0,1,12.9,85.462,20.479,20.479,0,0,1,7.714,71.934a21.367,21.367,0,0,1,3.6-11.823,17.876,17.876,0,0,1,9.251-7.255l2.828-.954a3.767,3.767,0,0,0,2.5-3.527l.055-3.122a14.471,14.471,0,0,1,3.706-9.366,11.074,11.074,0,0,1,8.208-3.873,11.4,11.4,0,0,1,4.475.925l3.047,1.3a3.48,3.48,0,0,0,4.31-1.359l1.867-2.833a32.954,32.954,0,0,1,27.506-15.2m0-8.094c-14.055,0-26.436,7.4-33.875,18.7A18.611,18.611,0,0,0,37.8,23.92c-10.734,0-19.436,9.944-19.6,21.217C7.247,48.809,0,60.082,0,71.934,0,86.445,11.173,99.25,24.953,99.25h90.672c13.781,0,24.953-12.805,24.953-27.316,0-12.921-8.867-24.31-20.561-26.507C117.767,23.689,100.308,6.75,79.06,6.75Z" transform="translate(0 -6.75)" fill="#f3f9f4"/>
  <path id="Icon_ionic-ios-cloud-outline-2" data-name="Icon ionic-ios-cloud-outline" d="M51,11.971A20.98,20.98,0,0,1,65.49,17.846a23.09,23.09,0,0,1,7,14.415l.213,2.07a2.388,2.388,0,0,0,1.895,2.145l1.948.373a10.974,10.974,0,0,1,6.5,4.121,12.855,12.855,0,0,1,2.692,7.851,13.248,13.248,0,0,1-3.347,8.727,10.623,10.623,0,0,1-7.81,3.655H16.1a10.447,10.447,0,0,1-7.774-3.674A13.211,13.211,0,0,1,4.976,48.8,13.784,13.784,0,0,1,7.3,41.174a11.532,11.532,0,0,1,5.968-4.681l1.824-.615A2.43,2.43,0,0,0,16.7,33.6l.035-2.014a9.336,9.336,0,0,1,2.391-6.042,7.144,7.144,0,0,1,5.3-2.5,7.354,7.354,0,0,1,2.887.6l1.966.839a2.245,2.245,0,0,0,2.78-.876l1.2-1.827A21.259,21.259,0,0,1,51,11.971M51,6.75A26.176,26.176,0,0,0,29.15,18.815a12.006,12.006,0,0,0-4.764-.988c-6.924,0-12.538,6.415-12.645,13.688C4.675,33.883,0,41.156,0,48.8c0,9.361,7.208,17.622,16.1,17.622H74.592c8.89,0,16.1-8.261,16.1-17.622,0-8.336-5.72-15.683-13.264-17.1C75.974,17.678,64.71,6.75,51,6.75Z" transform="translate(114 76.076)" fill="#f3f9f4"/>
</svg>
