<svg xmlns="http://www.w3.org/2000/svg" xmlns:xlink="http://www.w3.org/1999/xlink" viewBox="0 0 306.85 113.31"><defs><style>.cls-1{fill:#003f3d;}.cls-2{fill:url(#linear-gradient);}.cls-3{fill:#fff;}.cls-4{fill:none;}</style><linearGradient id="linear-gradient" y1="44.89" x2="306.85" y2="44.89" gradientUnits="userSpaceOnUse"><stop offset="0" stop-color="#0e8944"/><stop offset="1" stop-color="#099"/></linearGradient></defs><g id="Layer_2" data-name="Layer 2"><g id="Layer_1-2" data-name="Layer 1"><path class="cls-1" d="M272.19,65.8h24.08a10.58,10.58,0,0,1,10.58,10.58V89.79a10.58,10.58,0,0,1-10.58,10.58H272.19a0,0,0,0,1,0,0V65.8A0,0,0,0,1,272.19,65.8Z"/><path class="cls-2" d="M306.85,12.73V89.79a14.46,14.46,0,0,0-14.46-14.46H12.73A12.72,12.72,0,0,1,0,62.6V12.73A12.73,12.73,0,0,1,12.73,0H294.12A12.73,12.73,0,0,1,306.85,12.73Z"/><path class="cls-3" d="M30.62,50.35V23.14h19.8v5H36.53V34H49.2V38.7H36.53v6.64H50.42v5Z"/><path class="cls-3" d="M52.86,50.35l6.89-9.9-6.48-9.24h6.27l3.71,5.9L67,31.21h6.27l-6.52,9.24,6.93,9.9H67.4l-4.15-6.23-4.11,6.23Z"/><path class="cls-3" d="M76.61,57.76V31.21h5.33v2.44a6.41,6.41,0,0,1,2.45-2.08,8.16,8.16,0,0,1,3.66-.77A9.1,9.1,0,0,1,92.72,32,8.78,8.78,0,0,1,96,35.44a11.08,11.08,0,0,1,1.22,5.34A11,11,0,0,1,96,46.11a8.74,8.74,0,0,1-3.28,3.45,9.1,9.1,0,0,1-4.67,1.2,8.28,8.28,0,0,1-3.42-.67,6.49,6.49,0,0,1-2.36-1.78v9.45ZM86.75,45.87a4.88,4.88,0,0,0,2.46-.61,4.34,4.34,0,0,0,1.7-1.75,5.79,5.79,0,0,0,.61-2.73,5.91,5.91,0,0,0-.59-2.73,4.2,4.2,0,0,0-1.69-1.75,5.29,5.29,0,0,0-4.93,0A4.19,4.19,0,0,0,82.6,38,5.65,5.65,0,0,0,82,40.78a5.73,5.73,0,0,0,.61,2.71,4.25,4.25,0,0,0,1.69,1.77A4.88,4.88,0,0,0,86.75,45.87Z"/><path class="cls-3" d="M101.13,50.35V23.14h5.66V50.35Z"/><path class="cls-3" d="M121.21,50.76a11.69,11.69,0,0,1-5.44-1.24A9.21,9.21,0,0,1,112,46a10.07,10.07,0,0,1-1.34-5.23A10.11,10.11,0,0,1,112,35.52,9.35,9.35,0,0,1,115.75,32a11.43,11.43,0,0,1,5.42-1.24,11.65,11.65,0,0,1,5.5,1.24,9.26,9.26,0,0,1,3.7,3.48,10,10,0,0,1,1.35,5.26A10,10,0,0,1,130.37,46a9.2,9.2,0,0,1-3.7,3.51A11.69,11.69,0,0,1,121.21,50.76Zm0-4.89a5,5,0,0,0,2.5-.61,4.25,4.25,0,0,0,1.69-1.77,6.37,6.37,0,0,0,0-5.44,4.27,4.27,0,0,0-1.67-1.75,4.9,4.9,0,0,0-2.52-.61,5,5,0,0,0-2.51.61A4.32,4.32,0,0,0,117,38.05a5.79,5.79,0,0,0-.61,2.73,5.85,5.85,0,0,0,.61,2.71,4.39,4.39,0,0,0,1.67,1.77A5,5,0,0,0,121.21,45.87Z"/><path class="cls-3" d="M135.67,50.35V31.21H141V34.1a5.16,5.16,0,0,1,2.12-2.42,6,6,0,0,1,2.93-.72A6.46,6.46,0,0,1,147,31a2.2,2.2,0,0,1,.65.19v5.37a11.19,11.19,0,0,0-1.16-.18,11.76,11.76,0,0,0-1.2-.06,3.71,3.71,0,0,0-2.83,1.2,5,5,0,0,0-1.12,3.56v9.25Z"/><path class="cls-3" d="M160,50.76a12.93,12.93,0,0,1-5.41-1.12,9.14,9.14,0,0,1-3.91-3.34,9.79,9.79,0,0,1-1.47-5.52,10.18,10.18,0,0,1,1.34-5.3A9.36,9.36,0,0,1,154.2,32a10.74,10.74,0,0,1,5.13-1.22,11.4,11.4,0,0,1,5.07,1.06,8.24,8.24,0,0,1,3.4,3A7.79,7.79,0,0,1,169,39.15a7.78,7.78,0,0,1-.74,3.1H154.93a4.57,4.57,0,0,0,.92,2.19,4.17,4.17,0,0,0,1.93,1.33,8.68,8.68,0,0,0,2.81.43,9.64,9.64,0,0,0,3.18-.51,13.33,13.33,0,0,0,2.77-1.33l1.67,3.91a13.5,13.5,0,0,1-3.79,1.86A14.81,14.81,0,0,1,160,50.76Zm-5.09-12.18h8.31a.53.53,0,0,0,.06-.14.83.83,0,0,0,0-.27,3,3,0,0,0-.42-1.59,2.89,2.89,0,0,0-1.27-1.08,6,6,0,0,0-4.25,0,3.94,3.94,0,0,0-1.57,1.23A4.86,4.86,0,0,0,154.93,38.58Z"/><path class="cls-3" d="M182.63,50.35V23.14H192l6.43,19.55,6.4-19.55h9.45V50.35h-6V28.72L201,50.35h-5.09l-7.34-21.63V50.35Z"/><path class="cls-3" d="M229,50.76a11.69,11.69,0,0,1-5.44-1.24A9.13,9.13,0,0,1,219.82,46a10,10,0,0,1-1.35-5.23,10,10,0,0,1,1.35-5.26,9.26,9.26,0,0,1,3.7-3.48,11.46,11.46,0,0,1,5.42-1.24,11.65,11.65,0,0,1,5.5,1.24,9.26,9.26,0,0,1,3.7,3.48,10,10,0,0,1,1.35,5.26A10,10,0,0,1,238.14,46a9.2,9.2,0,0,1-3.7,3.51A11.69,11.69,0,0,1,229,50.76Zm0-4.89a5,5,0,0,0,2.51-.61,4.37,4.37,0,0,0,1.69-1.77,5.85,5.85,0,0,0,.61-2.71,5.79,5.79,0,0,0-.61-2.73,4.4,4.4,0,0,0-1.67-1.75,5.49,5.49,0,0,0-5,0,4.34,4.34,0,0,0-1.7,1.75,5.79,5.79,0,0,0-.61,2.73,5.85,5.85,0,0,0,.61,2.71,4.39,4.39,0,0,0,1.67,1.77A5,5,0,0,0,229,45.87Z"/><path class="cls-3" d="M243.44,50.35V31.21h5.33V34.1a5.16,5.16,0,0,1,2.12-2.42,6,6,0,0,1,2.94-.72,6.41,6.41,0,0,1,.93.06,2.2,2.2,0,0,1,.65.19v5.37a10.79,10.79,0,0,0-1.16-.18,11.76,11.76,0,0,0-1.2-.06,3.71,3.71,0,0,0-2.83,1.2,5,5,0,0,0-1.12,3.56v9.25Z"/><path class="cls-3" d="M267.8,50.76a12.94,12.94,0,0,1-5.42-1.12,9.2,9.2,0,0,1-3.91-3.34A9.79,9.79,0,0,1,257,40.78a10.09,10.09,0,0,1,1.35-5.3A9.26,9.26,0,0,1,262,32a10.74,10.74,0,0,1,5.13-1.22,11.4,11.4,0,0,1,5.07,1.06,8.27,8.27,0,0,1,3.41,3,7.86,7.86,0,0,1,1.22,4.34,7.78,7.78,0,0,1-.74,3.1H262.7a4.67,4.67,0,0,0,.92,2.19,4.2,4.2,0,0,0,1.94,1.33,8.6,8.6,0,0,0,2.81.43,9.54,9.54,0,0,0,3.17-.51,13.33,13.33,0,0,0,2.77-1.33L276,48.27a13.44,13.44,0,0,1-3.78,1.86A14.86,14.86,0,0,1,267.8,50.76Zm-5.1-12.18H271a.53.53,0,0,0,.06-.14.83.83,0,0,0,0-.27,3,3,0,0,0-.42-1.59,2.92,2.92,0,0,0-1.26-1.08,6,6,0,0,0-4.26,0,3.94,3.94,0,0,0-1.57,1.23A4.86,4.86,0,0,0,262.7,38.58Z"/><polyline class="cls-4" points="306.85 113.31 306.85 95.44 306.85 89.78"/></g></g></svg>