<svg xmlns="http://www.w3.org/2000/svg" xmlns:xlink="http://www.w3.org/1999/xlink" viewBox="0 0 364.44 75.32"><defs><style>.cls-1{fill:#003f3d;}.cls-2{fill:url(#linear-gradient);}.cls-3{fill:#fff;}</style><linearGradient id="linear-gradient" x1="14.39" y1="37.66" x2="350.04" y2="37.66" gradientUnits="userSpaceOnUse"><stop offset="0" stop-color="#0e8944"/><stop offset="1" stop-color="#099"/></linearGradient></defs><g id="Layer_2" data-name="Layer 2"><g id="Layer_1-2" data-name="Layer 1"><path class="cls-1" d="M364.44,37.79V60.93A14.4,14.4,0,0,1,350,75.32H72A14.39,14.39,0,0,1,57.59,60.93V37.79Z"/><path class="cls-1" d="M306.85,37.79V60.93a14.4,14.4,0,0,1-14.4,14.39H14.39A14.39,14.39,0,0,1,0,60.93V37.79Z"/><path class="cls-2" d="M350,75.32H14.39a14.4,14.4,0,0,0,14.4-14.39V14.39A14.4,14.4,0,0,1,43.19,0H321.25a14.4,14.4,0,0,1,14.4,14.39V60.93A14.39,14.39,0,0,0,350,75.32Z"/><path class="cls-3" d="M59.13,49.56V22.35H78.92v5H65v5.82H77.7v4.73H65v6.64H78.92v5Z"/><path class="cls-3" d="M81.37,49.56l6.88-9.9-6.48-9.25h6.28l3.7,5.91,3.75-5.91h6.27l-6.51,9.25,6.92,9.9H95.91l-4.16-6.23-4.11,6.23Z"/><path class="cls-3" d="M105.11,57V30.41h5.34v2.45a6.31,6.31,0,0,1,2.44-2.08,8.21,8.21,0,0,1,3.67-.77,9.09,9.09,0,0,1,4.66,1.2,8.71,8.71,0,0,1,3.28,3.44A11,11,0,0,1,125.72,40a11,11,0,0,1-1.22,5.33,8.64,8.64,0,0,1-3.28,3.44,9.09,9.09,0,0,1-4.66,1.2,8.06,8.06,0,0,1-3.42-.67,6.53,6.53,0,0,1-2.37-1.77V57Zm10.14-11.89a5,5,0,0,0,2.47-.61,4.28,4.28,0,0,0,1.69-1.76A5.66,5.66,0,0,0,120,40a5.91,5.91,0,0,0-.59-2.73,4.08,4.08,0,0,0-1.69-1.75,4.93,4.93,0,0,0-2.45-.62,5,5,0,0,0-2.48.62,4.25,4.25,0,0,0-1.71,1.73,6.39,6.39,0,0,0,0,5.45,4.28,4.28,0,0,0,1.69,1.78A5,5,0,0,0,115.25,45.08Z"/><path class="cls-3" d="M129.63,49.56V22.35h5.66V49.56Z"/><path class="cls-3" d="M149.71,50a11.6,11.6,0,0,1-5.44-1.24,9.16,9.16,0,0,1-3.72-3.5A10,10,0,0,1,139.2,40a10,10,0,0,1,1.35-5.26,9.26,9.26,0,0,1,3.7-3.48A11.46,11.46,0,0,1,149.67,30a11.65,11.65,0,0,1,5.5,1.24,9.35,9.35,0,0,1,3.71,3.48A10.11,10.11,0,0,1,160.22,40a10.1,10.1,0,0,1-1.34,5.23,9.26,9.26,0,0,1-3.71,3.5A11.57,11.57,0,0,1,149.71,50Zm0-4.88a5.1,5.1,0,0,0,2.51-.61,4.28,4.28,0,0,0,1.69-1.78,6.35,6.35,0,0,0,0-5.43,4.34,4.34,0,0,0-1.67-1.75,5.41,5.41,0,0,0-5,0,4.2,4.2,0,0,0-1.69,1.75,6.35,6.35,0,0,0,0,5.43,4.23,4.23,0,0,0,1.67,1.78A5,5,0,0,0,149.71,45.08Z"/><path class="cls-3" d="M164.17,49.56V30.41h5.34v2.9a5.22,5.22,0,0,1,2.11-2.43,6.09,6.09,0,0,1,2.94-.71,6.41,6.41,0,0,1,.93.06,2.3,2.3,0,0,1,.66.18v5.38a11,11,0,0,0-1.17-.18,11.76,11.76,0,0,0-1.2-.06,3.71,3.71,0,0,0-2.83,1.2,5.08,5.08,0,0,0-1.12,3.56v9.25Z"/><path class="cls-3" d="M188.53,50a12.82,12.82,0,0,1-5.42-1.12,9.07,9.07,0,0,1-3.91-3.34A9.73,9.73,0,0,1,177.73,40a10.06,10.06,0,0,1,1.35-5.3,9.19,9.19,0,0,1,3.62-3.46A10.64,10.64,0,0,1,187.84,30a11.46,11.46,0,0,1,5.07,1.06,8.23,8.23,0,0,1,3.4,3,7.86,7.86,0,0,1,1.22,4.34,7.27,7.27,0,0,1-.2,1.59,7.49,7.49,0,0,1-.53,1.5H183.44a4.6,4.6,0,0,0,.91,2.2A4.2,4.2,0,0,0,186.29,45a8.61,8.61,0,0,0,2.81.42,9.54,9.54,0,0,0,3.17-.51A13.56,13.56,0,0,0,195,43.57l1.67,3.91a13.69,13.69,0,0,1-3.78,1.85A14.86,14.86,0,0,1,188.53,50Zm-5.09-12.17h8.31a1.16,1.16,0,0,1,.06-.15,1.18,1.18,0,0,0,0-.26,3,3,0,0,0-.43-1.59,2.92,2.92,0,0,0-1.26-1.08,5.08,5.08,0,0,0-2.14-.39,5.27,5.27,0,0,0-2.12.41A4,4,0,0,0,184.31,36,4.81,4.81,0,0,0,183.44,37.79Z"/><path class="cls-3" d="M211.13,49.56V22.35h9.37l6.44,19.55,6.39-19.55h9.45V49.56h-6V27.93l-7.29,21.63h-5.09L217,27.93V49.56Z"/><path class="cls-3" d="M257.48,50a11.53,11.53,0,0,1-5.43-1.24,9.19,9.19,0,0,1-3.73-3.5A10,10,0,0,1,247,40a10,10,0,0,1,1.34-5.26A9.29,9.29,0,0,1,252,31.25,11.42,11.42,0,0,1,257.44,30a11.62,11.62,0,0,1,5.5,1.24,9.29,9.29,0,0,1,3.71,3.48A10.11,10.11,0,0,1,268,40a10.1,10.1,0,0,1-1.34,5.23,9.2,9.2,0,0,1-3.71,3.5A11.51,11.51,0,0,1,257.48,50Zm0-4.88a5.1,5.1,0,0,0,2.51-.61,4.28,4.28,0,0,0,1.69-1.78,6.35,6.35,0,0,0,0-5.43A4.34,4.34,0,0,0,260,35.51a5.41,5.41,0,0,0-5,0,4.26,4.26,0,0,0-1.69,1.75,6.35,6.35,0,0,0,0,5.43A4.29,4.29,0,0,0,255,44.47,5,5,0,0,0,257.48,45.08Z"/><path class="cls-3" d="M271.94,49.56V30.41h5.34v2.9a5.19,5.19,0,0,1,2.12-2.43,6,6,0,0,1,2.93-.71,6.65,6.65,0,0,1,.94.06,2.32,2.32,0,0,1,.65.18v5.38a11.19,11.19,0,0,0-1.16-.18q-.6-.06-1.2-.06a3.72,3.72,0,0,0-2.84,1.2,5.08,5.08,0,0,0-1.12,3.56v9.25Z"/><path class="cls-3" d="M296.3,50a12.82,12.82,0,0,1-5.42-1.12A9.07,9.07,0,0,1,287,45.5,9.73,9.73,0,0,1,285.51,40a10.06,10.06,0,0,1,1.34-5.3,9.22,9.22,0,0,1,3.63-3.46A10.62,10.62,0,0,1,295.61,30a11.43,11.43,0,0,1,5.07,1.06,8.23,8.23,0,0,1,3.4,3,7.86,7.86,0,0,1,1.22,4.34,7.27,7.27,0,0,1-.2,1.59,7.49,7.49,0,0,1-.53,1.5H291.21a4.6,4.6,0,0,0,.91,2.2A4.2,4.2,0,0,0,294.06,45a8.61,8.61,0,0,0,2.81.42,9.64,9.64,0,0,0,3.18-.51,14.08,14.08,0,0,0,2.77-1.32l1.67,3.91a13.75,13.75,0,0,1-3.79,1.85A14.86,14.86,0,0,1,296.3,50Zm-5.09-12.17h8.31l.06-.15a1.18,1.18,0,0,0,0-.26,2.91,2.91,0,0,0-.43-1.59,2.86,2.86,0,0,0-1.26-1.08,5.08,5.08,0,0,0-2.14-.39,5.31,5.31,0,0,0-2.12.41A4,4,0,0,0,292.08,36,4.81,4.81,0,0,0,291.21,37.79Z"/></g></g></svg>