<?xml version="1.0" encoding="utf-8"?>
<!-- Generator: Adobe Illustrator 25.4.1, SVG Export Plug-In . SVG Version: 6.00 Build 0)  -->
<svg version="1.1" id="Layer_1" xmlns="http://www.w3.org/2000/svg" xmlns:xlink="http://www.w3.org/1999/xlink" x="0px" y="0px"
	 viewBox="0 0 2048 1358" style="enable-background:new 0 0 2048 1358;" xml:space="preserve">
<style type="text/css">
	.st0{fill:#F3F9F4;}
</style>
<g>
	<path class="st0" d="M2048,304.2v370.1c-148.2,192.5-472.1,399.3-875.9,538.9C664.1,1388.9,190.4,1403,0,1265.1V733.2
		c46.9-132.7,119.7-330.1,215-475.1l-105.5-47.6L401.9,0l35.9,358.6l-99.3-44.8C317.1,360,219.7,573.7,173.4,723.4
		c-45.5,147.6-72.4,307.4-14.9,388.7c0.3,0.3,0.4,0.8,0.8,0.9v0.3c11.2,16.5,25.4,31.3,42.9,44.5c152.2,115.2,537,105.8,949.4-36.8
		c490.8-170,834.6-463.8,767.8-656.7c-66.7-192.9-518.6-211.9-1009.4-42.2C560.8,543,286,726.6,180.6,892
		c11.1-67.1,32.1-142.8,57.8-217.4c166.1-119.1,386.1-232,637.3-318.6C1383.8,180.2,1857.8,166.1,2048,304.2z"/>
</g>
</svg>
