<?xml version="1.0" encoding="utf-8"?>
<!-- Generator: Adobe Illustrator 25.4.1, SVG Export Plug-In . SVG Version: 6.00 Build 0)  -->
<svg version="1.1" id="Layer_1" xmlns="http://www.w3.org/2000/svg" xmlns:xlink="http://www.w3.org/1999/xlink" x="0px" y="0px"
	 viewBox="0 0 640 512" style="enable-background:new 0 0 640 512;" xml:space="preserve">
<style type="text/css">
	.st0{fill:#FFFFFF;}
	.st1{opacity:0.4;fill:#FFFFFF;enable-background:new    ;}
</style>
<path class="st0" d="M640,191.1v191.1c0,35.2-28.8,63.1-64,63.1h-32v54.2c0,8-9.1,12.6-15.5,7.9l-82.8-62.1l-126.6,1.8
	c-34.4,0-63.1-27.9-63.1-64v-32l96,0c52.9,0,96-43.1,96-96V128h128C611.3,128,640,156.7,640,191.1z"/>
<path class="st1" d="M352,0H64C28.8,0,0,28.8,0,63.1V256c0,35.2,28.8,64,64,64l32,0v54.2c0,8,9.1,12.6,15.5,7.9l82.8-62.1l157.8-0.1
	c35.2,0.1,64-28.7,64-63.9V63.1C416,28.8,387.3,0,352,0z"/>
</svg>
