<?xml version="1.0" encoding="utf-8"?>
<!-- Generator: Adobe Illustrator 25.4.1, SVG Export Plug-In . SVG Version: 6.00 Build 0)  -->
<svg version="1.1" id="Layer_1" xmlns="http://www.w3.org/2000/svg" xmlns:xlink="http://www.w3.org/1999/xlink" x="0px" y="0px"
	 viewBox="0 0 512 512" style="enable-background:new 0 0 512 512;" xml:space="preserve">
<style type="text/css">
	.st0{fill:#FFFFFF;}
	.st1{opacity:0.4;fill:#FFFFFF;enable-background:new    ;}
</style>
<path class="st0" d="M384,0v128h128L384,0z M247.4,242.3c-11.2-11.4-13.1-12.8-15.7-21.5c-0.9-2.9-1.8-6.6-3.2-11.8
	c-0.7-2.6-1.6-5-2.9-7.2c-3.8-6.7-10.1-11.7-17.7-13.8c-12.8-3.5-16.6-4.2-21.3-8c-1.8-1.5-3.8-3.5-7.5-6.3c-0.5-1.4-3-3.1-4-4.9
	c-2.5-2.6-5.4-4.4-8.5-6.7c-0.8,0.5-1.5,0.2-2.3-0.1c-3.1-1.2-6.5-2-9.9-2c0,0,0,0,0,0c0,0,0,0,0,0s0,0,0,0c-2.5,0-5,0.3-7.5,1
	c0.2-0.1,0.5,0,0.7-0.1c-0.2-0.8-0.5,0-0.7,0.1c-10.2,2.8-14.6,4.1-19.8,4.1c-4.4,0-8.7-1.4-18.8-4.1c-1.6-0.7-4.2-1-6.7-1
	c0,0,0,0,0,0c-3.4,0-6.7,0.8-9.9,2c-0.8,0.3-1.5,0.6-2.3,0.1c-3.1,2.3-6,4.1-8.5,6.7c-15,15.1-12.5,13.6-32.8,19.2
	c-10.1,2.8-18,10.8-20.7,21c-2.1,7.8-3.1,12.3-4.4,15.6c-2.2,5.7-5.1,8.2-14.4,17.7c-1.9,1.8-3.4,3.9-4.7,6.2
	C0.1,255.2-1,263.3,1,271.1c5.5,20.6,5.4,17.8,0,38.4c-2.1,7.7-1,15.8,2.9,22.5c1.3,2.2,2.8,4.3,4.7,6.2
	c11.1,11.3,13.1,12.8,15.7,21.5c0.9,2.9,1.8,6.6,3.2,11.8c2.6,10.4,10.5,18.4,20.7,21.1c7.2,1.9,10.1,2.7,11.7,3.2s2,0.8,4.2,1.8
	V512l64-32l64,32V397.6c4.2-2,1.5-1.1,15.9-5c7.6-2.1,13.9-7.1,17.7-13.8c1.3-2.2,2.3-4.7,2.9-7.3c1.4-5.2,2.3-8.9,3.2-11.8
	c2.6-8.7,4.5-10.1,15.7-21.4c7.5-7.5,10.4-18.5,7.6-28.8c-5.4-20.6-5.5-17.8,0-38.4C257.7,260.8,254.9,249.8,247.4,242.3z M128,352
	c-4.4,0-8.7-0.4-12.9-1.3c-8.3-1.7-16.1-5-22.9-9.6c-6.8-4.6-12.7-10.5-17.3-17.3C68,313.6,64,301.3,64,288s4-25.6,10.9-35.8
	c4.6-6.8,10.5-12.7,17.3-17.3c6.8-4.6,14.6-7.9,22.9-9.6c4.2-0.9,8.5-1.3,12.9-1.3c35.4,0,64,28.6,64,64S163.4,352,128,352z"/>
<path class="st1" d="M384,128V0H176c-26.5,0-48,21.5-48,48l0,84.9c1.7-0.4,3.8-1,6.7-1.8l3.8-1c5.2-1.4,10.5-2.1,15.9-2.1
	c16.2,0,32.1,6.7,43.6,18.3l2.7,2.8c2.2,2.2,3.7,3.9,5,5.1c1.7,0.6,3.8,1.1,6.7,1.9l3.9,1.1c21.1,5.8,37.6,22.4,43.1,43.6l1.1,4.3
	c0.8,3,1.3,5.2,1.9,6.9c1.2,1.4,2.9,3,5.2,5.3l2.4,2.4c15.6,15.8,21.6,38.5,15.9,59.9l-0.9,3.2c-0.9,3.3-1.6,5.6-2,7.6
	c0.4,1.8,1,3.9,1.8,6.9l1.1,4.1c5.7,21.3-0.4,44.1-15.7,59.5l-2.9,2.9c-2.2,2.2-3.8,3.7-4.9,5c-0.6,1.7-1.1,3.9-1.9,7l-1,3.7
	c-4.7,18.8-18,34.1-35.5,41.5l-0.9,91.2H464c26.5,0,48-21.5,48-48V128H384z"/>
</svg>
