<svg xmlns="http://www.w3.org/2000/svg" viewBox="0 0 300.615 300.542">
  <path id="Icon_ionic-ios-globe" data-name="Icon ionic-ios-globe" d="M153.646,3.375h-.506A150.243,150.243,0,0,0,47.3,259.775a149.438,149.438,0,0,0,105.912,44.142h.506c82.866,0,150.271-67.405,150.271-150.271S236.512,3.375,153.646,3.375ZM283.833,143.532H227.77a284.505,284.505,0,0,0-7.08-55.051A220.086,220.086,0,0,0,256.6,73.309,129.433,129.433,0,0,1,283.833,143.532Zm-140.3,0H98.884a256.793,256.793,0,0,1,6.358-49.922,219.8,219.8,0,0,0,38.29,5.129Zm0,20.229v44.72a220.73,220.73,0,0,0-38.29,5.129,256.761,256.761,0,0,1-6.358-49.85Zm20.229,0h44.287a255.287,255.287,0,0,1-6.358,49.777,215.647,215.647,0,0,0-37.929-5.057Zm0-20.229V98.739a220.736,220.736,0,0,0,37.929-5.057,256.041,256.041,0,0,1,6.358,49.85ZM242.8,58.354a200.7,200.7,0,0,1-27.453,11.2c-5.129-15.461-11.632-28.826-19.145-39.374A130.733,130.733,0,0,1,242.8,58.354Zm-46.526,16.4a203.323,203.323,0,0,1-32.511,4.335V26.06C176.042,32.707,188.035,50.551,196.271,74.754ZM143.532,25.771V79.016a199.818,199.818,0,0,1-32.872-4.407C119.04,50.19,131.178,32.346,143.532,25.771Zm-32.944,4.624c-7.441,10.476-13.871,23.769-19,39.085A205.218,205.218,0,0,1,64.495,58.354,128.777,128.777,0,0,1,110.588,30.395ZM50.7,73.381A215.726,215.726,0,0,0,86.241,88.408a273.04,273.04,0,0,0-7.08,55.051H23.532A128.768,128.768,0,0,1,50.7,73.381ZM23.459,163.761H79.089a283.776,283.776,0,0,0,7.08,55.051,228.89,228.89,0,0,0-35.545,15.027A129.452,129.452,0,0,1,23.459,163.761Zm40.963,85.178a202.193,202.193,0,0,1,27.164-11.126c5.129,15.388,11.559,28.609,19,39.157A131.982,131.982,0,0,1,64.423,248.938Zm46.237-16.328a200.863,200.863,0,0,1,32.872-4.407v53.317C131.106,274.947,119.04,257.03,110.66,232.611Zm53.1,48.621v-53.1a203.326,203.326,0,0,1,32.511,4.335C188.035,256.741,176.042,274.586,163.761,281.232Zm32.511-4.118c7.514-10.548,14.016-23.913,19.145-39.374a197.4,197.4,0,0,1,27.453,11.27A132.234,132.234,0,0,1,196.271,277.114Zm60.325-43.2A220.083,220.083,0,0,0,220.69,218.74a283.024,283.024,0,0,0,7.08-54.979h56.063A128.867,128.867,0,0,1,256.6,233.911Z" transform="translate(-3.375 -3.375)" fill="#f3f9f4"/>
</svg>
