<?xml version="1.0" encoding="utf-8"?>
<!-- Generator: Adobe Illustrator 25.4.1, SVG Export Plug-In . SVG Version: 6.00 Build 0)  -->
<svg version="1.1" id="Layer_1" xmlns="http://www.w3.org/2000/svg" xmlns:xlink="http://www.w3.org/1999/xlink" x="0px" y="0px"
	 viewBox="0 0 640 512" style="enable-background:new 0 0 640 512;" xml:space="preserve">
<style type="text/css">
	.st0{fill:#FFFFFF;}
</style>
<path class="st0" d="M211.2,96c0,35.3-28.7,64-64,64s-64-28.7-64-64c0-35.3,28.7-64,64-64S211.2,60.7,211.2,96z M32,256
	c0-35.3,28.7-64,64-64h96c12.2,0,23.7,3.4,33.4,9.4c-37.2,15.1-65.6,47.2-75.8,86.6H64C46.3,288,32,273.7,32,256L32,256z
	 M415.9,200.6c9.4-5.5,20.4-8.6,32.1-8.6h96c35.3,0,64,28.7,64,64c0,17.7-14.3,32-32,32h-82.4C483.2,247.9,453.1,215.4,415.9,200.6z
	 M391.2,226.4c32.1,7.4,58.1,30.9,68.9,61.6c3.6,10,5.5,20.8,5.5,32c0,17.7-14.3,32-32,32h-224c-17.7,0-32-14.3-32-32
	c0-11.2,1.9-22,5.5-32c10.5-29.7,35.2-52.8,66-60.9c7-2,16-3.1,24.5-3.1h96C377,224,384.3,224.8,391.2,226.4z M563.2,96
	c0,35.3-28.7,64-64,64s-64-28.7-64-64c0-35.3,28.7-64,64-64S563.2,60.7,563.2,96z M241.6,112c0-44.2,35.8-80,80-80s80,35.8,80,80
	c0,44.2-35.8,80-80,80S241.6,156.2,241.6,112z M608,416c17.7,0,32,14.3,32,32s-14.3,32-32,32H32c-17.7,0-32-14.3-32-32
	s14.3-32,32-32H608z"/>
</svg>
