<svg xmlns="http://www.w3.org/2000/svg" viewBox="0 0 136.95 136.973">
  <path id="Icon_open-monitor" data-name="Icon open-monitor" d="M5.829.026A8.559,8.559,0,0,0,.009,8.584V94.171a8.559,8.559,0,0,0,8.559,8.559H51.36v17.117H34.243a17.168,17.168,0,0,0-17.117,17.117h102.7a17.168,17.168,0,0,0-17.117-17.117H85.595V102.729h42.793a8.559,8.559,0,0,0,8.559-8.559V8.584A8.559,8.559,0,0,0,128.388.026H8.567a8.559,8.559,0,0,0-1.541,0A8.559,8.559,0,0,0,6,.026Zm11.3,17.117h102.7V85.612H17.126Z" transform="translate(0.003 0.009)" fill="#f3f9f4"/>
</svg>