<svg xmlns="http://www.w3.org/2000/svg" viewBox="0 0 194.079 169.819">
  <path id="Icon_awesome-server" data-name="Icon awesome-server" d="M181.949,50.77H12.13A12.13,12.13,0,0,1,0,38.64V14.38A12.13,12.13,0,0,1,12.13,2.25H181.949a12.13,12.13,0,0,1,12.13,12.13V38.64A12.13,12.13,0,0,1,181.949,50.77ZM163.754,17.412a9.1,9.1,0,1,0,9.1,9.1A9.1,9.1,0,0,0,163.754,17.412Zm-24.26,0a9.1,9.1,0,1,0,9.1,9.1A9.1,9.1,0,0,0,139.494,17.412Zm42.455,94.007H12.13A12.13,12.13,0,0,1,0,99.289V75.03A12.13,12.13,0,0,1,12.13,62.9H181.949a12.13,12.13,0,0,1,12.13,12.13v24.26A12.13,12.13,0,0,1,181.949,111.419ZM163.754,78.062a9.1,9.1,0,1,0,9.1,9.1A9.1,9.1,0,0,0,163.754,78.062Zm-24.26,0a9.1,9.1,0,1,0,9.1,9.1A9.1,9.1,0,0,0,139.494,78.062Zm42.455,94.007H12.13A12.13,12.13,0,0,1,0,159.939v-24.26a12.13,12.13,0,0,1,12.13-12.13H181.949a12.13,12.13,0,0,1,12.13,12.13v24.26A12.13,12.13,0,0,1,181.949,172.069Zm-18.195-33.357a9.1,9.1,0,1,0,9.1,9.1A9.1,9.1,0,0,0,163.754,138.712Zm-24.26,0a9.1,9.1,0,1,0,9.1,9.1A9.1,9.1,0,0,0,139.494,138.712Z" transform="translate(0 -2.25)" fill="#f3f9f4"/>
</svg>
