<?xml version="1.0" encoding="utf-8"?>
<!-- Generator: Adobe Illustrator 25.4.1, SVG Export Plug-In . SVG Version: 6.00 Build 0)  -->
<svg version="1.1" id="Layer_1" xmlns="http://www.w3.org/2000/svg" xmlns:xlink="http://www.w3.org/1999/xlink" x="0px" y="0px"
	 viewBox="0 0 512 512" style="enable-background:new 0 0 512 512;" xml:space="preserve">
<style type="text/css">
	.st0{fill:#0E8944;}
</style>
<path class="st0" d="M466.5,83.7l-192-80c-4.9-2-13.2-3.7-18.4-3.7c-5.3,0-13.6,1.7-18.5,3.7l-192,80C27.7,91.1,16,108.6,16,127.1
	C16,385.2,205.2,512,255.9,512C307.1,512,496,383.8,496,127.1C496,108.6,484.3,91.1,466.5,83.7z M352,200c0,5.5-1.9,11.1-5.8,15.6
	l-96,112c-6.7,7.9-15.6,7.5-18.2,7.5c-6.3,0-12.5-2.5-17-7l-48-48c-4.7-3.8-7-10-7-17c0-12.8,10.3-24,24-24c6.1,0,12.3,2.3,17,7
	l29.7,29.7l79.1-92.3c4.8-5.5,11.5-8.4,18.2-8.4C346.4,176,352,192.6,352,200z"/>
</svg>
