<svg xmlns="http://www.w3.org/2000/svg" viewBox="0 0 44.254 14">
  <path id="Icon_material-stars" data-name="Icon material-stars" d="M9.993,3A7,7,0,1,0,17,10,7,7,0,0,0,9.993,3Zm2.968,11.2L10,12.415,7.039,14.2l.784-3.367L5.212,8.572l3.444-.294L10,5.1l1.344,3.171,3.444.294-2.611,2.261.784,3.374Z" transform="translate(12.127 -3)" fill="#0e8944"/>
  <path id="Icon_material-stars-2" data-name="Icon material-stars" d="M8.059,3a5.064,5.064,0,1,0,5.069,5.064A5.061,5.061,0,0,0,8.059,3Zm2.147,8.1L8.064,9.811,5.922,11.1l.567-2.436L4.6,7.031l2.491-.213.972-2.3.972,2.294,2.491.213L9.638,8.661l.567,2.441Z" transform="translate(31.127 -1)" fill="#0e8944"/>
  <path id="Icon_material-stars-3" data-name="Icon material-stars" d="M8.059,3a5.064,5.064,0,1,0,5.069,5.064A5.061,5.061,0,0,0,8.059,3Zm2.147,8.1L8.064,9.811,5.922,11.1l.567-2.436L4.6,7.031l2.491-.213.972-2.3.972,2.294,2.491.213L9.638,8.661l.567,2.441Z" transform="translate(-3 -1)" fill="#0e8944"/>
</svg>