<?xml version="1.0" encoding="utf-8"?>
<!-- Generator: Adobe Illustrator 25.4.1, SVG Export Plug-In . SVG Version: 6.00 Build 0)  -->
<svg version="1.1" id="Layer_1" xmlns="http://www.w3.org/2000/svg" xmlns:xlink="http://www.w3.org/1999/xlink" x="0px" y="0px"
	 viewBox="0 0 640 512" style="enable-background:new 0 0 640 512;" xml:space="preserve">
<style type="text/css">
	.st0{fill:#FFFFFF;}
</style>
<path class="st0" d="M512,160c44.2,0,80-35.8,80-80S556.2,0,512,0c-44.2,0-80,35.8-80,80S467.8,160,512,160z M128,160
	c44.2,0,80-35.8,80-80S172.2,0,128,0C83.8,0,48,35.8,48,80S83.8,160,128,160z M319.9,320c57.4,0,103.1-46.6,103.1-104
	s-46.5-104-103.1-104c-57.4,0-103.1,46.6-103.1,104C215.9,273.4,262.5,320,319.9,320z M368,400c0-16.7,3.4-32.5,8.6-47.4
	c-2.3-0.1-4.4-0.6-6.7-0.6h-99.8C191.6,352,128,411.7,128,485.3c0,14.8,12.7,26.7,28.4,26.7h266.1C389.5,485.6,368,445.5,368,400z
	 M183.9,216c0-5.4,1-10.6,1.6-15.9c-10.9-6-22.9-8.1-35.6-8.1H88.1C39.4,192,0,233.8,0,285.3C0,295.6,7.9,304,17.6,304h199.5
	C196.7,280.2,183.9,249.7,183.9,216z M551.9,192h-61.8c-12.8,0-24.9,3-35.9,8.2c0.6,5.3,1.6,10.4,1.6,15.8
	c0,21.5-5.6,41.4-14.6,59.3c21.1-11.9,45-19.3,70.9-19.3c42.5,0,80.3,18.7,106.6,48h3.8c9.7,0,17.6-8.4,17.6-18.7
	C640,233.8,600.6,192,551.9,192z M618.1,366.7c-5-16-13.6-30.6-24.8-42.7c-1.7-1.9-4.5-2.3-6.7-1L567.5,334
	c-8.1-6.9-17.4-12.3-27.5-15.8v-23.1c0-2.5-1.9-4.7-4.3-5.2c-16.6-3.7-33.5-3.6-49.3,0c-1.5,1.3-3.3,3.6-3.3,5.2v22.2
	c-10,3.5-19.4,8.9-27.5,15.8l-19.3-11.1c-2.1-1.3-4.9-0.8-6.7,1c-11.2,12.1-19.7,26.7-24.7,42.7c-0.7,2.5,0.3,5.1,2.4,6.3l19.2,11.2
	c-1.9,10.4-1.9,21.2,0,31.6l-19.2,11.2c-2.2,1.2-3.2,3.8-2.4,6.3c4.9,16,13.5,30.5,24.7,42.7c1.8,1.9,4.5,2.3,6.7,1l19.3-11.1
	c8.1,6.9,17.4,12.3,27.5,15.8v22.2c0,2.5,1.8,4.7,4.2,5.2c16.7,3.7,33.5,3.6,49.3,0c2.4-0.5,4.3-2.7,4.3-5.2v-22.2
	c10-3.5,19.4-8.9,27.5-15.8l19.2,11.1c2.1,1.3,5,0.8,6.7-1c11.2-12.1,19.7-26.7,24.8-42.7c0.7-2.5-0.3-5.1-2.5-6.3L597.3,415
	c2-10.4,2-21.2,0-31.6l19.2-11.2C618.7,371.8,619.7,369.2,618.1,366.7z M512,432c-17.7,0-32-14.3-32-32s14.3-32,32-32
	c17.7,0,32,14.3,32,32C544,417.7,529.7,432,512,432z"/>
</svg>
