<?xml version="1.0" encoding="utf-8"?>
<!-- Generator: Adobe Illustrator 27.6.1, SVG Export Plug-In . SVG Version: 6.00 Build 0)  -->
<svg version="1.1" id="Layer_1" xmlns="http://www.w3.org/2000/svg" xmlns:xlink="http://www.w3.org/1999/xlink" x="0px" y="0px"
	 width="1083px" height="333.7px" viewBox="0 0 1083 333.7" style="enable-background:new 0 0 1083 333.7;" xml:space="preserve">
<style type="text/css">
	.st0{fill:#0BB23A;}
	.st1{fill:#FFFFFF;}
	.st2{fill:#1B75BB;}
	.st3{fill:#8BC53F;}
	.st4{fill:#37B34A;}
	.st5{fill:#F05A28;}
	.st6{fill:#F6921E;}
	.st7{fill:#26A9E0;}
	.st8{fill:#B3B4B4;}
	.st9{fill:#FF3600;}
</style>
<g id="Layer_2_00000127032024631931950950000015357673262301788322_">
	<g id="Layer_1-2">
		<path class="st0" d="M307.6,152.4c-32.9,0-50.2-19.2-50.2-55.4s17.4-55.6,50.2-55.6h43.2v21.3h-43.2c-20.3,0-29,10.2-29,34.3
			s8.4,34.1,29,34.1h43.2v21.3H307.6z"/>
		<path class="st1" d="M349.6,42.6v19h-42c-20.9,0-30.1,10.5-30.1,35.4s9.1,35.3,30.1,35.3h42v19h-42c-31.8,0-49.1-17.9-49.1-54.3
			s17.5-54.5,49.1-54.5L349.6,42.6 M351.9,40.2h-44.3c-33.6,0-51.4,19.6-51.4,56.8s17.8,56.5,51.4,56.5h44.3V130h-44.3
			c-19.8,0-27.8-9.6-27.8-33s8.1-33.1,27.8-33.1h44.3V40.2L351.9,40.2z"/>
		<path class="st0" d="M415.8,152.4c-32.9,0-50.2-19.1-50.2-55.2s17.3-55.7,50.2-55.7h14.8c32.9,0,50.2,19.3,50.2,55.7
			s-17.3,55.2-50.3,55.2H415.8z M415.8,62.7c-20.3,0-29,10.3-29,34.4s8.4,34,29,34h14.8c20.4,0,28.8-9.9,28.8-34.1
			s-8.6-34.3-28.8-34.3L415.8,62.7z"/>
		<path class="st1" d="M430.6,42.6c31.6,0,49.1,18,49.1,54.5s-17.4,54.1-49.1,54.1h-14.8c-31.8,0-49.1-17.7-49.1-54.1
			s17.5-54.5,49.1-54.5H430.6 M415.8,132.3h14.8c20.9,0,29.9-10.3,29.9-35.3s-9.1-35.4-29.9-35.4h-14.8c-20.9,0-30.1,10.6-30.1,35.6
			S394.8,132.3,415.8,132.3 M430.7,40.3h-14.8c-33.6,0-51.4,19.7-51.4,56.8s17.7,56.4,51.4,56.4h14.8c33.6,0,51.4-19.5,51.4-56.4
			S464.3,40.4,430.7,40.3L430.7,40.3z M415.8,130c-19.8,0-27.8-9.5-27.8-32.8c0-23.7,8.1-33.3,27.8-33.3h14.8
			c19.7,0,27.7,9.6,27.7,33.1s-8,33-27.7,33H415.8z"/>
		<path class="st0" d="M592.6,154.3c-14,0-22.3-6.2-27.6-20.9l-31.7-69.3c-0.7-2.5-3.1-4.2-5.7-4c-2.6-0.4-5,1.4-5.4,4
			c-0.1,0.4-0.1,0.8,0,1.2v87.1h-21.3V64.3c0-15.8,9.5-24.8,26.1-24.8c17.5,0,23.7,10.5,27.5,20.9l31.7,69.3c1,2.4,3.3,3.9,5.9,3.8
			c2.6,0.3,4.9-1.5,5.3-4.1c0-0.3,0-0.6,0-0.9v-87h21.4v87.9C618.7,145.2,609.2,154.3,592.6,154.3z"/>
		<path class="st1" d="M526.9,40.7c15.1,0,21.9,7.7,26.4,20.1l31.8,69.4c1.2,2.8,3.9,4.6,6.9,4.5c3.2,0.3,6.1-2,6.4-5.2
			c0-0.3,0-0.6,0-0.9v-86h19.2v86.8c0,14.3-8.2,23.8-25,23.8c-15.1,0-22.1-7.7-26.6-20.1l-31.8-69.5c-1-2.9-3.7-4.8-6.8-4.7
			c-3.2-0.4-6.1,1.9-6.6,5.1c-0.1,0.4-0.1,0.8,0,1.2v86h-19v-87C501.9,50.2,509.9,40.7,526.9,40.7 M526.9,38.4
			c-17.3,0-27.3,9.5-27.3,25.9v89.2h23.6V65.3c0-2.7,1.4-4,4.3-4c2.2-0.2,4.1,1.2,4.7,3.3l31.7,69.4c5.5,15.1,14.1,21.5,28.7,21.5
			c17,0,27.3-9.8,27.3-26.1V40.3h-23.7v88.2c0,3.2-2.3,3.8-4.2,3.8c-2.2,0.1-4.1-1.2-4.9-3.2l-31.6-69.3
			C551.5,49.3,545.1,38.4,526.9,38.4L526.9,38.4z"/>
		<path class="st0" d="M734.1,154.3c-14.1,0-22.3-6.2-27.6-20.9l-31.6-69.3c-0.7-2.5-3.1-4.2-5.7-4c-2.6-0.5-5.1,1.2-5.6,3.8
			c-0.1,0.4-0.1,0.9-0.1,1.4v87.1h-21.3V64.3c0-15.8,9.5-24.8,26.1-24.8c17.5,0,23.7,10.5,27.5,20.9l31.8,69.3
			c1,2.4,3.3,3.9,5.9,3.8c2.6,0.3,5-1.5,5.3-4.1c0-0.3,0-0.6,0-0.9v-87h21.4v87.9C760.2,145.2,750.7,154.3,734.1,154.3z"/>
		<path class="st1" d="M668.4,40.7c15.1,0,21.9,7.7,26.4,20.1l31.8,69.4c1.1,2.8,3.8,4.6,6.8,4.5c3.2,0.3,6.1-2,6.4-5.2
			c0-0.3,0-0.6,0-0.9v-86H759v86.8c0,14.3-8.2,23.8-25,23.8c-15.1,0-22.1-7.7-26.6-20.1l-31.7-69.5c-1-2.9-3.7-4.8-6.8-4.7
			c-3.2-0.4-6.2,1.9-6.6,5.1c-0.1,0.4-0.1,0.8,0,1.2v86h-19v-87C643.4,50.2,651.5,40.7,668.4,40.7 M668.4,38.4
			c-17.3,0-27.3,9.5-27.3,25.9v89.2h23.5V65.3c0-2.7,1.4-4,4.3-4c2.2-0.1,4.1,1.3,4.7,3.3l31.7,69.4c5.5,15.1,14.1,21.5,28.7,21.5
			c17,0,27.3-9.8,27.3-26.1V40.3h-23.7v88.2c0,3.2-2.3,3.8-4.2,3.8c-2.2,0.1-4.1-1.2-4.9-3.2l-31.6-69.3
			C693,49.3,686.6,38.4,668.4,38.4L668.4,38.4z"/>
		<path class="st0" d="M817,152.4c-23.7,0-37.4-11.2-37.4-30.8c0-11.6,4.8-20.2,14-25c-9.1-4.5-13.6-13-13.6-24.5
			c0-19.8,13.3-30.7,37.5-30.7h55.6v21.3h-55.6c-10.2,0-15.3,4.2-15.3,12.5S807.1,87,817.7,87h54.5v19.5h-55
			c-10.4,0-15.4,4-15.4,12.1s5.3,12.6,15.3,12.6h56.2v21.3L817,152.4z"/>
		<path class="st1" d="M871.9,42.6v19h-54.4c-11.4,0-16.4,5.3-16.4,13.6c0,8.9,5.6,12.9,16.6,12.9h53.4v17.2h-53.9
			c-10.9,0-16.6,4.4-16.6,13.2s5.3,13.6,16.4,13.6h55.1v19H817c-25.8,0-36.2-12.7-36.2-29.5c0-12.4,5.6-20.8,15.6-25
			c-10.1-4.2-15.3-12.6-15.3-24.5c0-17.4,10.8-29.5,36.4-29.5L871.9,42.6 M874.2,40.3h-56.6c-33.6,0-38.6,20-38.6,31.8
			c0,11.1,4.3,19.5,12.5,24.5c-8.4,5.1-12.9,13.6-12.9,25c0,20.3,14,31.8,38.5,31.8h57.3V130H817c-9.4,0-14.2-3.8-14.2-11.4
			c0-4.7,1.5-10.9,14.3-10.9h56.2V85.9h-55.7c-12.7,0-14.3-5.7-14.3-10.6c0-7.7,4.5-11.4,14.2-11.4h56.7V40.3L874.2,40.3z"/>
		<path class="st0" d="M941.8,152.4c-32.9,0-50.2-19.2-50.2-55.4s17.3-55.6,50.2-55.6H985v21.3h-43.2c-20.3,0-29,10.2-29,34.3
			s8.4,34.1,29,34.1H985v21.3H941.8z"/>
		<path class="st1" d="M983.9,42.6v19h-42c-20.9,0-30.1,10.5-30.1,35.4s9.1,35.3,30.1,35.3h42v19h-42c-31.8,0-49.1-17.9-49.1-54.3
			s17.5-54.5,49.1-54.5L983.9,42.6 M986.1,40.2h-44.3c-33.6,0-51.4,19.6-51.4,56.8s17.8,56.5,51.4,56.5h44.3V130h-44.3
			c-19.8,0-27.8-9.6-27.8-33s8.1-33.1,27.8-33.1h44.3V40.2L986.1,40.2z"/>
		<polygon class="st0" points="1028.6,152.4 1028.6,62.7 996.8,62.7 996.8,41.5 1081.7,41.5 1081.7,62.7 1050,62.7 1050,152.4 		"/>
		<path class="st1" d="M1080.6,42.6v19h-31.8v89.7h-19.2V61.6h-31.8v-19h82.6 M1082.7,40.3h-87v23.5h31.8v89.7h23.7V63.9h31.8V40.3
			H1082.7z"/>
		<path class="st2" d="M26.3,136.8c-2.9,0.1-5.6-1.4-7-4c-1.1-1.9-1-4.1,0.2-5.9l2-3c6.5-9.7,13.2-19.7,15.3-27.3
			c2.5-9.1-3.5-25.9-8.8-33.6c-1.9-2.2-2.3-5.4-1.1-8c1.2-2.1,3.3-3.4,5.7-3.4c0.9,0,1.7,0.2,2.5,0.6c27.4,14.4,27.3,28.4,27.3,29
			v2.4L60.6,82c-4.8-4.1-10.3-7.3-16.2-9.4c10.8,23.1,1.8,37.9-4.2,47.7l-1.4,2.5c5.8-2.1,11.5-4.7,16.9-7.7l3.5-1.8l-1.9,3.4
			c-8.7,15.2-27.3,19.4-28,19.6c-0.9,0.3-1.8,0.4-2.7,0.4h-0.3C26.3,136.7,26.3,136.8,26.3,136.8z"/>
		<path class="st1" d="M32.5,52.9c0.7,0,1.4,0.1,2,0.5c27.1,14.2,26.6,28,26.6,28c-5.8-5.1-14.8-9.9-17.5-9.9c-0.7,0-1,0.3-0.6,1.1
			c12.5,25.7-0.6,41.2-5.9,50.8c-0.4,0.7-0.1,0.9,0.5,0.9c3.3,0,18.5-8,18.5-8c-8.6,15-27.3,19-27.3,19c-0.8,0.2-1.6,0.4-2.5,0.4
			c-5.1,0-8-4.7-5.8-8.1c7-10.5,15-22,17.4-30.5c2.8-9.8-3.9-27.3-8.9-34.6c-3.9-5.7,0-9.7,3.7-9.7 M32.6,50.6L32.6,50.6
			c-2.8,0-5.5,1.5-6.8,4c-1.4,3-0.9,6.5,1.2,9.1c5.2,7.5,11.1,24,8.6,32.7c-2.1,7.3-8.7,17.2-15.1,26.9l-2,3
			c-1.5,2.2-1.6,4.9-0.3,7.2c1.7,2.9,4.7,4.6,8,4.5c1,0,2-0.2,3-0.4c1.5-0.3,19.9-4.8,28.7-20.1l3.9-6.8l-6.8,3.6
			c-4.7,2.5-10.2,5.1-13.8,6.5c5.6-9.1,14.6-24.1,5.2-46.2c4.8,2.2,9.2,5,13.2,8.4l3.6,3.2l0.2-4.8c0-0.6,0.2-15.3-27.8-30.1
			C34.7,50.8,33.7,50.5,32.6,50.6L32.6,50.6z"/>
		<path class="st2" d="M17.5,110.2c-9,0-16.3-7.3-16.3-16.3s7.3-16.3,16.3-16.3s16.3,7.3,16.3,16.3c0,2.9-0.8,5.7-2.2,8.1
			C28.7,107.1,23.3,110.2,17.5,110.2z"/>
		<path class="st1" d="M17.5,78.8c8.4-0.5,15.5,6,16,14.3s-6,15.5-14.3,16c-0.6,0-1.1,0-1.7,0c-8.4,0.3-15.4-6.2-15.7-14.6
			S8,79.1,16.4,78.8C16.7,78.8,17.1,78.8,17.5,78.8 M17.5,76.5L17.5,76.5C7.8,76.5,0,84.3,0,93.9s7.8,17.4,17.4,17.5
			c6.2,0,12-3.3,15.1-8.7c4.8-8.3,1.9-19-6.4-23.8C23.5,77.3,20.5,76.5,17.5,76.5z"/>
		<path class="st3" d="M92.9,194.6c-2.2,0.1-4.3-1.2-5.2-3.2l-1.6-3.2c-5.2-10.5-10.5-21.2-15.9-26.8c-6.2-6.4-21.8-9.2-30.9-9.2
			c-1,0-1.8,0-2.7,0h-1c-3.2,0.4-6.2-1.5-7.2-4.5c-0.8-2.6,0.1-5.4,2.3-7c14.2-9,24.2-10.8,30.1-10.8c3-0.2,6,0.5,8.7,1.8l2,1.3
			l-2.3,0.8c-6,2-11.5,5.1-16.3,9.1c25.4,2.1,33.7,17.4,39.3,27.5l1.4,2.6c1.1-6.1,1.7-12.2,1.9-18.4l0.2-3.9l2.1,3.3
			c8.8,15.2,3.2,33.3,3,34.1c-0.7,3.8-3.9,6.5-7.7,6.7L92.9,194.6z"/>
		<path class="st1" d="M60.9,131c2.8-0.2,5.5,0.4,8,1.6c-9.3,3.2-20.8,11-16.7,11.4c28.5,2.1,35.4,21.1,40.9,30.5
			c0.2,0.3,0.4,0.5,0.5,0.5c2,0,2.8-20.4,2.8-20.4c8.7,14.9,2.9,33.1,2.9,33.1c-0.6,3.3-3.3,5.7-6.7,5.9c-1.7,0-3.3-0.9-4.1-2.5
			c-5.6-11.4-11.6-24-17.7-30.3c-6.5-6.7-22.2-9.7-31.7-9.7c-1,0-1.9,0-2.7,0h-0.9c-7.4,0-7.6-7.4-4.2-9.5
			C44.9,133,54.7,130.9,60.9,131 M61,128.6c-6,0-16.3,1.9-30.7,11c-2.7,1.8-3.9,5.2-3,8.4c1.1,3.5,4.6,5.8,8.3,5.5h1.1
			c0.8,0,1.6,0,2.6,0c8.9,0,24,2.8,30.1,9C74.7,168,80,178.7,85.1,189l1.6,3.2c1.2,2.4,3.6,3.8,6.3,3.8c4.3-0.2,8-3.3,8.8-7.5
			c0.5-1.5,5.8-19.6-3.1-34.9l-3.9-6.8l-0.3,7.8c-0.2,5.3-0.7,11.4-1.2,15.2c-5.2-9.4-13.6-24.7-37.4-27.6c4.3-3.1,9-5.5,13.9-7.2
			l4.5-1.5l-4.1-2.5c-2.9-1.5-6-2.2-9.2-2L61,128.6z"/>
		<path class="st3" d="M58.1,193c-9,0-16.2-7.3-16.2-16.3c0-5.8,3.1-11.2,8.2-14.1c7.8-4.5,17.7-1.8,22.2,6s1.8,17.7-6,22.2
			c-2.4,1.4-5.2,2.1-8,2.2L58.1,193L58.1,193z"/>
		<path class="st1" d="M58,161.5c8.4,0,15.2,6.7,15.2,15.1c0,8.4-6.7,15.2-15.1,15.2s-15.2-6.7-15.2-15.1c0-5.4,2.9-10.4,7.6-13.2
			C52.8,162.2,55.4,161.5,58,161.5 M58,159.2L58,159.2c-9.6,0-17.4,7.8-17.4,17.4c0,9.6,7.8,17.4,17.4,17.4s17.4-7.8,17.4-17.4
			c0-3.1-0.8-6-2.3-8.7C70,162.6,64.3,159.2,58,159.2z"/>
		<path class="st4" d="M111.5,194.2c-3.2,0-6-2.4-6.3-5.6c-1.2-30.9,11-37.8,11.5-38.1l2.1-1.1l-0.5,2.3c-1.2,6.2-1.3,12.5-0.2,18.7
			c12.5-18,27.5-20.4,39.1-20.4c1.5,0,2.9,0,4.3,0h3c-4.7-4-9.8-7.6-15.1-10.8l-3.3-2.1h3.8c17.6,0,30.4,13.9,31,14.5
			c2.5,2.3,3.4,5.9,2.3,9.1c-0.8,2.3-3,3.8-5.4,3.8h-0.4l-3.5-0.2c-6.1-0.1-12.6-0.6-18.3-0.6c-4.3-0.1-8.6,0.3-12.8,1.2
			c-9.1,2.3-20.7,15.9-24.7,24.4C117.2,192.1,114.6,194.1,111.5,194.2z"/>
		<path class="st1" d="M150.2,138.4c17.2,0,30,14.1,30,14.1c4.7,4.5,2.3,11.1-2.3,11.1h-0.3c-7.3-0.5-15.1-1.1-22-1.1
			c-4.4-0.1-8.8,0.3-13.1,1.2c-9.9,2.5-21.6,17-25.5,25c-0.8,2.5-3,4.2-5.6,4.4c-2.6,0-4.9-1.9-5.2-4.5c-1.2-30.6,11-37,11-37
			c-1.7,8.7-1,20.6,0.8,20.6c0.2,0,0.5-0.2,0.7-0.5c12.5-18.5,27.4-20.4,38.6-20.4c2.8,0,5.4,0,7.7,0h0.7c4.7,0-15.7-12.8-15.7-12.8
			l0,0 M150,136.1h-7.7l6.6,4.2c4.5,2.8,9.5,6.2,12.6,8.6h-4.1c-11.4,0-26.1,2.3-38.5,18.7c-0.5-5.2-0.3-10.5,0.7-15.7l1-4.7
			l-4.2,2.3c-0.5,0.3-13.4,7.5-12.2,39.1c0.3,3.9,3.6,6.8,7.5,6.8c3.4-0.2,6.4-2.4,7.6-5.6c3.9-8.3,15.2-21.6,24-23.9
			c4.1-0.9,8.3-1.3,12.5-1.1c5.7,0,12.1,0.4,18.2,0.8l3.5,0.2h0.5c2.9,0,5.5-1.8,6.5-4.5c1.3-3.7,0.3-7.7-2.5-10.4
			c-1-1.1-14-14.8-31.7-14.8H150z"/>
		<path class="st4" d="M150,199.2c-9,0-16.3-7.3-16.3-16.3s7.3-16.3,16.3-16.3s16.3,7.3,16.3,16.3l0,0
			C166.3,191.9,159,199.2,150,199.2z"/>
		<path class="st1" d="M150,167.7c8.4,0,15.2,6.8,15.2,15.2s-6.8,15.2-15.2,15.2s-15.2-6.8-15.2-15.2l0,0
			C134.9,174.5,141.6,167.8,150,167.7 M150,165.5c-9.6,0-17.4,7.8-17.4,17.4s7.8,17.4,17.4,17.4c9.6,0,17.4-7.8,17.4-17.4l0,0
			c0.1-9.5-7.6-17.4-17.2-17.4C150.2,165.5,150.1,165.5,150,165.5z"/>
		<path class="st5" d="M186.4,148.6c-0.9,0-1.7-0.2-2.5-0.6c-27.4-14.4-27.3-28.4-27.3-29v-2.4l1.8,1.6c4.7,4.1,10.2,7.4,16.1,9.5
			c-10.8-23.2-1.7-37.9,4.3-47.7l1.5-2.5c-5.8,2.1-11.5,4.7-16.9,7.6l-3.5,1.8l2-3.4c8.7-15.2,27.3-19.4,28-19.6
			c0.9-0.2,1.8-0.3,2.7-0.3c2.9-0.1,5.6,1.4,7,4c1.1,1.9,1,4.1-0.2,5.9l-2,2.9c-6.5,9.7-13.2,19.7-15.3,27.3
			c-2.6,8.8,3.5,25.8,8.8,33.5c1.9,2.2,2.3,5.4,1.1,8C190.9,147.2,188.7,148.5,186.4,148.6z"/>
		<path class="st1" d="M192.6,64.6c5.1,0,8.2,4.7,5.9,8.1c-7,10.5-15,22-17.4,30.4c-2.8,9.9,3.9,27.3,8.9,34.6
			c3.9,5.7,0,9.7-3.7,9.7c-0.7,0-1.4-0.2-2-0.5c-27.1-14.2-26.6-28-26.6-28c5.8,5.1,14.8,9.9,17.5,9.9c0.7,0,1-0.4,0.6-1.2
			c-12.5-25.7,0.6-41.2,5.9-50.7c0.4-0.7,0.1-0.9-0.5-0.9c-3.3,0-18.5,8-18.5,8c8.6-15,27.3-19,27.3-19
			C190.9,64.8,191.7,64.6,192.6,64.6 M192.6,62.4c-1,0-2,0.1-3,0.4c-1.5,0.3-19.9,4.8-28.7,20.1l-3.9,6.8l6.8-3.6
			c4.7-2.5,10.2-5.1,13.8-6.6c-5.6,9.1-14.6,24.1-5.2,46.2c-4.8-2.2-9.2-5-13.2-8.5l-3.6-3.2l-0.2,4.8c0,0.6-0.2,15.3,27.8,30.1
			c1,0.5,2.1,0.7,3.2,0.7c2.8,0,5.5-1.5,6.8-4c1.4-3,0.9-6.5-1.2-9.1c-5.2-7.5-11.1-24-8.6-32.7c2.1-7.3,8.7-17.3,15.2-26.9l1.9-2.9
			c1.4-2.1,1.5-4.9,0.3-7.1c-1.7-2.9-4.7-4.6-8-4.5L192.6,62.4z"/>
		<path class="st5" d="M201.4,122.7c-9,0-16.3-7.3-16.3-16.3s7.3-16.3,16.3-16.3s16.3,7.3,16.3,16.3c0,2.9-0.8,5.7-2.2,8.2
			C212.6,119.6,207.2,122.7,201.4,122.7z"/>
		<path class="st1" d="M201.4,91.2c8.4,0,15.2,6.8,15.2,15.2s-6.8,15.2-15.2,15.2s-15.2-6.8-15.2-15.2c0-2.7,0.7-5.3,2-7.6
			C190.9,94.1,196,91.2,201.4,91.2 M201.4,89L201.4,89c-6.2,0.1-11.9,3.4-15,8.7c-4.8,8.3-1.9,19,6.4,23.8c8.3,4.8,18.9,2,23.8-6.3
			c0,0,0,0,0-0.1c4.8-8.3,2-19-6.3-23.8l0,0C207.5,89.8,204.5,89,201.4,89L201.4,89z"/>
		<path class="st6" d="M157.9,70.4c-3,0.2-6-0.5-8.7-1.8l-2-1.3l2.3-0.8c6-2,11.5-5.1,16.3-9.1c-25.4-2.1-33.7-17.4-39.3-27.5
			l-1.4-2.6c-1.1,6.1-1.7,12.3-1.8,18.5l-0.2,3.9l-2-3.4c-8.8-15.2-3.2-33.3-3-34.1c0.7-3.7,3.9-6.5,7.7-6.7
			c2.2-0.1,4.3,1.2,5.2,3.2l1.6,3.2c5.2,10.4,10.5,21.2,15.9,26.8c6.2,6.4,21.8,9.3,30.9,9.3c1,0,1.9,0,2.7,0h1
			c3.2-0.3,6.2,1.6,7.2,4.7c0.8,2.6-0.1,5.4-2.3,7C173.8,68.6,163.8,70.4,157.9,70.4z"/>
		<path class="st1" d="M126,6.8c1.8-0.1,3.4,0.9,4.2,2.5c5.6,11.4,11.6,24,17.7,30.3c6.5,6.7,22.2,9.7,31.7,9.7c1,0,1.9,0,2.8,0
			c0.3,0,0.6,0,0.9,0c7.4,0,7.6,7.4,4.2,9.5c-13.6,8.6-23.4,10.7-29.5,10.7c-2.7,0.1-5.5-0.5-7.9-1.8c9.3-3.1,20.8-11,16.6-11.4
			c-28.5-2-35.4-21.1-40.9-30.5c-0.2-0.3-0.4-0.5-0.5-0.5c-2,0-2.8,20.4-2.8,20.4c-8.7-14.9-2.9-33.1-2.9-33.1
			C120.1,9.5,122.7,7.1,126,6.8 M126,4.5c-4.3,0.2-8,3.3-8.8,7.5c-0.5,1.5-5.8,19.6,3.1,34.9l3.9,6.8l0.3-7.8
			c0.2-5.3,0.7-11.4,1.2-15.2c5.1,9.4,13.6,24.7,37.4,27.6c-4.3,3.1-9,5.5-13.9,7.2l-4.5,1.5l4.1,2.5c2.9,1.5,6,2.2,9.2,2
			c6,0,16.3-1.9,30.7-11c2.6-1.8,3.8-5.2,2.9-8.2c-1.1-3.5-4.6-5.8-8.3-5.5h-1.1c-0.8,0-1.7,0-2.6,0c-8.8,0-24-2.8-30-9
			c-5.3-5.4-10.6-16.1-15.7-26.5l-1.6-3.2C131.1,5.9,128.6,4.5,126,4.5z"/>
		<path class="st6" d="M160.8,39.9c-5.8,0-11.2-3.1-14.1-8.1c-4.5-7.8-1.9-17.7,5.9-22.2c2.5-1.4,5.3-2.2,8.2-2.2
			c9,0,16.3,7.2,16.3,16.2c0,5.8-3.1,11.3-8.2,14.2C166.5,39.2,163.7,39.9,160.8,39.9z"/>
		<path class="st1" d="M160.8,8.5c8.4,0,15.1,6.8,15.1,15.1c0,8.4-6.8,15.1-15.1,15.1c-8.4,0-15.1-6.8-15.1-15.1
			c0-5.4,2.9-10.4,7.6-13.1C155.5,9.2,158.1,8.5,160.8,8.5 M160.8,6.2L160.8,6.2c-9.6-0.3-17.7,7.2-18,16.8s7.2,17.7,16.8,18
			c0.4,0,0.8,0,1.3,0c3,0,6-0.8,8.7-2.3c8.3-4.8,11.2-15.4,6.4-23.8C172.7,9.6,167,6.3,160.8,6.2L160.8,6.2z"/>
		<path class="st7" d="M68.7,63.1c-17.5,0-30.3-13.9-30.9-14.5c-2.5-2.3-3.4-5.9-2.3-9.1c0.8-2.3,3-3.9,5.5-3.9h0.4l3.5,0.2
			c6.2,0.4,12.7,0.8,18.4,0.8c4.3,0.1,8.6-0.3,12.8-1.2c9.1-2.3,20.7-15.9,24.7-24.4c1-2.9,3.6-4.8,6.6-5c3.2,0.1,5.9,2.5,6.2,5.7
			c1.2,30.9-11,37.8-11.5,38.1L100,51l0.5-2.3c1.2-6.2,1.3-12.5,0.2-18.7C88.2,48,73.2,50.4,61.5,50.4c-1.5,0-2.9,0-4.3,0h-3
			c4.8,4,9.8,7.6,15.1,10.8l3.3,2.1L68.7,63.1z"/>
		<path class="st1" d="M107.3,7.2c2.6,0,4.9,1.9,5.2,4.5c1.2,30.6-11,37-11,37c1.7-8.6,1-20.6-0.8-20.6c-0.2,0-0.5,0.2-0.7,0.5
			C87.6,47.2,72.7,49.2,61.4,49.2c-2.8,0-5.4-0.1-7.6-0.1h-0.7C48.4,49.1,68.7,62,68.7,62l0,0c-17.2,0-30-14.1-30-14.1
			C34,43.4,36.4,36.8,41,36.8h0.3c7.3,0.5,15.1,1.1,22,1.1c4.4,0.1,8.8-0.3,13.1-1.2c9.9-2.5,21.6-17,25.5-25
			C102.6,9.2,104.8,7.5,107.3,7.2 M107.4,5L107.4,5c-3.4,0.2-6.4,2.4-7.6,5.6c-4,8.2-15.3,21.6-24,23.8c-4.1,0.9-8.3,1.3-12.5,1.2
			c-5.7,0-12.2-0.4-18.4-0.8l-3.5-0.2H41c-2.9,0-5.4,1.8-6.5,4.5c-1.3,3.7-0.3,7.8,2.6,10.4c1,1.1,14,14.8,31.7,14.8h7.9l-6.5-4.2
			c-4.5-2.8-9.5-6.2-12.6-8.7c1.3,0,2.7,0,4.1,0c11.5,0,26.1-2.3,38.6-18.7c0.5,5.2,0.3,10.5-0.7,15.7l-1,4.7l4.2-2.3
			c0.5-0.3,13.4-7.5,12.2-39.1C114.7,7.8,111.4,4.9,107.4,5L107.4,5z"/>
		<path class="st7" d="M68.8,33.7c-9,0-16.3-7.3-16.3-16.3S59.8,1.1,68.8,1.1s16.3,7.3,16.3,16.3c0,4.3-1.7,8.5-4.8,11.5
			C77.3,32,73.2,33.7,68.8,33.7z"/>
		<path class="st1" d="M68.8,2.3C77.2,2.3,84,9.1,84,17.4s-6.8,15.2-15.2,15.2s-15.2-6.8-15.2-15.2S60.5,2.3,68.8,2.3L68.8,2.3
			 M68.8,0L68.8,0c-9.6,0-17.4,7.8-17.4,17.4s7.8,17.4,17.4,17.4S86.2,27,86.2,17.4S78.5,0,68.8,0z"/>
		<path class="st8" d="M113.5,134.8c-0.5,0-1-0.1-1.4-0.4c-1.1-0.6-2.3-1.3-3.3-2l-1.2-0.7c-0.4-0.2-0.7-0.7-0.8-1.1l0,0
			c-1.3,1.1-2.6,2.2-4,3.1c-0.5,0.3-1.1,0.5-1.6,0.5c-1.8,0-3.3-1.5-3.5-3.3c0-0.6,0.1-1.1,0.2-1.6l-1.1,0.9
			c-0.6,0.5-1.4,0.8-2.3,0.7h-0.1c-1.5,0-2.8-0.9-3.3-2.3c-0.3-0.8-0.3-1.8,0-2.6l-0.2,0.1c-0.4,0.3-0.8,0.5-1.3,0.5l-0.4,0.1H89
			h-0.2c-1.1,0-2.1-0.5-2.8-1.3c-0.6-0.8-0.8-1.9-0.6-2.9c0-0.3,0.2-0.6,0.3-0.8c-0.3,0.1-0.6,0.2-0.9,0.3l-0.5,0.1H84
			c-1.4-0.1-2.6-1-3.1-2.3c-0.6-1.3-0.3-2.8,0.8-3.8l0,0l-0.2-0.4l-0.5-0.4c-0.5-0.4-1-0.8-1.5-1.2c-0.3-0.2-0.4-0.5-0.5-0.9
			c-0.1,0.2-0.5,0.9-0.5,0.9l-0.6,0.8l-1-0.3l-2.1-1l-1.9-1l-4.7-2.5c-0.6-0.3-1-0.9-1-1.6c0-6.8,0-33.6,0-33.6l2.6,2l2.5,1.9
			l17.2,13.4c1.2,0.9,1.3,1.5,0.5,2.8c0,0,0,0,0,0.2h0.2h2.4c1.3,0,2.7,0,4-0.2l4.2-0.4l2.7-0.3c0.7,0,1.4,0,2.1-0.1l1.9-0.1l0.2,1
			v0.4l1.2-0.7c1-0.7,2.2-1,3.4-1c0.7,0,1.4,0.1,2.1,0.3c1,0.3,2,0.6,3.1,1l1.8,0.6c1.1,0.4,2.1,0.7,3.2,1c1.6-0.6,3.1-1.1,4.5-1.7
			c0.2-0.1,0.5-0.1,0.7-0.1c0.1,0,0.3,0,0.4,0l0,0c-0.4-0.8-0.2-1.8,0.5-2.3l4-3.1l2.7-2.3l13.4-10.4l2.3-1.6l0.1,2.1
			c0,0.4,0,0.6,0,0.8v27.9c0,0.9,0,1.8,0,2.7c0,0.6-0.3,1.1-0.8,1.4l-8.7,4.5l-0.9,0.4l-0.5-0.7l0.9-0.7l-1,0.6l-0.1-0.2l-1.6-2.5
			c-0.1,0.3-0.3,0.6-0.6,0.9l-3.1,2.8l-2,1.8l-0.2-0.1l0,0c0.4,1.4-0.1,3-1.3,3.9c-0.6,0.4-1.3,0.6-2,0.6c-0.4,0-0.9-0.1-1.3-0.2
			c0.4,0.6,0.5,1.2,0.5,1.9c0,1.3-0.7,2.5-1.9,3c-0.5,0.3-1.1,0.4-1.7,0.4c-0.7,0-1.4-0.2-2-0.6l0,0c0.2,0.5,0.3,1,0.3,1.5
			c0,1.5-0.9,2.8-2.3,3.2c-0.4,0.2-0.9,0.2-1.3,0.2c-0.8,0-1.5-0.2-2.1-0.7l-1.1-0.8l0.1,0.2c0.6,1.3,0.3,2.9-0.7,3.8
			C115.3,134.4,114.4,134.8,113.5,134.8z M98.1,120.2l0.2-0.1L98.1,120.2C98.2,120.2,98.2,120.2,98.1,120.2z"/>
		<path class="st1" d="M68.7,77.2l3.2,2.5l17.2,13.4c0.7,0.6,0.7,0.6,0.2,1.4l-11.3,19l-0.2,0.3l-2-1l-6.8-3.5
			c-0.2-0.1-0.4-0.4-0.4-0.6L68.7,77.2 M150.1,77.2c0,0.3,0,0.5,0,0.7V105c0,1.2,0,2.4,0,3.7c0,0.2,0,0.4-0.2,0.5l-8.6,4.5h-0.2
			c-0.1,0-0.1-0.1-0.1-0.2c-3.8-6.2-7.5-12.3-11.2-18.5c-0.2-0.3-0.3-0.6-0.5-0.9s-0.2-0.6,0.2-0.9c2.3-1.7,4.5-3.5,6.8-5.2
			c4.5-3.5,8.9-6.8,13.4-10.4L150.1,77.2 M112.6,94.9c0.6,0,1.2,0.1,1.8,0.3c1.6,0.5,3.2,1.1,4.8,1.6c1.1,0.4,2.2,0.7,3.2,1h0.3
			c0.2,0,0.3,0,0.5,0c1.5-0.5,3-1.1,4.5-1.7h0.3c0.2,0,0.4,0.1,0.4,0.3c3,4.9,6,9.8,9.1,14.6c0.2,0.3,0.2,0.7-0.1,0.9
			c0,0,0,0-0.1,0.1l-3.3,2.7l-1.2,1.1l-12-10c-2.1-1.7-4.2-3.5-6.4-5.2c-0.1-0.2-0.4-0.3-0.6-0.3c-0.1,0-0.3,0.1-0.4,0.1
			c-2,1.2-4.3,1.8-6.6,1.7h-0.5c-1.2,0-2.3-0.1-3.5-0.2c-0.4,0-0.7-0.2-1-0.3c-0.4-0.1-0.7-0.6-0.5-1c0-0.1,0.1-0.3,0.3-0.4
			c0.3-0.3,0.7-0.6,1.2-0.8c2.4-1,4.8-2.3,7-3.7C110.6,95.2,111.5,94.9,112.6,94.9 M106.8,95.4L106.8,95.4c0,0.2-0.3,0.3-0.5,0.4
			c-1.2,0.6-2.5,1.2-3.6,1.8c-0.8,0.4-1.6,0.9-2.3,1.5c-0.4,0.4-0.7,0.9-0.7,1.4c-0.1,0.7,0.1,1.4,0.7,1.8c0.8,0.7,1.8,1.1,2.8,1.3
			c1.1,0.2,2.2,0.2,3.3,0.2c1.9,0,3.8-0.3,5.6-0.9c0.4-0.1,0.8-0.3,1.2-0.5c0.1,0,0.3,0,0.4,0c0.2,0,0.4,0.1,0.6,0.2l9.1,7.5
			c2.4,2,4.8,4,7.1,6c0.5,0.3,0.9,0.8,1.1,1.4c0.3,1-0.1,2.1-0.9,2.7c-0.4,0.3-0.9,0.4-1.4,0.4s-1.1-0.2-1.5-0.5l-12.2-8.6l-0.7-0.5
			c-0.2-0.1-0.4-0.2-0.5-0.2c-0.3,0-0.5,0.1-0.7,0.3c-0.2,0.4-0.1,0.9,0.2,1.1l0,0l5,3.7l7.2,5.2c0.7,0.4,1.2,1.2,1.2,2
			c0,0.9-0.4,1.7-1.2,2.1c-0.4,0.2-0.8,0.3-1.2,0.3c-0.5,0-0.9-0.2-1.3-0.4l-11.2-7.9l-0.7-0.5c-0.2-0.1-0.4-0.2-0.6-0.2
			s-0.4,0.1-0.5,0.3c-0.3,0.4-0.2,0.9,0.2,1.2c0.5,0.4,1.1,0.8,1.6,1.2c2.9,2.1,5.8,4.2,8.7,6.3c0.7,0.4,1,1.2,1,2
			c0,0.9-0.6,1.8-1.5,2.1c-0.3,0.1-0.7,0.2-1,0.2c-0.6,0-1.2-0.2-1.6-0.7l-5.8-4.1c-1.3-0.9-2.6-1.8-4-2.7c-0.2-0.1-0.4-0.2-0.6-0.2
			s-0.3,0.1-0.4,0.2c-0.3,0.4-0.2,0.9,0.2,1.2l0,0c0.7,0.6,1.4,1.1,2.1,1.7l4.9,3.6c0.4,0.3,0.8,0.8,1,1.2c0.4,0.9,0.2,1.9-0.5,2.5
			c-0.4,0.4-1,0.7-1.6,0.7c-0.3,0-0.6-0.1-0.9-0.2c-1.5-0.8-3-1.8-4.5-2.7c-0.2-0.1-0.3-0.4-0.2-0.7c0.2-0.5,0.3-1,0.4-1.5
			c0.4-2.1-1.1-4.1-3.2-4.5c-0.1,0-0.2,0-0.3,0l-1.2-0.1c0-0.5-0.1-1-0.2-1.5c-0.5-1.8-2.1-3-3.9-3.1c-0.4,0-0.5-0.2-0.5-0.6
			c0-0.6-0.2-1.3-0.4-1.9c-0.7-1.4-2.1-2.3-3.7-2.3c-0.7,0-1.4,0.2-2,0.6l-0.9,0.6c0-0.1,0-0.2,0-0.3c-0.2-2.1-1.9-3.7-4-3.7
			c-0.8,0-1.6,0.3-2.3,0.7c-1,0.7-2,1.5-2.9,2.3l-0.4,0.3c-0.7-0.5-1.3-1-1.9-1.6c-0.1-0.2-0.1-0.4,0-0.5c0.2-0.5,0.5-1.1,0.8-1.6
			c2.9-4.9,5.9-9.8,8.8-14.6c0.1-0.2,0.3-0.3,0.5-0.3c2.2,0,4.3,0,6.5-0.2c2.1-0.2,4.5-0.4,6.8-0.6c1,0,2,0,3-0.2 M87.9,113.4
			c0.4,0,0.8,0.1,1.1,0.4c0.9,0.4,1.4,1.3,1.3,2.3c0,0.4-0.2,0.9-0.5,1.2c-1.3,1.4-2.7,2.6-4.3,3.6c-0.4,0.2-0.8,0.3-1.2,0.4
			c-1,0-1.8-0.6-2.2-1.5c-0.4-0.8-0.2-1.9,0.5-2.5c1.3-1.1,2.7-2.3,4-3.3C87,113.6,87.4,113.4,87.9,113.4 M95,116.3
			c0.5,0,0.9,0.1,1.3,0.4c0.8,0.6,1.3,1.6,1.1,2.5c-0.1,0.3-0.3,0.6-0.5,0.9c-2.1,1.8-4.3,3.7-6.5,5.5c-0.4,0.2-0.9,0.4-1.3,0.5
			c-1.4-0.1-2.4-1.2-2.3-2.6c0-0.2,0-0.3,0.1-0.5c0-0.3,0.2-0.6,0.4-0.8c2.3-1.8,4.3-3.7,6.5-5.5c0.4-0.3,0.9-0.5,1.4-0.5
			 M99.6,121.1c0.5,0,1,0.2,1.4,0.5c0.9,0.6,1.3,1.7,1,2.7c-0.1,0.3-0.2,0.5-0.5,0.7c-1.7,1.5-3.5,3-5.3,4.5
			c-0.4,0.3-0.9,0.5-1.4,0.5l0,0c-1,0-1.9-0.6-2.3-1.5c-0.4-0.9-0.1-2,0.7-2.6c1.7-1.4,3.5-2.9,5.2-4.3
			C98.7,121.4,99.2,121.2,99.6,121.1 M104.3,125.9L104.3,125.9c1.5,0,2.6,1,2.6,2.4c0,0.2,0,0.4,0,0.5c-0.1,0.4-0.2,0.7-0.5,1
			c-1.3,1.1-2.7,2.3-4.1,3.2c-0.3,0.2-0.6,0.3-1,0.3c-1.2,0-2.2-0.9-2.3-2.2c-0.1-0.8,0.2-1.6,0.9-2.1c1.1-0.9,2.3-1.8,3.2-2.7
			C103.4,126.1,103.9,125.9,104.3,125.9 M66.4,72.7v36c0,1.1,0.6,2.1,1.5,2.7l4.8,2.5l1.9,1l2,1l1.9,1l0.8-1.4l1,0.8
			c-0.8,1.2-0.9,2.7-0.4,4.1c0.7,1.7,2.3,2.8,4.1,3h0.2c0,1.1,0.4,2.2,1,3.1c0.9,1.1,2.2,1.7,3.7,1.7h0.4l0.4-0.1l0,0
			c0,0.4,0.1,0.8,0.3,1.2c0.7,1.8,2.4,3,4.4,3l0,0c0.7,0,1.4-0.1,2-0.4c0.5,2.1,2.4,3.6,4.5,3.7c0.8,0,1.6-0.3,2.3-0.7
			c1.1-0.7,2.1-1.6,3.1-2.4c0.1,0.1,0.3,0.3,0.5,0.4l1.2,0.8c1.1,0.7,2.3,1.3,3.3,2c0.6,0.3,1.3,0.5,2,0.5c1.2,0,2.4-0.5,3.2-1.4
			c0.8-0.7,1.4-1.6,1.6-2.6c0.5,0.2,1.1,0.3,1.6,0.3c0.6,0,1.2-0.1,1.7-0.3c1.7-0.6,3-2.2,3-4.1h0.5c0.8,0,1.6-0.2,2.3-0.5
			c1.5-0.8,2.5-2.3,2.5-4V123c0.8,0,1.6-0.3,2.3-0.8c1.3-1,2-2.5,1.9-4.2l0.4-0.4l1.2-1l0,0l0,0l0.3-0.3l2.5-2.3l0.6,1v0.2l0.2,0.2
			l1,1.5l1.7-0.8h0.1l0,0l0,0l2.8-1.5l5.8-3.1c0.8-0.5,1.4-1.3,1.4-2.3v-31c0-0.2,0-0.4,0-0.7v-0.2l-0.3-4.1l-3.3,2.4l-0.4,0.3l0,0
			l0,0l-4.5,3.5c-3,2.3-6,4.6-8.9,6.8l-2.7,2.1l-3.7,3.3c-0.7,0.5-1.2,1.4-1.2,2.3l0,0c-1.4,0.5-2.7,1.1-4.1,1.6
			c-0.9-0.2-1.9-0.5-2.8-0.9l-1.8-0.5c-1-0.4-2.1-0.7-3.1-1c-0.8-0.2-1.6-0.3-2.5-0.4c-1.3,0-2.7,0.4-3.8,1.1l-0.1-0.7h-2h-0.9
			c-0.7,0-1.5,0-2.3,0.2l-2.6,0.2c-1.4,0.1-2.8,0.3-4.2,0.4c-1.4,0.1-2.6,0-4,0.2h-0.9c0.1-1.1-0.5-2.1-1.5-2.7L90,90.9
			c-5.6-4.4-11.2-8.7-16.8-13.1c-0.8-0.6-1.6-1.2-2.4-1.8L70,75.3L66.4,72.7z"/>
	</g>
</g>
<g>
	<path class="st9" d="M28.4,333.7c-5,0-9.5-0.8-13.5-2.5c-4.1-1.6-7.3-4.1-9.6-7.4s-3.5-7.3-3.5-12.1c0-5.1,1.2-9.1,3.6-12.1
		s5.6-5.3,9.6-6.9s8.5-2.7,13.5-3.3l23.4-2.8c-0.7-3.9-2.5-6.8-5.3-8.5c-2.8-1.8-6.2-2.6-10.1-2.6c-3.3,0-6.7,0.6-10.2,1.7
		s-7.6,3-12.4,5.7l-6.7-15.5c4.7-3.2,9.7-5.6,14.9-7.2c5.2-1.6,10.5-2.4,15.7-2.4c11.5,0,20.3,2.4,26.5,7.3
		c6.2,4.9,9.3,12.4,9.3,22.8v44.3H53.2V324c-3,3.5-6.5,6-10.4,7.5C38.9,332.9,34.1,333.7,28.4,333.7z M34.9,317.3
		c3.7,0,6.8-0.7,9.4-2.1c2.5-1.4,4.4-3.2,5.7-5.3c1.3-2.2,1.9-4.6,1.9-7.3v-2.2l-16.4,2c-4,0.6-7,1.5-9.1,2.7c-2,1.2-3,3-3,5.3
		s1,4,3,5.1C28.5,316.7,31.3,317.3,34.9,317.3z"/>
	<path class="st9" d="M178.8,333.7c-11.1,0-20.8-2.3-29-6.9s-14.5-10.9-19-18.9c-4.4-8-6.7-17.2-6.7-27.5s2.2-19.5,6.7-27.5
		s10.8-14.3,19-18.9c8.2-4.6,17.8-6.9,28.9-6.9c6.8,0,13.2,0.9,19.1,2.7c5.9,1.8,11.7,4.7,17.4,8.6l-7.9,17.2c-5-3-9.7-5.2-14.2-6.7
		c-4.5-1.4-9.3-2.2-14.4-2.2c-6.2,0-11.7,1.4-16.6,4.2c-4.9,2.8-8.6,6.7-11.3,11.8s-4,10.9-4,17.6c0,6.6,1.3,12.4,4,17.5
		s6.4,9,11.3,11.8c4.9,2.8,10.4,4.3,16.6,4.3c5.1,0,9.9-0.7,14.4-2.2c4.5-1.4,9.3-3.7,14.2-6.7l7.9,17.2c-5.7,3.9-11.5,6.8-17.4,8.6
		C191.9,332.8,185.6,333.7,178.8,333.7z"/>
	<path class="st9" d="M230.6,332.1V228.7H275c12.7,0,22.5,2.7,29.3,8c6.9,5.3,10.3,13.4,10.3,24.2c0,8.5-2.1,15.2-6.4,20.1
		c-4.3,5-10.4,8.3-18.3,10.1l30,41h-26.6l-26.9-39h-13.3v39H230.6z M253.1,275.1h18.3c7.1,0,12.3-1.1,15.5-3.3
		c3.2-2.2,4.8-5.8,4.8-10.8c0-5.1-1.6-8.7-4.7-10.9c-3.2-2.2-8.3-3.3-15.6-3.3h-18.3L253.1,275.1L253.1,275.1z"/>
	<path class="st9" d="M330.6,332.1V228.7h35.6l24.5,74.3l24.3-74.3h35.9v103.4H428v-82.2l-27.7,82.2H381l-27.9-82.2v82.2H330.6z"/>
	<path class="st9" d="M540.9,333.7c-7.2,0-13.9-1-20.1-3.1c-6.1-2.1-12.3-5.5-18.3-10.2l8.1-17.3c5.7,3.9,11.1,6.9,16.2,9
		s9.8,3.1,14.2,3.1c6.1,0,10.8-1.2,14.1-3.5s5-5.5,5-9.5c0-2.9-1.1-5.3-3.2-7.4c-2.1-2-5.2-3.4-9.2-4.3l-14.1-2.9
		c-9.8-1.6-16.9-4.7-21.3-9.3c-4.4-4.5-6.6-10.3-6.6-17.2c0-6.2,1.3-11.9,4-17c2.7-5.2,6.9-9.3,12.5-12.3c5.7-3,13-4.6,22-4.6
		c5.9,0,11.8,0.8,17.7,2.3s11.8,4.5,17.8,8.8l-8.1,17.3c-5-3-9.7-5.4-14.2-7.2s-8.7-2.7-12.8-2.7c-5.5,0-9.5,1.1-12.2,3.2
		c-2.7,2.1-4,5-4,8.6c0,2.9,1.1,5.1,3.2,6.7c2.1,1.6,5.2,2.8,9.2,3.6l14.1,2.9c9.7,1.7,16.8,5.1,21.2,10.4s6.7,11.3,6.7,18.1
		c0,10.5-3.6,18.9-10.7,25.1C564.9,330.6,554.5,333.7,540.9,333.7z"/>
	<path class="st9" d="M634.1,333.7c-7.7,0-14.6-1.6-20.7-4.7c-6-3.1-10.8-7.6-14.2-13.3c-3.4-5.7-5.1-12.4-5.1-19.9
		c0-7.6,1.7-14.3,5.1-20c3.4-5.7,8.1-10.1,14.1-13.2s12.9-4.7,20.6-4.7c7.9,0,14.9,1.6,20.9,4.7s10.7,7.6,14.1,13.2
		c3.4,5.7,5.1,12.3,5.1,20c0,7.5-1.7,14.2-5.1,19.9c-3.4,5.7-8.1,10.2-14.1,13.3C648.8,332.1,641.9,333.7,634.1,333.7z M634.1,315.1
		c3.6,0,6.8-0.8,9.5-2.3s4.9-3.8,6.4-6.7c1.5-2.9,2.3-6.4,2.3-10.3c0-4-0.8-7.5-2.3-10.4s-3.7-5.1-6.3-6.7c-2.7-1.5-5.9-2.3-9.6-2.3
		c-3.6,0-6.8,0.8-9.5,2.3s-4.9,3.8-6.4,6.7c-1.5,2.9-2.3,6.3-2.3,10.4c0,3.9,0.8,7.4,2.3,10.3s3.7,5.2,6.3,6.7
		C627.2,314.3,630.4,315.1,634.1,315.1z"/>
	<path class="st9" d="M689.1,332.1V228.7h21.5v103.4H689.1z"/>
	<path class="st9" d="M755.5,333.7c-8.2,0-14.6-2.3-19.4-7c-4.7-4.7-7.1-11.9-7.1-21.8v-45.5h21.5v42.3c0,4.5,1,7.9,2.9,10.1
		s4.8,3.3,8.7,3.3c4.6,0,8.3-1.5,11-4.6c2.7-3,4-7.5,4-13.2v-37.9h21.5v72.8h-20.3v-8.8c-2.3,3.1-5.3,5.6-9,7.5
		C765.7,332.7,761,333.7,755.5,333.7z"/>
	<path class="st9" d="M851.3,333c-9.1,0-15.6-1.9-19.6-5.8s-6-9.9-6-18.2v-32.2h-14.9v-17.5h14.9v-20.7h21.4v20.7h17.8v17.5h-17.8
		V307c0,2.9,0.8,5,2.3,6.4s3.8,2.1,6.7,2.1c1.2,0,2.8-0.1,4.6-0.2s3.2-0.3,4.3-0.5v16.6c-1.8,0.5-3.8,0.9-6.3,1.2
		C856.2,332.9,853.8,333,851.3,333z"/>
	<path class="st9" d="M890.3,248.2c-3.8,0-6.8-1.1-9-3.3s-3.3-5.1-3.3-8.7c0-3.3,1.1-6,3.3-8.2s5.1-3.3,8.8-3.3
		c3.8,0,6.9,1.1,9.1,3.3c2.3,2.2,3.4,5,3.4,8.3c0,3.5-1.1,6.3-3.4,8.5C897,247.1,894,248.2,890.3,248.2z M879.6,332.1v-72.8h21.5
		v72.8H879.6z"/>
	<path class="st9" d="M956,333.7c-7.7,0-14.6-1.6-20.7-4.7c-6-3.1-10.8-7.6-14.2-13.3c-3.4-5.7-5.1-12.4-5.1-19.9
		c0-7.6,1.7-14.3,5.1-20c3.4-5.7,8.1-10.1,14.1-13.2s12.9-4.7,20.6-4.7c7.9,0,14.9,1.6,20.9,4.7s10.7,7.6,14.1,13.2
		c3.4,5.7,5.1,12.3,5.1,20c0,7.5-1.7,14.2-5.1,19.9c-3.4,5.7-8.1,10.2-14.1,13.3C970.7,332.1,963.8,333.7,956,333.7z M956,315.1
		c3.6,0,6.8-0.8,9.5-2.3s4.9-3.8,6.4-6.7c1.5-2.9,2.3-6.4,2.3-10.3c0-4-0.8-7.5-2.3-10.4s-3.7-5.1-6.3-6.7c-2.7-1.5-5.9-2.3-9.6-2.3
		c-3.6,0-6.8,0.8-9.5,2.3s-4.9,3.8-6.4,6.7c-1.5,2.9-2.3,6.3-2.3,10.4c0,3.9,0.8,7.4,2.3,10.3s3.7,5.2,6.3,6.7
		C949,314.3,952.3,315.1,956,315.1z"/>
	<path class="st9" d="M1010.9,332.1v-72.8h20.3v8.8c2.3-3.1,5.3-5.6,9-7.5s8.4-2.9,13.9-2.9c8.2,0,14.6,2.3,19.4,7
		c4.7,4.7,7.1,11.9,7.1,21.8V332h-21.5v-42.3c0-4.5-1-7.9-2.9-10.1s-4.8-3.3-8.7-3.3c-4.6,0-8.3,1.5-11,4.6c-2.7,3-4,7.5-4,13.2V332
		L1010.9,332.1L1010.9,332.1z"/>
</g>
</svg>
