<svg xmlns="http://www.w3.org/2000/svg" width="406.28" height="130.92" viewBox="0 0 406.28 130.92"><g id="Layer_2" data-name="Layer 2"><g id="Layer_1-2" data-name="Layer 1"><path d="M0,116.38,7.2,82.5H17.49l-5.28,24.83h14.6c2.34,0,4-1.51,4.6-4.46l4.11-19.34A6.55,6.55,0,0,0,35.73,82c0-1.92-1-2.88-2.95-2.88H7.89L9.81,70H36.62c6.79,0,10.15,2.81,10.15,8.23a18.1,18.1,0,0,1-.41,3.63l-4.87,22.7c-1.65,7.75-6.51,11.87-14.68,11.87Z" fill="#d92525"/><path d="M61,130.92l1.78-8.3H85.93c1.51,0,2-.48,2.33-2L94.77,90h-15c-1.5,0-2,.48-2.26,1.93l-3.15,14.81a3.28,3.28,0,0,0-.07.75c0,.83.41,1.1,1.58,1.1H87.44l-1.65,7.82H69.33c-3.84,0-5.42-1.3-5.42-4.12a14,14,0,0,1,.35-2.67l4.46-21.12c1-4.67,3-6.79,8-6.79h29.49l-9,42.45c-1,4.66-3,6.79-8,6.79Z" fill="#d92525"/><path d="M182.72,116.88l-.91-13.72H150.7l-6.79,13.72H123.57l46.51-89.46h26.77l6.87,89.46Zm-1.63-29.36-2.59-40-20.24,40Z" fill="#0bb23a"/><path d="M196.39,27.92l6.79,88.46h-20l-.92-13.72H150.39l-6.79,13.72H124.39l46-88.46h26M157.45,88h24.17l-2.74-42.33L157.45,88m39.86-61.1H169.78l-.28.53-46,88.47-.76,1.46h21.48l.27-.56L151,103.66h30.33l.85,12.78.06.94h22l-.08-1.08-6.8-88.46-.07-.92ZM159.08,87l19-37.62L180.55,87Z" fill="#fff"/><path d="M225.13,116.88c-8.9,0-13-3.19-13-10a26.69,26.69,0,0,1,.8-6L225,43.23c2.39-11.23,7.83-15.81,18.78-15.81h55.24l-3.87,18.64h-46.4c-3.17,0-4,.78-4.74,4.43L234.5,95.57a11.62,11.62,0,0,0-.25,1.6c0,1.07.2,1.72,3,1.72h28l4.1-19.12H251.82L255,64.52h37.08l-11.05,52.36Z" fill="#0bb23a"/><path d="M298.43,27.92l-3.66,17.64h-46c-3.4,0-4.45.91-5.23,4.83L234,95.47a10.91,10.91,0,0,0-.26,1.7c0,1.7.91,2.22,3.53,2.22h28.35L270,79.27H252.44l3-14.24h36.07l-10.85,51.35H225.13c-8.89,0-12.55-3.14-12.55-9.54a25.67,25.67,0,0,1,.79-5.88l12.15-57.63c2.22-10.45,7-15.41,18.29-15.41h54.62m1.23-1H243.81c-11.24,0-16.82,4.69-19.27,16.21l-12.15,57.62a27.34,27.34,0,0,0-.81,6.09c0,7.19,4.31,10.54,13.55,10.54h56.34l.17-.8,10.84-51.35.26-1.2H254.63l-.17.79-3,14.24-.26,1.21h17.51l-3.88,18.12H237.28c-2.53,0-2.53-.46-2.53-1.22a11.45,11.45,0,0,1,.24-1.5l9.54-45.07c.73-3.65,1.5-4,4.25-4h46.81l.16-.8,3.66-17.64.25-1.2Z" fill="#fff"/><polygon points="369.41 116.88 380.31 65.42 348.88 116.88 332.64 116.88 322.45 65.17 311.5 116.88 294.02 116.88 312.91 27.41 335.16 27.41 346.5 88.1 384.12 27.41 405.67 27.41 386.77 116.88 369.41 116.88" fill="#0bb23a"/><path d="M405.05,27.92l-18.69,88.46H370L381.4,62.67l-32.8,53.71H333.05L322.47,62.67,311.1,116.38H294.63l18.69-88.46h21.43l11.5,61.54L384.4,27.92h20.65m1.23-1H383.85l-.3.47L346.76,86.74l-11-59-.15-.81H312.51l-.17.79-18.68,88.46-.26,1.21h18.51l.17-.8,10.35-48.91,9.64,48.9.16.81h16.93l.29-.48,29.76-48.73-10.16,48-.25,1.21h18.37l.17-.8L406,28.12l.25-1.2Z" fill="#fff"/><path d="M142,0H33.51a5.32,5.32,0,0,0-4.83,3.8L14.28,57.55a2.82,2.82,0,0,0,2.79,3.8H125.53a5.31,5.31,0,0,0,4.82-3.8L144.75,3.8A2.82,2.82,0,0,0,142,0ZM71.08,57.3H19.15l6.54-24.43H77.62ZM78.8,28.47H26.87L33.42,4H85.35ZM125.62,57.3H76.5L83,32.87h49.12Zm7.72-28.83H84.22L90.77,4h49.12Z" fill="#d92525"/><path d="M64.27,26.28a2.34,2.34,0,0,0-.85-.94c-1.09-.71-4.4-.94-5.45-1.93a9.37,9.37,0,0,1-.48-1.36A14.49,14.49,0,0,0,59.61,20l1.72-2s0,0,0,0A3.06,3.06,0,0,0,62,16.51a.54.54,0,0,0-.4-.58c.53-1.83,1.37-3.68.47-5.18A4.19,4.19,0,0,0,58.61,9a6.63,6.63,0,0,0-5.77,3.13,6.94,6.94,0,0,0-.32.68c-.2.66-.4,1.41-.56,2.12l-.24-.44h0l.48-1.76a4.38,4.38,0,0,1,.88-1.62A7.4,7.4,0,0,1,58.8,8.39a4.46,4.46,0,0,1,3.3,1.3,3.12,3.12,0,0,1,.74,1.5A3.8,3.8,0,0,1,62.79,13l-.41,1.52a.29.29,0,0,0,.29.39.53.53,0,0,0,.49-.39L63.57,13a4.54,4.54,0,0,0,.06-2.1,3.72,3.72,0,0,0-.88-1.76A5,5,0,0,0,59,7.62,8.23,8.23,0,0,0,54.42,9a8.44,8.44,0,0,0-2,1.74,5.31,5.31,0,0,0-1.07,2l-.5,1.85a.59.59,0,0,0,0,.13,1.16,1.16,0,0,0-.73.77c-.36.87-.17,2.7.58,3a.85.85,0,0,0,.22,0l.59,1.64a9.3,9.3,0,0,0,.62,1.45L51,23.42c-1.58,1-5,1.22-6.49,1.94a4.82,4.82,0,0,0-1.34.93,5.91,5.91,0,0,0-1.66,2.18H64.75A3.37,3.37,0,0,0,64.27,26.28ZM52.13,19.8l-.41-1.14a5.08,5.08,0,0,0,1.9,1.51c.48.17,1.94.59,2.45.09.25-.24.37-.71.18-.91a1.73,1.73,0,0,0-1.56,0,1.62,1.62,0,0,0-.32.32,4.2,4.2,0,0,1-2.2-1.7.89.89,0,0,0,.06-.38l-.12-1.25h.14a2.07,2.07,0,0,0,.36,0l.33-2.11c3.54-1.32,5.19.91,8.32.44l-.89,1.8a1.83,1.83,0,0,0,.33,0h.39c.22,0,.34.07.33.19a2.25,2.25,0,0,1-.53,1l-1.7,1.95a14.24,14.24,0,0,1-2,2,3.86,3.86,0,0,1-2.36.85,2.23,2.23,0,0,1-1.8-.82A6.41,6.41,0,0,1,52.13,19.8Zm3,7.67-.41-2c2.1-2.19-2.15-2.32-1.3,0l-1.45,2-.76-3.39a13,13,0,0,0,1.31-2c.86,1.18,2.81,1.42,4.44.41a14.47,14.47,0,0,0,.63,1.63Z" fill="#2477bf" fill-rule="evenodd"/><path d="M119.91,26.28a2.49,2.49,0,0,0-.85-.94c-1.1-.71-4.41-.94-5.45-1.93a8.31,8.31,0,0,1-.48-1.36,14,14,0,0,0,2.11-2.1L117,18l0,0a3.06,3.06,0,0,0,.68-1.43.54.54,0,0,0-.41-.58c.54-1.83,1.37-3.68.48-5.18A4.21,4.21,0,0,0,114.24,9a6.62,6.62,0,0,0-5.76,3.13,5.21,5.21,0,0,0-.32.68c-.2.66-.4,1.41-.56,2.12l-.25-.44h0l.48-1.76a4.38,4.38,0,0,1,.88-1.62,7.72,7.72,0,0,1,1.68-1.51,7.36,7.36,0,0,1,4.05-1.22,4.43,4.43,0,0,1,3.3,1.3,3.14,3.14,0,0,1,.75,1.5,3.8,3.8,0,0,1,0,1.77L118,14.48a.29.29,0,0,0,.29.39.53.53,0,0,0,.49-.39l.4-1.52a4.54,4.54,0,0,0,.06-2.1,3.7,3.7,0,0,0-.87-1.76,5,5,0,0,0-3.75-1.48A8.28,8.28,0,0,0,110.05,9a8.6,8.6,0,0,0-1.94,1.74,5.34,5.34,0,0,0-1.08,2l-.5,1.85a.57.57,0,0,0,0,.13,1.18,1.18,0,0,0-.74.77c-.36.87-.17,2.7.59,3a.72.72,0,0,0,.22,0l.59,1.64a8.44,8.44,0,0,0,.62,1.45l-1.14,1.84c-1.57,1-5,1.22-6.48,1.94a4.82,4.82,0,0,0-1.34.93,5.91,5.91,0,0,0-1.66,2.18h23.2A3.37,3.37,0,0,0,119.91,26.28ZM107.76,19.8l-.4-1.14a5,5,0,0,0,1.9,1.51c.47.17,1.93.59,2.44.09.26-.24.37-.71.19-.91a1.73,1.73,0,0,0-1.56,0,1.44,1.44,0,0,0-.33.32,4.14,4.14,0,0,1-2.19-1.7.9.9,0,0,0,0-.38l-.11-1.25h.13a2.22,2.22,0,0,0,.37,0l.32-2.11c3.54-1.32,5.19.91,8.32.44l-.89,1.8a1.83,1.83,0,0,0,.33,0h.4c.21,0,.33.07.33.19a2.48,2.48,0,0,1-.53,1l-1.7,1.95a14.3,14.3,0,0,1-2,2,3.84,3.84,0,0,1-2.36.85,2.22,2.22,0,0,1-1.79-.82A6.43,6.43,0,0,1,107.76,19.8Zm3,7.67-.41-2c2.1-2.19-2.15-2.32-1.3,0l-1.45,2-.75-3.39a13.69,13.69,0,0,0,1.3-2c.86,1.18,2.81,1.42,4.44.41a12.83,12.83,0,0,0,.64,1.63Z" fill="#72539b" fill-rule="evenodd"/><path d="M112.19,55.1a2.55,2.55,0,0,0-.85-.93c-1.1-.71-4.41-.94-5.46-1.93a9.65,9.65,0,0,1-.47-1.36,14.51,14.51,0,0,0,2.11-2.11l1.73-2,0,0a2.88,2.88,0,0,0,.67-1.43.53.53,0,0,0-.4-.57c.54-1.83,1.37-3.69.48-5.19a4.25,4.25,0,0,0-3.52-1.73A6.63,6.63,0,0,0,100.75,41a4.19,4.19,0,0,0-.31.69c-.21.66-.41,1.41-.57,2.11l-.24-.44h0l.47-1.77a4.49,4.49,0,0,1,.89-1.62,7.47,7.47,0,0,1,1.68-1.5,7.25,7.25,0,0,1,4-1.22,4.44,4.44,0,0,1,3.3,1.29,3.36,3.36,0,0,1,.75,1.51,3.8,3.8,0,0,1-.06,1.77l-.4,1.52a.28.28,0,0,0,.28.39.54.54,0,0,0,.5-.39l.39-1.52a4.41,4.41,0,0,0,.06-2.1,3.72,3.72,0,0,0-.86-1.77,5.11,5.11,0,0,0-3.75-1.48,8.42,8.42,0,0,0-4.6,1.39,8.8,8.8,0,0,0-1.93,1.74,5.55,5.55,0,0,0-1.09,2l-.49,1.85a.25.25,0,0,0,0,.12,1.22,1.22,0,0,0-.74.78c-.36.86-.17,2.69.59,3a.79.79,0,0,0,.22,0L99.45,49a9,9,0,0,0,.63,1.45l-1.14,1.85c-1.58,1-5,1.22-6.48,1.93a4.84,4.84,0,0,0-1.35.94,6,6,0,0,0-1.65,2.18h23.2A3.4,3.4,0,0,0,112.19,55.1ZM100,48.62l-.41-1.13a5.13,5.13,0,0,0,1.9,1.5c.47.18,1.93.6,2.45.09.25-.24.37-.7.18-.91a1.71,1.71,0,0,0-1.55,0,1,1,0,0,0-.33.31,4,4,0,0,1-2.19-1.7.88.88,0,0,0,0-.37L100,45.15l.14,0a2.06,2.06,0,0,0,.36,0l.33-2.12c3.53-1.31,5.18.92,8.32.45l-.89,1.79a1.13,1.13,0,0,0,.32,0h.4c.22,0,.34.07.33.19a2.4,2.4,0,0,1-.52,1l-1.7,2a13.33,13.33,0,0,1-2,2,3.79,3.79,0,0,1-2.35.85,2.22,2.22,0,0,1-1.8-.81A6.47,6.47,0,0,1,100,48.62Zm3,7.67-.41-2c2.1-2.18-2.16-2.32-1.3,0l-1.45,2-.75-3.39a14.75,14.75,0,0,0,1.3-2c.86,1.17,2.81,1.41,4.44.41a10.92,10.92,0,0,0,.64,1.62Z" fill="#00e5a6" fill-rule="evenodd"/><path d="M56.24,55.1a2.39,2.39,0,0,0-.85-.93c-1.09-.71-4.4-.94-5.45-1.93a9.81,9.81,0,0,1-.48-1.36,14.57,14.57,0,0,0,2.12-2.11l1.73-2s0,0,0,0A2.88,2.88,0,0,0,54,45.33a.53.53,0,0,0-.39-.57c.53-1.83,1.37-3.69.47-5.19a4.22,4.22,0,0,0-3.51-1.73A6.64,6.64,0,0,0,44.8,41a7,7,0,0,0-.31.69c-.21.66-.41,1.41-.57,2.11l-.23-.44h0l.47-1.77A4.49,4.49,0,0,1,45,39.94a7.43,7.43,0,0,1,1.67-1.5,7.28,7.28,0,0,1,4.06-1.22,4.47,4.47,0,0,1,3.3,1.29A3.35,3.35,0,0,1,54.81,40a3.8,3.8,0,0,1-.05,1.77l-.41,1.52a.29.29,0,0,0,.29.39.55.55,0,0,0,.5-.39l.39-1.52a4.41,4.41,0,0,0,.06-2.1,3.74,3.74,0,0,0-.87-1.77A5.09,5.09,0,0,0,51,36.44a8.39,8.39,0,0,0-4.59,1.39,8.58,8.58,0,0,0-1.93,1.74,5.41,5.41,0,0,0-1.09,2l-.49,1.85a.17.17,0,0,0,0,.12,1.19,1.19,0,0,0-.74.78c-.36.86-.17,2.69.58,3a1,1,0,0,0,.22,0L43.5,49a9.92,9.92,0,0,0,.63,1.45L43,52.25c-1.59,1-5,1.22-6.49,1.93a4.84,4.84,0,0,0-1.35.94,6,6,0,0,0-1.65,2.18H56.72A3.4,3.4,0,0,0,56.24,55.1ZM44.1,48.62l-.42-1.13a5.22,5.22,0,0,0,1.9,1.5c.48.18,1.94.6,2.46.09.24-.24.37-.7.17-.91a1.71,1.71,0,0,0-1.55,0,1.05,1.05,0,0,0-.32.31,4,4,0,0,1-2.19-1.7h0a.92.92,0,0,0,.06-.38l-.13-1.25.15,0a1.89,1.89,0,0,0,.35,0L44.91,43c3.53-1.31,5.18.92,8.32.45l-.89,1.79a1.13,1.13,0,0,0,.32,0h.4c.22,0,.34.07.33.19a2.4,2.4,0,0,1-.52,1l-1.71,2a13.28,13.28,0,0,1-2,2,3.79,3.79,0,0,1-2.35.85A2.23,2.23,0,0,1,45,50.48,6.45,6.45,0,0,1,44.1,48.62Zm3,7.67-.41-2c2.1-2.18-2.16-2.32-1.3,0l-1.45,2-.76-3.39a13.9,13.9,0,0,0,1.31-2c.86,1.17,2.81,1.41,4.44.41a12.1,12.1,0,0,0,.63,1.62Z" fill="#f2b705" fill-rule="evenodd"/><path d="M60,80.93a7.91,7.91,0,0,0,5.85-4.36,4.88,4.88,0,0,0-.16-5,4.34,4.34,0,0,0-4-1.62A7.86,7.86,0,0,0,56,73.65a5.23,5.23,0,0,0-.35,5.51A4.26,4.26,0,0,0,60,80.93Z" fill="#d92525"/><path d="M67.45,84.65c-1.89-.37-3.75-.81-5.64-1.19-1.54,1.63-5.8,1.66-6.43,0-2.11.39-4.21.8-6.31,1.21-1.22,4.49-2.41,9-3.62,13.48.56.57,1.15,1.12,1.72,1.68l3.58-9.66s-1.84,8.9-3.24,16.26c-.4,2.57-.82,5.14-1.23,7.71a9.78,9.78,0,0,1-.22,1.85,19.25,19.25,0,0,0,7.64,0c1.51-3.82,2.93-7.66,4.37-11.5,2.37-6.89,4.82-14.33,4.82-14.33l-1.6,9.62,2.55-1.64Q65.66,91.4,67.45,84.65Z" fill="#d92525"/><path d="M121.8,80.93a7.91,7.91,0,0,0,5.85-4.36,4.9,4.9,0,0,0-.16-5,4.34,4.34,0,0,0-4-1.62,7.86,7.86,0,0,0-5.67,3.68,5.23,5.23,0,0,0-.35,5.51A4.26,4.26,0,0,0,121.8,80.93Z" fill="#d92525"/><path d="M123.1,99.79l1.6-9.63s-1.42,4.32-3.15,9.43l.21.68,3.15,10.18h-7.27q-1,2.79-2.13,5.55a19.43,19.43,0,0,1-7.64,0,9.81,9.81,0,0,0,.22-1.86c.2-1.23.39-2.46.59-3.68h-7.27l8.6-10.18.66-.78c1-4.83,1.81-8.94,1.88-9.3L109,99.83c-.57-.56-1.16-1.11-1.72-1.69,1.21-4.49,2.4-9,3.62-13.48q3.15-.61,6.31-1.2c.63,1.66,4.89,1.62,6.43,0,1.89.38,3.75.81,5.64,1.18q-1.78,6.77-3.61,13.5Z" fill="#d92525"/></g></g></svg>