<?xml version="1.0" encoding="utf-8"?>
<!-- Generator: Adobe Illustrator 27.6.1, SVG Export Plug-In . SVG Version: 6.00 Build 0)  -->
<svg version="1.1" id="Layer_1" xmlns="http://www.w3.org/2000/svg" xmlns:xlink="http://www.w3.org/1999/xlink" x="0px" y="0px"
	 width="281.7px" height="98.2px" viewBox="0 0 281.7 98.2" style="enable-background:new 0 0 281.7 98.2;" xml:space="preserve">
<style type="text/css">
	.st0{fill:#08A039;}
	.st1{fill:#FFFFFF;}
	.st2{fill:#FF3600;}
	.st3{fill:#006A99;}
</style>
<path class="st0" d="M22.3,59.6c-3.9,0.1-7.8-0.6-11.4-2.1c-3.1-1.3-5.8-3.4-7.7-6.2c-1.9-3-2.9-6.5-2.8-10.1V12.6h12.9v27
	c0,6,3,9,8.9,9c2.4,0.2,4.7-0.6,6.6-2.2c1.5-1.5,2.3-3.7,2.3-6.8v-27H44v28.5c0.1,3.6-0.8,7.1-2.7,10.1c-1.9,2.8-4.5,4.9-7.7,6.2
	C30.1,59,26.2,59.7,22.3,59.6z"/>
<path class="st1" d="M43.6,13v28.2c0.1,3.5-0.8,6.9-2.7,9.9c-1.9,2.7-4.5,4.8-7.5,6.1c-3.6,1.5-7.4,2.2-11.3,2.1
	c-3.9,0.1-7.7-0.6-11.2-2.1c-3-1.3-5.6-3.4-7.5-6.1c-1.9-2.9-2.9-6.4-2.7-9.9V13h12.2v26.7c0,6.1,3.2,9.4,9.3,9.4
	c2.5,0.2,4.9-0.7,6.8-2.3c1.6-1.6,2.4-3.9,2.4-7.1V13H43.6 M44.4,12.2H30.7v27.5c0,2.9-0.7,5.1-2.2,6.5c-1.7,1.5-4,2.3-6.3,2.1
	c-5.7,0-8.5-2.8-8.5-8.6V12.2H0v28.9c-0.1,3.7,0.9,7.3,2.8,10.3c1.9,2.8,4.7,5,7.8,6.3c3.7,1.5,7.6,2.2,11.6,2.2
	c4,0.1,7.9-0.7,11.6-2.2c3.2-1.3,5.9-3.5,7.8-6.3c1.9-3.1,2.9-6.7,2.8-10.3V12.2L44.4,12.2z"/>
<path class="st0" d="M55.2,58.9l14-8.8h4.2c1.6,0.1,3.1-0.3,4.4-1.3c1.1-1.1,1.6-2.6,1.4-4.1c0-0.3,0-0.5-0.1-0.8l10.1-6.3
	c0.5,0.4,1,0.9,1.4,1.5c1.1,1.4,1.7,3.5,1.7,6.4c0,4.3-1.3,7.7-3.9,10S81.9,59,77.1,59L55.2,58.9z M51.1,12.6h25.4
	c4.7,0,8.2,1.1,10.6,3.3s3.6,5.3,3.6,9.3c0.1,2.1-0.4,4.1-1.3,5.9c-0.6,1.1-1.4,2.1-2.4,3l0,0l-10,6.3c-1.2-0.6-2.5-0.8-3.8-0.8
	h-9.6v9l-12.4,7.7L51.1,12.6L51.1,12.6z M63.5,31.4h9.3c3.6,0,5.4-1.7,5.4-4.9c0.1-1.4-0.4-2.7-1.3-3.7c-0.9-0.9-2.4-1.3-4.5-1.3
	h-8.9V31.4z"/>
<path class="st1" d="M76.5,13c4.6,0,8,1.1,10.4,3.2s3.5,5.1,3.5,9c0.1,2-0.4,4-1.2,5.8c-0.6,1.1-1.4,2.1-2.3,2.9l0,0l-10,6.1
	c-1.2-0.5-2.5-0.7-3.8-0.7h-10v9.2l-11.6,7.1V13H76.5 M63.1,31.8h9.7c4.9,0,5.9-2.9,5.9-5.3c0.1-1.5-0.4-2.9-1.4-4
	c-1-0.9-2.6-1.4-4.7-1.4h-9.4L63.1,31.8 M89.2,38c0.4,0.4,0.8,0.8,1.2,1.2c1.1,1.3,1.6,3.4,1.6,6.1c0,4.2-1.3,7.4-3.8,9.7
	s-6.3,3.4-11.1,3.4H56.6l12.7-8h4.1c1.7,0.1,3.3-0.4,4.6-1.4c1.2-1.2,1.7-2.8,1.6-4.4c0-0.2,0-0.4,0-0.6L89.2,38 M76.5,12.2H50.7V57
	l13.2-8.1v-8.8h9.2c1.3-0.1,2.7,0.2,3.8,0.8l10.3-6.3h0.1c1-0.9,1.8-2,2.5-3.2c0.9-1.9,1.4-4,1.3-6.1c0-4.2-1.2-7.4-3.7-9.6
	S81.3,12.3,76.5,12.2L76.5,12.2z M63.9,31v-9.1h8.5c2,0,3.4,0.4,4.2,1.2c0.8,0.9,1.3,2.2,1.2,3.4c0,3-1.7,4.5-5,4.5H63.9z M89.3,37
	l-10.6,6.7c0.1,0.3,0.1,0.7,0.1,1c0.1,1.4-0.3,2.8-1.3,3.8c-1.2,0.9-2.6,1.3-4.1,1.2h-4.3l-15.2,9.5h23.3c5,0,8.9-1.2,11.6-3.6
	s4.1-5.9,4.1-10.3c0-2.9-0.6-5.1-1.8-6.6C90.5,38.1,89.9,37.5,89.3,37L89.3,37z"/>
<path class="st2" d="M98.3,58.9V39.7l12.9,9.8v9.3L98.3,58.9z M98.3,34.7v-9.6h12.5l0.4,3l0.5-0.3c1.7-0.9,3.5-1.7,5.3-2.2
	c2-0.6,4-1,6.1-1.2v9.4c-1.1,0.1-2.3,0.3-3.8,0.5s-2.8,0.5-4.3,0.9c-1.2,0.3-2.4,0.7-3.6,1.2l-0.2,0.1v8L98.3,34.7z"/>
<path class="st1" d="M122.7,24.8v8.7c-1,0.1-2.2,0.2-3.5,0.4s-2.8,0.5-4.4,0.9c-1.2,0.3-2.4,0.7-3.6,1.3l-0.4,0.2v7.5l-12.1-9.3
	v-9.1h11.7l0.3,2.1l0.1,1.2l1-0.6c1.7-0.9,3.4-1.6,5.3-2.2C118.9,25.3,120.8,25,122.7,24.8 M98.7,40.5l12.1,9.3v8.8H98.7V40.5
	 M123.5,23.9c-2.3,0.2-4.5,0.6-6.6,1.2c-1.9,0.6-3.7,1.3-5.4,2.3l-0.3-2.8H97.9v10.2l13.7,10.5v-8.6c1.1-0.5,2.3-0.9,3.5-1.2
	c1.4-0.3,2.8-0.7,4.3-0.9s2.9-0.4,4.1-0.5V23.9L123.5,23.9z M97.9,38.9v20.3h13.7v-9.9L97.9,38.9L97.9,38.9z"/>
<path class="st3" d="M125.1,45.6c-0.2-1.2-0.3-2.4-0.2-3.7c0-5.7,1.6-10.1,4.8-13.1s8.2-4.6,15-4.6c3.5-0.1,6.9,0.5,10.2,1.6
	L125.1,45.6z"/>
<path class="st1" d="M144.6,24.7c3.2-0.1,6.3,0.4,9.3,1.3l-28.6,19c-0.1-1-0.2-2-0.2-3c0-5.6,1.6-9.9,4.7-12.8
	C133.1,26.3,138,24.7,144.6,24.7 M144.6,23.9c-6.9,0-11.9,1.6-15.2,4.7s-5,7.5-5,13.4c0,1.4,0.1,2.9,0.3,4.3l30.9-20.5
	C152.1,24.4,148.4,23.8,144.6,23.9L144.6,23.9z"/>
<path class="st3" d="M144.6,59.6c-6.8,0-11.8-1.5-15-4.5c-0.2-0.2-0.4-0.4-0.6-0.6c-1.3-1.4-2.3-3-2.9-4.8L158.7,28
	c0.4,0.3,0.7,0.6,1,0.9c3.2,3,4.9,7.4,4.9,13.1c0,5.5-1.4,9.6-4.3,12.5c-0.2,0.2-0.4,0.4-0.6,0.6C156.6,58.1,151.5,59.6,144.6,59.6z
	"/>
<path class="st1" d="M158.7,28.5c0.3,0.2,0.5,0.4,0.8,0.7c3.1,2.9,4.8,7.2,4.8,12.8c0,5.3-1.4,9.4-4.2,12.2l0,0l0,0
	c-0.1,0.2-0.3,0.4-0.5,0.5c-3.1,2.9-8.1,4.4-14.9,4.4s-11.6-1.5-14.8-4.4c-0.2-0.2-0.4-0.4-0.6-0.6l0,0l0,0
	c-1.2-1.3-2.1-2.7-2.7-4.3L158.7,28.5 M158.8,27.5l-33.1,22c0.6,1.9,1.7,3.7,3.1,5.2c0.2,0.3,0.4,0.5,0.7,0.7
	c3.2,3.1,8.3,4.7,15.2,4.7s12.1-1.5,15.4-4.6c0.2-0.2,0.4-0.4,0.6-0.6c2.9-3,4.4-7.3,4.4-12.8c0-5.8-1.7-10.3-5-13.4
	C159.6,28.2,159.2,27.9,158.8,27.5L158.8,27.5z"/>
<path class="st2" d="M195.4,58.9l-8.7-13l-3.3,3.3V59h-12.9V34.5l10.4,9l1.1,0.9l1.2-0.7l15.6-8.7l-4,4.2l14.3,19.6L195.4,58.9z
	 M170.5,29.3V10.4h12.9v24.9l10.2-10.2h14.5l-0.4,0.4l-25.3,14.1L170.5,29.3z"/>
<path class="st1" d="M183.1,10.8v25.4l1.3-1.3l9.4-9.5H207l-24.5,13.7l-11.6-10V10.8H183.1 M170.9,35.3l9.8,8.4l0.8,0.7l0.4,0.3
	l0.5-0.3l0.9-0.5l13.4-7.4l-2,2.2l-0.4,0.5l0.4,0.5l13.7,18.8h-12.7L187.3,46l-0.5-0.8l-0.7,0.7l-2.9,2.8l-0.2,0.2v9.5h-12.1
	L170.9,35.3 M183.8,10.1h-13.7v19.4l12.3,10.6L208,25.8l1.1-1.1h-15.5l-9.6,9.7C183.8,34.4,183.8,10.1,183.8,10.1z M200.8,33.4
	L183,43.3l-0.9,0.5l-0.8-0.7l-11.1-9.5v25.6h13.7v-10l2.8-2.8l8.6,12.8h14.6l-14.6-20L200.8,33.4L200.8,33.4z"/>
<path class="st0" d="M250.5,58.9V25.1H263l0.4,3l0.5-0.3c1.7-0.9,3.5-1.7,5.3-2.2c2-0.6,4-1,6.1-1.2v9.4c-1.2,0.1-2.5,0.3-3.8,0.5
	s-3,0.5-4.3,0.9c-1.2,0.3-2.4,0.7-3.6,1.2l-0.2,0.1v22.3h-12.9V58.9z"/>
<path class="st1" d="M274.9,24.8v8.7c-1.1,0.1-2.2,0.2-3.5,0.5c-1.5,0.2-3,0.6-4.4,0.9c-1.2,0.3-2.4,0.7-3.6,1.2l-0.4,0.2v22.2
	h-12.2v-33h11.7l0.3,2.1l0.1,1.2l1-0.6c1.7-0.9,3.4-1.7,5.2-2.2C271.1,25.4,273,25,274.9,24.8 M275.7,24c-2.3,0.1-4.5,0.6-6.6,1.2
	c-1.9,0.6-3.7,1.3-5.4,2.3l-0.4-2.8h-13.2v34.6h13.7V36.8c1.1-0.5,2.3-0.9,3.5-1.2c1.4-0.4,2.9-0.7,4.3-0.9c1.5-0.2,2.9-0.4,4.1-0.5
	V24L275.7,24z"/>
<path class="st0" d="M228.9,59.6c-3.6,0.1-7.2-0.6-10.5-2c-2.9-1.2-5.4-3.2-7.1-5.9c-1.4-2.3-2.3-5-2.4-7.8c-0.1-0.7-0.1-1.3-0.1-2
	c0-0.6,0-1.2,0.1-1.8c0-0.3,0.1-0.5,0.1-0.8c0.2-3.8,1.8-7.5,4.4-10.3c0.6-0.6,1.3-1.2,2-1.7L222,34c-1,1.3-1.4,2.9-1.3,4.5V39h12.9
	v-1.6c0-0.6-0.1-1.2-0.3-1.8c-0.1-0.4-0.3-0.7-0.5-1l8-5.1l0.1,0.1c2.6,2.9,3.9,6.6,3.8,10.5v5.6h-24.2l0.2,0.5
	c0.6,1.9,2.1,3.4,3.9,4.2c2.5,0.9,5.1,1.3,7.7,1.2c2,0,4.1-0.2,6.1-0.5c1.5-0.2,3-0.6,4.4-1.1v7.4C239.4,58.8,234.7,59.6,228.9,59.6
	z"/>
<path class="st1" d="M215.2,28l6.2,6.2c-0.9,1.3-1.3,2.9-1.2,4.5v0.8h13.7v-2c0-0.7-0.1-1.4-0.3-2c-0.1-0.2-0.2-0.5-0.3-0.7l7.4-4.7
	c2.4,2.8,3.6,6.3,3.5,10v5.2h-24.3l0.4,1c0.7,2,2.2,3.6,4.2,4.4c2.5,0.9,5.2,1.3,7.8,1.2c3.4,0,6.8-0.5,10.1-1.5V57
	c-3.3,1.4-7.8,2.1-13.4,2.1c-3.6,0.1-7.1-0.6-10.4-2c-2.8-1.1-5.2-3.1-6.9-5.6c-1.4-2.3-2.2-4.9-2.4-7.5c-0.1-0.7-0.1-1.3-0.1-2
	c0-0.6,0-1.1,0.1-1.7c0-0.3,0-0.6,0.1-0.8c0.2-3.8,1.8-7.3,4.3-10.1C214.1,28.9,214.6,28.4,215.2,28 M215.3,27
	c-0.8,0.6-1.6,1.2-2.3,1.9c-2.7,2.9-4.3,6.6-4.5,10.6c-0.1,0.8-0.2,1.7-0.2,2.6c0,0.7,0.1,1.4,0.1,2c0.2,2.8,1,5.5,2.5,7.9
	c1.7,2.7,4.3,4.8,7.2,6c3.4,1.4,7,2.1,10.7,2c6.1,0,10.8-0.8,14.2-2.4v-8.3c-1.6,0.6-3.2,1-4.9,1.3c-2,0.4-4,0.5-6,0.5
	c-2.6,0.1-5.1-0.3-7.5-1.2c-1.8-0.7-3.1-2.2-3.7-4h24v-6c0.2-3.9-1.2-7.7-3.8-10.7c-0.1-0.1-0.2-0.2-0.3-0.4l-8.7,5.5
	c0.3,0.4,0.5,0.8,0.7,1.2c0.2,0.5,0.3,1.1,0.3,1.7v1.2H221c-0.1-1.6,0.4-3.2,1.4-4.4l0.1-0.1L215.3,27L215.3,27z"/>
<path class="st0" d="M228.9,32.4c-0.5-0.1-1-0.1-1.5-0.1c-0.6,0-1.1,0-1.7,0.1l-6.8-6.8c2.6-0.9,5.3-1.3,8-1.3
	c3.7-0.1,7.4,0.8,10.6,2.6L228.9,32.4z"/>
<path class="st1" d="M227,24.7c3.4-0.1,6.8,0.7,9.9,2.2l-8,5c-0.5-0.1-1-0.1-1.4-0.1c-0.5,0-1,0-1.5,0.1l-6.2-6.2
	C222,25,224.5,24.7,227,24.7 M226.9,23.9c-3-0.1-5.9,0.4-8.7,1.5l7.4,7.4c0.6-0.1,1.2-0.1,1.8-0.1c0.5,0,1.1,0,1.6,0.1l0,0l9.3-5.9
	C234.9,24.8,231,23.8,226.9,23.9L226.9,23.9z"/>
<path class="st3" d="M241,28.5c-0.1-0.2-0.3-0.4-0.5-0.5c-0.4-0.3-0.8-0.6-1.2-0.9l-0.3-0.2l36.4-23l-2.1-3.4l7.9,1.4l-2.3,7.3
	l-2.1-3.4L241,28.5z"/>
<path class="st1" d="M274.1,1.1l6.5,1.2l-1.9,6.1L277.2,6l-0.4-0.7l-0.7,0.4L241,28l-0.3-0.3c-0.3-0.3-0.6-0.5-1-0.7l35.6-22.5
	l0.7-0.4l-0.4-0.7L274.1,1.1 M272.5,0l2.4,3.8l-36.6,23.1c0.2,0.1,0.3,0.2,0.5,0.3c0.5,0.3,1,0.6,1.4,1c0.2,0.2,0.5,0.5,0.7,0.8
	l35.7-22.6l2.4,3.8l2.7-8.6L272.5,0z"/>
<path class="st1" d="M136,44.5h2.7c0.5,0,0.9,0.4,0.9,0.9v6.8c0,0.5-0.4,0.9-0.9,0.9H136c-0.5,0-0.9-0.4-0.9-0.9v-6.8
	C135.1,44.9,135.5,44.5,136,44.5z"/>
<path class="st1" d="M143.4,40.2h2.7c0.5,0,0.9,0.4,0.9,0.9v11.1c0,0.5-0.4,0.9-0.9,0.9h-2.7c-0.5,0-0.9-0.4-0.9-0.9V41.1
	C142.5,40.6,142.9,40.2,143.4,40.2z"/>
<path class="st1" d="M150.8,35.9h2.7c0.5,0,0.9,0.4,0.9,0.9v15.3c0,0.5-0.4,0.9-0.9,0.9h-2.7c-0.5,0-0.9-0.4-0.9-0.9V36.8
	C149.8,36.3,150.2,35.9,150.8,35.9z"/>
<path class="st2" d="M125.1,56c3-1.5,6.2-2.6,9.5-3.2c3.3-0.7,6.6-1,10-1s6.7,0.3,10,1.1c3.3,0.7,6.5,1.8,9.6,3.2
	c-3.2-0.8-6.5-1.5-9.7-2c-3.3-0.5-6.5-0.7-9.8-0.7C138,53.3,131.4,54.2,125.1,56z"/>
<path class="st2" d="M12.6,97.7v-2.3C11.9,96.3,11,97,10,97.5c-1.1,0.5-2.3,0.7-3.5,0.7c-1.1,0-2.1-0.2-3-0.9
	c-0.9-0.5-1.6-1.2-2.1-2.1s-0.9-2-0.9-2.8c0-0.9,0.2-1.8,0.5-2.5c0.4-0.7,1.1-1.2,1.6-1.8c0.9-0.5,1.6-0.9,2.5-1.1
	c0.9-0.2,2-0.4,2.8-0.4s1.8,0.2,2.7,0.2c0.5,0.2,1.2,0.4,1.8,0.5v-1.1c0.2-1.1-0.4-2-1.1-2.7c-0.9-0.7-2-1.1-3-1.1
	c-1.1,0-2,0.2-2.8,0.5c-1.1,0.4-2,0.9-2.8,1.4l-1.4-2.8C2.2,81,3.4,80.5,4.7,80c1.2-0.4,2.7-0.5,3.9-0.5c1.4,0,3,0.2,4.4,0.9
	c1.2,0.5,2.1,1.4,2.8,2.5c0.5,1.2,0.9,2.7,0.9,4.1v10.6L12.6,97.7z M11.7,93.1c0.4-0.4,0.7-0.9,0.9-1.2v-2.1
	c-0.5-0.2-1.2-0.4-1.8-0.5C10.3,89,9.6,89,9.1,89S8,89.2,7.7,89.2c-0.4,0-0.9,0.4-1.2,0.5c-0.4,0.2-0.7,0.5-0.9,0.9
	c-0.2,0.4-0.4,0.9-0.4,1.2c0,0.5,0.2,1.1,0.4,1.4c0.4,0.4,0.7,0.7,1.1,0.9c0.5,0.2,1.1,0.4,1.4,0.4c0.4,0,1.1-0.2,1.4-0.2
	c0.5-0.2,0.9-0.4,1.4-0.5C11,93.8,11.6,93.6,11.7,93.1z"/>
<path class="st2" d="M39.6,98.1c-1.2,0-2.7-0.4-3.7-0.9c-1.1-0.5-2-1.4-2.7-2.5v3h-4.1v-25h4.6v10.5c0.5-1.1,1.4-1.8,2.5-2.5
	c1.1-0.5,2.5-1.1,3.5-0.9c1.1,0,2.1,0.2,3.2,0.7c1.1,0.5,1.8,1.2,2.5,2.1c0.7,0.9,1.2,2,1.6,3c0.4,1.1,0.5,2.3,0.5,3.5
	s-0.2,2.5-0.7,3.5c-0.4,1.1-1.1,2.1-1.8,2.8c-0.7,0.9-1.6,1.4-2.7,2C41.9,97.9,40.8,98.2,39.6,98.1z M38.3,94.2
	c0.7,0,1.4-0.2,2.1-0.4c0.5-0.4,1.1-0.5,1.6-1.1c0.4-0.5,0.9-1.1,1.1-1.8c0.2-0.7,0.4-1.4,0.4-2.1c0-0.9-0.2-1.8-0.5-2.7
	s-0.9-1.6-1.6-2.1c-0.7-0.5-1.6-0.9-2.5-0.9c-0.7,0-1.2,0.2-2,0.5c-0.5,0.4-1.2,0.7-1.6,1.2c-0.5,0.5-0.9,1.1-1.1,1.8V91
	c0.2,0.4,0.4,0.9,0.7,1.2s0.7,0.7,1.1,0.9c0.4,0.2,0.9,0.4,1.2,0.5C37.6,93.8,38,94,38.3,94.2L38.3,94.2L38.3,94.2z"/>
<path class="st2" d="M62.1,97.7v-2.3c-0.7,0.9-1.6,1.6-2.7,2.1c-1.1,0.5-2.3,0.7-3.5,0.7c-1.1,0-2.1-0.2-3-0.9
	c-0.9-0.5-1.6-1.2-2.1-2.1s-0.9-2-0.9-2.8c0-0.9,0.2-1.8,0.5-2.5c0.4-0.7,1.1-1.2,1.8-1.8c0.7-0.5,1.6-0.9,2.5-1.1
	c0.9-0.2,2-0.4,2.8-0.4c0.9,0,1.8,0.2,2.7,0.2c0.5,0.2,1.2,0.4,1.8,0.5v-1.1c0.2-1.1-0.4-2-1.1-2.7c-0.9-0.7-2-1.1-3-1.1
	c-1.1,0-2,0.2-2.8,0.5c-1.1,0.4-2,0.9-3,1.6l-1.4-2.8c1.1-0.7,2.3-1.2,3.5-1.8c1.2-0.4,2.7-0.5,3.9-0.5c1.4,0,3,0.4,4.4,0.9
	c1.2,0.5,2.1,1.4,2.8,2.5c0.7,1.2,1.1,2.7,0.9,3.9v10.6L62.1,97.7z M61,93.1c0.4-0.4,0.7-0.9,0.9-1.2v-2.1c-0.5-0.2-1.2-0.4-1.8-0.5
	C59.6,89,58.9,89,58.4,89c-0.5,0-1.1,0.2-1.4,0.2c-0.5,0.2-0.9,0.4-1.2,0.5c-0.4,0.2-0.7,0.5-0.9,0.9c-0.2,0.4-0.4,0.9-0.4,1.2
	c0,0.5,0.2,1.1,0.4,1.4c0.4,0.4,0.7,0.7,1.1,0.9c0.5,0.2,1.1,0.4,1.4,0.4s1.1-0.2,1.4-0.2c0.5-0.2,0.9-0.4,1.2-0.5
	C60.5,93.8,60.9,93.6,61,93.1z"/>
<path class="st2" d="M78.8,98.1c-1.4,0-2.7-0.2-4.1-0.7c-1.1-0.5-2.1-1.2-3-2.1s-1.4-2-2-3c-0.5-1.1-0.5-2.3-0.5-3.5
	c0-1.6,0.4-3.2,1.1-4.6c0.9-1.4,2-2.7,3.4-3.4c1.4-0.9,3.4-1.2,5-1.2c1.8-0.2,3.5,0.4,5,1.2c1.2,0.9,2.5,2,3,3.4l-4.4,1.4
	c-0.4-0.5-0.9-1.2-1.4-1.4c-1.4-0.9-3-0.7-4.4,0.2c-0.7,0.4-1.2,1.1-1.8,1.8c-0.4,0.9-0.7,1.8-0.5,2.8c0,1.1,0.2,2,0.5,2.8
	s1.1,1.4,1.8,2c1.2,0.7,2.7,0.9,3.9,0.4c0.5-0.2,0.9-0.4,1.2-0.9c0.4-0.4,0.7-0.7,0.9-1.1l4.4,1.4c-0.4,0.9-1.1,1.8-1.8,2.5
	c-0.9,0.7-1.8,1.2-2.8,1.8C81.3,97.9,80,98.1,78.8,98.1z"/>
<path class="st2" d="M102,97.7l-5.1-7.6l-2.5,2.5v5.3h-4.6V72.7h4.6V88l7.3-8h5l-6.7,7.4l7.3,10.3L102,97.7L102,97.7z"/>
<path class="st2" d="M125.4,98.1c-1.4,0-2.7-0.2-3.9-0.9c-1.1-0.5-2.1-1.2-3-2.1s-1.4-1.8-2-2.8c-0.4-1.1-0.5-2.3-0.5-3.5
	s0.2-2.5,0.5-3.5c0.4-1.1,1.1-2.1,2-2.8c0.9-0.9,1.8-1.6,3-2.1c1.2-0.5,2.7-0.9,3.9-0.7c1.4,0,2.7,0.2,4.1,0.7
	c1.1,0.5,2.1,1.2,3,2.1c0.9,0.9,1.4,1.8,2,2.8c0.4,1.1,0.7,2.3,0.5,3.5c0,1.2-0.2,2.5-0.5,3.5c-0.4,1.1-1.1,2.1-2,2.8
	c-0.9,0.9-2,1.6-3,2.1C128.1,97.9,126.8,98.2,125.4,98.1z M120.8,88.8c0,0.9,0.2,2,0.5,2.7c0.4,0.9,1.1,1.4,1.8,2
	c0.7,0.4,1.6,0.7,2.5,0.7s1.8-0.2,2.5-0.7c0.7-0.5,1.2-1.1,1.8-2c0.4-0.9,0.5-1.8,0.5-2.8c0-0.9-0.2-2-0.5-2.7
	c-0.4-0.9-1.1-1.4-1.8-2c-0.7-0.5-1.4-0.7-2.5-0.7c-0.9,0-1.8,0.2-2.5,0.7c-0.7,0.5-1.2,1.1-1.8,2C121,86.9,120.8,88,120.8,88.8z"/>
<path class="st2" d="M138.7,97.7V84.2h-2.5v-3.5h2.5v-1.1c0-1.2,0.2-2.7,0.7-3.9c0.4-1.1,1.2-2,2.1-2.5c0.9-0.5,2-0.9,3-0.9
	c0.9,0,1.4,0.2,2.3,0.4c0.7,0.2,1.4,0.4,2.1,0.9l-0.9,3.5c-0.4-0.2-0.9-0.4-1.2-0.5c-0.4-0.2-0.9-0.2-1.2-0.2
	c-0.7,0-1.4,0.4-1.8,0.9c-0.5,0.7-0.7,1.4-0.5,2.5V81h4.4v3.5h-4.4v13.5L138.7,97.7z"/>
<path class="st2" d="M151.5,97.7V84.2H149v-3.5h2.5v-1.1c0-1.2,0.2-2.7,0.9-3.9c0.4-1.1,1.2-2,2.1-2.5c0.9-0.5,2-0.9,3-0.9
	c0.9,0,1.4,0.2,2.3,0.4c0.7,0.2,1.4,0.4,2.1,0.9l-0.9,3.5c-0.4-0.2-0.9-0.4-1.2-0.5c-0.4-0.2-0.9-0.2-1.2-0.2
	c-0.7-0.2-1.4,0.4-1.8,0.9c-0.4,0.7-0.5,1.4-0.5,2.5V81h4.4v3.5h-4.4v13.5L151.5,97.7z"/>
<path class="st2" d="M163,77.3v-4.4h4.6v4.4H163z M163,97.7V79.8h4.6v17.9L163,97.7L163,97.7z"/>
<path class="st2" d="M180.2,98.1c-1.4,0-2.7-0.2-4.1-0.7c-1.1-0.5-2.1-1.2-3-2.1c-0.9-0.9-1.4-2-2-3c-1.1-2.7-0.9-5.7,0.5-8.2
	c0.9-1.4,2-2.7,3.4-3.4c1.4-0.9,3.4-1.2,5-1.2c1.8-0.2,3.5,0.4,5,1.2c1.2,0.9,2.5,2,3,3.4l-4.4,1.4c-0.4-0.5-0.9-1.2-1.4-1.4
	c-1.4-0.9-3-0.7-4.4,0.2c-0.7,0.4-1.2,1.1-1.8,1.8c-0.5,0.9-0.7,1.8-0.5,2.8c0,1.1,0.2,2,0.5,2.8c0.4,0.9,1.1,1.4,1.8,2
	c1.2,0.7,2.7,0.9,3.9,0.4c0.5-0.2,0.9-0.4,1.2-0.9c0.4-0.4,0.7-0.7,0.9-1.1l4.4,1.4c-0.4,0.9-1.1,1.8-1.8,2.5
	c-0.9,0.7-1.8,1.2-2.8,1.8C182.7,97.9,181.4,98.1,180.2,98.1z"/>
<path class="st2" d="M199.3,98.1c-1.2,0-2.7-0.2-3.9-0.7c-1.1-0.5-2.1-1.2-3-2.1c-0.9-0.9-1.4-1.8-2-2.8c-0.4-1.1-0.7-2.1-0.7-3.4
	c0-1.6,0.4-3.2,1.1-4.6c0.9-1.4,2-2.7,3.4-3.4c1.4-0.9,3.4-1.2,5.1-1.2c1.8-0.2,3.5,0.4,5,1.2c1.4,0.9,2.5,2,3.2,3.4
	c0.9,1.4,1.1,2.8,1.1,4.4c0,0.4,0,0.5,0,0.9s0,0.5,0,0.7h-13.8c0.2,1.8,1.1,3,2.5,3.9c0.7,0.4,1.4,0.5,2.1,0.5
	c0.9,0,1.8-0.2,2.7-0.7c0.9-0.4,1.2-1.1,1.8-1.8l3.9,1.1c-0.4,0.9-1.1,1.8-1.8,2.5c-0.9,0.7-1.8,1.2-2.8,1.8
	C201.8,97.9,200.6,98.2,199.3,98.1z M194.5,87.4h9.4c-0.2-0.9-0.4-1.6-0.9-2.3c-0.4-0.7-1.1-1.2-1.8-1.4c-0.7-0.4-1.4-0.5-2.3-0.5
	c-0.9,0-1.6,0.2-2.3,0.5c-0.7,0.4-1.2,0.9-1.6,1.4C194.9,85.8,194.7,86.5,194.5,87.4z"/>
<path class="st2" d="M237.1,93.6v4.3h-16.8V73.4h16.7v4.3H225v5.9h10.3v3.7H225v6.4H237.1z"/>
<path class="st2" d="M240.8,97.7V73.4h10.8c1.1,0,2.1,0.2,3,0.7c0.9,0.5,1.8,1.1,2.5,1.8c0.7,0.9,1.2,1.8,1.6,2.7
	c0.4,0.9,0.5,2,0.5,3c0,1.1-0.2,2-0.5,2.8c-0.4,0.9-0.9,1.8-1.4,2.5c-0.7,0.7-1.4,1.2-2.3,1.6l5.5,9.2h-5.1l-5-8.2h-4.8v8.2
	L240.8,97.7z M245.6,85.5h5.9c0.5,0,1.1-0.2,1.6-0.5c0.5-0.4,0.9-0.9,1.1-1.4c0.4-0.7,0.4-1.4,0.4-2.1c0-1.4-0.5-2.7-1.8-3.4
	c-0.5-0.4-1.1-0.5-1.6-0.5h-5.9L245.6,85.5L245.6,85.5z"/>
<path class="st2" d="M263.7,97.7V73.4H274c1.1,0,2.1,0.2,3,0.7c0.9,0.4,1.8,1.1,2.5,1.8c0.7,0.9,1.2,1.8,1.6,2.7s0.5,2,0.5,3
	c0,1.4-0.4,2.7-0.9,3.9s-1.4,2.3-2.7,3c-1.2,0.9-2.7,1.2-4.1,1.2h-5.9v8.2C268.3,97.7,263.7,97.7,263.7,97.7z M268.5,85.5h5.5
	c0.5,0,1.1-0.2,1.6-0.5c0.5-0.4,0.9-0.9,1.1-1.4c0.4-0.7,0.4-1.4,0.4-2.1c0-0.7-0.2-1.4-0.5-2.1c-0.4-0.5-0.7-1.1-1.2-1.2
	c-0.5-0.4-1.1-0.5-1.6-0.5h-5.3v8H268.5z"/>
</svg>
