<svg xmlns="http://www.w3.org/2000/svg" width="281.65" height="77.34" viewBox="0 0 281.65 77.34"><g id="Layer_2" data-name="Layer 2"><g id="Layer_1-2" data-name="Layer 1"><path d="M22.64,59.61a28.54,28.54,0,0,1-11.39-2.13,17.51,17.51,0,0,1-7.69-6.21A17.46,17.46,0,0,1,.78,41.16V12.64H13.7V39.69c0,6,3,9,8.94,9a9.13,9.13,0,0,0,6.56-2.21c1.55-1.48,2.31-3.71,2.31-6.79v-27H44.43V41.16a17.86,17.86,0,0,1-2.72,10.11,17.19,17.19,0,0,1-7.65,6.21A28.65,28.65,0,0,1,22.64,59.61Z" transform="translate(-0.39)" fill="#08a039"/><path d="M44,13V41.16a17.51,17.51,0,0,1-2.65,9.89,16.82,16.82,0,0,1-7.49,6.07,28.21,28.21,0,0,1-11.26,2.1,28.21,28.21,0,0,1-11.24-2.1,17.09,17.09,0,0,1-7.51-6.07,17,17,0,0,1-2.72-9.89V13H13.31V39.69c0,6.14,3.23,9.39,9.33,9.39a9.55,9.55,0,0,0,6.83-2.31c1.63-1.57,2.43-3.88,2.43-7.08V13H44m.78-.78H31.12V39.69c0,2.94-.72,5.1-2.19,6.51a8.73,8.73,0,0,1-6.29,2.1c-5.67,0-8.54-2.85-8.54-8.61V12.25H.39V41.16A17.91,17.91,0,0,0,3.24,51.49a17.81,17.81,0,0,0,7.85,6.35A28.81,28.81,0,0,0,22.64,60a28.88,28.88,0,0,0,11.57-2.16A17.59,17.59,0,0,0,42,51.49a18.43,18.43,0,0,0,2.78-10.33V12.25Z" transform="translate(-0.39)" fill="#fff"/><path d="M55.57,58.86l14-8.76h4.17a6.43,6.43,0,0,0,4.36-1.29,5.22,5.22,0,0,0,1.45-4.14,5.32,5.32,0,0,0-.06-.81l10.13-6.32A8.06,8.06,0,0,1,91,39c1.13,1.39,1.7,3.53,1.7,6.36,0,4.29-1.32,7.66-3.94,10s-6.46,3.53-11.34,3.53ZM51.44,12.64H76.86c4.67,0,8.24,1.11,10.63,3.28s3.59,5.28,3.59,9.32a12.36,12.36,0,0,1-1.3,5.94,11.64,11.64,0,0,1-2.38,3l0,0-10.07,6.2a8,8,0,0,0-3.84-.75H63.86v9L51.44,56.33ZM63.86,31.42h9.28c3.6,0,5.43-1.66,5.43-4.93a4.88,4.88,0,0,0-1.31-3.69c-.9-.86-2.4-1.3-4.47-1.3H63.86Z" transform="translate(-0.39)" fill="#08a039"/><path d="M76.86,13c4.57,0,8,1.07,10.37,3.18s3.46,5.11,3.46,9A12,12,0,0,1,89.44,31a11.12,11.12,0,0,1-2.26,2.89l0,0L77.28,40a8.78,8.78,0,0,0-3.83-.69h-10v9.17L51.83,55.63V13h25M63.47,31.81h9.67C78,31.81,79,28.92,79,26.49a5.28,5.28,0,0,0-1.43-4c-1-.93-2.56-1.4-4.74-1.4H63.47v10.7M89.58,38a7.38,7.38,0,0,1,1.16,1.2c1.07,1.32,1.61,3.37,1.61,6.11,0,4.17-1.28,7.44-3.8,9.7s-6.31,3.44-11.09,3.44H56.93l12.74-8h4.06a6.77,6.77,0,0,0,4.61-1.38,5.59,5.59,0,0,0,1.59-4.44,6.08,6.08,0,0,0,0-.61l9.68-6M76.86,12.25H51.05V57l13.2-8.14V40.07h9.2a7.38,7.38,0,0,1,3.85.81l10.26-6.32.07,0a12.13,12.13,0,0,0,2.5-3.16,12.84,12.84,0,0,0,1.34-6.13c0-4.16-1.25-7.39-3.72-9.61s-6.1-3.38-10.89-3.38ZM64.25,31V21.89h8.54c2,0,3.38.41,4.2,1.19a4.57,4.57,0,0,1,1.19,3.41c0,3-1.66,4.54-5,4.54Zm25.38,6L79.05,43.67a4.58,4.58,0,0,1,.1,1,4.88,4.88,0,0,1-1.32,3.85,6,6,0,0,1-4.1,1.19H69.45L54.21,59.25H77.46c5,0,8.88-1.22,11.61-3.63s4.06-5.88,4.06-10.29c0-2.91-.59-5.14-1.78-6.61a8.74,8.74,0,0,0-1.72-1.66Z" transform="translate(-0.39)" fill="#fff"/><path d="M98.66,58.86V39.67l12.92,9.85v9.34Zm0-24.15V25.07h12.46l.38,3,.51-.29a26.76,26.76,0,0,1,5.33-2.22,28.19,28.19,0,0,1,6.13-1.2v9.44c-1.11.1-2.34.27-3.8.48s-2.83.54-4.32.91a22,22,0,0,0-3.55,1.25l-.22.1v8Z" transform="translate(-0.39)" fill="#ff3600"/><path d="M123.08,24.77v8.67c-1,.1-2.15.25-3.48.44s-2.85.55-4.36.93a21.73,21.73,0,0,0-3.6,1.26l-.45.22v7.49L99.05,34.52V25.46h11.73l.26,2.06.14,1.17,1-.59a27.31,27.31,0,0,1,5.26-2.18,28.6,28.6,0,0,1,5.62-1.15m-24,15.69,12.14,9.26v8.75H99.05v-18m24.81-16.54a29.47,29.47,0,0,0-6.63,1.25,27.24,27.24,0,0,0-5.42,2.26l-.34-2.76H98.26V34.91L112,45.36V36.78a22.08,22.08,0,0,1,3.47-1.22c1.38-.34,2.82-.65,4.29-.9s2.88-.41,4.13-.51V23.92Zm-25.6,15V59.25H112V49.33L98.26,38.88Z" transform="translate(-0.39)" fill="#fff"/><path d="M125.44,45.63a25.92,25.92,0,0,1-.25-3.65c0-5.72,1.63-10.13,4.85-13.11s8.24-4.56,15-4.56a29,29,0,0,1,10.18,1.58Z" transform="translate(-0.39)" fill="#006a99"/><path d="M145,24.71A30.09,30.09,0,0,1,154.32,26L125.75,45a26.78,26.78,0,0,1-.17-3c0-5.61,1.59-9.92,4.73-12.83s8.08-4.44,14.7-4.44m0-.79c-6.85,0-11.95,1.57-15.24,4.67s-5,7.54-5,13.39a26.84,26.84,0,0,0,.34,4.32L156,25.8a28.19,28.19,0,0,0-11-1.88Z" transform="translate(-0.39)" fill="#fff"/><path d="M145,59.61c-6.76,0-11.81-1.51-15-4.5a3.9,3.9,0,0,1-.61-.63,13.6,13.6,0,0,1-2.94-4.8L159.07,28c.36.28.71.57,1,.87,3.24,3,4.88,7.38,4.88,13.11,0,5.46-1.4,9.56-4.27,12.52a3.21,3.21,0,0,1-.57.6C156.94,58.1,151.85,59.61,145,59.61Z" transform="translate(-0.39)" fill="#006a99"/><path d="M159.05,28.49c.28.22.54.44.8.67,3.15,2.89,4.75,7.2,4.75,12.82,0,5.35-1.36,9.36-4.16,12.25l0,0,0,0a3.17,3.17,0,0,1-.49.51c-3.12,2.91-8.12,4.39-14.86,4.39s-11.61-1.48-14.75-4.41a3.59,3.59,0,0,1-.55-.57l0,0,0,0a13,13,0,0,1-2.72-4.34l32.12-21.34m0-1-33.1,22a14.13,14.13,0,0,0,3.09,5.19,4.75,4.75,0,0,0,.66.69C133,58.47,138.1,60,145,60s12.11-1.53,15.4-4.6a4.37,4.37,0,0,0,.59-.63c2.94-3,4.38-7.29,4.38-12.79,0-5.85-1.66-10.33-5-13.39-.4-.38-.84-.72-1.28-1.07Z" transform="translate(-0.39)" fill="#fff"/><path d="M195.81,58.86l-8.69-13-3.29,3.3v9.75H170.9V34.48l10.4,9,1.06.9,1.17-.67L199.11,35l-4,4.23,14.32,19.64ZM170.9,29.31V10.45h12.93V35.32L194,25.07H208.5l-.4.42-25.27,14.1Z" transform="translate(-0.39)" fill="#ff3600"/><path d="M183.43,10.84V36.27l1.34-1.34,9.41-9.47h13.17L182.87,39.12l-11.58-10V10.84h12.14M171.29,35.33l9.76,8.4.84.72.42.35.48-.26.93-.53,13.35-7.44-2,2.15-.45.47.38.53,13.68,18.75H196L187.71,46l-.52-.8-.68.68-2.85,2.84-.23.23v9.53H171.29V35.33m12.93-25.27H170.51V29.49l12.27,10.58L208.34,25.8l1.06-1.13H193.85l-9.63,9.7V10.06ZM201.14,33.4l-17.8,9.92-.94.53-.84-.72-11.05-9.51V59.25h13.71v-10l2.84-2.85,8.55,12.83h14.58l-14.58-20,5.53-5.86Z" transform="translate(-0.39)" fill="#fff"/><path d="M250.87,58.87V25.06h12.47l.4,3,.51-.3a25.41,25.41,0,0,1,5.32-2.23,28.27,28.27,0,0,1,6.13-1.19v9.43c-1.17.11-2.45.27-3.8.49s-2.95.55-4.34.92A20.43,20.43,0,0,0,264,36.43l-.22.1V58.87Z" transform="translate(-0.39)" fill="#08a039"/><path d="M275.31,24.79v8.65c-1.09.1-2.25.25-3.47.45-1.5.25-3,.56-4.38.93a22.55,22.55,0,0,0-3.6,1.25l-.44.22V58.48H251.26v-33H263l.28,2.09.15,1.17,1-.59a25,25,0,0,1,5.23-2.19,27.57,27.57,0,0,1,5.63-1.14m.78-.85a28.27,28.27,0,0,0-6.64,1.24,26.44,26.44,0,0,0-5.4,2.26l-.37-2.77h-13.2V59.26H264.2V36.78a19.66,19.66,0,0,1,3.46-1.2,43.77,43.77,0,0,1,4.31-.91c1.48-.25,2.85-.42,4.12-.52V23.94Z" transform="translate(-0.39)" fill="#fff"/><path d="M229.24,59.61a26.28,26.28,0,0,1-10.54-2,15.23,15.23,0,0,1-7.06-5.86A16.67,16.67,0,0,1,209.23,44c-.07-.71-.12-1.35-.12-2a16.6,16.6,0,0,1,.11-1.75c0-.27.05-.55.07-.82a16.81,16.81,0,0,1,4.4-10.33,12,12,0,0,1,2-1.7l6.65,6.68A6.82,6.82,0,0,0,221,38.6V39h12.95V37.38a5.06,5.06,0,0,0-.31-1.83,4.63,4.63,0,0,0-.46-1l8-5.07.06.06A14.79,14.79,0,0,1,245,40v5.64H220.81l.18.52a6.74,6.74,0,0,0,3.94,4.18,19.89,19.89,0,0,0,7.66,1.19,32.83,32.83,0,0,0,6.08-.54,27.7,27.7,0,0,0,4.39-1.1v7.44C239.74,58.85,235.09,59.61,229.24,59.61Z" transform="translate(-0.39)" fill="#08a039"/><path d="M215.61,28l6.17,6.2a7.47,7.47,0,0,0-1.21,4.45v.78h13.74v-2a5.42,5.42,0,0,0-.33-2,4.62,4.62,0,0,0-.3-.72L241.1,30a14.41,14.41,0,0,1,3.47,10v5.25h-24.3l.35,1a7.12,7.12,0,0,0,4.16,4.41,20.24,20.24,0,0,0,7.81,1.22,35.7,35.7,0,0,0,10.08-1.48v6.64c-3.26,1.41-7.77,2.13-13.43,2.13a26,26,0,0,1-10.39-2A14.91,14.91,0,0,1,212,51.54,16.17,16.17,0,0,1,209.62,44a19.59,19.59,0,0,1-.12-2,15.66,15.66,0,0,1,.11-1.7c0-.28,0-.56.07-.82A16.42,16.42,0,0,1,214,29.4,10.63,10.63,0,0,1,215.61,28m.08-1a13.47,13.47,0,0,0-2.28,1.94,17.31,17.31,0,0,0-4.51,10.57c-.06.85-.18,1.69-.18,2.6,0,.69.06,1.38.12,2A17,17,0,0,0,211.31,52a15.58,15.58,0,0,0,7.23,6,26.76,26.76,0,0,0,10.7,2c6.07,0,10.83-.81,14.21-2.41V49.33a24.39,24.39,0,0,1-4.85,1.28,32.21,32.21,0,0,1-6,.54A19.75,19.75,0,0,1,225.08,50a6.33,6.33,0,0,1-3.72-4h24V40a15.19,15.19,0,0,0-3.82-10.67c-.1-.13-.19-.22-.28-.35l-8.67,5.48a3.91,3.91,0,0,1,.66,1.22,5,5,0,0,1,.28,1.69V38.6H221.36a6.26,6.26,0,0,1,1.4-4.41s.07-.07.1-.07l-7.17-7.19Z" transform="translate(-0.39)" fill="#fff"/><path d="M229.3,32.41a7.88,7.88,0,0,0-1.53-.12,11.85,11.85,0,0,0-1.68.1l-6.79-6.82a23.71,23.71,0,0,1,8-1.26,20,20,0,0,1,10.6,2.62Z" transform="translate(-0.39)" fill="#08a039"/><path d="M227.33,24.71a20.17,20.17,0,0,1,9.85,2.23l-8,5a10.13,10.13,0,0,0-1.45-.09,13.81,13.81,0,0,0-1.54.08L220,25.74a23.77,23.77,0,0,1,7.31-1m0-.79a23.06,23.06,0,0,0-8.73,1.51L226,32.81a11.33,11.33,0,0,1,1.81-.13,8.78,8.78,0,0,1,1.6.13h0l9.26-5.88a19.94,19.94,0,0,0-11.33-3Z" transform="translate(-0.39)" fill="#fff"/><path d="M241.34,28.5c-.15-.18-.31-.35-.48-.52a8.62,8.62,0,0,0-1.16-.85l-.29-.19,36.41-23L273.67.54l7.86,1.39L279.2,9.28l-2.14-3.37Z" transform="translate(-0.39)" fill="#006a99"/><path d="M274.48,1.08,281,2.24l-1.94,6.12L277.6,6l-.42-.66-.66.41L241.41,28l-.3-.31a7.87,7.87,0,0,0-1-.74L275.7,4.48l.66-.42-.42-.66-1.46-2.32M272.87,0l2.41,3.82L238.67,26.94a2.48,2.48,0,0,1,.5.31,13.21,13.21,0,0,1,1.41,1c.25.25.47.5.69.76L276.94,6.45l2.38,3.75L282,1.63,272.87,0Z" transform="translate(-0.39)" fill="#fff"/><rect x="135.06" y="44.46" width="4.53" height="8.61" rx="0.91" fill="#fff"/><rect x="142.44" y="40.19" width="4.53" height="12.89" rx="0.91" fill="#fff"/><rect x="149.83" y="35.91" width="4.53" height="17.16" rx="0.91" fill="#fff"/><path d="M125.47,56A38.11,38.11,0,0,1,135,52.75a46.32,46.32,0,0,1,10-1,44.52,44.52,0,0,1,10,1.07A43.87,43.87,0,0,1,164.57,56a89.87,89.87,0,0,0-9.73-2,66,66,0,0,0-9.82-.69A70.73,70.73,0,0,0,125.47,56Z" transform="translate(-0.39)" fill="#ff3600"/><path d="M153.07,77.17V76a2.91,2.91,0,0,1-1.25,1,3.91,3.91,0,0,1-1.66.34,3.11,3.11,0,0,1-1.5-.36,2.8,2.8,0,0,1-1-1,2.54,2.54,0,0,1-.37-1.37,2.3,2.3,0,0,1,.29-1.18,2.49,2.49,0,0,1,.79-.86,3.86,3.86,0,0,1,1.18-.53,5.24,5.24,0,0,1,1.39-.17,6.51,6.51,0,0,1,1.23.1,3.45,3.45,0,0,1,.87.27v-.5a1.64,1.64,0,0,0-.49-1.27,2,2,0,0,0-1.43-.46,3.83,3.83,0,0,0-1.34.24,7.43,7.43,0,0,0-1.36.71l-.67-1.38a7.72,7.72,0,0,1,1.69-.81,6.13,6.13,0,0,1,1.89-.29,5,5,0,0,1,2.14.41,2.93,2.93,0,0,1,1.32,1.21A3.63,3.63,0,0,1,155.2,72v5.15ZM152.63,75a.82.82,0,0,0,.36-.61v-1a5.53,5.53,0,0,0-.87-.23,4.59,4.59,0,0,0-.87-.09,3,3,0,0,0-.72.09,2.51,2.51,0,0,0-.63.25,1.11,1.11,0,0,0-.43.4,1.07,1.07,0,0,0-.16.59,1.2,1.2,0,0,0,.2.67,1.39,1.39,0,0,0,.54.45,1.64,1.64,0,0,0,.74.16,2.72,2.72,0,0,0,.69-.09,2.41,2.41,0,0,0,.65-.24A1.5,1.5,0,0,0,152.63,75Z" transform="translate(-0.39)" fill="#ff3600"/><path d="M166,77.34a3.44,3.44,0,0,1-1.76-.45A3.2,3.2,0,0,1,163,75.68v1.49h-1.93v-12h2.19v5A3.56,3.56,0,0,1,164.46,69a3.35,3.35,0,0,1,1.75-.44,3.25,3.25,0,0,1,1.53.35,3.69,3.69,0,0,1,1.2,1,4.94,4.94,0,0,1,.78,1.43A5.27,5.27,0,0,1,170,73a4.53,4.53,0,0,1-.32,1.71,4.27,4.27,0,0,1-.86,1.4,3.85,3.85,0,0,1-1.27.94A3.7,3.7,0,0,1,166,77.34Zm-.62-1.88a2.48,2.48,0,0,0,1-.19,2.19,2.19,0,0,0,.76-.54,2.61,2.61,0,0,0,.49-.8,2.84,2.84,0,0,0,.17-1,3,3,0,0,0-.28-1.26,2.31,2.31,0,0,0-.79-1,2,2,0,0,0-1.19-.36,2,2,0,0,0-.91.23,2.59,2.59,0,0,0-.77.59,2.93,2.93,0,0,0-.55.83v2a2.28,2.28,0,0,0,.34.59,2.17,2.17,0,0,0,.51.45,3.81,3.81,0,0,0,.62.28A2,2,0,0,0,165.33,75.46Z" transform="translate(-0.39)" fill="#ff3600"/><path d="M176.74,77.17V76a3,3,0,0,1-1.25,1,3.94,3.94,0,0,1-1.66.34,3.15,3.15,0,0,1-1.51-.36,2.7,2.7,0,0,1-1-1,2.54,2.54,0,0,1-.38-1.37,2.4,2.4,0,0,1,.29-1.18,2.52,2.52,0,0,1,.8-.86,3.91,3.91,0,0,1,1.17-.53,5.35,5.35,0,0,1,1.39-.17,6.7,6.7,0,0,1,1.24.1,3.45,3.45,0,0,1,.87.27v-.5a1.64,1.64,0,0,0-.5-1.27,2,2,0,0,0-1.43-.46,3.87,3.87,0,0,0-1.34.24A7.37,7.37,0,0,0,172,71l-.68-1.38a7.8,7.8,0,0,1,1.7-.81,6.13,6.13,0,0,1,1.89-.29,5.11,5.11,0,0,1,2.14.41,2.93,2.93,0,0,1,1.32,1.21,3.72,3.72,0,0,1,.45,1.89v5.15ZM176.3,75a.82.82,0,0,0,.36-.61v-1a6.17,6.17,0,0,0-.87-.23,4.61,4.61,0,0,0-.88-.09,2.88,2.88,0,0,0-.71.09,2.24,2.24,0,0,0-.63.25,1.14,1.14,0,0,0-.44.4,1.16,1.16,0,0,0-.16.59,1.13,1.13,0,0,0,.21.67,1.36,1.36,0,0,0,.53.45,1.64,1.64,0,0,0,.74.16,2.86,2.86,0,0,0,.7-.09,2.48,2.48,0,0,0,.64-.24A1.54,1.54,0,0,0,176.3,75Z" transform="translate(-0.39)" fill="#ff3600"/><path d="M184.78,77.34a5,5,0,0,1-1.9-.35,4.06,4.06,0,0,1-1.42-1,4.26,4.26,0,0,1-.91-1.42,4.73,4.73,0,0,1-.31-1.68,4.55,4.55,0,0,1,.54-2.19,4.18,4.18,0,0,1,1.57-1.61,4.66,4.66,0,0,1,2.41-.6,4.52,4.52,0,0,1,2.41.61,3.77,3.77,0,0,1,1.48,1.59l-2.14.66a2,2,0,0,0-.74-.73,2.16,2.16,0,0,0-2.16.06,2.23,2.23,0,0,0-.81.88,2.78,2.78,0,0,0-.31,1.33,2.87,2.87,0,0,0,.31,1.33,2.22,2.22,0,0,0,.81.9,2.21,2.21,0,0,0,1.89.19,2.27,2.27,0,0,0,.64-.37,1.56,1.56,0,0,0,.42-.52l2.13.66a3.37,3.37,0,0,1-.86,1.15,4.14,4.14,0,0,1-1.33.8A4.88,4.88,0,0,1,184.78,77.34Z" transform="translate(-0.39)" fill="#ff3600"/><path d="M195.93,77.17l-2.51-3.68-1.19,1.14v2.54H190v-12h2.19v7.3l3.49-3.83h2.33l-3.2,3.62,3.43,4.91Z" transform="translate(-0.39)" fill="#ff3600"/><path d="M207.15,77.34a4.72,4.72,0,0,1-1.89-.36,4.3,4.3,0,0,1-1.42-1,4.42,4.42,0,0,1-.9-1.4,4.66,4.66,0,0,1-.3-1.67,4.8,4.8,0,0,1,.3-1.71,4.18,4.18,0,0,1,.89-1.4,4.09,4.09,0,0,1,1.43-1,4.69,4.69,0,0,1,1.87-.35,4.74,4.74,0,0,1,1.9.35,4.15,4.15,0,0,1,1.42,1,4.08,4.08,0,0,1,.91,1.4,4.6,4.6,0,0,1,.31,1.71,4.46,4.46,0,0,1-.31,1.67,4.28,4.28,0,0,1-.91,1.4A4.2,4.2,0,0,1,209,77,4.67,4.67,0,0,1,207.15,77.34Zm-2.26-4.41a2.84,2.84,0,0,0,.3,1.31,2.22,2.22,0,0,0,.81.9,2.1,2.1,0,0,0,1.15.32,2,2,0,0,0,1.13-.33,2.46,2.46,0,0,0,.82-.9,2.79,2.79,0,0,0,.3-1.32,2.73,2.73,0,0,0-.3-1.29,2.42,2.42,0,0,0-.82-.91,2.06,2.06,0,0,0-1.15-.33,2,2,0,0,0-1.13.33,2.31,2.31,0,0,0-.81.91A2.78,2.78,0,0,0,204.89,72.93Z" transform="translate(-0.39)" fill="#ff3600"/><path d="M213.53,77.17V70.69h-1.14V69h1.14v-.51a4.56,4.56,0,0,1,.35-1.85,2.86,2.86,0,0,1,1-1.21,2.68,2.68,0,0,1,1.51-.43,4.45,4.45,0,0,1,1.08.14,5.17,5.17,0,0,1,1,.37l-.43,1.66a2.19,2.19,0,0,0-.58-.22,2.81,2.81,0,0,0-.62-.07,1,1,0,0,0-.86.39,1.87,1.87,0,0,0-.29,1.14V69h2.11v1.69h-2.11v6.48Z" transform="translate(-0.39)" fill="#ff3600"/><path d="M219.61,77.17V70.69h-1.13V69h1.13v-.51a4.39,4.39,0,0,1,.36-1.85,2.77,2.77,0,0,1,1-1.21,2.7,2.7,0,0,1,1.51-.43,4.38,4.38,0,0,1,1.08.14,5,5,0,0,1,1,.37l-.43,1.66a2.27,2.27,0,0,0-.59-.22,2.79,2.79,0,0,0-.61-.07,1,1,0,0,0-.87.39,1.88,1.88,0,0,0-.28,1.14V69h2.1v1.69h-2.1v6.48Z" transform="translate(-0.39)" fill="#ff3600"/><path d="M225.17,67.34V65.17h2.19v2.17Zm0,9.83V68.56h2.19v8.61Z" transform="translate(-0.39)" fill="#ff3600"/><path d="M233.38,77.34a4.88,4.88,0,0,1-1.9-.35,4,4,0,0,1-1.42-1,4.26,4.26,0,0,1-.91-1.42,4.71,4.71,0,0,1,.23-3.87,4.09,4.09,0,0,1,1.56-1.61,4.7,4.7,0,0,1,2.42-.6,4.51,4.51,0,0,1,2.4.61,3.71,3.71,0,0,1,1.48,1.59l-2.14.66a1.86,1.86,0,0,0-.74-.73,2.14,2.14,0,0,0-2.15.06,2.23,2.23,0,0,0-.81.88,2.67,2.67,0,0,0-.31,1.33,2.75,2.75,0,0,0,.31,1.33,2.22,2.22,0,0,0,.81.9,2.2,2.2,0,0,0,1.89.19,2.22,2.22,0,0,0,.63-.37,1.34,1.34,0,0,0,.42-.52l2.14.66a3.51,3.51,0,0,1-.86,1.15,4.14,4.14,0,0,1-1.33.8A4.92,4.92,0,0,1,233.38,77.34Z" transform="translate(-0.39)" fill="#ff3600"/><path d="M242.55,77.34a4.87,4.87,0,0,1-1.87-.35,4.09,4.09,0,0,1-1.43-1,4.24,4.24,0,0,1-.91-1.39A4.64,4.64,0,0,1,238,73a4.57,4.57,0,0,1,.55-2.22,4.26,4.26,0,0,1,1.56-1.62,4.62,4.62,0,0,1,2.43-.61,4.51,4.51,0,0,1,2.4.61,4.25,4.25,0,0,1,1.55,1.6,4.48,4.48,0,0,1,.54,2.17c0,.14,0,.27,0,.4s0,.23,0,.32h-6.64a2.23,2.23,0,0,0,1.19,1.88,2.3,2.3,0,0,0,1.06.25,2.51,2.51,0,0,0,1.26-.32,1.71,1.71,0,0,0,.8-.86l1.87.53a3.58,3.58,0,0,1-.87,1.16,4.23,4.23,0,0,1-1.37.8A5.11,5.11,0,0,1,242.55,77.34Zm-2.25-5.12h4.51a2.61,2.61,0,0,0-.37-1.11,2.1,2.1,0,0,0-.8-.74,2.27,2.27,0,0,0-1.1-.27,2.16,2.16,0,0,0-1.08.27,2.08,2.08,0,0,0-.79.74A2.48,2.48,0,0,0,240.3,72.22Z" transform="translate(-0.39)" fill="#ff3600"/><path d="M260.68,75.18v2h-8.11V65.5h8v2h-5.69V70.3h4.9v1.84h-4.9v3Z" transform="translate(-0.39)" fill="#ff3600"/><path d="M262.45,77.17V65.5h5.18a3.38,3.38,0,0,1,1.48.33,3.92,3.92,0,0,1,1.18.88,4.27,4.27,0,0,1,.77,1.25,3.89,3.89,0,0,1,.27,1.42,4,4,0,0,1-.25,1.41,3.86,3.86,0,0,1-.73,1.2,3.26,3.26,0,0,1-1.12.79l2.66,4.39h-2.5L267,73.26h-2.27v3.91Zm2.27-5.9h2.85a1.19,1.19,0,0,0,.75-.25,1.77,1.77,0,0,0,.53-.69,2.24,2.24,0,0,0,.2-1,2,2,0,0,0-.81-1.65,1.29,1.29,0,0,0-.76-.24h-2.76Z" transform="translate(-0.39)" fill="#ff3600"/><path d="M273.39,77.17V65.5h4.95a3.39,3.39,0,0,1,1.49.33,3.76,3.76,0,0,1,1.17.88,4.27,4.27,0,0,1,.77,1.25,3.89,3.89,0,0,1,.27,1.42,4.24,4.24,0,0,1-.44,1.87,3.84,3.84,0,0,1-1.26,1.45,3.32,3.32,0,0,1-1.9.56h-2.78v3.91Zm2.27-5.9h2.63a1.34,1.34,0,0,0,.76-.23,1.55,1.55,0,0,0,.52-.67,2.57,2.57,0,0,0,.18-1,2.15,2.15,0,0,0-.22-1,1.7,1.7,0,0,0-.57-.64,1.41,1.41,0,0,0-.77-.22h-2.53Z" transform="translate(-0.39)" fill="#ff3600"/></g></g></svg>